<svg width="175" height="175" viewBox="0 0 175 175" fill="none" xmlns="http://www.w3.org/2000/svg">
<path d="M32.7007 98.7784C31.3851 100.474 29.9157 101.668 28.2925 102.36C26.6659 103.024 24.977 103.196 23.2258 102.875C21.4593 102.541 19.7204 101.711 18.009 100.383C16.2977 99.0559 15.0688 97.584 14.3223 95.9677C13.5758 94.3514 13.3298 92.6789 13.5843 90.9501C13.8354 89.1939 14.6187 87.4679 15.9343 85.772C16.8193 84.6311 17.7765 83.7314 18.8059 83.0729C19.8473 82.399 20.9412 81.9758 22.0876 81.8032L23.693 84.6044C22.545 84.8745 21.5845 85.2531 20.8116 85.7401C20.0352 86.1997 19.3122 86.8612 18.6424 87.7246C17.3627 89.3743 16.8831 91.0272 17.2035 92.6834C17.5204 94.3122 18.5962 95.8382 20.4309 97.2615C22.2656 98.6847 24.0189 99.3533 25.6908 99.2673C27.3746 99.166 28.8564 98.2904 30.1361 96.6408C30.8059 95.7774 31.2745 94.9185 31.5421 94.0642C31.8063 93.1825 31.9188 92.1462 31.8796 90.9551L34.992 91.8137C35.0944 92.955 34.9564 94.1198 34.578 95.308C34.2115 96.4807 33.5858 97.6375 32.7007 98.7784Z" fill="white"/>
<path d="M43.6257 87.5921C42.4656 88.5774 41.2596 89.192 40.0077 89.4361C38.7558 89.6801 37.5192 89.5655 36.2981 89.0923C35.0918 88.6064 33.9771 87.7611 32.9539 86.5564C31.9308 85.3517 31.2834 84.1223 31.0119 82.8682C30.7426 81.5865 30.8297 80.3477 31.2732 79.1518C31.7167 77.9559 32.5185 76.8653 33.6786 75.8801C34.8386 74.8949 36.0446 74.2802 37.2965 74.0361C38.5633 73.7794 39.7999 73.8941 41.0062 74.38C42.2147 74.8384 43.3305 75.6699 44.3536 76.8746C45.3768 78.0792 46.023 79.3224 46.2923 80.6041C46.5765 81.8731 46.4894 83.1119 46.031 84.3204C45.5875 85.5163 44.7857 86.6069 43.6257 87.5921ZM41.8068 85.4505C42.6842 84.7053 43.1243 83.8067 43.1269 82.7548C43.117 81.6881 42.5815 80.5301 41.5204 79.2808C40.4594 78.0315 39.4097 77.323 38.3713 77.1554C37.3329 76.9877 36.3749 77.2765 35.4975 78.0217C34.62 78.767 34.1799 79.6655 34.1773 80.7174C34.1746 81.7692 34.7038 82.9198 35.7648 84.1691C36.8258 85.4184 37.8819 86.1343 38.9329 86.3169C39.9713 86.4845 40.9293 86.1957 41.8068 85.4505Z" fill="white"/>
<path d="M51.175 81.2816L46.3207 71.3072C46.056 70.7633 45.7695 70.2192 45.4612 69.6748C45.1529 69.1305 44.8313 68.6034 44.4964 68.0937L47.6808 66.5439L49.2248 69.0476L48.909 69.2013C48.8775 68.0664 49.1545 67.0527 49.7401 66.1602C50.3171 65.25 51.1495 64.5303 52.2372 64.0009C53.7987 63.2409 55.1877 63.1075 56.4042 63.6005C57.6207 64.0935 58.6814 65.2699 59.5866 67.1296L63.5443 75.2617L60.2546 76.8628L56.3737 68.8885C55.8528 67.8183 55.2709 67.1576 54.6278 66.9063C53.9937 66.629 53.2644 66.691 52.4397 67.0923C51.4221 67.5876 50.7688 68.2961 50.4796 69.2181C50.1905 70.14 50.3021 71.1273 50.8144 72.18L54.4647 79.6805L51.175 81.2816Z" fill="white"/>
<path d="M72.3956 73.7063C71.1236 73.9074 69.9488 73.7869 68.8715 73.3448C67.8103 72.8804 66.92 72.1223 66.2006 71.0705C65.4812 70.0187 64.9966 68.7026 64.7468 67.1222C64.4969 65.5418 64.5535 64.15 64.9164 62.9469C65.2763 61.7244 65.8909 60.7383 66.7601 59.9885C67.6455 59.2164 68.7243 58.7298 69.9963 58.5287C71.2105 58.3368 72.3274 58.4664 73.3469 58.9176C74.3827 59.3465 75.134 60.0377 75.6008 60.9912L75.225 61.0506L73.6986 51.3947L77.3123 50.8235L80.6759 72.1011L77.12 72.6632L76.631 69.5698L76.9779 69.515C76.8341 70.6045 76.3387 71.5323 75.4918 72.2983C74.6611 73.042 73.6291 73.5113 72.3956 73.7063ZM72.9687 70.771C74.1058 70.5913 74.9588 70.0515 75.5278 69.1516C76.0936 68.2324 76.2486 66.9634 75.9927 65.3444C75.7367 63.7255 75.1994 62.5758 74.3807 61.8952C73.5619 61.2147 72.584 60.9643 71.4469 61.1441C70.3097 61.3239 69.4471 61.8652 68.8589 62.7681C68.29 63.668 68.1335 64.9274 68.3894 66.5464C68.6453 68.1653 69.1842 69.3247 70.006 70.0245C70.844 70.7019 71.8316 70.9508 72.9687 70.771Z" fill="white"/>
<path d="M83.9659 72.5241L84.607 57.7573L88.2622 57.916L87.6211 72.6828L83.9659 72.5241ZM84.5229 54.9705L84.6778 51.4031L88.7423 51.5795L88.5874 55.147L84.5229 54.9705Z" fill="white"/>
<path d="M96.9795 74.3142C95.2481 74.0208 94.0165 73.347 93.2848 72.2929C92.553 71.2387 92.3404 69.8074 92.6469 67.999L93.7863 61.2753L90.9871 60.8009L91.4468 58.0883L94.246 58.5627L94.8768 54.8401L98.6404 54.5279L97.8531 59.174L101.749 59.8341L101.289 62.5467L97.3934 61.8865L96.2931 68.3794C96.1236 69.3798 96.197 70.1146 96.5133 70.5838C96.8296 71.053 97.3244 71.3447 97.9978 71.4588C98.3633 71.5207 98.676 71.5441 98.9359 71.5287C99.215 71.5166 99.4877 71.4837 99.7541 71.4299L99.27 74.2868C98.9201 74.366 98.5383 74.4003 98.1245 74.3895C97.7267 74.4013 97.3451 74.3762 96.9795 74.3142Z" fill="white"/>
<path d="M100.81 74.9898L104.865 60.776L108.383 61.7796L104.329 75.9934L100.81 74.9898ZM105.43 58.0459L106.41 54.6121L110.322 55.728L109.343 59.1619L105.43 58.0459Z" fill="white"/>
<path d="M113.519 79.7591C112.12 79.1605 111.032 78.3554 110.255 77.3439C109.478 76.3324 109.029 75.1746 108.908 73.8705C108.804 72.5742 109.063 71.1994 109.685 69.7463C110.307 68.2932 111.118 67.1653 112.119 66.3627C113.146 65.5499 114.294 65.0751 115.562 64.9385C116.83 64.8019 118.164 65.0329 119.563 65.6315C120.963 66.2301 122.051 67.0352 122.828 68.0467C123.623 69.0659 124.072 70.2237 124.175 71.5201C124.304 72.8062 124.058 74.1758 123.436 75.6289C122.814 77.0821 121.99 78.215 120.963 79.0279C119.954 79.8484 118.807 80.3232 117.521 80.4521C116.253 80.5887 114.919 80.3577 113.519 79.7591ZM114.625 77.1758C115.683 77.6286 116.684 77.6215 117.626 77.1546C118.576 76.6698 119.374 75.6739 120.018 74.1669C120.663 72.66 120.829 71.4044 120.516 70.4003C120.202 69.3961 119.517 68.6676 118.458 68.2148C117.4 67.762 116.399 67.7691 115.457 68.236C114.514 68.7029 113.72 69.6899 113.076 71.1968C112.431 72.7038 112.262 73.9683 112.567 74.9904C112.88 75.9945 113.566 76.723 114.625 77.1758Z" fill="white"/>
<path d="M122.542 83.4865L128.5 74.1295C128.825 73.6192 129.139 73.0903 129.441 72.5426C129.744 71.995 130.024 71.4451 130.283 70.8929L133.271 72.7951L131.946 75.4211L131.649 75.2325C132.6 74.6117 133.609 74.3171 134.676 74.3488C135.753 74.3641 136.802 74.6966 137.823 75.3464C139.287 76.2791 140.128 77.3927 140.345 78.6873C140.562 79.9819 140.114 81.5015 139.004 83.2462L134.146 90.875L131.06 88.91L135.823 81.4293C136.462 80.4253 136.721 79.5835 136.598 78.9041C136.503 78.2186 136.068 77.6296 135.294 77.1371C134.34 76.5292 133.394 76.3434 132.457 76.5796C131.52 76.8158 130.737 77.4277 130.109 78.4152L125.628 85.4516L122.542 83.4865Z" fill="white"/>
<path d="M140.913 96.9381C139.926 96.111 139.253 95.1524 138.893 94.0622C138.546 92.957 138.533 91.7877 138.854 90.5544C139.174 89.3211 139.848 88.0912 140.876 86.8647C141.904 85.6383 142.99 84.7667 144.136 84.2501C145.294 83.7185 146.441 83.5342 147.577 83.6971C148.726 83.845 149.794 84.3325 150.781 85.1596C151.739 85.9616 152.376 86.9026 152.693 87.9827C153.037 89.0604 152.997 90.0959 152.572 91.0891L152.325 90.8823L154.564 88.7109L157.257 90.9666C156.823 91.3926 156.384 91.8262 155.938 92.2672C155.507 92.7208 155.097 93.1794 154.709 93.643L147.585 102.146L144.803 99.8152L146.735 97.4631L147.004 97.6887C146.114 98.266 145.107 98.4794 143.986 98.329C142.865 98.1787 141.84 97.715 140.913 96.9381ZM143.503 95.4422C144.385 96.1815 145.353 96.4701 146.405 96.308C147.47 96.131 148.528 95.4142 149.581 94.1579C150.633 92.9015 151.147 91.7411 151.123 90.6768C151.098 89.6124 150.645 88.7106 149.762 87.9712C148.88 87.2319 147.912 86.9433 146.86 87.1054C145.808 87.2675 144.755 87.9767 143.703 89.2331C142.65 90.4895 142.122 91.6511 142.12 92.7179C142.144 93.7822 142.605 94.6903 143.503 95.4422Z" fill="white"/>
<path d="M149.953 104.431L164.554 88.5929L167.244 91.0728L152.642 106.911L149.953 104.431Z" fill="white"/>
</svg>
