<svg width="54" height="62" viewBox="0 0 54 62" fill="none" xmlns="http://www.w3.org/2000/svg">
<path d="M47.9237 25.0866C47.6158 25.3776 47.3078 25.6686 46.984 25.9704C46.1557 20.8144 41.9589 14.692 36.5565 12.5305C37.2417 12.0043 37.8483 11.5351 38.3599 11.1351C45.778 5.34552 57.928 15.5836 47.9237 25.0866Z" fill="#C95A6E"/>
<path d="M46.9786 25.9233C46.3661 26.4971 45.7192 27.0815 45.0404 27.6897C44.9257 27.7967 44.8038 27.8997 44.6855 28.0146C44.0623 28.5726 43.4229 29.1419 42.76 29.7193C33.0081 38.255 19.6763 48.6245 17.0522 50.2208C16.8324 50.3612 16.6872 50.4332 16.6285 50.4317C15.749 50.4647 4.64793 50.3816 3.65489 49.4633C2.66581 48.538 4.18855 37.3547 5.01586 36.2355C5.01586 36.2355 21.6207 23.8327 32.0509 15.9139C32.7792 15.3609 33.4805 14.8242 34.1416 14.3245C34.2398 14.248 34.3346 14.1796 34.4293 14.1111C35.1933 13.5281 35.8981 12.9833 36.5479 12.4874C41.9516 14.6496 46.1497 20.7698 46.9786 25.9233Z" fill="#EBCD43"/>
<path d="M45.1198 28.2931C44.4929 22.3367 39.0742 14.7552 32.3859 13.5649C31.8326 13.4666 30.2742 14.9589 32.2918 16.0813C34.372 17.2388 35.7571 18.1574 37.3779 19.9888C39.6591 22.5661 41.4763 25.406 42.1758 28.8074C42.5672 30.7063 45.3205 30.1995 45.1198 28.2931Z" fill="#7EB3CE"/>
<path d="M45.113 28.2569C44.958 28.2157 44.8149 28.1509 44.6884 28.0556C44.4155 27.8643 44.2065 27.5503 44.1161 27.1206C43.419 23.7278 41.5982 20.8782 39.3172 18.3094C37.6936 16.4747 36.3088 15.5577 34.2353 14.4009L34.1505 14.3567C33.8692 14.181 33.6624 14.0146 33.5212 13.8335C32.6897 12.8319 33.8601 11.8034 34.3298 11.8809C35.0936 12.0132 35.8326 12.2316 36.5551 12.5189C41.9563 14.6811 46.1522 20.8057 46.9805 25.9635C47.016 26.1778 47.04 26.3966 47.0634 26.6144C47.1911 27.8771 46.0221 28.524 45.113 28.2569Z" fill="#7EB3CE"/>
<path d="M17.0499 50.1865C16.8302 50.3271 16.6851 50.3993 16.6264 50.3978C15.9962 50.4237 10.0378 50.3884 6.39963 50.0187C4.98969 49.8844 3.93502 49.6901 3.65471 49.4365C3.37123 49.172 3.28681 48.0496 3.34483 46.5597C3.48273 42.8956 4.42202 36.9909 5.00921 36.1979C5.25623 36.0812 7.6635 35.8209 8.11919 36.0578C8.56708 36.2906 8.15001 39.6232 8.34265 39.7232C8.53598 39.8234 11.9307 39.3218 12.1545 39.683C12.3783 40.0441 12.232 42.9683 12.3263 43.184C12.4205 43.3997 15.5068 43.4921 15.8137 43.7692C16.1163 44.0541 15.0058 46.7416 15.0886 46.9027C15.1601 47.0676 17.629 47.1234 17.8824 47.3339C18.0873 47.5088 17.4403 49.3398 17.0499 50.1865Z" fill="#FFDAB6"/>
<path d="M6.3959 49.9996C4.98633 49.8653 3.93193 49.6709 3.65168 49.4173C3.36826 49.1526 3.2838 48.0296 3.34172 46.539C4.05542 46.6354 4.75829 46.981 5.33269 47.5537C6.03033 48.2498 6.38928 49.143 6.3959 49.9996Z" fill="#281608"/>
<path d="M35.1964 19.3779C30.7363 22.1232 26.5299 25.3556 22.2612 28.3871C18.2082 31.2661 14.0651 34.0891 10.2467 37.2767C10.1953 37.3191 10.2659 37.3984 10.3195 37.3652C14.6555 34.6753 18.7512 31.5696 22.9027 28.6066C27.0562 25.6427 31.3814 22.8378 35.3776 19.6653C35.5457 19.5327 35.387 19.2606 35.1964 19.3779Z" fill="#D29F5E"/>
<path d="M39.8174 25.7676C32.2861 31.4358 24.345 36.8112 17.2001 42.9609C17.1349 43.0171 17.2249 43.1206 17.2949 43.0753C25.1737 37.9215 32.5217 31.7847 40.0428 26.1238C40.2577 25.9618 40.0337 25.6038 39.8174 25.7676Z" fill="#D29F5E"/>
</svg>
