<svg width="91" height="89" viewBox="0 0 91 89" fill="none" xmlns="http://www.w3.org/2000/svg">
<path d="M59.5173 34.757C55.9982 36.9426 50.5584 37.9062 46.3378 37.5635C45.8063 37.5234 48.0775 29.6458 54.1474 26.7344C56.8159 25.4547 59.6953 25.0869 62.5851 24.654C66.1274 24.1297 69.5647 23.3363 72.9552 22.2157C73.4286 22.0526 64.9193 31.3851 59.5173 34.757Z" fill="#CDD14B"/>
<path d="M66.9154 25.9921C67.1017 25.9171 67.0258 25.5863 66.82 25.641C58.8452 27.7774 50.0208 31.0136 45.6528 38.536C45.6013 38.6234 45.7089 38.7032 45.7789 38.6296C51.7298 32.3474 59.036 29.156 66.9154 25.9921Z" fill="#B2B238"/>
<path d="M46.3729 37.5408C46.3645 37.4811 46.3567 37.4222 46.3482 37.3624C46.1878 37.2942 46.07 37.1473 46.0999 36.9312C46.1408 36.7075 46.1894 36.4949 46.2304 36.2712C45.5036 30.0009 46.5226 23.7154 49.5727 18.1112C51.7414 14.1081 56.3598 8.51266 61.1995 12.3015C61.4095 12.4654 61.3787 12.7968 61.1577 12.9496C53.312 18.7705 48.245 27.394 46.9309 37.0747C46.9114 37.2345 46.8269 37.3257 46.7236 37.3642C46.7321 37.4239 46.7322 37.4717 46.733 37.5204C46.7664 37.7569 46.4063 37.7774 46.3729 37.5408Z" fill="#CDD14B"/>
<path d="M47.2055 35.5255C45.4776 34.383 41.1633 25.5379 32.0789 24.7677C23.0025 23.9982 12.5657 34.7536 15.2264 53.4734C16.4954 62.3994 22.2474 74.2411 25.888 74.7167C29.5295 75.1916 30.0001 75.2385 32.0981 75.6809C34.1953 76.1241 35.874 78.4295 38.9518 79.8013C42.0296 81.173 50.6376 76.3598 52.771 74.7298C57.296 71.2707 76.9726 55.9239 67.1396 42.2891C59.5872 31.8138 49.1054 36.782 47.2055 35.5255Z" fill="#FC477E"/>
</svg>
