<svg width="138" height="159" viewBox="0 0 138 159" fill="none" xmlns="http://www.w3.org/2000/svg">
<path d="M32.972 134.322C32.3763 136.384 31.4521 138.037 30.1995 139.279C28.9335 140.498 27.4275 141.281 25.6817 141.63C23.9171 141.973 21.9943 141.844 19.9136 141.243C17.8328 140.642 16.1469 139.728 14.8559 138.502C13.565 137.276 12.7183 135.813 12.3159 134.113C11.9001 132.388 11.9901 130.495 12.5859 128.433C12.9866 127.046 13.5436 125.856 14.2568 124.864C14.9754 123.853 15.8354 123.055 16.8369 122.471L19.3638 124.481C18.3969 125.156 17.6444 125.863 17.1061 126.601C16.5546 127.315 16.1272 128.197 15.8239 129.246C15.2444 131.252 15.4096 132.965 16.3194 134.386C17.2158 135.782 18.7795 136.803 21.0102 137.447C23.241 138.092 25.1172 138.065 26.639 137.367C28.1662 136.651 29.2195 135.29 29.799 133.284C30.1022 132.234 30.2203 131.263 30.1533 130.37C30.0729 129.453 29.7944 128.449 29.3179 127.356L32.5272 127.004C33.0441 128.027 33.3464 129.16 33.4338 130.404C33.5267 131.629 33.3728 132.935 32.972 134.322Z" fill="white"/>
<path d="M38.6753 119.758C38.0321 121.138 37.1926 122.199 36.1566 122.944C35.1207 123.688 33.9491 124.099 32.6419 124.179C31.3429 124.241 29.9771 123.937 28.5447 123.27C27.1122 122.602 26.011 121.754 25.2409 120.728C24.4614 119.676 24.0237 118.513 23.9278 117.242C23.8319 115.97 24.1055 114.644 24.7487 113.265C25.3919 111.885 26.2314 110.823 27.2673 110.079C28.3115 109.317 29.4831 108.906 30.7821 108.844C32.0717 108.756 33.4327 109.046 34.8651 109.714C36.2976 110.382 37.4036 111.242 38.1831 112.295C38.9708 113.33 39.4086 114.492 39.4962 115.781C39.5921 117.053 39.3185 118.379 38.6753 119.758ZM36.1287 118.571C36.6152 117.527 36.6402 116.527 36.2038 115.57C35.7496 114.605 34.7798 113.776 33.2943 113.083C31.8088 112.391 30.5592 112.185 29.5455 112.466C28.5319 112.746 27.7818 113.409 27.2953 114.452C26.8088 115.495 26.7837 116.496 27.2202 117.453C27.6567 118.41 28.6176 119.235 30.1031 119.927C31.5886 120.62 32.8471 120.83 33.8784 120.557C34.8921 120.276 35.6422 119.614 36.1287 118.571Z" fill="white"/>
<path d="M42.87 110.695L33.5194 104.727C33.0095 104.402 32.4809 104.087 31.9335 103.784C31.3862 103.481 30.8366 103.2 30.2847 102.94L32.1901 99.9551L34.8147 101.283L34.6258 101.579C34.006 100.628 33.7125 99.619 33.7453 98.552C33.7618 97.4745 34.0954 96.4258 34.7462 95.4061C35.6805 93.9422 36.7951 93.1026 38.0899 92.8874C39.3847 92.6721 40.9038 93.1208 42.6473 94.2336L50.2709 99.0993L48.3026 102.183L40.827 97.4121C39.8237 96.7717 38.9822 96.5124 38.3026 96.6342C37.6171 96.7291 37.0276 97.1631 36.5342 97.9361C35.9254 98.8901 35.7385 99.8357 35.9737 100.773C36.2089 101.71 36.82 102.493 37.8068 103.123L44.8383 107.611L42.87 110.695Z" fill="white"/>
<path d="M56.1599 92.1845C55.3377 93.1757 54.3762 93.8612 53.2753 94.2409C52.1718 94.5932 51.0027 94.6121 49.7678 94.2976C48.5329 93.9831 47.2997 93.3151 46.0682 92.2936C44.8367 91.2721 43.9598 90.1898 43.4376 89.0468C42.9003 87.8913 42.7103 86.745 42.8677 85.6079C43.0224 84.4433 43.5109 83.3654 44.3331 82.3742C45.1179 81.4281 46.0421 80.7876 47.1056 80.4529C48.1666 80.0908 49.1872 80.1134 50.1675 80.5209L49.9245 80.8138L42.4004 74.5726L44.7362 71.7566L61.3163 85.5098L59.0179 88.2806L56.6075 86.2812L56.8317 86.0109C57.4434 86.9239 57.6843 87.9477 57.5545 89.0822C57.4221 90.1892 56.9572 91.2234 56.1599 92.1845ZM54.6513 89.6022C55.3863 88.7161 55.6702 87.7474 55.5029 86.6959C55.3206 85.6321 54.5987 84.5769 53.3372 83.5305C52.0756 82.484 50.9128 81.9758 49.8486 82.0057C48.7843 82.0356 47.8847 82.4936 47.1497 83.3796C46.4147 84.2657 46.1246 85.242 46.2795 86.3084C46.4467 87.3598 47.1611 88.4087 48.4227 89.4552C49.6842 90.5016 50.8546 91.0161 51.9338 90.9987C53.0105 90.9537 53.9163 90.4883 54.6513 89.6022Z" fill="white"/>
<path d="M63.7559 83.1853L53.2227 72.8161L55.7893 70.2089L66.3225 80.5781L63.7559 83.1853ZM51.0974 71.0115L48.5528 68.5064L51.4069 65.6072L53.9515 68.1122L51.0974 71.0115Z" fill="white"/>
<path d="M73.5712 74.2683C72.2666 75.4439 70.9739 75.9914 69.6932 75.911C68.4125 75.8305 67.1582 75.109 65.9304 73.7464L61.3652 68.6802L59.2561 70.5807L57.4144 68.5368L59.5235 66.6363L56.996 63.8314L59.087 60.6865L62.2414 64.1872L65.1768 61.5422L67.0185 63.586L64.0832 66.2311L68.4916 71.1234C69.1708 71.8771 69.7925 72.2756 70.3567 72.3188C70.9209 72.362 71.4567 72.155 71.9641 71.6978C72.2395 71.4496 72.4518 71.2189 72.6011 71.0056C72.7648 70.7792 72.9083 70.5449 73.0314 70.3026L74.9711 72.4552C74.8161 72.7787 74.606 73.0994 74.3408 73.4172C74.1031 73.7364 73.8466 74.0201 73.5712 74.2683Z" fill="white"/>
<path d="M76.3681 71.58L67.1574 60.02L70.0188 57.7401L79.2294 69.3001L76.3681 71.58ZM65.2645 57.973L63.0393 55.1803L66.2212 52.6451L68.4463 55.4378L65.2645 57.973Z" fill="white"/>
<path d="M87.5022 63.7679C86.2337 64.6089 84.9635 65.0766 83.6915 65.1708C82.4195 65.265 81.2052 65.005 80.0486 64.3905C78.9083 63.7653 77.9014 62.7941 77.028 61.4768C76.1545 60.1596 75.6572 58.8622 75.5359 57.5847C75.4201 56.2802 75.6532 55.0604 76.2351 53.9254C76.817 52.7903 77.7422 51.8023 79.0106 50.9612C80.2791 50.1202 81.5493 49.6525 82.8214 49.5583C84.1096 49.4533 85.3239 49.7134 86.4643 50.3386C87.6101 50.9367 88.6197 51.8944 89.4931 53.2117C90.3665 54.529 90.8611 55.8398 90.9769 57.1444C91.109 58.4381 90.8759 59.6579 90.2778 60.8037C89.6959 61.9388 88.7707 62.9268 87.5022 63.7679ZM85.9495 61.4261C86.9089 60.7899 87.4522 59.9497 87.5793 58.9055C87.6956 57.8451 87.3009 56.6319 86.3951 55.2658C85.4893 53.8998 84.5308 53.0721 83.5195 52.7828C82.5083 52.4934 81.5229 52.6668 80.5634 53.303C79.6039 53.9392 79.0606 54.7794 78.9335 55.8235C78.8065 56.8677 79.1958 58.0728 80.1016 59.4388C81.0073 60.8049 81.9712 61.6407 82.9933 61.9463C84.0046 62.2357 84.99 62.0623 85.9495 61.4261Z" fill="white"/>
<path d="M95.7711 58.2048L90.964 48.2077C90.7018 47.6626 90.4179 47.1171 90.1121 46.5713C89.8064 46.0255 89.4873 45.4969 89.1548 44.9856L92.3465 43.4508L93.8787 45.9618L93.5621 46.114C93.536 44.979 93.8178 43.9667 94.4076 43.0768C94.9888 42.1695 95.8246 41.4536 96.9149 40.9294C98.48 40.1768 99.8696 40.0499 101.084 40.5486C102.298 41.0474 103.353 42.2288 104.249 44.0928L108.169 52.2435L104.871 53.829L101.028 45.8365C100.512 44.7638 99.9336 44.1003 99.2917 43.8461C98.6589 43.5658 97.9293 43.6243 97.1028 44.0217C96.0829 44.5122 95.4261 45.2177 95.1327 46.1382C94.8392 47.0588 94.9461 48.0466 95.4535 49.1017L99.0683 56.6194L95.7711 58.2048Z" fill="white"/>
<path d="M116.81 49.7467C115.573 50.104 114.401 50.1274 113.296 49.817C112.186 49.4877 111.208 48.8459 110.364 47.8914C109.52 46.937 108.876 45.6911 108.432 44.1539C107.988 42.6167 107.871 41.2286 108.082 39.9898C108.288 38.7321 108.775 37.6774 109.545 36.8256C110.309 35.955 111.31 35.3411 112.547 34.9838C113.747 34.6374 114.883 34.6342 115.956 34.9742C117.042 35.2901 117.879 35.9015 118.466 36.8085L118.157 36.8978L117.605 33.8278L120.98 32.8533C121.091 33.4507 121.205 34.0575 121.322 34.6736C121.458 35.2843 121.61 35.8802 121.778 36.4614L124.855 47.1188L121.368 48.1257L120.496 45.2094L120.833 45.1119C120.815 46.1733 120.43 47.1273 119.679 47.9737C118.929 48.8201 117.972 49.4111 116.81 49.7467ZM117.015 46.763C118.121 46.4436 118.9 45.8022 119.353 44.8387C119.801 43.8564 119.797 42.578 119.342 41.0033C118.887 39.4286 118.212 38.3543 117.315 37.7806C116.418 37.2069 115.417 37.0797 114.311 37.3991C113.204 37.7185 112.425 38.36 111.972 39.3235C111.519 40.2869 111.52 41.556 111.975 43.1308C112.43 44.7055 113.099 45.7918 113.982 46.3896C114.879 46.9634 115.89 47.0878 117.015 46.763Z" fill="white"/>
<path d="M128.211 46.8108L125.257 25.4725L128.881 24.9708L131.835 46.3091L128.211 46.8108Z" fill="white"/>
</svg>
