<svg width="1440" height="43" viewBox="0 0 1440 43" fill="none" xmlns="http://www.w3.org/2000/svg">
<path d="M189.169 42.8645C94.9705 44.4612 23.807 31.5544 0 24.9014V0H1440V42.8645C1321.61 30.8891 1044.68 5.74086 884.075 0.950718C683.324 -5.03696 306.917 40.8686 189.169 42.8645Z" fill="white"/>
<mask id="mask0_28_1795" style="mask-type:alpha" maskUnits="userSpaceOnUse" x="0" y="0" width="1440" height="43">
<path d="M189.169 42.8645C94.9705 44.4612 23.807 31.5544 0 24.9014V0H1440V42.8645C1321.61 30.8891 1044.68 5.74086 884.075 0.950718C683.324 -5.03696 306.917 40.8686 189.169 42.8645Z" fill="white"/>
</mask>
<g mask="url(#mask0_28_1795)">
<line x1="34.5" y1="-125" x2="34.5" y2="643" stroke="#FEF4E8"/>
<line x1="139.577" y1="-125" x2="139.577" y2="643" stroke="#FEF4E8"/>
<line x1="244.654" y1="-125" x2="244.654" y2="643" stroke="#FEF4E8"/>
<line x1="349.731" y1="-125" x2="349.731" y2="643" stroke="#FEF4E8"/>
<line x1="454.808" y1="-125" x2="454.808" y2="643" stroke="#FEF4E8"/>
<line x1="559.885" y1="-125" x2="559.885" y2="643" stroke="#FEF4E8"/>
<line x1="664.962" y1="-125" x2="664.961" y2="643" stroke="#FEF4E8"/>
<line x1="770.038" y1="-125" x2="770.038" y2="643" stroke="#FEF4E8"/>
<line x1="875.115" y1="-125" x2="875.115" y2="643" stroke="#FEF4E8"/>
<line x1="980.192" y1="-125" x2="980.192" y2="643" stroke="#FEF4E8"/>
<line x1="1085.27" y1="-125" x2="1085.27" y2="643" stroke="#FEF4E8"/>
<line x1="1190.35" y1="-125" x2="1190.35" y2="643" stroke="#FEF4E8"/>
<line x1="1295.42" y1="-125" x2="1295.42" y2="643" stroke="#FEF4E8"/>
<line x1="1400.5" y1="-125" x2="1400.5" y2="643" stroke="#FEF4E8"/>
</g>
</svg>
