<svg width="85" height="59" viewBox="0 0 85 59" fill="none" xmlns="http://www.w3.org/2000/svg">
<path d="M1.49217 34.0976L47.0021 58.4813C48.0417 59.0411 49.3185 58.8985 50.2088 58.1241L83.9061 28.8371C85.4148 27.5256 85.1309 25.1079 83.3596 24.1816L37.6005 0.323043C36.5702 -0.21541 35.3161 -0.0714632 34.4351 0.68557L0.98838 29.4475C-0.521687 30.7457 -0.260469 33.154 1.49217 34.0976Z" fill="#6A7F89"/>
<path d="M76.8689 28.6105L64.058 39.7327L58.7681 44.3216L49.112 52.7196C48.3789 53.3567 47.3274 53.4846 46.4824 53.0221L35.2002 47.0632L30.5953 44.5935L16.4143 36.9445L15.0602 36.2275L11.0444 34.0603L8.44678 32.6582C7.88966 32.3717 7.52184 31.8932 7.34724 31.3681C7.04469 30.5071 7.26728 29.5035 8.03231 28.8344L17.0993 21.0429L31.2804 8.83701L35.5667 5.15581C36.2997 4.51873 37.3193 4.40679 38.1803 4.85328L41.6056 6.63789L54.082 13.1713L68.503 20.6283L73.2198 23.114L76.4065 24.7707C76.677 24.9146 76.9009 25.0892 77.0755 25.2971C77.3141 25.5677 77.49 25.8703 77.57 26.2048C77.8086 27.0325 77.6007 27.9734 76.8689 28.6105Z" fill="#281608"/>
<path d="M38.8107 10.1112C38.4175 10.7882 37.995 11.5572 37.5391 12.3476C35.3107 11.384 32.0533 11.416 30.1408 12.7621C27.9536 14.3028 26.9127 16.9245 27.831 18.9303C28.8906 21.2441 31.7788 20.6017 33.4635 19.4968C34.0912 19.0849 34.6563 18.6091 35.1908 18.1027C34.9402 19.2742 34.8922 20.4404 35.1908 21.5559C35.8278 23.943 38.3922 25.6983 40.6313 24.1323C41.2137 23.7244 40.7312 22.8674 40.1062 22.9327C33.5581 23.6138 38.9146 13.3632 40.1541 10.8602C40.542 10.0805 39.2558 9.34614 38.8107 10.1112ZM32.4718 18.1C30.8778 18.8543 29.2278 18.4425 29.3997 16.342C29.477 15.3931 30.2074 14.3921 30.9884 13.8137C32.4825 12.7088 35.0895 12.7368 37.058 13.162C35.8358 15.1865 34.3644 17.2043 32.4718 18.1Z" fill="#7EB3CE"/>
<path d="M57.1755 30.1899C55.6747 28.4279 53.409 28.1413 51.3298 28.7451C51.7336 28.4958 52.0988 28.2799 52.3334 28.1253C55.5281 26.0022 58.9548 24.2589 62.1055 22.0717C62.4787 21.8132 62.2588 21.1974 61.787 21.3213C58.4283 22.205 55.3589 23.7604 52.3854 25.5357C50.1756 26.8552 47.5127 28.3013 46.5464 30.8602C44.903 35.2145 49.3399 38.1333 53.2623 37.5056C56.8209 36.9338 60.0277 33.5379 57.1755 30.1899ZM52.0388 35.9409C49.0827 35.597 48.3057 33.7991 48.8828 32.4116C49.4226 31.1148 51.2538 30.2645 52.7932 30.2698C54.7698 30.2778 56.5238 31.4933 56.3065 33.3673C56.2185 34.1323 54.2646 36.1995 52.0388 35.9409Z" fill="#C95A6E"/>
<path d="M35.556 30.5511C37.6072 30.5244 38.5094 32.9501 38.5055 34.6321C38.5041 35.1146 39.1599 35.1652 39.3118 34.7414C40.1568 32.393 39.4824 29.7461 36.9567 28.7918C34.2711 27.7788 32.1066 29.6781 30.9324 31.9572C29.7409 34.2696 29.501 37.1325 31.4389 39.1263C33.3382 41.0802 36.8088 41.4814 39.0292 39.8874C39.3864 39.6315 39.2891 39.0157 38.7933 39.017C37.1407 39.0237 35.5066 39.4009 33.9726 38.5306C32.3985 37.6363 31.7921 35.9756 32.252 34.2456C32.6358 32.8062 33.818 30.5737 35.556 30.5511Z" fill="#CDD14B"/>
<g opacity="0.2">
<path d="M57.2686 14.764L15.9757 22.0064L31.2803 8.83566L41.6055 6.63785L57.2686 14.764Z" fill="white"/>
<path d="M73.2197 23.1127L11.0444 34.059L8.44677 32.6569C7.88966 32.3703 7.52183 31.8919 7.34723 31.3667L68.503 20.627L73.2197 23.1127Z" fill="white"/>
<path d="M64.0566 39.7327L58.7667 44.3216L35.2001 47.0618L30.5952 44.5922L64.0566 39.7327Z" fill="white"/>
<path d="M77.57 26.2047L16.4143 36.9445L15.0601 36.2274L77.0755 25.2971C77.3141 25.5676 77.49 25.8702 77.57 26.2047Z" fill="white"/>
</g>
</svg>
