<svg width="122" height="168" viewBox="0 0 122 168" fill="none" xmlns="http://www.w3.org/2000/svg">
<path d="M31.6558 147.771C31.5677 149.916 31.0631 151.74 30.142 153.245C29.2021 154.73 27.9258 155.849 26.313 156.603C24.6807 157.356 22.7825 157.688 20.6184 157.599C18.4543 157.51 16.5995 157.024 15.054 156.14C13.5085 155.257 12.3381 154.037 11.5427 152.481C10.7287 150.905 10.3658 149.044 10.4539 146.9C10.5132 145.457 10.7712 144.169 11.2279 143.035C11.6853 141.883 12.331 140.903 13.1648 140.098L16.0972 141.449C15.3187 142.335 14.7558 143.2 14.4086 144.045C14.0428 144.87 13.8374 145.828 13.7925 146.92C13.7068 149.006 14.2747 150.63 15.4963 151.794C16.6992 152.937 18.4606 153.556 20.7806 153.651C23.1007 153.747 24.9167 153.275 26.2289 152.235C27.5418 151.176 28.2411 149.603 28.3268 147.517C28.3717 146.425 28.2554 145.454 27.9779 144.603C27.6817 143.731 27.1723 142.822 26.4496 141.874L29.483 140.768C30.2284 141.639 30.7915 142.668 31.1723 143.855C31.5539 145.023 31.7151 146.328 31.6558 147.771Z" fill="white"/>
<path d="M33.8275 132.328C33.5136 133.817 32.9365 135.041 32.0961 136.001C31.2557 136.96 30.2079 137.627 28.9527 138C27.7014 138.355 26.3025 138.369 24.756 138.043C23.2095 137.717 21.9449 137.141 20.9623 136.316C19.9645 135.468 19.2749 134.435 18.8933 133.218C18.5117 132.001 18.4779 130.648 18.7918 129.158C19.1057 127.669 19.6828 126.445 20.5232 125.485C21.3676 124.507 22.4154 123.84 23.6666 123.486C24.9028 123.108 26.2942 123.082 27.8407 123.408C29.3872 123.734 30.6594 124.321 31.6571 125.17C32.6588 125.999 33.3484 127.032 33.726 128.268C34.1076 129.485 34.1414 130.838 33.8275 132.328ZM31.0781 131.748C31.3156 130.622 31.1133 129.642 30.4713 128.808C29.8103 127.971 28.6779 127.384 27.0741 127.046C25.4702 126.707 24.2065 126.79 23.2828 127.293C22.3592 127.797 21.7786 128.611 21.5412 129.738C21.3037 130.864 21.506 131.844 22.148 132.678C22.7899 133.511 23.9128 134.096 25.5166 134.434C27.1204 134.773 28.3937 134.692 29.3365 134.193C30.2601 133.689 30.8407 132.875 31.0781 131.748Z" fill="white"/>
<path d="M38.4728 116.435C37.9455 117.863 37.1962 118.99 36.2251 119.817C35.254 120.644 34.1204 121.151 32.8241 121.338C31.5346 121.506 30.1485 121.317 28.6659 120.769C27.1833 120.221 26.016 119.468 25.164 118.508C24.3004 117.524 23.7684 116.401 23.5681 115.142C23.3677 113.882 23.5312 112.538 24.0586 111.111C24.5859 109.683 25.3352 108.556 26.3063 107.729C27.2841 106.884 28.4178 106.377 29.7073 106.208C30.9853 106.015 32.3656 106.192 33.8482 106.739C35.3308 107.287 36.5039 108.053 37.3674 109.038C38.2378 110.004 38.7697 111.126 38.9633 112.404C39.1637 113.664 39.0002 115.007 38.4728 116.435ZM35.8371 115.461C36.236 114.381 36.1785 113.383 35.6647 112.465C35.1325 111.54 34.0977 110.794 32.5602 110.226C31.0227 109.658 29.7604 109.556 28.7733 109.919C27.7862 110.283 27.0932 111.004 26.6943 112.084C26.2954 113.164 26.3529 114.163 26.8667 115.081C27.3805 115.999 28.4062 116.742 29.9437 117.31C31.4813 117.878 32.7527 117.983 33.7581 117.626C34.7452 117.263 35.4382 116.541 35.8371 115.461Z" fill="white"/>
<path d="M42.0236 107.117L32.175 102.207C31.6162 101.928 31.0399 101.663 30.4463 101.41C29.8613 101.14 29.2808 100.905 28.7046 100.705L30.2849 97.536L34.0824 98.9716L33.8212 99.4955C33.0352 98.8855 32.4542 98.236 32.0782 97.5471C31.7109 96.8407 31.5356 96.1209 31.5522 95.3879C31.5688 94.6549 31.7513 93.9391 32.0996 93.2407C32.2563 92.9263 32.4 92.6818 32.5307 92.5072C32.6439 92.3238 32.7834 92.1535 32.949 91.9962L35.8172 93.4591C35.5121 93.7212 35.2811 93.9658 35.1243 94.1928C34.9762 94.4024 34.815 94.6818 34.6409 95.0311C34.2665 95.782 34.1059 96.4977 34.159 97.1783C34.2208 97.8414 34.4658 98.4432 34.894 98.9838C35.3309 99.5069 35.9073 99.9469 36.6232 100.304L43.6692 103.817L42.0236 107.117Z" fill="white"/>
<path d="M50.0281 93.1029C49.3376 94.19 48.4704 94.9914 47.4262 95.5072C46.3761 95.996 45.2187 96.1624 43.954 96.0064C42.6893 95.8504 41.3816 95.3435 40.0309 94.4857C38.6803 93.6279 37.6737 92.6651 37.0113 91.5971C36.3324 90.5187 35.9991 89.4056 36.0116 88.2577C36.018 87.083 36.3664 85.952 37.0568 84.8649C37.7159 83.8272 38.5518 83.0752 39.5645 82.6088C40.5712 82.1156 41.5865 82.0091 42.6104 82.2896L42.4064 82.6108L34.1543 77.3698L36.1157 74.2815L54.3001 85.8303L52.3701 88.8693L49.7264 87.1903L49.9147 86.8938C50.6368 87.7222 51.0051 88.7074 51.0196 89.8492C51.0281 90.9641 50.6976 92.0487 50.0281 93.1029ZM48.2054 90.7317C48.8226 89.7599 48.9818 88.7631 48.6831 87.7412C48.3679 86.7089 47.5185 85.7534 46.1349 84.8747C44.7513 83.9959 43.5335 83.6386 42.4816 83.8027C41.4297 83.9668 40.5951 84.5347 39.9779 85.5065C39.3607 86.4783 39.1963 87.4834 39.4845 88.5217C39.7833 89.5436 40.6244 90.4939 42.008 91.3726C43.3916 92.2513 44.6176 92.6139 45.686 92.4603C46.7484 92.2797 47.5882 91.7036 48.2054 90.7317Z" fill="white"/>
<path d="M56.4325 83.2211L44.6856 74.2501L46.9061 71.3424L58.6531 80.3134L56.4325 83.2211ZM42.3514 72.7253L39.5135 70.5581L41.9827 67.3248L44.8206 69.492L42.3514 72.7253Z" fill="white"/>
<path d="M60.591 77.6956L52.3667 70.2518C51.9182 69.8459 51.4494 69.4479 50.9603 69.0578C50.4711 68.6677 49.9761 68.2987 49.4753 67.9506L51.8518 65.3249L54.2183 67.072L53.9826 67.3324C53.5301 66.2912 53.409 65.2473 53.6193 64.2008C53.8152 63.1411 54.3191 62.1628 55.1309 61.2659C56.2962 59.9783 57.5352 59.3364 58.8477 59.3401C60.1603 59.3437 61.5833 60.0396 63.1168 61.4275L69.8222 67.4965L67.3671 70.209L60.7919 64.2579C59.9094 63.4592 59.123 63.0632 58.4326 63.0699C57.7409 63.0492 57.0873 63.3787 56.4719 64.0587C55.7124 64.8977 55.3705 65.7989 55.4461 66.7622C55.5217 67.7254 55.9936 68.5998 56.8616 69.3855L63.0461 74.9831L60.591 77.6956Z" fill="white"/>
<path d="M76.7421 61.6499C75.7678 62.4921 74.7138 63.0033 73.5801 63.1837C72.4337 63.3493 71.2774 63.1752 70.1112 62.6615C68.9451 62.1478 67.8388 61.2857 66.7925 60.0752C65.7462 58.8647 65.0597 57.6527 64.7329 56.4393C64.3935 55.211 64.395 54.0491 64.7375 52.9534C65.0673 51.8431 65.7194 50.8668 66.6937 50.0246C67.6385 49.208 68.6693 48.7297 69.7862 48.5896C70.9051 48.422 71.9208 48.6273 72.8333 49.2055L72.5897 49.4161L70.8045 46.8583L73.4617 44.5616C73.8129 45.0575 74.1706 45.5608 74.5346 46.0714C74.9134 46.5693 75.3006 47.0471 75.6961 47.5047L82.9501 55.8971L80.2043 58.2704L78.1917 55.9866L78.4574 55.757C78.8847 56.7287 78.9345 57.7561 78.6067 58.8389C78.2789 59.9218 77.6574 60.8588 76.7421 61.6499ZM75.6797 58.8542C76.5507 58.1014 76.9903 57.1927 76.9986 56.1281C76.9941 55.0487 76.456 53.889 75.3841 52.649C74.3123 51.409 73.2491 50.716 72.1945 50.5701C71.1399 50.4242 70.1771 50.7277 69.3061 51.4805C68.4352 52.2333 67.9955 53.1421 67.9873 54.2067C67.979 55.2713 68.5107 56.4236 69.5826 57.6636C70.6544 58.9036 71.7166 59.6104 72.7692 59.7838C73.8238 59.9297 74.794 59.6198 75.6797 58.8542Z" fill="white"/>
<path d="M91.0712 50.6429C89.6305 51.647 88.2797 52.0295 87.019 51.7904C85.7582 51.5512 84.6035 50.6792 83.5547 49.1745L79.6554 43.5796L77.3262 45.203L75.753 42.9459L78.0822 41.3225L75.9233 38.2249L78.3893 35.3646L81.0837 39.2306L84.3254 36.9713L85.8985 39.2284L82.6569 41.4877L86.4224 46.8904C87.0025 47.7229 87.5698 48.1956 88.1243 48.3086C88.6788 48.4216 89.2361 48.2829 89.7964 47.8924C90.1006 47.6804 90.34 47.4779 90.5146 47.2848C90.7052 47.0806 90.8767 46.866 91.029 46.6409L92.6859 49.0181C92.4918 49.3198 92.2434 49.6118 91.9407 49.8942C91.6652 50.1813 91.3754 50.4309 91.0712 50.6429Z" fill="white"/>
<path d="M100.418 45.1214C98.2436 46.3097 96.2124 46.6415 94.3246 46.1166C92.4368 45.5918 90.9221 44.2848 89.7805 42.1959C89.0413 40.8432 88.661 39.5167 88.6398 38.2164C88.6185 36.9161 88.9243 35.7261 89.5573 34.6464C90.2074 33.5574 91.1659 32.6667 92.433 31.9742C93.6829 31.2912 94.8724 30.9858 96.0015 31.0581C97.1306 31.1304 98.1712 31.529 99.1232 32.2539C100.092 32.9695 100.928 33.9694 101.63 35.2536L102.093 36.1011L92.6412 41.2663L91.7149 39.5711L98.8807 35.6552L98.6405 36.2534C97.9855 35.0548 97.2281 34.2791 96.3682 33.9263C95.5254 33.5641 94.6246 33.645 93.6658 34.169C92.6042 34.7491 91.9881 35.575 91.8177 36.6465C91.6643 37.7087 91.9573 38.9161 92.6965 40.2688L92.879 40.6027C93.6463 42.0067 94.5642 42.8726 95.6327 43.2004C96.709 43.5016 97.8807 43.306 99.1478 42.6136C99.8841 42.2113 100.517 41.7428 101.048 41.2082C101.586 40.6472 102.025 39.985 102.364 39.2217L104.493 40.8598C104.148 41.6932 103.622 42.4808 102.916 43.2226C102.21 43.9645 101.377 44.5974 100.418 45.1214Z" fill="white"/>
<path d="M113.1 39.4126C111.91 39.8513 110.761 40.119 109.653 40.2157C108.557 40.2873 107.575 40.1916 106.709 39.9288L106.819 37.2676C107.69 37.4871 108.594 37.5698 109.531 37.5156C110.468 37.4614 111.366 37.2756 112.227 36.9584C113.142 36.6208 113.762 36.2155 114.087 35.7422C114.43 35.2622 114.503 34.7568 114.308 34.2259C114.152 33.8048 113.884 33.5292 113.504 33.3993C113.134 33.2442 112.615 33.2173 111.945 33.3187L109.007 33.8095C107.741 33.9852 106.682 33.8766 105.83 33.4836C104.996 33.0839 104.393 32.3806 104.022 31.3737C103.705 30.5132 103.654 29.6691 103.868 28.8412C104.101 28.0067 104.581 27.2477 105.306 26.5642C106.043 25.8558 106.997 25.2855 108.169 24.8535C109.194 24.4755 110.206 24.2584 111.204 24.2022C112.221 24.1393 113.142 24.2678 113.967 24.5875L113.798 27.1764C113.062 26.9279 112.28 26.8106 111.454 26.8243C110.627 26.838 109.866 26.9731 109.17 27.2296C108.218 27.5806 107.586 28.0111 107.275 28.5209C106.957 29.0125 106.896 29.5237 107.092 30.0546C107.241 30.4574 107.494 30.7488 107.851 30.9289C108.22 31.084 108.712 31.121 109.327 31.0399L112.266 30.5491C113.58 30.3348 114.66 30.415 115.505 30.7896C116.362 31.1392 116.979 31.8266 117.357 32.8519C117.695 33.7673 117.738 34.6456 117.486 35.4869C117.235 36.3283 116.734 37.0849 115.984 37.7567C115.233 38.4286 114.272 38.9805 113.1 39.4126Z" fill="white"/>
</svg>
