<svg width="145" height="109" viewBox="0 0 145 109" fill="none" xmlns="http://www.w3.org/2000/svg">
<path d="M43.0426 99.1901C46.847 99.5689 92.9586 96.0769 95.0234 94.8986C97.0882 93.7203 138.589 53.7295 139.083 51.4464C139.577 49.1632 90.7165 52.9754 90.8141 52.2055C90.9119 51.4365 71.969 11.6157 69.2545 11.1225C66.5391 10.6295 6.19722 41.9797 4.785 44.8469C3.37369 47.7141 40.7876 98.9655 43.0426 99.1901Z" fill="#6A7F89"/>
<path d="M85.0633 53.8613C84.9674 53.9677 83.249 55.4687 80.5591 57.7948C77.6839 60.2986 73.6998 63.7521 69.4033 67.4371C68.7902 67.9664 68.1773 68.4966 67.5541 69.0388C63.6346 72.4023 59.5658 75.8923 55.9285 78.9838C53.59 80.9709 51.4267 82.7932 49.6117 84.3213C46.3239 87.0618 44.1305 88.8334 43.9374 88.831C43.7453 88.8285 42.1625 86.8182 39.7965 83.6829C38.5098 81.9632 36.9878 79.9089 35.3322 77.6622C32.8119 74.2018 29.9788 70.2854 27.2383 66.4436C26.8 65.8382 26.3735 65.2299 25.9481 64.6338C23.1179 60.6603 20.4498 56.851 18.3566 53.7957C16.483 51.0425 15.0708 48.9032 14.4382 47.7979C14.1886 47.376 14.0644 47.1026 14.072 47.0107C14.0968 46.7469 15.603 45.7435 18.0924 44.2625C22.9765 41.3388 31.688 36.5581 40.4515 31.8812C44.8834 29.5058 49.3318 27.1626 53.3069 25.1C57.2489 23.0429 60.7393 21.2618 63.276 19.9998C65.8879 18.7132 67.5036 17.9629 67.6192 18.046C67.722 18.1198 68.188 18.9691 68.9372 20.3708C69.6972 21.8386 70.7577 23.9005 71.9641 26.2993C73.167 28.6769 74.5149 31.3916 75.8837 34.1595C78.4161 39.2774 80.9936 44.6024 82.7719 48.4215C83.5204 50.0263 84.1256 51.3732 84.5279 52.3122C84.9275 53.2404 85.1223 53.8063 85.0633 53.8613Z" fill="white"/>
<path d="M52.1013 92.9684C52.8034 92.9951 78.1314 90.9729 78.902 90.8466C79.6717 90.7205 118.341 56.276 118.273 55.8636C118.206 55.4513 92.5855 56.2605 91.5658 56.7102C90.546 57.16 51.345 92.9402 52.1013 92.9684Z" fill="#556970"/>
<path d="M97.3752 78.8008C97.6699 79.1362 106.634 79.1516 107.035 79.0151C107.435 78.8785 115.343 71.1565 115.573 70.8362C115.803 70.516 106.612 70.3979 106.222 70.6034C105.833 70.809 96.9413 78.3076 97.3752 78.8008Z" fill="#556970"/>
<g opacity="0.1">
<path d="M82.7561 48.4493L18.0928 44.2582C22.9763 41.3326 31.6868 36.5491 40.4492 31.8696L75.8722 34.1655C78.4039 39.2911 80.9799 44.6242 82.7561 48.4493Z" fill="#6A7F89"/>
<path d="M85.0531 53.8864C84.9572 53.993 83.2387 55.4959 80.5486 57.8251L18.3639 53.7802C16.4917 51.0203 15.0806 48.8759 14.4485 47.7679L84.5174 52.334C84.9175 53.2641 85.112 53.8313 85.0531 53.8864Z" fill="#6A7F89"/>
<path d="M71.9415 26.3108L53.2884 25.1048C57.2297 23.0468 60.7196 21.265 63.2558 20.0025L68.9158 20.3755C69.6754 21.8441 70.7355 23.9084 71.9415 26.3108Z" fill="#6A7F89"/>
<path d="M55.9427 78.9757C53.6045 80.9639 51.4415 82.7872 49.6268 84.3162L39.8137 83.6747C38.5273 81.9532 37.0058 79.8968 35.3507 77.6477L55.9427 78.9757Z" fill="#6A7F89"/>
<path d="M69.4055 67.4518C68.7924 67.982 68.1794 68.5131 67.5561 69.0563L27.2522 66.4234C26.8143 65.8161 26.3882 65.2059 25.9631 64.6079L69.4055 67.4518Z" fill="#6A7F89"/>
</g>
<path d="M34.1371 46.7732C34.0375 46.8696 33.9754 46.9711 33.9507 47.0778C33.9445 47.1045 33.9461 47.1435 33.9553 47.1948C33.9676 47.2327 33.9747 47.2625 33.9768 47.284C33.9757 47.3189 34.049 47.4728 34.1966 47.7458C34.3524 48.0136 34.539 48.3307 34.7563 48.697C34.9736 49.0634 35.2053 49.4436 35.4514 49.8376C35.6923 50.2235 35.9147 50.5524 36.1188 50.8243C36.2921 51.047 36.4997 51.2426 36.7418 51.4109C36.9869 51.566 37.249 51.602 37.5281 51.5191C37.719 51.4228 37.8719 51.2931 37.9869 51.13C38.105 50.9537 38.1538 50.7578 38.1334 50.5423C38.1058 50.2971 38.0198 50.077 37.8752 49.882C37.7337 49.6737 37.6194 49.4541 37.5323 49.2233C37.6575 49.1679 37.7874 49.0926 37.9218 48.9973C38.0645 48.8968 38.2097 48.8005 38.3575 48.7082C38.5053 48.616 38.6515 48.5304 38.7962 48.4515C38.9491 48.3675 39.0933 48.306 39.2288 48.2671C39.6349 48.6069 39.9384 49.0107 40.1392 49.4786C40.335 49.9383 40.4271 50.4056 40.4155 50.8806C40.404 51.3555 40.2868 51.8166 40.064 52.2637C39.8442 52.6975 39.5111 53.0595 39.0646 53.3495C38.7947 53.5751 38.4909 53.7647 38.1533 53.9184C37.8208 54.0803 37.4806 54.1842 37.1328 54.2302C36.7798 54.2679 36.4372 54.2308 36.1048 54.1188C35.7807 54.0017 35.4945 53.781 35.2464 53.4567C35.0455 53.1714 34.8409 52.8712 34.6328 52.5562C34.4247 52.2411 34.1935 51.8891 33.9393 51.5002C33.6881 51.0979 33.4062 50.6464 33.0935 50.1456C32.7839 49.6315 32.4256 49.0394 32.0187 48.3693C31.9151 48.24 31.8321 48.0979 31.7696 47.9429C31.7101 47.7747 31.6666 47.6136 31.639 47.4597C31.5796 47.2001 31.5469 46.9467 31.5409 46.6995C31.5431 46.4471 31.5786 46.2025 31.6474 45.9656C31.6968 45.8435 31.762 45.7286 31.8431 45.621C31.919 45.5051 32.0043 45.3949 32.0987 45.2903C32.3995 44.9314 32.7423 44.649 33.1272 44.443C33.512 44.237 33.9107 44.108 34.3231 44.0559C34.7387 43.9905 35.1521 43.9948 35.5635 44.0689C35.9749 44.143 36.356 44.2873 36.7068 44.5019C37.0524 44.7083 37.3544 44.9818 37.6128 45.3226C37.8712 45.6633 38.0526 46.0635 38.157 46.5231C37.8942 46.7784 37.6099 46.9901 37.3041 47.1581C37.0013 47.3129 36.676 47.4589 36.3282 47.5961C36.2061 47.4555 36.0795 47.2893 35.9483 47.0974C35.8253 46.9003 35.692 46.7325 35.5484 46.594C35.3997 46.4472 35.2346 46.3563 35.053 46.3213C34.8796 46.2812 34.6765 46.3396 34.4435 46.4964C34.347 46.5795 34.2449 46.6717 34.1371 46.7732ZM38.9225 45.9597C38.8744 45.773 38.8344 45.6268 38.8027 45.5211C38.7833 45.3621 38.807 45.199 38.8737 45.0318C38.9487 44.8595 39.0504 44.6934 39.1787 44.5334C39.3101 44.3601 39.4625 44.2022 39.636 44.0597C39.8177 43.9121 40.007 43.7768 40.2041 43.6538C40.3785 43.5677 40.5371 43.4745 40.6798 43.374C40.8255 43.2602 40.9897 43.1577 41.1724 43.0665C41.4454 42.919 41.7291 42.816 42.0236 42.7577C42.313 42.6912 42.5951 42.6862 42.87 42.7428C43.0311 42.7449 43.1957 42.8076 43.3639 42.9308C43.5321 43.054 43.7019 43.2162 43.8731 43.4173C44.0392 43.6103 44.2084 43.8356 44.3806 44.0931C44.5477 44.3425 44.72 44.6001 44.8973 44.8659C45.0378 45.1091 45.1946 45.3877 45.3678 45.7017C45.5493 46.0106 45.7107 46.3148 45.8521 46.6144C46.0018 46.9089 46.1212 47.1824 46.2103 47.4348C46.3076 47.6821 46.3409 47.8724 46.31 48.0057C46.2935 48.2899 46.1959 48.5447 46.0173 48.7703C45.8468 48.9908 45.6354 49.1912 45.3829 49.3716C45.1356 49.5602 44.8646 49.7294 44.5701 49.879C44.2807 50.0368 44.021 50.1874 43.7911 50.3309C43.3263 50.5184 42.8605 50.5582 42.3937 50.4502C42.049 50.3915 41.7433 50.24 41.4767 49.9957C41.2101 49.7514 40.9686 49.4743 40.7523 49.1644C40.5308 48.8463 40.3217 48.5205 40.1249 48.187C39.9363 47.8483 39.7451 47.5512 39.5513 47.2957C39.459 47.1479 39.3734 47.0017 39.2945 46.857C39.2104 46.7041 39.132 46.542 39.0593 46.3706C39.0111 46.2752 38.9655 46.1382 38.9225 45.9597ZM41.499 45.481C41.3573 45.6379 41.2741 45.8153 41.2494 46.0133C41.2206 46.0769 41.235 46.1821 41.2923 46.3288C41.4235 46.612 41.5711 46.8849 41.7351 47.1476C41.894 47.4021 42.055 47.6782 42.218 47.9758C42.3276 48.1697 42.4692 48.2867 42.6425 48.3268C42.8108 48.3587 42.9816 48.3491 43.155 48.2979C43.3315 48.2333 43.4968 48.1416 43.6507 48.0227C43.7995 47.8956 43.9094 47.77 43.9802 47.6459C44.0788 47.4931 44.0887 47.2987 44.0098 47.0627C43.8786 46.7795 43.7392 46.5014 43.5916 46.2285C43.4471 45.9422 43.2759 45.6954 43.078 45.4881C42.8575 45.2264 42.6077 45.0913 42.3287 45.083C42.0496 45.0746 41.7731 45.2073 41.499 45.481ZM45.8258 37.6293C45.7776 37.5339 45.7064 37.4015 45.6121 37.2322L45.5275 37.0967C45.5224 37.0885 45.5706 37.047 45.6722 36.9721C45.7769 36.884 45.9072 36.7912 46.0632 36.6939C46.2223 36.5831 46.3947 36.4755 46.5805 36.371C46.7611 36.2583 46.9248 36.1732 47.0716 36.1158L47.579 36.9286C48.435 38.2996 49.3013 39.6413 50.1778 40.9539C51.0544 42.2664 51.8453 43.524 52.5506 44.7267C52.296 44.8855 52.0194 45.0639 51.7208 45.2617C51.4273 45.4677 51.1471 45.6312 50.8803 45.7521C50.8618 45.7408 50.8398 45.7146 50.8141 45.6736C50.7629 45.5915 50.7178 45.5284 50.6788 45.4842C50.648 45.435 50.6045 45.3652 50.5481 45.2749C50.506 45.2441 50.4676 45.2282 50.4327 45.2271C50.4009 45.2128 50.3881 45.2379 50.3942 45.3025C50.4248 45.6257 50.3605 45.8882 50.2014 46.0902C50.0372 46.284 49.8298 46.4363 49.5794 46.5469C49.0909 46.8062 48.6472 46.9178 48.2481 46.8816C47.8439 46.8373 47.472 46.6986 47.1325 46.4656C46.7961 46.2192 46.4777 45.9102 46.1773 45.5387C45.8851 45.162 45.6067 44.771 45.3422 44.3657C45.1628 44.0784 45.005 43.789 44.8687 43.4976C44.7406 43.201 44.6443 42.9189 44.5798 42.6511C44.5184 42.37 44.5005 42.113 44.5263 41.8802C44.5551 41.634 44.6394 41.4217 44.779 41.2432C44.9494 41.0228 45.1609 40.8224 45.4134 40.6419C45.6689 40.4482 45.9234 40.2893 46.1769 40.1654C46.4253 40.0332 46.6495 39.9445 46.8496 39.8995C47.0497 39.8545 47.181 39.8638 47.2435 39.9274C46.9944 39.5467 46.7955 39.2373 46.6469 38.9992C46.4982 38.7612 46.3804 38.5723 46.2932 38.4328C46.201 38.285 46.1318 38.1742 46.0856 38.1003C46.0426 38.0131 46.0005 37.9366 45.9595 37.8709C45.9216 37.7919 45.877 37.7114 45.8258 37.6293ZM46.5514 42.1906C46.4466 42.4613 46.4634 42.7532 46.6018 43.0661C46.6325 43.2067 46.6822 43.3411 46.7508 43.4694C46.8195 43.5976 46.8897 43.7192 46.9615 43.8342C47.0896 44.0394 47.2398 44.2252 47.4121 44.3915C47.5793 44.5495 47.7608 44.6758 47.9567 44.7703C48.1475 44.8566 48.3409 44.9013 48.5369 44.9045C48.7328 44.9077 48.917 44.8555 49.0894 44.7478C49.2947 44.6197 49.4266 44.4746 49.4852 44.3126C49.5519 44.1454 49.5654 43.9659 49.5254 43.774C49.4937 43.5771 49.4153 43.3693 49.2903 43.1507C49.1683 42.9188 49.0253 42.6715 48.8613 42.4088C48.6614 42.0886 48.4968 41.8434 48.3676 41.673C48.2415 41.4893 48.1231 41.3636 48.0123 41.2958C47.9016 41.228 47.7851 41.2152 47.663 41.2571C47.544 41.2858 47.3983 41.3539 47.2258 41.4616C46.8892 41.6717 46.6644 41.9147 46.5514 42.1906ZM53.3842 39.9794C53.1984 40.0839 53.0594 40.1536 52.967 40.1884L53.1054 40.4101C53.2674 40.6512 53.4012 40.8472 53.5068 40.9981C53.6206 41.1438 53.7688 41.2624 53.9514 41.3538C54.1678 41.4811 54.3945 41.5336 54.6315 41.5111C54.8685 41.4887 55.063 41.4072 55.2149 41.2668C55.3668 41.1263 55.449 40.9381 55.4614 40.7022C55.4769 40.4529 55.3714 40.1651 55.1448 39.8388C55.232 39.7957 55.3454 39.7307 55.485 39.6435C55.6195 39.5482 55.758 39.4503 55.9007 39.3499C56.0516 39.2443 56.1994 39.152 56.3441 39.0731C56.4836 38.986 56.6063 38.9266 56.712 38.8948C56.8288 39.1185 56.9431 39.3381 57.0548 39.5536C57.1665 39.7691 57.2665 39.9748 57.3546 40.1708C57.4376 40.3586 57.4996 40.531 57.5406 40.6879C57.5846 40.8316 57.5933 40.946 57.5665 41.0311C57.55 41.3153 57.4565 41.5676 57.2861 41.788C57.1157 42.0085 56.9042 42.2089 56.6517 42.3893C56.3992 42.5697 56.1283 42.7388 55.8389 42.8967C55.5577 43.0494 55.3022 43.1975 55.0723 43.3409C54.8219 43.4516 54.5623 43.5109 54.2935 43.519C53.9744 43.5014 53.6641 43.4156 53.3625 43.2615C53.0558 43.0993 52.7651 42.8986 52.4902 42.6594C52.2103 42.412 51.9488 42.1303 51.7058 41.8142C51.4628 41.4981 51.2444 41.1666 51.0507 40.8198C50.8857 40.5006 50.7283 40.1938 50.5787 39.8993C50.4321 39.5915 50.3235 39.2714 50.2529 38.939C50.211 38.6343 50.2496 38.3306 50.3688 38.0281C50.4828 37.7173 50.6538 37.4338 50.8817 37.1774C51.1045 36.9129 51.3693 36.6792 51.6761 36.4762C51.983 36.2733 52.3073 36.1165 52.649 36.0059C53.0677 35.8358 53.4535 35.7776 53.8064 35.8311C54.1593 35.8846 54.4804 36.0151 54.7696 36.2225C55.067 36.4247 55.3331 36.6865 55.5679 37.0077C55.8027 37.3289 56.0154 37.6696 56.2061 38.0298C56.1588 38.0821 56.0583 38.1677 55.9043 38.2866C55.7586 38.4004 55.58 38.5347 55.3685 38.6894C55.1653 38.8391 54.9431 38.9949 54.7019 39.1569C54.4608 39.3188 54.2252 39.4715 53.9953 39.615C53.7736 39.7534 53.5699 39.8748 53.3842 39.9794ZM53.8179 37.4668C53.6435 37.3703 53.4594 37.3312 53.2655 37.3496C53.1741 37.3495 53.0905 37.3618 53.0146 37.3864C52.9335 37.4027 52.8478 37.4391 52.7575 37.4955C52.5605 37.6185 52.4132 37.7389 52.3157 37.8568C52.2181 37.9747 52.1555 38.0937 52.1277 38.2137C52.1 38.3337 52.0963 38.4558 52.1168 38.5799C52.1454 38.6989 52.1849 38.8169 52.2351 38.9339C52.2751 39.0345 52.3078 39.1053 52.3335 39.1463C52.3622 39.174 52.4186 39.173 52.5028 39.1433C52.5818 39.1054 52.6993 39.0378 52.8553 38.9404C53.0144 38.8297 53.2499 38.677 53.5619 38.4822C53.7754 38.349 53.938 38.2532 54.0499 38.1948C54.1618 38.1364 54.2382 38.0943 54.2793 38.0687C54.3234 38.0298 54.3403 38.0021 54.3301 37.9857C54.3147 37.961 54.2865 37.9159 54.2455 37.8502C54.143 37.686 54.0005 37.5582 53.8179 37.4668Z" fill="#7EB3CE"/>
<path d="M47.6064 58.976C47.6246 59.4438 47.6675 59.8962 47.735 60.3333L52.5704 63.3903C52.3435 63.6118 52.069 63.8117 51.7468 63.99C51.4327 64.1632 51.1418 64.3277 50.8739 64.4835C50.5785 64.3941 50.2723 64.2601 49.9554 64.0814C49.6333 63.8945 49.3102 63.6969 48.9861 63.4884C48.6703 63.2749 48.3569 63.0655 48.0462 62.8601C47.7354 62.6548 47.4426 62.4782 47.1677 62.3303C47.3081 62.5735 47.4655 62.8347 47.6398 63.1138C47.8171 63.3796 47.997 63.6495 48.1795 63.9235C48.362 64.1975 48.5378 64.47 48.707 64.7409C48.8843 65.0067 49.0448 65.2545 49.1883 65.4844C49.0939 65.5889 48.9712 65.694 48.8203 65.7996C48.6746 65.9134 48.5155 66.0241 48.3431 66.1317C48.1707 66.2394 47.9973 66.3362 47.8228 66.4223C47.6566 66.5032 47.5124 66.5647 47.3903 66.6067C46.443 65.2357 45.5465 63.8272 44.7007 62.3814C43.8581 60.9221 42.9842 59.4768 42.079 58.0452C42.3448 57.8679 42.6224 57.7003 42.9118 57.5425C43.2043 57.3713 43.4819 57.2037 43.7446 57.0397C44.0532 57.4974 44.3648 57.9874 44.6796 58.5098C44.9943 59.0321 45.3059 59.5221 45.6145 59.9798C45.6196 59.988 45.6212 59.9813 45.6191 59.9598C45.6202 59.9249 45.6238 59.8941 45.63 59.8675C45.664 59.5382 45.6764 59.211 45.6674 58.8858C45.6583 58.5606 45.6384 58.2364 45.6078 57.9132C45.5854 57.5849 45.563 57.2566 45.5406 56.9284C45.5264 56.5949 45.5286 56.2513 45.5473 55.8974C45.8202 55.7498 46.0994 55.5755 46.3847 55.3746C46.67 55.1737 46.9568 55.0118 47.2452 54.8888C47.362 55.2951 47.4377 55.7271 47.4723 56.1846C47.5152 56.637 47.5416 57.0997 47.5517 57.5726C47.5699 58.0404 47.5882 58.5082 47.6064 58.976ZM49.9528 56.4845C50.1467 56.3749 50.3725 56.2339 50.6301 56.0617L50.8395 55.9311L50.8625 55.968C51.4745 56.9665 52.087 57.9932 52.7001 59.0481C53.3213 60.0978 53.9707 61.1015 54.6484 62.0589C54.6381 62.1338 54.5509 62.2225 54.3867 62.325C54.2276 62.4357 54.047 62.5485 53.8448 62.6633C53.656 62.7811 53.4728 62.8898 53.2952 62.9892C53.1177 63.0886 53.0053 63.1645 52.9581 63.2168C52.6762 62.6739 52.3646 62.1383 52.0232 61.6098C51.69 61.0762 51.3512 60.5518 51.0067 60.0366C50.6623 59.5214 50.3311 59.0094 50.0133 58.5004C49.6904 57.9832 49.4024 57.467 49.1492 56.9519L49.1415 56.9396C49.1692 56.9109 49.2226 56.8776 49.3016 56.8397C49.3888 56.7966 49.453 56.7623 49.494 56.7367C49.6059 56.6783 49.7588 56.5942 49.9528 56.4845ZM48.0512 55.2756C47.8708 55.0232 47.6668 54.7055 47.4392 54.3228L49.1371 53.3142C49.1679 53.3635 49.2243 53.4538 49.3063 53.5851C49.3914 53.7032 49.4826 53.8402 49.58 53.9961C49.6805 54.1388 49.782 54.2922 49.8845 54.4564C49.9901 54.6073 50.0813 54.7443 50.1582 54.8674C50.1561 54.9372 50.0987 55.0187 49.9858 55.112C49.8811 55.2001 49.7466 55.2955 49.5824 55.398C49.4213 55.4871 49.2479 55.584 49.0621 55.6885C48.8712 55.7849 48.7004 55.8858 48.5495 55.9914C48.4008 55.7533 48.2348 55.5147 48.0512 55.2756ZM53.6521 51.4714C53.604 51.3759 53.5327 51.2436 53.4384 51.0742L53.3538 50.9388C53.3487 50.9306 53.397 50.8891 53.4986 50.8142C53.6033 50.7261 53.7336 50.6333 53.8896 50.5359C54.0487 50.4252 54.2211 50.3176 54.4068 50.213C54.5875 50.1003 54.7511 50.0152 54.8979 49.9579L55.4053 50.7706C56.2613 52.1416 57.1276 53.4833 58.0042 54.7959C58.8807 56.1084 59.6716 57.366 60.3769 58.5687C60.1224 58.7275 59.8458 58.9059 59.5472 59.1037C59.2536 59.3098 58.9735 59.4733 58.7067 59.5942C58.6882 59.5829 58.6661 59.5567 58.6405 59.5156C58.5893 59.4336 58.5442 59.3704 58.5052 59.3263C58.4744 59.2771 58.4309 59.2073 58.3745 59.117C58.3324 59.0862 58.294 59.0702 58.2591 59.0692C58.2273 59.0548 58.2144 59.08 58.2206 59.1446C58.2512 59.4677 58.1869 59.7303 58.0278 59.9323C57.8636 60.1261 57.6562 60.2784 57.4059 60.389C56.9174 60.6483 56.4736 60.7599 56.0745 60.7238C55.6703 60.6795 55.2985 60.5408 54.959 60.3077C54.6226 60.0613 54.3042 59.7524 54.0038 59.3809C53.7115 59.0042 53.4332 58.6132 53.1687 58.2079C52.9893 57.9206 52.8314 57.6312 52.6951 57.3398C52.567 57.0432 52.4707 56.7611 52.4062 56.4933C52.3448 56.2122 52.327 55.9552 52.3527 55.7223C52.3816 55.4761 52.4658 55.2638 52.6054 55.0854C52.7758 54.8649 52.9873 54.6645 53.2398 54.4841C53.4953 54.2903 53.7498 54.1315 54.0033 54.0075C54.2517 53.8753 54.4759 53.7866 54.676 53.7416C54.876 53.6966 55.0074 53.7059 55.0699 53.7695C54.8208 53.3888 54.6219 53.0794 54.4733 52.8413C54.3246 52.6032 54.2067 52.4144 54.1196 52.2749C54.0273 52.1271 53.9581 52.0163 53.912 51.9424C53.8689 51.8551 53.8269 51.7787 53.7859 51.713C53.748 51.634 53.7034 51.5535 53.6521 51.4714ZM54.3778 56.0327C54.273 56.3035 54.2898 56.5953 54.4282 56.9083C54.4589 57.0488 54.5086 57.1833 54.5773 57.3115C54.6459 57.4398 54.7162 57.5614 54.7879 57.6763C54.9161 57.8816 55.0663 58.0673 55.2386 58.2336C55.4057 58.3917 55.5872 58.5179 55.7831 58.6124C55.9739 58.6987 56.1673 58.7434 56.3633 58.7466C56.5592 58.7498 56.7434 58.6976 56.9158 58.5899C57.1211 58.4618 57.253 58.3167 57.3115 58.1547C57.3783 57.9875 57.3917 57.808 57.3518 57.6161C57.3201 57.4191 57.2417 57.2114 57.1167 56.9928C56.9947 56.7609 56.8517 56.5136 56.6877 56.2509C56.4878 55.9307 56.3232 55.6854 56.194 55.5151C56.0679 55.3314 55.9495 55.2057 55.8387 55.1379C55.7279 55.0701 55.6115 55.0572 55.4894 55.0992C55.3704 55.1279 55.2246 55.196 55.0522 55.3037C54.7156 55.5138 54.4908 55.7568 54.3778 56.0327ZM62.519 49.6673C62.9037 49.9178 63.2344 50.2647 63.5112 50.708C63.2741 50.913 62.998 51.1196 62.6829 51.3277C62.376 51.5306 62.0651 51.6905 61.7501 51.8073C61.7132 51.6934 61.6394 51.6026 61.5286 51.5348C61.426 51.4619 61.3065 51.4167 61.1701 51.3992C61.0419 51.3766 60.91 51.3847 60.7746 51.4236C60.6422 51.4492 60.5252 51.4994 60.4236 51.5742C60.2553 51.725 60.1577 51.8885 60.131 52.065C60.1073 52.2281 60.1365 52.3753 60.2185 52.5066C60.3005 52.638 60.4318 52.7386 60.6123 52.8084C60.7928 52.8783 60.998 52.8871 61.2279 52.8349C61.7286 52.6136 62.2161 52.4348 62.6901 52.2987C63.1591 52.1543 63.5648 52.1463 63.9074 52.2747C64.2726 52.4575 64.5731 52.692 64.8089 52.9784C65.0396 53.2565 65.2179 53.67 65.3439 54.2189C65.4062 54.7391 65.29 55.2109 64.9954 55.6344C64.7007 56.0579 64.3127 56.4142 63.8314 56.7032C63.4229 56.981 63.0222 57.1798 62.6292 57.2997C62.2362 57.4195 61.8602 57.466 61.5011 57.4391C61.1502 57.4071 60.823 57.3033 60.5194 57.1278C60.224 56.947 59.9738 56.6925 59.7688 56.3641L59.7457 56.3272L59.7303 56.3026C59.9807 56.1006 60.2835 55.9002 60.6386 55.7014C60.9885 55.4943 61.2908 55.3114 61.5453 55.1525C61.6714 55.3362 61.855 55.4384 62.0961 55.459C62.3403 55.4663 62.5644 55.4233 62.7687 55.3301C62.9677 55.2286 63.1171 55.0841 63.2167 54.8964C63.3163 54.7087 63.2877 54.4984 63.1308 54.2655C63.0324 54.053 62.895 53.9335 62.7186 53.9067C62.5421 53.8799 62.3441 53.9009 62.1245 53.9695C61.8998 54.0299 61.6556 54.1139 61.3919 54.2215C61.1281 54.329 60.8506 54.4053 60.5592 54.4503C60.002 54.5813 59.5142 54.5493 59.0957 54.3541C58.6803 54.1457 58.3665 53.8624 58.1543 53.5042C57.9452 53.1328 57.8525 52.7285 57.8763 52.2915C57.9083 51.8494 58.0922 51.4494 58.4278 51.0916C58.5582 50.9531 58.7265 50.8024 58.9328 50.6394C59.1474 50.4713 59.3819 50.3078 59.6364 50.1489C59.8909 49.99 60.1557 49.8476 60.4307 49.7216C60.7006 49.5873 60.9576 49.4782 61.2019 49.3942C61.6902 49.3175 62.1293 49.4085 62.519 49.6673Z" fill="#C95A6E"/>
</svg>
