<svg width="133" height="113" viewBox="0 0 133 113" fill="none" xmlns="http://www.w3.org/2000/svg">
<path d="M16.0337 44.6448L2.24707 26.7514L6.20126 25.7943L17.4745 40.8932L16.2797 41.1824L19.4008 22.5995L23.2128 21.6769L19.1344 43.8943L16.0337 44.6448Z" fill="white"/>
<path d="M33.2627 42.3639C31.9753 42.3987 30.8359 42.1268 29.8443 41.5485C28.8522 40.9506 28.0675 40.0837 27.4903 38.9476C26.9131 37.8115 26.6029 36.4437 26.5598 34.8443C26.5166 33.2449 26.7528 31.8721 27.2685 30.7261C27.7836 29.5605 28.5206 28.6622 29.4796 28.0313C30.438 27.3808 31.5609 27.0382 32.8482 27.0034C34.0966 26.9697 35.1973 27.2523 36.1504 27.8513C37.1225 28.4301 37.7785 29.2323 38.1185 30.2576L37.7967 30.2663L38.0348 27.1563L41.5458 27.0615C41.5036 27.6678 41.4616 28.2838 41.42 28.9095C41.3978 29.5347 41.3949 30.1497 41.4112 30.7544L41.7104 41.8432L38.0824 41.9411L37.971 38.899L38.3221 38.8896C38.0374 39.9123 37.4253 40.7388 36.4859 41.3693C35.5464 41.9997 34.472 42.3313 33.2627 42.3639ZM34.2109 39.5275C35.3618 39.4965 36.2775 39.0716 36.9581 38.2529C37.6382 37.4148 37.9561 36.1764 37.9119 34.538C37.8677 32.8995 37.4837 31.6899 36.7599 30.9091C36.0362 30.1284 35.0989 29.7535 33.9481 29.7846C32.7972 29.8156 31.8815 30.2405 31.2009 31.0591C30.5203 31.8778 30.2021 33.1064 30.2463 34.7448C30.2905 36.3833 30.665 37.6029 31.3698 38.4037C32.0936 39.1845 33.0406 39.5591 34.2109 39.5275Z" fill="white"/>
<path d="M44.8788 42.4517L46.8374 31.6224C46.9485 31.0079 47.0422 30.3804 47.1184 29.7399C47.2138 29.1028 47.2769 28.4796 47.3077 27.8705L50.7927 28.5008L50.4771 32.5483L49.9011 32.4442C50.2667 31.5188 50.7276 30.7793 51.2839 30.2255C51.8593 29.6752 52.5012 29.3055 53.2096 29.1164C53.918 28.9272 54.6562 28.9021 55.4242 29.041C55.7699 29.1035 56.0448 29.1731 56.2491 29.2497C56.4568 29.3071 56.6593 29.3933 56.8567 29.5083L56.2549 32.6712C55.9178 32.4516 55.6184 32.2983 55.3565 32.2113C55.1139 32.1278 54.8005 32.0513 54.4165 31.9818C53.5908 31.8325 52.8588 31.8786 52.2202 32.12C51.6009 32.3649 51.0916 32.7685 50.6925 33.3309C50.3126 33.8967 50.0514 34.5732 49.909 35.3605L48.5078 43.1081L44.8788 42.4517Z" fill="white"/>
<path d="M55.1912 44.7344L59.9142 30.7286L63.381 31.8977L58.658 45.9035L55.1912 44.7344ZM60.6086 28.0284L61.7496 24.6448L65.6047 25.9448L64.4637 29.3284L60.6086 28.0284Z" fill="white"/>
<path d="M66.4909 49.9473C65.3836 49.2898 64.5649 48.4519 64.0349 47.4337C63.5148 46.3987 63.3137 45.2468 63.4317 43.978C63.5497 42.7092 64.0172 41.3869 64.8341 40.0111C65.651 38.6353 66.5833 37.6004 67.6308 36.9062C68.6884 36.1953 69.791 35.8288 70.9387 35.8068C72.0964 35.768 73.2289 36.0774 74.3362 36.7349C75.41 37.3725 76.1902 38.1988 76.6767 39.2139C77.19 40.2222 77.3168 41.2506 77.0573 42.2992L76.7804 42.1348L78.6413 39.6316L81.6613 41.4248C81.3021 41.915 80.938 42.4136 80.5688 42.9206C80.2165 43.4376 79.8859 43.9561 79.5771 44.4762L73.9135 54.0143L70.7928 52.1613L72.3218 49.5291L72.6238 49.7084C71.8373 50.4214 70.8786 50.7939 69.7477 50.8259C68.6167 50.8578 67.5311 50.565 66.4909 49.9473ZM68.8063 48.0544C69.7962 48.6421 70.7974 48.7714 71.8098 48.4422C72.8322 48.0961 73.7619 47.2185 74.5987 45.8092C75.4355 44.3998 75.7562 43.1719 75.5606 42.1254C75.3651 41.0788 74.7724 40.2617 73.7825 39.6739C72.7926 39.0861 71.7915 38.9569 70.779 39.2861C69.7665 39.6154 68.8419 40.4846 68.0051 41.894C67.1682 43.3033 66.8342 44.5346 67.003 45.588C67.1986 46.6345 67.7997 47.4566 68.8063 48.0544Z" fill="white"/>
<path d="M81.9614 62.4945C81.1017 61.5887 80.5688 60.5879 80.3628 59.4922C80.1709 58.383 80.3496 57.3525 80.8989 56.4007L81.1206 56.6342L78.8491 58.7902L76.3506 56.1578L91.9751 41.328L94.4937 43.9816L87.4033 50.7114L87.1615 50.4567C88.1258 49.9988 89.1426 49.908 90.2119 50.1843C91.2955 50.4472 92.2603 51.0245 93.1066 51.9161C94.0066 52.8643 94.566 53.9072 94.7847 55.0447C95.0035 56.1822 94.8834 57.3453 94.4246 58.5341C93.9798 59.7095 93.1772 60.8479 92.0167 61.9494C90.8562 63.0509 89.6703 63.7998 88.4592 64.196C87.2623 64.5789 86.0948 64.6243 84.9568 64.3324C83.8465 64.0412 82.848 63.4285 81.9614 62.4945ZM83.2942 59.8171C84.0867 60.6521 85.0149 61.049 86.0787 61.0077C87.156 60.9807 88.2891 60.4029 89.4779 59.2746C90.6667 58.1462 91.3027 57.0448 91.386 55.9704C91.4968 54.8968 91.1559 53.9424 90.3634 53.1074C89.5709 52.2724 88.6427 51.8755 87.5788 51.9168C86.515 51.958 85.3887 52.5428 84.1999 53.6712C83.011 54.7996 82.3612 55.9006 82.2504 56.9743C82.1537 58.0345 82.5016 58.9821 83.2942 59.8171Z" fill="white"/>
<path d="M87.7923 69.3017L105.542 57.0953L107.615 60.1098L89.8654 72.3162L87.7923 69.3017Z" fill="white"/>
<path d="M94.7898 81.4806C93.6394 79.2857 93.343 77.249 93.9006 75.3706C94.4582 73.4922 95.7912 72.0004 97.8997 70.8953C99.265 70.1797 100.598 69.8226 101.898 69.8239C103.199 69.8253 104.383 70.1517 105.452 70.8034C106.529 71.4723 107.403 72.4462 108.074 73.7251C108.735 74.9867 109.02 76.1813 108.928 77.309C108.836 78.4366 108.419 79.4701 107.678 80.4094C106.946 81.3661 105.931 82.184 104.635 82.8634L103.78 83.3118L98.7795 73.7718L100.49 72.8751L104.281 80.1078L103.687 79.8573C104.897 79.2232 105.686 78.4794 106.054 77.6258C106.43 76.7894 106.365 75.8873 105.858 74.9195C105.296 73.848 104.481 73.2177 103.413 73.0287C102.354 72.8569 101.141 73.1288 99.7758 73.8444L99.4388 74.021C98.0217 74.7638 97.14 75.6665 96.7937 76.7292C96.4738 77.8001 96.649 78.9751 97.3193 80.254C97.7088 80.9971 98.1662 81.6386 98.6914 82.1784C99.243 82.7265 99.8975 83.1765 100.655 83.5286L98.9799 85.6291C98.1527 85.2696 97.3743 84.7303 96.6449 84.0111C95.9154 83.2919 95.2971 82.4484 94.7898 81.4806Z" fill="white"/>
<path d="M100.296 94.1156C99.8746 92.9194 99.6235 91.7666 99.5428 90.6571C99.4871 89.5596 99.5969 88.5795 99.8722 87.717L102.532 87.8661C102.299 88.734 102.204 89.6367 102.244 90.574C102.285 91.5113 102.458 92.4125 102.763 93.2774C103.087 94.1976 103.483 94.8234 103.952 95.1548C104.427 95.5047 104.931 95.5855 105.465 95.3975C105.888 95.2483 106.167 94.9844 106.303 94.6056C106.463 94.2388 106.498 93.7198 106.406 93.0487L105.958 90.1034C105.8 88.8348 105.924 87.7774 106.329 86.9311C106.741 86.1033 107.453 85.5111 108.465 85.1544C109.33 84.8496 110.175 84.8105 111 85.0371C111.831 85.2821 112.583 85.7723 113.256 86.5075C113.953 87.2547 114.51 88.2172 114.925 89.395C115.288 90.4256 115.49 91.4404 115.532 92.4394C115.58 93.4569 115.439 94.3757 115.107 95.196L112.521 94.9902C112.78 94.2575 112.909 93.4778 112.907 92.6508C112.905 91.8239 112.781 91.0608 112.535 90.3615C112.197 89.4045 111.776 88.7668 111.271 88.4483C110.784 88.1234 110.274 88.0549 109.74 88.243C109.335 88.3857 109.04 88.6345 108.855 88.9894C108.694 89.3562 108.65 89.8476 108.722 90.4635L109.171 93.4088C109.366 94.7262 109.27 95.8047 108.883 96.6444C108.521 97.496 107.825 98.1034 106.795 98.4666C105.874 98.7909 104.996 98.8213 104.158 98.5579C103.32 98.2945 102.571 97.7827 101.91 97.0225C101.249 96.2624 100.711 95.2934 100.296 94.1156Z" fill="white"/>
</svg>
