<svg width="1440" height="240" viewBox="0 0 1440 240" fill="none" xmlns="http://www.w3.org/2000/svg">
<path d="M1250.83 234.864C1345.03 236.461 1416.19 223.554 1440 216.901V158H0V234.864C118.391 222.889 395.324 197.741 555.925 192.951C756.676 186.963 1133.08 232.869 1250.83 234.864Z" fill="#FEF4E8"/>
<path d="M60.7034 81.5429C53.5158 80.3403 46.0499 80.3188 39.3048 80.8772C30.1116 81.6431 21.0253 84.3276 13.2882 89.6251C7.07843 93.8773 1.31835 89.1454 -1.80793 96.0321C-4.38461 101.702 -6.21897 107.708 -7.58226 113.814C-9.40949 122.018 -10.3802 130.394 -11.3438 138.748C-12.807 151.397 -12.9355 175.816 -13.1782 188.565C-13.2852 194.306 -12.2074 200.42 -12.8498 206.032C-13.5993 212.597 -18.5356 227.701 -18.4999 234.316C13.2882 237.569 59.5687 230.071 96.8985 225.754C102.259 225.132 106.004 226.015 111 223.904C109.979 194.496 108.333 169.745 103.893 140.681C102.794 133.486 101.695 126.27 99.7605 119.262C96.4273 107.164 89.5965 95.4737 79.1899 88.4367C73.7153 84.7429 67.113 82.6239 60.7034 81.5429Z" fill="#818457"/>
<path d="M67.5053 118.36C71.3953 126.356 74.2717 135.384 80.974 141.039C89.9246 148.591 107.419 148.541 108.968 133.816C109.51 128.626 108.211 123.214 106.448 118.389C104 111.695 100.931 104.888 96.8481 99.0962C93.0937 93.7702 88.2544 89.1385 82.4515 86.411C76.6486 83.6764 60.4319 81.9727 54.4363 84.2062" fill="#818457"/>
<path d="M67.5051 118.36C71.3951 126.356 74.2716 135.383 80.9738 141.038C89.9244 148.591 107.419 148.541 108.968 133.815" stroke="#65663A" stroke-width="1.5" stroke-miterlimit="10" stroke-linejoin="round"/>
<path d="M93.8002 84.0483C93.065 93.4119 87.4763 101.795 80.2673 107.178C73.0583 112.561 64.3575 115.274 55.6568 116.821C41.8811 119.276 27.6773 119.018 13.9801 115.998C4.69409 113.95 -4.72044 110.385 -11.3085 103.112C-13.5283 100.664 -15.4697 97.4637 -15.0557 94.0991C-14.7203 91.3502 -12.943 89.1024 -12.5147 86.4035C-12.0936 83.7763 -12.7289 80.6623 -12.8859 77.9993C-13.3141 70.9408 -15.7409 57.4825 -15.1557 50.4312C-14.0921 37.61 -11.1086 29.3632 -3.67122 19.248C7.83464 3.59197 32.3524 -2.14929 50.4534 2.00275C62.3518 4.7302 71.4238 11.9605 77.5693 23.0994C83.779 34.3456 84.7355 46.5154 86.5841 59.401C87.2979 64.3691 87.9188 69.4446 89.8817 74.019C91.4305 77.6127 94.1071 80.1039 93.8002 84.0483Z" fill="#EF9952"/>
<path d="M75.0568 31.9406C73.5579 26.5072 70.6386 21.5104 66.7486 17.5517C59.6966 10.3787 48.7189 8.69637 39.2259 9.33349C24.0584 10.35 7.08514 20.0715 1.03957 35.2264C-5.68408 52.078 1.28938 74.2484 15.7788 84.3851C27.5558 92.6247 43.1873 95.8175 57.0699 92.503C64.7572 90.6704 72.0304 86.4611 76.9554 80.0899C81.8803 73.7115 82.7083 67.555 81.031 59.5731C79.9318 54.3115 78.7612 47.117 77.298 41.9484C76.3701 38.6626 75.9704 35.2336 75.0568 31.9406Z" fill="#C66742"/>
<path d="M52.9514 62.372C54.2148 60.3175 55.8065 58.9716 57.3197 58.671C58.8328 58.3631 60.2603 59.1076 61.2382 60.704" stroke="#893D1F" stroke-width="1.5" stroke-miterlimit="10" stroke-linejoin="round"/>
<path d="M30.8963 49.708C31.2889 50.6745 32.4952 51.0038 33.4944 50.832C34.4223 50.6745 35.2574 50.202 36.1639 49.9514C37.2274 49.6579 38.3551 49.751 39.4115 49.4646C40.4893 49.1783 41.4957 48.6056 41.1245 47.3242C40.4536 45.0191 36.5636 44.0742 34.6579 44.7256C33.059 45.2768 30.0327 47.5962 30.8963 49.708Z" fill="#2B1A18"/>
<path d="M65.0071 40.7096C64.0792 40.9387 63.1941 41.4684 62.7016 42.3131C62.0378 43.4585 62.2305 45.0334 63.6866 45.3627C64.4075 45.5274 65.1569 45.3126 65.8493 45.0406C66.87 44.6469 68.1619 44.7686 69.1683 44.2388C70.6529 43.4585 70.5958 41.9194 69.1183 41.0818C67.9335 40.4089 66.3061 40.3946 65.0071 40.7096Z" fill="#2B1A18"/>
<path d="M35.5144 63.6173C34.3866 63.9967 33.0662 64.6124 32.9448 65.8294C32.8663 66.5667 33.3089 67.2826 33.8941 67.7049C34.4794 68.1273 35.1932 68.3134 35.8998 68.4494C37.4487 68.7573 39.0475 68.9004 40.6035 68.6069C42.8947 68.1774 47.5413 65.0562 44.986 62.2285C42.8947 59.9306 37.7699 62.8585 35.5144 63.6173Z" fill="#B54F30"/>
<path d="M67.4909 56.9239C67.0413 57.2246 66.7986 57.7901 66.77 58.3414C66.6773 60.2456 68.3546 61.3122 69.9177 61.8276C71.4095 62.3216 73.0583 62.2715 74.5286 61.7346C75.7063 61.3051 77.1624 59.7158 76.9269 58.2913C76.6913 56.8452 74.8284 56.5159 73.6364 56.473C71.9662 56.4157 70.296 56.4586 68.6258 56.6161C68.2475 56.6519 67.8478 56.6949 67.5195 56.9025C67.5195 56.9096 67.5052 56.9168 67.4909 56.9239Z" fill="#B54F30"/>
<path d="M70.0535 51.0256C70.2819 51.9563 70.4318 53.0515 70.2533 53.7817C70.0463 54.6121 69.4468 55.0273 68.8187 55.192C68.3618 55.3137 67.6338 55.2922 67.1841 54.9629C66.4847 54.4475 66.1064 53.3594 65.8066 52.1424C65.5354 51.0471 65.4283 49.8087 65.7209 49.0212C65.9565 48.3841 66.5132 48.1121 67.0414 47.9689C67.6195 47.8186 68.3262 47.8329 68.8686 48.3769C69.4182 48.9353 69.8037 50.0234 70.0535 51.0256Z" fill="#331814"/>
<path d="M42.1381 55.7503C42.3665 56.6809 42.5164 57.7762 42.3379 58.5063C42.1309 59.3367 41.5314 59.752 40.9033 59.9166C40.4464 60.0383 39.7184 60.0168 39.2687 59.6875C38.5692 59.1721 38.191 58.084 37.8912 56.867C37.6199 55.7717 37.5129 54.5333 37.8055 53.7458C38.0411 53.1087 38.5978 52.8367 39.126 52.6935C39.7113 52.5432 40.4108 52.5575 40.9532 53.1015C41.5099 53.6599 41.8954 54.7409 42.1381 55.7503Z" fill="#331814"/>
<path d="M50.7675 70.7973C50.4177 71.5562 50.6176 74.1548 52.1165 75.8585C54.8431 78.9582 60.389 79.5882 63.6723 76.6173C66.8557 73.7396 66.4274 67.8694 64.9143 67.7549C64.4146 67.7191 61.3954 68.6497 58.99 69.1294C54.993 69.924 51.1172 70.0385 50.7675 70.7973Z" fill="#702218"/>
<mask id="mask0_30_714" style="mask-type:luminance" maskUnits="userSpaceOnUse" x="50" y="67" width="17" height="12">
<path d="M50.7675 70.7973C50.4177 71.5562 50.6176 74.1548 52.1165 75.8585C54.8431 78.9582 60.389 79.5882 63.6723 76.6173C66.8557 73.7396 66.4274 67.8694 64.9143 67.7549C64.4146 67.7191 61.3954 68.6497 58.99 69.1294C54.993 69.924 51.1172 70.0385 50.7675 70.7973Z" fill="white"/>
</mask>
<g mask="url(#mask0_30_714)">
<path d="M48.1906 75.0208C49.3398 74.1188 50.7316 73.5819 52.152 73.2956C53.5724 73.0092 55.0213 72.9734 56.4703 72.9949C58.997 73.0235 61.5808 73.2454 63.872 74.3336C64.5715 74.6629 65.2567 75.0924 65.7349 75.7152C66.2131 76.3451 66.4558 77.2042 66.206 77.963C65.9205 78.8435 65.064 79.3804 64.2289 79.7312C63.1868 80.175 62.0876 80.4471 60.9884 80.7048C58.8685 81.2059 56.6344 81.6641 54.536 81.077C53.6723 80.8336 52.8658 80.4184 52.0949 79.9603C50.5817 79.0583 49.1827 77.9487 47.9408 76.6816" fill="#C13D27"/>
<path d="M53.915 68.8859C53.8579 69.2581 53.8008 69.6304 53.8222 70.0026C53.8436 70.3749 53.9579 70.7543 54.2077 71.0335C54.6216 71.4988 55.2997 71.5632 55.9136 71.599C58.2333 71.735 60.446 71.6062 62.573 70.5395C64.6215 69.5087 63.9577 67.5042 62.9941 65.8506" fill="white"/>
</g>
<path d="M61.324 22.1613C59.4111 20.4361 57.3555 18.7824 54.9501 17.9663C51.7525 16.8782 48.2122 17.3722 45.0716 18.6321C41.9382 19.8992 39.126 21.8821 36.3495 23.8508C30.8249 27.7737 25.3004 31.6967 19.7688 35.6196L15.6718 42.1555C28.184 36.536 41.5671 32.9996 55.1571 31.7253C59.9036 31.2815 64.7501 31.1097 69.3753 32.2837C67.1697 28.554 64.5145 25.032 61.324 22.1613Z" fill="white"/>
<path d="M18.2271 61.7776L7.37793 68.0629" stroke="#6D3119" stroke-width="2" stroke-miterlimit="10"/>
<path d="M74.2858 23.7295C70.6884 16.6067 65.4351 10.1567 58.5402 6.75631C55.9635 5.48923 53.2155 4.66598 50.439 4.06465C35.4642 0.82177 18.9121 4.41543 7.56325 15.2465C-0.973351 23.3931 -6.19095 35.298 -6.77624 47.5107C-7.23305 56.9172 -4.97042 66.4167 -0.516537 74.6206C1.98163 79.2236 4.24426 83.0177 7.9701 86.776C11.8244 90.6488 16.1498 94.0206 20.8178 96.7695L25.4073 93.3548C21.0391 89.8471 17.0278 85.6664 14.6152 80.5122C12.3954 75.766 11.6674 70.4614 11.5532 65.2355C11.4461 60.3032 11.3962 55.4496 13.3519 50.8896C16.935 42.5425 31.8526 27.0512 49.561 23.7009C56.713 25.9559 63.7578 28.9983 69.7177 33.7875C75.6776 38.5766 80.5027 45.27 82.2014 53.0014C82.6939 42.9577 77.8832 30.8524 74.2858 23.7295Z" fill="#EF9952"/>
<path d="M34.972 75.1214C44.4604 75.1214 52.1523 67.1601 52.1523 57.3393C52.1523 47.5185 44.4604 39.5571 34.972 39.5571C25.4836 39.5571 17.7917 47.5185 17.7917 57.3393C17.7917 67.1601 25.4836 75.1214 34.972 75.1214Z" stroke="#6D3119" stroke-width="2" stroke-miterlimit="10"/>
<path d="M76.7104 66.0748C84.7691 65.2477 90.4942 56.6605 89.4978 46.8947C88.5014 37.1289 81.1607 29.8826 73.102 30.7097C65.0433 31.5368 59.3183 40.124 60.3147 49.8898C61.3111 59.6556 68.6517 66.9019 76.7104 66.0748Z" stroke="#6D3119" stroke-width="2" stroke-miterlimit="10"/>
<path d="M60.2893 49.7367C56.9989 49.2427 54.0867 50.1662 51.0532 52.0417" stroke="#6D3119" stroke-width="2" stroke-miterlimit="10"/>
<path d="M18.6553 85.9026C22.531 92.5458 28.6265 97.5927 35.4787 99.8262" stroke="#CE6F2E" stroke-width="1.5" stroke-miterlimit="10" stroke-linejoin="round"/>
<path d="M49.3971 23.8007C55.0858 22.1041 61.2456 22.1614 66.9057 23.9511" stroke="#CE6F2E" stroke-width="1.5" stroke-miterlimit="10" stroke-linejoin="round"/>
<path d="M12.1101 54.2182C12.5955 43.4229 16.4141 32.6348 23.6088 24.8032C27.0991 21.0019 31.3317 17.938 35.9783 15.8477" stroke="#CE6F2E" stroke-width="1.5" stroke-miterlimit="10" stroke-linejoin="round"/>
<path d="M-7.9895 89.5894C2.68839 99.7117 16.414 106.491 30.8178 108.03C45.2215 109.569 60.2105 105.718 71.8734 96.8268" stroke="#CE6F2E" stroke-width="1.5" stroke-miterlimit="10" stroke-linejoin="round"/>
<path d="M75.2139 92.1589C79.8248 88.4149 83.0081 82.8312 83.9432 76.8394" stroke="#CE6F2E" stroke-width="1.5" stroke-miterlimit="10" stroke-linejoin="round"/>
<path d="M77.605 137.309C79.2324 137.953 81.131 137.538 82.6013 136.572C84.0788 135.605 85.1851 134.145 86.1345 132.627C91.5947 123.822 92.0087 112.59 90.4028 102.253" stroke="#65663A" stroke-width="1.5" stroke-miterlimit="10" stroke-linejoin="round"/>
<path d="M80.189 100.477C87.5835 100.334 94.1501 103.727 99.9102 108.266" stroke="#65663A" stroke-width="1.5" stroke-miterlimit="10" stroke-linejoin="round"/>
<path d="M59.0186 94.8937L56.3135 128.124C56.1993 129.535 57.5126 130.608 58.8116 130.165L76.3916 124.173C77.6978 123.729 78.6186 122.519 78.7328 121.109L81.4379 87.8782C81.5521 86.4679 80.2388 85.3941 78.9398 85.838L61.3598 91.8298C60.0536 92.2665 59.1328 93.4763 59.0186 94.8937Z" fill="#2E3247"/>
<path d="M63.0443 95.4734L62.559 101.415C62.5376 101.666 62.7731 101.859 63.0086 101.78L66.1492 100.706C66.3847 100.628 66.5489 100.413 66.5703 100.155L67.0557 94.2135C67.0771 93.9629 66.8415 93.7696 66.606 93.8484L63.4655 94.9222C63.2299 95.0081 63.0657 95.2228 63.0443 95.4734Z" fill="#565C75"/>
<path d="M57.9623 128.933L60.6674 95.7025C60.7816 94.2851 61.7024 93.0824 63.0086 92.6386L80.5886 86.6468C80.7527 86.5895 80.9169 86.5609 81.0739 86.5465C80.61 85.8879 79.7749 85.5443 78.9398 85.8307L61.3598 91.8225C60.0536 92.2663 59.1328 93.4761 59.0186 94.8864L56.3135 128.117C56.2135 129.348 57.2057 130.322 58.3263 130.25C58.0693 129.892 57.9266 129.441 57.9623 128.933Z" fill="#565C75"/>
<path d="M36.9064 125.468C39.3403 123.406 41.6386 121.166 43.7728 118.768C44.6578 117.772 45.7213 116.785 46.1782 115.517C46.6707 114.157 46.9847 112.661 47.3701 111.258C48.0625 108.724 48.8905 106.004 50.6035 103.992C52.1167 102.217 54.7219 100.864 56.3921 100.377C57.4485 100.069 58.5762 99.9903 59.704 100.112C60.3749 100.184 62.0808 100.32 62.4519 101.1C62.7089 101.644 62.3663 102.238 62.0023 102.646C61.3456 103.376 60.5676 103.971 59.7182 104.407C61.1957 104.228 62.6803 104.042 64.1578 103.863C65.0001 103.763 66.0636 103.777 66.5061 104.608C66.9772 105.474 66.3205 106.476 65.5568 106.913C64.7931 107.349 63.3227 108.266 63.3227 108.266C63.3227 108.266 65.928 108.344 67.227 108.552C67.9836 108.674 68.8829 108.953 69.1613 109.733C69.4397 110.521 68.8972 111.043 68.3333 111.358C68.055 111.509 65.9922 111.995 65.9922 111.995C65.9922 111.995 67.484 112.468 68.0336 112.769C68.5832 113.076 69.1256 113.613 69.1328 114.265C69.147 114.981 68.5261 115.446 67.9479 115.725C66.9415 116.212 65.7638 116.255 64.9144 117.014C64.1436 117.694 64.1221 118.567 64.2221 119.641C64.5361 122.869 63.0586 123.893 61.2171 125.969C59.5541 127.838 55.1787 136.693 53.4585 138.755" fill="#C66742"/>
<path d="M60.5819 114.68C62.4734 113.155 64.8288 112.246 67.227 112.11" stroke="#893D1F" stroke-width="1.5" stroke-miterlimit="10" stroke-linejoin="round"/>
<path d="M58.2336 110.6C60.225 109.096 62.6518 108.223 65.1143 108.115" stroke="#893D1F" stroke-width="1.5" stroke-miterlimit="10" stroke-linejoin="round"/>
<path d="M55.193 106.763C57.0488 105.116 59.34 104.014 61.7453 103.599" stroke="#893D1F" stroke-width="1.5" stroke-miterlimit="10" stroke-linejoin="round"/>
<path d="M83.0867 96.3968C81.024 95.7883 78.7828 96.2537 76.8199 97.1986C75.6636 97.7498 73.8078 99.246 75.2568 100.585C75.6493 100.943 76.1561 101.129 76.6486 101.308C76.2275 101.694 75.5708 101.544 75.0426 101.752C74.5501 101.945 74.2004 102.482 74.2147 103.026C74.2289 103.477 74.4645 103.892 74.7785 104.2C75.0926 104.508 75.4852 104.722 75.8777 104.916C76.306 105.13 76.7343 105.324 77.1768 105.496C76.4559 105.481 75.5994 105.546 75.2282 106.19C74.9855 106.619 75.0569 107.178 75.3067 107.607C75.5565 108.037 75.942 108.345 76.3417 108.624C76.8128 108.96 77.3124 109.261 77.8263 109.519C77.4194 109.497 76.9769 109.54 76.6629 109.812C76.3417 110.099 76.2418 110.592 76.3274 111.029C76.4131 111.459 76.6486 111.845 76.9056 112.196C77.4195 112.905 77.9905 113.377 78.6685 113.893C78.7542 113.957 78.8399 114.021 78.8898 114.115C78.9755 114.258 78.954 114.444 78.9469 114.608C78.8827 115.532 79.0897 116.477 79.5251 117.286C79.575 117.372 79.6321 117.472 79.732 117.479C79.8034 117.486 79.8677 117.45 79.9248 117.415C81.0668 116.727 82.1446 115.897 82.9368 114.809C83.7291 113.721 84.2288 112.361 84.1217 111.001C85.5849 110.17 86.263 108.116 85.5992 106.534C86.3129 106.061 86.677 105.138 86.6413 104.257C86.6127 103.377 86.2344 102.546 85.7419 101.83C85.7705 101.866 86.2987 100.456 86.3201 100.284C86.3843 99.6683 86.2987 99.0312 86.0489 98.4657C85.5492 97.3489 84.1931 96.719 83.0867 96.3968Z" fill="#C66742"/>
<path d="M78.6045 113.971C79.304 114.401 80.0392 114.759 80.81 115.031" stroke="#893D1F" stroke-width="1.5" stroke-miterlimit="10" stroke-linejoin="round"/>
<path d="M76.9557 109.368C78.3047 109.476 79.6609 109.39 81.0099 109.504C82.2518 109.612 83.7507 109.87 84.336 111.158" stroke="#893D1F" stroke-width="1.5" stroke-miterlimit="10" stroke-linejoin="round"/>
<path d="M76.0564 105.338C78.6117 105.532 81.2098 105.303 83.7293 105.818C84.6215 105.997 85.5423 106.305 86.1419 107.006" stroke="#893D1F" stroke-width="1.5" stroke-miterlimit="10" stroke-linejoin="round"/>
<path d="M75.6849 101.322C78.3044 100.914 80.9739 100.864 83.6149 101.157C84.6712 101.279 85.7918 101.486 86.5556 102.252" stroke="#893D1F" stroke-width="1.5" stroke-miterlimit="10" stroke-linejoin="round"/>
<path d="M26.9708 123.643L29.6902 126.986L43.6585 117.515C54.0367 123.178 60.9887 139.435 64.9144 150.137C61.9666 152.55 48.9332 164.476 41.7599 167.798C32.5952 172.05 20.1258 173.661 11.7105 168.234C4.24456 163.424 -0.473411 155.141 -3.89233 146.751" fill="#818457"/>
<path d="M-3.89233 146.751C-0.473411 155.141 4.24456 163.423 11.7105 168.234C20.1258 173.66 32.5952 172.042 41.7599 167.797C48.9261 164.469 61.9666 152.549 64.9144 150.137C63.5011 144.711 57.6626 133.765 57.013 132.641" stroke="#65663A" stroke-width="1.5" stroke-miterlimit="10" stroke-linejoin="round"/>
<path d="M26.9706 123.643L29.69 126.986L43.6584 117.515" stroke="#65663A" stroke-width="1.5" stroke-miterlimit="10" stroke-linejoin="round"/>
<path d="M29.747 126.972C26.2139 130.157 23.266 134.037 21.1105 138.34" stroke="#65663A" stroke-width="1.5" stroke-miterlimit="10" stroke-linejoin="round"/>
<path d="M16.9637 134.101C18.4626 132.076 20.4398 130.422 22.6738 129.334" stroke="#65663A" stroke-width="1.5" stroke-miterlimit="10" stroke-linejoin="round"/>
<path d="M36.4637 122.333C45.6142 132.09 53.023 143.622 57.6768 156.336" stroke="#65663A" stroke-width="1.5" stroke-miterlimit="10" stroke-linejoin="round"/>
<g clip-path="url(#clip0_30_714)">
<path d="M1448.93 217.797C1448.93 217.797 1453.68 234.971 1453.07 242.854C1450.25 242.195 1444.86 241.692 1441.71 241.96C1444.92 230.971 1441.61 217.296 1441.61 217.296L1448.93 217.797Z" fill="white"/>
<path d="M1337.08 182.84C1330.1 207.629 1328.17 233.843 1331.44 259.398C1331.65 261.017 1331.97 262.8 1333.27 263.784C1334.01 264.345 1334.96 264.545 1335.87 264.708C1341.21 265.665 1346.67 265.917 1352.07 265.476C1354.72 265.261 1357.34 264.88 1359.94 264.331C1361.6 263.981 1363.4 264.053 1364.98 263.374C1367.25 262.397 1367.08 260.632 1367.6 258.483C1368.02 256.734 1368.46 254.99 1368.91 253.249C1369.86 249.67 1370.9 246.119 1372.03 242.6C1374.31 235.554 1377 228.637 1380.15 221.941C1383.96 227.948 1387.63 235.269 1393.35 239.49C1402.45 246.206 1414.53 246.978 1425.82 246.622C1430.79 246.464 1435.96 247.257 1440.8 245.828C1443.68 244.978 1446.43 243.232 1447.85 240.574C1448.52 239.317 1448.86 237.913 1449.16 236.516C1450.08 232.16 1450.56 227.718 1450.61 223.266C1450.66 218.587 1449.04 215.532 1444.63 213.717C1442.56 212.869 1440.29 212.711 1438.09 212.37C1434.4 211.8 1430.79 210.69 1427.41 209.095C1426.85 204.288 1425.88 199.547 1424.77 194.845C1423.91 191.189 1423.66 187.052 1422.19 183.644C1418.47 175.101 1412.64 166.951 1406.94 159.644" fill="#48739B"/>
<path d="M1380.39 222.828C1380.39 222.828 1376.13 214.075 1374.35 207.833" stroke="#304F70" stroke-width="2" stroke-miterlimit="10" stroke-linejoin="round"/>
<path d="M1341.28 134.394C1334.12 137.908 1326.36 140.68 1318.32 140.95C1310.26 141.22 1301.85 138.698 1296.56 133.035C1294.42 130.755 1292.87 128.053 1291.37 125.362C1289.33 121.7 1287.37 117.987 1285.78 114.128C1281.58 103.97 1280.03 93.0305 1278.51 82.2131C1285.7 77.8856 1292.83 73.4617 1299.39 68.3167C1306.93 80.0809 1314.39 91.9039 1321.93 103.668C1327.76 101.552 1333.43 99.4967 1339.66 99.1924C1345.89 98.8815 1352.37 100.222 1357.21 103.873" fill="#72CDED"/>
<mask id="mask1_30_714" style="mask-type:luminance" maskUnits="userSpaceOnUse" x="1278" y="68" width="80" height="73">
<path d="M1341.28 134.394C1334.12 137.908 1326.36 140.68 1318.32 140.95C1310.26 141.22 1301.85 138.698 1296.56 133.035C1294.42 130.755 1292.87 128.053 1291.37 125.362C1289.33 121.7 1287.37 117.987 1285.78 114.128C1281.58 103.97 1280.03 93.0305 1278.51 82.2131C1285.7 77.8856 1292.83 73.4617 1299.39 68.3167C1306.93 80.0809 1314.39 91.9039 1321.93 103.668C1327.76 101.552 1333.43 99.4967 1339.66 99.1924C1345.89 98.8815 1352.37 100.222 1357.21 103.873" fill="white"/>
</mask>
<g mask="url(#mask1_30_714)">
<path d="M1318.25 83.3981C1309.11 84.8721 1300.91 88.3733 1293.07 93.3599C1285.76 97.9966 1276.35 103.746 1274.63 112.836C1274.15 115.361 1276.78 118.038 1279.32 117.476C1287.61 115.657 1293.45 108.058 1300.12 103.184C1306.85 98.2629 1313.8 93.6566 1320.62 88.8959C1323.16 87.1202 1321.19 82.9275 1318.25 83.3981Z" fill="#84DCF4"/>
<path d="M1317.97 99.8667C1312.3 104.697 1309.2 112.748 1307.16 119.793C1304.86 127.729 1303.22 135.873 1305.55 143.973C1307.26 149.918 1315.84 147.537 1316.7 142.388C1317.81 135.702 1317.08 128.896 1318.28 122.171C1319.45 115.583 1322.42 109.6 1323.64 103.085C1324.2 100.068 1320.24 97.9216 1317.97 99.8667Z" fill="#84DCF4"/>
</g>
<path d="M1409.25 118.825C1406.22 111.632 1402.96 107.049 1395.52 104.315C1388.92 101.883 1381.75 101.326 1374.78 101.063C1367.13 100.781 1359.34 100.794 1352.02 103.01C1345.65 104.937 1340.22 108.579 1336.25 113.936C1332.12 119.53 1331.48 125.714 1331.12 132.615C1330.41 146.053 1331.14 159.687 1331.91 173.067C1332.15 176.351 1332.4 179.659 1333.33 182.818C1333.85 184.594 1334.63 186.372 1336.03 187.588C1337.04 188.466 1338.3 188.995 1339.55 189.437C1346.8 191.998 1354.61 192.336 1362.29 192.286C1374.32 192.204 1386.4 191.208 1398.13 188.486C1408.15 186.16 1421.17 183.99 1421.76 171.376C1421.93 167.626 1421.04 163.923 1420.14 160.279C1417.76 150.604 1415.38 140.936 1413 131.262C1411.97 127.05 1410.93 122.819 1409.25 118.825Z" fill="#72CDED"/>
<mask id="mask2_30_714" style="mask-type:luminance" maskUnits="userSpaceOnUse" x="1330" y="100" width="92" height="93">
<path d="M1409.25 118.825C1406.22 111.632 1402.96 107.049 1395.52 104.315C1388.92 101.883 1381.75 101.326 1374.78 101.063C1367.13 100.781 1359.34 100.794 1352.02 103.01C1345.65 104.937 1340.22 108.579 1336.25 113.936C1332.12 119.53 1331.48 125.714 1331.12 132.615C1330.41 146.053 1331.14 159.687 1331.91 173.067C1332.15 176.351 1332.4 179.659 1333.33 182.818C1333.85 184.594 1334.63 186.372 1336.03 187.588C1337.04 188.466 1338.3 188.995 1339.55 189.437C1346.8 191.998 1354.61 192.336 1362.29 192.286C1374.32 192.204 1386.4 191.208 1398.13 188.486C1408.15 186.16 1421.17 183.99 1421.76 171.376C1421.93 167.626 1421.04 163.923 1420.14 160.279C1417.76 150.604 1415.38 140.936 1413 131.262C1411.97 127.05 1410.93 122.819 1409.25 118.825Z" fill="white"/>
</mask>
<g mask="url(#mask2_30_714)">
<path d="M1321.71 177.641C1330.69 181.532 1339.6 184.204 1349.28 185.605C1359.2 187.044 1369.19 187.092 1379.18 186.287C1388.91 185.497 1398.45 183.735 1407.84 181.065C1412.64 179.695 1417.38 178.134 1422 176.249C1427.08 174.17 1432.6 172.051 1435.22 166.913C1437.05 163.308 1433.98 158.879 1430.28 158.423C1425.32 157.807 1420.59 160.903 1416.13 162.725C1412.05 164.392 1407.87 165.854 1403.65 167.069C1395.03 169.549 1386.09 171.226 1377.18 172.187C1368.47 173.124 1359.63 173.32 1350.88 173.055C1341.77 172.775 1332.49 172.178 1323.43 171.116C1319.59 170.654 1318.17 176.103 1321.71 177.641Z" fill="#84DCF4"/>
<path d="M1325.62 160.372C1342.69 167.023 1361.64 169.415 1379.81 166.786C1389.04 165.454 1398.16 163.096 1406.94 159.946C1415.39 156.908 1426.83 153.306 1431.31 145.02C1433.59 140.798 1429.02 137.248 1425.3 137.303C1420.77 137.366 1417.01 139.931 1413.08 141.964C1409.29 143.925 1405.4 145.706 1401.44 147.29C1393.68 150.396 1385.68 152.695 1377.44 154.152C1360.75 157.107 1343.98 157.601 1327.39 153.605C1323.47 152.66 1321.96 158.949 1325.62 160.372Z" fill="#84DCF4"/>
</g>
<path d="M1363.35 108.882C1363.55 110.428 1362.19 119.259 1362.19 119.259C1365.01 123.539 1372.12 124.817 1374.16 124.84C1386.55 124.981 1391.78 120.707 1394.07 118.84C1394.24 115.397 1393.37 103.273 1393.37 103.273" fill="#C66742"/>
<path d="M1338.43 53.8628C1339.72 48.1989 1340.17 43.5425 1344.07 39.2562C1351.15 31.4949 1365.06 28.5234 1375.14 28.6448C1391.27 28.8355 1409.78 37.8529 1417.02 53.07C1425.07 69.9824 1418.91 93.1276 1404.11 104.349C1392.09 113.468 1375.71 117.618 1360.82 115.003C1352.57 113.558 1344.64 109.646 1339.07 103.382C1333.5 97.1185 1330.49 88.4143 1331.82 80.1281C1332.7 74.6628 1335.33 69.6424 1336.6 64.256C1337.4 60.8373 1337.64 57.2918 1338.43 53.8628Z" fill="#C66742"/>
<path d="M1347.87 77.7335C1348.31 78.1377 1348.48 78.7949 1348.4 79.3929C1348.15 81.4571 1346.1 82.2838 1344.27 82.5369C1342.52 82.7854 1340.7 82.4096 1339.16 81.5537C1337.93 80.8673 1336.61 78.8855 1337.13 77.3973C1337.65 75.8876 1339.78 75.8919 1341.11 76.07C1342.98 76.3253 1344.83 76.6965 1346.65 77.1788C1347.06 77.2868 1347.49 77.4125 1347.82 77.6932C1347.83 77.7045 1347.85 77.7157 1347.87 77.7335Z" fill="#AD563E"/>
<path d="M1345.02 69.6342C1344.82 70.6639 1344.71 71.8675 1344.95 72.6537C1345.24 73.5475 1345.94 73.9623 1346.65 74.1079C1347.17 74.2141 1347.99 74.1449 1348.48 73.7613C1349.24 73.1594 1349.6 71.9467 1349.86 70.6078C1350.1 69.3987 1350.15 68.0371 1349.77 67.203C1349.47 66.5186 1348.82 66.2562 1348.22 66.135C1347.56 66.0025 1346.77 66.068 1346.19 66.6841C1345.61 67.3199 1345.24 68.5279 1345.02 69.6342Z" fill="#141833"/>
<path d="M1363.87 77.2736C1362.01 75.1949 1359.66 73.9541 1357.4 73.8553C1354.49 73.7278 1353.29 75.3208 1352.07 77.7297" stroke="#893D1F" stroke-width="1.5" stroke-miterlimit="10" stroke-linejoin="round"/>
<path d="M1389.1 60.8981C1389.07 62.0438 1387.93 62.8668 1386.82 63.1049C1385.78 63.3261 1384.71 63.1838 1383.67 63.3051C1382.29 63.4615 1380.31 64.6706 1378.94 64.0307C1378.02 63.6017 1377.25 61.8149 1377.27 60.8645C1377.33 57.9646 1382.28 57.0149 1384.42 57.4518C1386.16 57.8051 1389.17 58.572 1389.1 60.8981Z" fill="#2B1A1A"/>
<path d="M1350.27 55.6242C1352.5 56.2753 1353.71 57.985 1352.28 60.0572C1351.32 61.4552 1350.04 61.3305 1348.68 60.6495C1347.55 60.095 1345.64 59.6191 1344.74 58.7732C1343.65 57.7459 1344.53 56.3263 1345.61 55.7986C1346.99 55.1216 1348.82 55.2021 1350.27 55.6242Z" fill="#2B1A1A"/>
<path d="M1382.23 79.4098C1383.57 79.4739 1385.18 79.7252 1385.67 80.9706C1385.96 81.7232 1385.7 82.6024 1385.18 83.2298C1384.67 83.8498 1383.94 84.2602 1383.22 84.6164C1381.63 85.4034 1379.93 86.0315 1378.16 86.1903C1375.55 86.421 1369.6 84.536 1371.56 80.7933C1373.16 77.7428 1379.57 79.2882 1382.23 79.4098Z" fill="#AD563E"/>
<path d="M1372.82 72.0565C1372.62 73.0871 1372.51 74.2898 1372.76 75.076C1373.05 75.9698 1373.74 76.3846 1374.46 76.5302C1374.98 76.6364 1375.79 76.5672 1376.28 76.1836C1377.04 75.5817 1377.4 74.369 1377.67 73.03C1377.91 71.821 1377.95 70.4594 1377.57 69.6253C1377.27 68.9409 1376.63 68.6785 1376.02 68.5573C1375.36 68.4248 1374.57 68.4903 1373.99 69.1064C1373.41 69.7432 1373.04 70.9446 1372.82 72.0565Z" fill="#141833"/>
<mask id="mask3_30_714" style="mask-type:luminance" maskUnits="userSpaceOnUse" x="1352" y="85" width="10" height="12">
<path d="M1361.35 89.214C1362.06 92.083 1361.06 95.6762 1358.41 96.3471C1356.62 96.8022 1354.89 96.5545 1353.89 94.9403C1352.34 92.4181 1352.38 87.6191 1355.02 86.1828C1356.15 85.5682 1357.52 85.3127 1358.73 85.8018C1360.11 86.3725 1360.98 87.7576 1361.35 89.214Z" fill="white"/>
</mask>
<g mask="url(#mask3_30_714)">
<path d="M1370.32 85.4558C1371.18 86.6212 1371.68 91.0694 1369.64 94.4512C1365.9 100.602 1356.45 103.542 1349.76 99.6535C1343.26 95.8772 1342.09 85.8172 1344.68 85.1219C1345.55 84.8921 1351.1 85.4374 1355.45 85.4273C1362.67 85.4147 1369.46 84.2904 1370.32 85.4558Z" fill="#752727"/>
<path d="M1356.32 91.5319C1355.29 92.4186 1354.65 93.6973 1354.75 95.1451C1354.78 95.5217 1354.86 95.9041 1355.03 96.2398C1355.47 97.0655 1356.44 97.4815 1357.37 97.5694C1359.72 97.7898 1362.11 96.0952 1362.67 93.7987C1362.96 92.6364 1362.71 90.3633 1361.26 90.0421C1360.4 89.8505 1359.12 90.2126 1358.28 90.4649C1357.55 90.6753 1356.87 91.0456 1356.32 91.5319Z" fill="#C6493C"/>
<path d="M1360.35 84.4234C1360.44 85.1655 1360.51 85.9553 1360.18 86.611C1359.87 87.2088 1359.24 87.6044 1358.6 87.7765C1357.74 88.0055 1356.64 88.0809 1355.8 87.7735C1353.85 87.076 1354.72 85.0041 1355.28 83.629" fill="white"/>
</g>
<path d="M1382.74 114.789C1376.19 116.289 1369.01 116.207 1362.4 115.157" stroke="#893D1F" stroke-width="1.5" stroke-miterlimit="10" stroke-linejoin="round"/>
<path d="M1400.43 27.6596C1397.96 26.4559 1395.44 25.4317 1392.96 24.5635C1383.31 21.2025 1372.77 20.6909 1363.04 23.6838C1356.56 25.6794 1350.53 29.226 1345.55 34.1064C1338.69 40.8091 1334.52 51.094 1336.04 61.0171C1336.12 61.4872 1336.33 62.0781 1336.77 62.0683C1337.2 62.0613 1337.39 61.5073 1337.46 61.056C1337.95 58.0893 1338.17 55.0681 1338.73 52.1183C1339.29 49.1685 1340.23 46.2312 1341.98 43.8996C1343.34 42.0899 1345.44 40.4642 1347.65 40.19C1349.9 39.9027 1350.07 41.988 1351.15 43.7097C1353.42 47.3131 1357.33 49.48 1361.25 50.0712C1365.77 50.7444 1370.35 49.5653 1374.57 47.7635C1377.63 46.4613 1380.73 44.8049 1384.02 45.1122C1387.22 45.412 1390.03 47.5422 1392.38 49.9177C1394.08 51.626 1395.67 53.5754 1396.39 55.95C1396.98 57.902 1396.94 59.9973 1397.22 62.0265C1397.8 66.143 1399.73 69.9404 1402.18 73.1767C1404.62 76.4139 1407.58 79.1508 1410.52 81.8643C1413.59 84.705 1411.41 90.5754 1414.95 92.6681C1430.04 80.8905 1428.02 56.24 1418.65 42.5252C1414.15 35.9297 1407.48 31.0832 1400.43 27.6596Z" fill="#2B1A1A"/>
<path d="M1396.97 81.6138C1398.42 79.1911 1400.62 77.1366 1403.35 76.1209C1406.09 75.1109 1409.38 75.2304 1411.98 76.737C1415.51 78.7847 1417.17 82.9473 1417.4 86.8194C1417.63 90.5925 1416.72 94.4055 1414.64 97.5256C1412.56 100.645 1409.28 103.027 1405.49 103.926C1402.84 104.556 1399.87 104.431 1397.41 103.133C1394.94 101.827 1393.12 99.2093 1393.3 96.5871" fill="#C66742"/>
<path d="M1405.49 103.932C1402.84 104.563 1399.87 104.437 1397.41 103.139C1394.95 101.834 1393.12 99.2159 1393.3 96.5937" stroke="#893D1F" stroke-width="1.5" stroke-miterlimit="10" stroke-linejoin="round"/>
<path d="M1396.97 81.6139C1398.42 79.1913 1400.62 77.1367 1403.35 76.1211C1406.09 75.111 1409.38 75.2305 1411.98 76.7371" stroke="#893D1F" stroke-width="1.5" stroke-miterlimit="10" stroke-linejoin="round"/>
<path d="M1410.35 86.3399C1409.05 84.7759 1406.93 84.196 1405.05 84.5369C1401.12 85.2559 1398.79 88.9982 1396.55 92.1405" stroke="#893D1F" stroke-width="1.5" stroke-miterlimit="10" stroke-linejoin="round"/>
<path d="M1407.59 95.0962C1407.58 91.2467 1405.43 88.0201 1402.26 85.6541" stroke="#893D1F" stroke-width="1.5" stroke-miterlimit="10" stroke-linejoin="round"/>
<path d="M1408.79 56.4703C1408.87 57.8274 1408.95 59.1779 1409.03 60.535" stroke="#493232" stroke-width="1.5" stroke-miterlimit="10" stroke-linejoin="round"/>
<path d="M1414.26 60.6994C1414.36 61.3528 1414.36 62.0257 1414.28 62.6789" stroke="#493232" stroke-width="1.5" stroke-miterlimit="10" stroke-linejoin="round"/>
<path d="M1418.75 63.825C1418.48 64.4648 1418.21 65.0972 1417.93 65.7371" stroke="#493232" stroke-width="1.5" stroke-miterlimit="10" stroke-linejoin="round"/>
<path d="M1384.84 34.1021C1385.98 34.6341 1386.76 35.8649 1386.76 37.1266" stroke="#493232" stroke-width="1.5" stroke-miterlimit="10" stroke-linejoin="round"/>
<path d="M1390.75 34.1021C1391.07 34.9117 1391.28 35.7624 1391.39 36.6214" stroke="#493232" stroke-width="1.5" stroke-miterlimit="10" stroke-linejoin="round"/>
<path d="M1396.27 37.2827C1396.43 37.8605 1396.41 38.4847 1396.19 39.0434" stroke="#493232" stroke-width="1.5" stroke-miterlimit="10" stroke-linejoin="round"/>
<path d="M1412.96 45.0627C1413.25 45.6966 1413.07 46.503 1412.55 46.9575" stroke="#493232" stroke-width="1.5" stroke-miterlimit="10" stroke-linejoin="round"/>
<path d="M1359.72 33.7937C1360 34.6351 1360.27 35.4709 1360.55 36.3123" stroke="#493232" stroke-width="1.5" stroke-miterlimit="10" stroke-linejoin="round"/>
<path d="M1355.57 33.9099C1355.81 34.5167 1356.05 35.117 1356.29 35.7238" stroke="#493232" stroke-width="1.5" stroke-miterlimit="10" stroke-linejoin="round"/>
<path d="M1351.49 35.3184C1351.4 35.8043 1351.54 36.3315 1351.88 36.7048" stroke="#493232" stroke-width="1.5" stroke-miterlimit="10" stroke-linejoin="round"/>
<path d="M1302.73 90.6519L1280.12 88.6056C1278.51 88.4608 1277.37 86.967 1277.65 85.372L1284.8 44.5179C1285.08 42.95 1286.5 41.86 1288.08 42.0029L1310.68 44.0492C1312.3 44.194 1313.43 45.6878 1313.15 47.2828L1306 88.1369C1305.73 89.7048 1304.3 90.7948 1302.73 90.6519Z" fill="#2E3247"/>
<path d="M1291.09 55.6462L1285.88 55.1723C1285.5 55.1382 1285.24 54.795 1285.3 54.4259L1286.95 44.9998C1287.01 44.6372 1287.34 44.3834 1287.71 44.4184L1292.92 44.8923C1293.29 44.9264 1293.55 45.2697 1293.49 45.6388L1291.84 55.0648C1291.78 55.4274 1291.45 55.6812 1291.09 55.6462Z" fill="#565C75"/>
<path d="M1311.66 44.3315C1311.68 44.5624 1311.67 44.796 1311.63 45.0362L1304.48 85.8903C1304.2 87.4582 1302.78 88.5482 1301.2 88.4053L1278.59 86.359C1278.24 86.3287 1277.92 86.2218 1277.62 86.07C1277.73 87.3767 1278.75 88.4731 1280.12 88.5989L1302.73 90.6453C1304.3 90.7882 1305.73 89.6972 1306 88.1303L1313.15 47.2761C1313.37 46.0371 1312.72 44.8617 1311.66 44.3315Z" fill="#565C75"/>
<path d="M1291.3 47.4252C1291.21 48.1662 1290.32 48.6596 1289.32 48.5286C1288.32 48.3966 1287.58 47.694 1287.68 46.953C1287.77 46.212 1288.66 45.7185 1289.66 45.8496C1290.67 45.9806 1291.4 46.6842 1291.3 47.4252Z" fill="#2E3247"/>
<path d="M1290.47 52.2494C1290.38 52.9904 1289.49 53.4838 1288.49 53.3528C1287.49 53.2209 1286.75 52.5182 1286.84 51.7772C1286.94 51.0362 1287.83 50.5428 1288.83 50.6738C1289.83 50.8048 1290.57 51.5084 1290.47 52.2494Z" fill="#2E3247"/>
<path d="M1334.01 103.313C1331.39 98.8989 1325.19 90.9156 1324.2 89.7089C1320.11 84.7689 1314.74 81.9285 1308.96 79.1717C1308.18 78.796 1307.28 78.4427 1306.46 78.7456C1305.54 79.0903 1305.1 80.2151 1305.22 81.1993C1305.34 82.1835 1305.88 83.0542 1306.43 83.8838C1308.03 86.2799 1310.11 87.7924 1311.89 90.6579C1310 90.7586 1308.04 90.8845 1306.43 91.8612C1304.81 92.8379 1303.72 94.9498 1304.52 96.6647C1304.6 96.8273 1304.69 96.9938 1304.7 97.1723C1304.73 97.4228 1304.59 97.6554 1304.49 97.8842C1303.53 99.8962 1304.03 102.656 1305.95 103.958C1305.96 104.863 1305.82 104.803 1305.6 105.69C1305.27 106.964 1305.66 108.418 1306.5 109.413C1307.56 110.677 1309.04 110.687 1310.57 110.69C1310.91 110.689 1311.26 110.666 1311.57 110.796C1312.15 111.053 1312.35 111.759 1312.57 112.355C1313.46 114.732 1315.68 116.412 1318.07 117.227C1320.46 118.042 1323.04 118.109 1325.57 118.103" fill="#C66742"/>
<path d="M1305.93 104.314C1307.01 102.973 1308.72 102.261 1310.43 102.146C1312.14 102.03 1313.85 102.447 1315.45 103.061" stroke="#893D1F" stroke-width="1.5" stroke-miterlimit="10" stroke-linejoin="round"/>
<path d="M1312.2 111.292C1311.62 110.021 1311.12 109.164 1309.79 108.812" stroke="#893D1F" stroke-width="1.5" stroke-miterlimit="10" stroke-linejoin="round"/>
<path d="M1304.28 97.5793C1307.15 95.2367 1311.34 94.6469 1314.74 96.1198" stroke="#893D1F" stroke-width="1.5" stroke-miterlimit="10" stroke-linejoin="round"/>
<path d="M1311.64 90.679C1313.27 90.7677 1314.89 91.105 1316.42 91.6683" stroke="#893D1F" stroke-width="1.5" stroke-miterlimit="10" stroke-linejoin="round"/>
<path d="M1399.36 134.782C1394.52 139.194 1389.52 143.489 1383.9 146.832C1378.27 150.168 1371.96 152.535 1365.42 152.796C1361.99 152.931 1358.54 152.486 1355.2 151.679C1347.67 149.86 1340.59 146.18 1334.77 141.047C1328.89 135.867 1324.64 128.541 1320.19 122.092C1322.88 113.746 1326.89 105.833 1332.04 98.7396C1335.71 97.2502 1348.81 107.236 1359.25 112.241C1364.08 111.701 1373.84 110.433 1378.6 109.397C1383.35 108.361 1388.39 107.851 1393.02 109.377C1398.23 111.098 1402.36 115.244 1405.26 119.925" fill="#72CDED"/>
<mask id="mask4_30_714" style="mask-type:luminance" maskUnits="userSpaceOnUse" x="1320" y="98" width="86" height="55">
<path d="M1399.36 134.782C1394.52 139.194 1389.52 143.489 1383.9 146.832C1378.27 150.168 1371.96 152.535 1365.42 152.796C1361.99 152.931 1358.54 152.486 1355.2 151.679C1347.67 149.86 1340.59 146.18 1334.77 141.047C1328.89 135.867 1324.64 128.541 1320.19 122.092C1322.88 113.746 1326.89 105.833 1332.04 98.7396C1335.71 97.2502 1348.81 107.236 1359.25 112.241C1364.08 111.701 1373.84 110.433 1378.6 109.397C1383.35 108.361 1388.39 107.851 1393.02 109.377C1398.23 111.098 1402.36 115.244 1405.26 119.925" fill="white"/>
</mask>
<g mask="url(#mask4_30_714)">
<path d="M1345.55 96.5452C1343.05 96.5144 1341.3 96.5228 1339.32 98.2991C1337.86 99.6143 1336.66 101.275 1335.49 102.848C1332.86 106.427 1330.69 110.219 1328.87 114.277C1325.37 122.051 1321.9 130.487 1320.99 139.001C1320.65 142.153 1322.62 145.203 1325.72 145.971C1329.04 146.788 1331.68 145.137 1333.26 142.25C1336.83 135.667 1338.45 128.181 1341.32 121.251C1342.71 117.903 1344.23 114.589 1345.74 111.291C1346.42 109.82 1347.11 108.339 1347.92 106.936C1348.97 105.125 1349.43 103.471 1349.57 101.755C1349.76 99.4722 1348.15 96.5836 1345.55 96.5452Z" fill="#84DCF4"/>
<path d="M1360.16 105.269C1357.58 109.128 1354.69 113.37 1353.14 117.763C1351.46 122.46 1350.51 127.688 1349.84 132.624C1348.45 142.72 1348.97 154.127 1353.37 163.395C1357.32 171.705 1368.9 167.916 1368.39 159.136C1367.89 150.41 1366.25 141.859 1365.82 133.095C1365.63 129.104 1365.95 125.2 1366.21 121.218C1366.5 116.784 1366.22 112.352 1366.64 107.906C1366.98 104.488 1362.27 102.133 1360.16 105.269Z" fill="#84DCF4"/>
<path d="M1379.48 104.932C1379.28 107.023 1378.03 109.011 1377.58 111.091C1377.13 113.151 1376.77 115.25 1376.44 117.333C1375.74 121.725 1375.66 126.083 1375.93 130.523C1376.17 134.593 1377.06 138.386 1378.28 142.271C1379.77 147.025 1381.85 150.501 1385.49 153.908C1390.25 158.351 1399.79 152.957 1398.02 146.486C1396.22 139.868 1393.23 133.845 1391.81 127.111C1391.08 123.636 1390.49 120.116 1389.87 116.619C1389.55 114.756 1389.32 112.873 1388.99 111.016C1388.63 108.925 1387.6 106.989 1387.57 104.877C1387.52 100.252 1379.91 100.418 1379.48 104.932Z" fill="#84DCF4"/>
</g>
<path d="M1399.36 134.782C1394.53 139.194 1389.52 143.489 1383.9 146.832C1378.27 150.168 1371.96 152.535 1365.42 152.796C1361.99 152.931 1358.54 152.486 1355.2 151.679C1347.67 149.86 1340.59 146.18 1334.77 141.047C1328.89 135.867 1324.64 128.541 1320.19 122.092" stroke="#36A1BA" stroke-width="2" stroke-miterlimit="10" stroke-linejoin="round"/>
<path d="M1283.22 58.414C1285.66 58.6606 1287.85 60.092 1289.56 61.891C1290.56 62.9501 1291.93 65.2721 1289.84 66.0427C1289.28 66.2495 1288.66 66.2236 1288.07 66.2015C1288.36 66.7747 1289.12 66.9064 1289.6 67.3387C1290.05 67.7485 1290.2 68.4486 1289.96 69.0026C1289.77 69.4575 1289.34 69.7916 1288.89 69.9771C1288.43 70.1626 1287.92 70.2143 1287.43 70.2512C1286.89 70.288 1286.35 70.3042 1285.81 70.3008C1286.58 70.5914 1287.47 71.0194 1287.6 71.8354C1287.69 72.3767 1287.37 72.9286 1286.94 73.2637C1286.51 73.5996 1285.96 73.757 1285.43 73.8798C1284.79 74.0239 1284.14 74.1232 1283.49 74.1757C1283.93 74.3267 1284.38 74.5552 1284.6 74.9714C1284.83 75.4062 1284.73 75.9547 1284.47 76.3656C1284.2 76.7774 1283.8 77.0751 1283.38 77.3279C1282.55 77.8401 1281.75 78.0869 1280.81 78.3269C1280.7 78.3567 1280.58 78.3865 1280.49 78.4593C1280.34 78.5741 1280.29 78.7684 1280.24 78.9431C1279.92 79.9222 1279.32 80.8084 1278.53 81.4552C1278.45 81.5271 1278.34 81.5961 1278.23 81.5708C1278.16 81.5483 1278.1 81.4828 1278.05 81.4229C1277.12 80.2341 1276.31 78.9201 1275.91 77.4627C1275.5 76.0052 1275.53 74.3922 1276.2 73.0359C1274.97 71.5608 1275.09 69.1619 1276.44 67.8017C1275.87 67.0151 1275.86 65.9076 1276.25 65.0174C1276.65 64.1272 1277.38 63.429 1278.2 62.899C1278.15 62.9252 1278.16 61.242 1278.21 61.0617C1278.39 60.4021 1278.74 59.7838 1279.24 59.3068C1280.21 58.3471 1281.91 58.2789 1283.22 58.414Z" fill="#C66742"/>
<path d="M1280.84 78.4101C1279.92 78.5539 1278.99 78.6127 1278.07 78.5706" stroke="#893D1F" stroke-width="1.5" stroke-miterlimit="10" stroke-linejoin="round"/>
<path d="M1284.47 74.3701C1282.99 73.9059 1281.58 73.2454 1280.1 72.8018C1278.73 72.389 1277.03 72.0162 1275.89 73.0999" stroke="#893D1F" stroke-width="1.5" stroke-miterlimit="10" stroke-linejoin="round"/>
<path d="M1287.06 70.5966C1284.26 69.7131 1281.59 68.3775 1278.71 67.8463C1277.69 67.6573 1276.58 67.5813 1275.65 68.0532" stroke="#893D1F" stroke-width="1.5" stroke-miterlimit="10" stroke-linejoin="round"/>
<path d="M1289.09 66.6165C1286.47 65.0874 1283.65 63.9058 1280.73 63.0933C1279.55 62.7724 1278.27 62.5139 1277.15 62.9744" stroke="#893D1F" stroke-width="1.5" stroke-miterlimit="10" stroke-linejoin="round"/>
<path d="M1395.18 110.35C1398.96 112.617 1402.36 115.518 1405.2 118.892" stroke="#36A1BA" stroke-width="2" stroke-miterlimit="10" stroke-linejoin="round"/>
<path d="M1360.58 113.641C1362.58 116.494 1363.97 119.774 1364.63 123.205" stroke="#36A1BA" stroke-width="2" stroke-miterlimit="10" stroke-linejoin="round"/>
<path d="M1366.02 114.242C1367.78 116.409 1369.07 118.955 1369.78 121.658" stroke="#36A1BA" stroke-width="2" stroke-miterlimit="10" stroke-linejoin="round"/>
<path d="M1388.27 143.961C1393.58 143.815 1398.82 141.921 1403.14 138.577" stroke="#36A1BA" stroke-width="2" stroke-miterlimit="10" stroke-linejoin="round"/>
</g>
<defs>
<clipPath id="clip0_30_714">
<rect width="166" height="205" fill="white" transform="translate(1270 36.3625) rotate(-8.09061)"/>
</clipPath>
</defs>
</svg>
