<svg width="111" height="236" viewBox="0 0 111 236" fill="none" xmlns="http://www.w3.org/2000/svg">
<path d="M60.7034 81.5429C53.5158 80.3403 46.0499 80.3188 39.3048 80.8772C30.1116 81.6431 21.0253 84.3276 13.2882 89.6251C7.07843 93.8773 1.31835 89.1454 -1.80793 96.0321C-4.38461 101.702 -6.21897 107.708 -7.58226 113.814C-9.40949 122.018 -10.3802 130.394 -11.3438 138.748C-12.807 151.397 -12.9355 175.816 -13.1782 188.565C-13.2852 194.306 -12.2074 200.42 -12.8498 206.032C-13.5993 212.597 -18.5356 227.701 -18.4999 234.316C13.2882 237.569 59.5687 230.071 96.8985 225.754C102.259 225.132 106.004 226.015 111 223.904C109.979 194.496 108.333 169.745 103.893 140.681C102.794 133.486 101.695 126.27 99.7605 119.262C96.4273 107.164 89.5965 95.4737 79.1899 88.4367C73.7153 84.7429 67.113 82.6239 60.7034 81.5429Z" fill="#818457"/>
<path d="M67.5053 118.36C71.3953 126.356 74.2717 135.384 80.974 141.039C89.9246 148.591 107.419 148.541 108.968 133.816C109.51 128.626 108.211 123.214 106.448 118.389C104 111.695 100.931 104.888 96.8481 99.0962C93.0937 93.7702 88.2544 89.1385 82.4515 86.411C76.6486 83.6764 60.4319 81.9727 54.4363 84.2062" fill="#818457"/>
<path d="M67.5051 118.36C71.3951 126.356 74.2716 135.383 80.9738 141.038C89.9244 148.591 107.419 148.541 108.968 133.815" stroke="#65663A" stroke-width="1.5" stroke-miterlimit="10" stroke-linejoin="round"/>
<path d="M93.8002 84.0483C93.065 93.4119 87.4763 101.795 80.2673 107.178C73.0583 112.561 64.3575 115.274 55.6568 116.821C41.8811 119.276 27.6773 119.018 13.9801 115.998C4.69409 113.95 -4.72044 110.385 -11.3085 103.112C-13.5283 100.664 -15.4697 97.4637 -15.0557 94.0991C-14.7203 91.3502 -12.943 89.1024 -12.5147 86.4035C-12.0936 83.7763 -12.7289 80.6623 -12.8859 77.9993C-13.3141 70.9408 -15.7409 57.4825 -15.1557 50.4312C-14.0921 37.61 -11.1086 29.3632 -3.67122 19.248C7.83464 3.59197 32.3524 -2.14929 50.4534 2.00275C62.3518 4.7302 71.4238 11.9605 77.5693 23.0994C83.779 34.3456 84.7355 46.5154 86.5841 59.401C87.2979 64.3691 87.9188 69.4446 89.8817 74.019C91.4305 77.6127 94.1071 80.1039 93.8002 84.0483Z" fill="#EF9952"/>
<path d="M75.0568 31.9406C73.5579 26.5072 70.6386 21.5104 66.7486 17.5517C59.6966 10.3787 48.7189 8.69637 39.2259 9.33349C24.0584 10.35 7.08514 20.0715 1.03957 35.2264C-5.68408 52.078 1.28938 74.2484 15.7788 84.3851C27.5558 92.6247 43.1873 95.8175 57.0699 92.503C64.7572 90.6704 72.0304 86.4611 76.9554 80.0899C81.8803 73.7115 82.7083 67.555 81.031 59.5731C79.9318 54.3115 78.7612 47.117 77.298 41.9484C76.3701 38.6626 75.9704 35.2336 75.0568 31.9406Z" fill="#C66742"/>
<path d="M52.9514 62.372C54.2148 60.3175 55.8065 58.9716 57.3197 58.671C58.8328 58.3631 60.2603 59.1076 61.2382 60.704" stroke="#893D1F" stroke-width="1.5" stroke-miterlimit="10" stroke-linejoin="round"/>
<path d="M30.8963 49.708C31.2889 50.6745 32.4952 51.0038 33.4944 50.832C34.4223 50.6745 35.2574 50.202 36.1639 49.9514C37.2274 49.6579 38.3551 49.751 39.4115 49.4646C40.4893 49.1783 41.4957 48.6056 41.1245 47.3242C40.4536 45.0191 36.5636 44.0742 34.6579 44.7256C33.059 45.2768 30.0327 47.5962 30.8963 49.708Z" fill="#2B1A18"/>
<path d="M65.0071 40.7096C64.0792 40.9387 63.1941 41.4684 62.7016 42.3131C62.0378 43.4585 62.2305 45.0334 63.6866 45.3627C64.4075 45.5274 65.1569 45.3126 65.8493 45.0406C66.87 44.6469 68.1619 44.7686 69.1683 44.2388C70.6529 43.4585 70.5958 41.9194 69.1183 41.0818C67.9335 40.4089 66.3061 40.3946 65.0071 40.7096Z" fill="#2B1A18"/>
<path d="M35.5144 63.6173C34.3866 63.9967 33.0662 64.6124 32.9448 65.8294C32.8663 66.5667 33.3089 67.2826 33.8941 67.7049C34.4794 68.1273 35.1932 68.3134 35.8998 68.4494C37.4487 68.7573 39.0475 68.9004 40.6035 68.6069C42.8947 68.1774 47.5413 65.0562 44.986 62.2285C42.8947 59.9306 37.7699 62.8585 35.5144 63.6173Z" fill="#B54F30"/>
<path d="M67.4909 56.9239C67.0413 57.2246 66.7986 57.7901 66.77 58.3414C66.6773 60.2456 68.3546 61.3122 69.9177 61.8276C71.4095 62.3216 73.0583 62.2715 74.5286 61.7346C75.7063 61.3051 77.1624 59.7158 76.9269 58.2913C76.6913 56.8452 74.8284 56.5159 73.6364 56.473C71.9662 56.4157 70.296 56.4586 68.6258 56.6161C68.2475 56.6519 67.8478 56.6949 67.5195 56.9025C67.5195 56.9096 67.5052 56.9168 67.4909 56.9239Z" fill="#B54F30"/>
<path d="M70.0535 51.0256C70.2819 51.9563 70.4318 53.0515 70.2533 53.7817C70.0463 54.6121 69.4468 55.0273 68.8187 55.192C68.3618 55.3137 67.6338 55.2922 67.1841 54.9629C66.4847 54.4475 66.1064 53.3594 65.8066 52.1424C65.5354 51.0471 65.4283 49.8087 65.7209 49.0212C65.9565 48.3841 66.5132 48.1121 67.0414 47.9689C67.6195 47.8186 68.3262 47.8329 68.8686 48.3769C69.4182 48.9353 69.8037 50.0234 70.0535 51.0256Z" fill="#331814"/>
<path d="M42.1381 55.7503C42.3665 56.6809 42.5164 57.7762 42.3379 58.5063C42.1309 59.3367 41.5314 59.752 40.9033 59.9166C40.4464 60.0383 39.7184 60.0168 39.2687 59.6875C38.5692 59.1721 38.191 58.084 37.8912 56.867C37.6199 55.7717 37.5129 54.5333 37.8055 53.7458C38.0411 53.1087 38.5978 52.8367 39.126 52.6935C39.7113 52.5432 40.4108 52.5575 40.9532 53.1015C41.5099 53.6599 41.8954 54.7409 42.1381 55.7503Z" fill="#331814"/>
<path d="M50.7675 70.7973C50.4177 71.5562 50.6176 74.1548 52.1165 75.8585C54.8431 78.9582 60.389 79.5882 63.6723 76.6173C66.8557 73.7396 66.4274 67.8694 64.9143 67.7549C64.4146 67.7191 61.3954 68.6497 58.99 69.1294C54.993 69.924 51.1172 70.0385 50.7675 70.7973Z" fill="#702218"/>
<mask id="mask0_30_715" style="mask-type:luminance" maskUnits="userSpaceOnUse" x="50" y="67" width="17" height="12">
<path d="M50.7675 70.7973C50.4177 71.5562 50.6176 74.1548 52.1165 75.8585C54.8431 78.9582 60.389 79.5882 63.6723 76.6173C66.8557 73.7396 66.4274 67.8694 64.9143 67.7549C64.4146 67.7191 61.3954 68.6497 58.99 69.1294C54.993 69.924 51.1172 70.0385 50.7675 70.7973Z" fill="white"/>
</mask>
<g mask="url(#mask0_30_715)">
<path d="M48.1906 75.0208C49.3398 74.1188 50.7316 73.5819 52.152 73.2956C53.5724 73.0092 55.0213 72.9734 56.4703 72.9949C58.997 73.0235 61.5808 73.2454 63.872 74.3336C64.5715 74.6629 65.2567 75.0924 65.7349 75.7152C66.2131 76.3451 66.4558 77.2042 66.206 77.963C65.9205 78.8435 65.064 79.3804 64.2289 79.7312C63.1868 80.175 62.0876 80.4471 60.9884 80.7048C58.8685 81.2059 56.6344 81.6641 54.536 81.077C53.6723 80.8336 52.8658 80.4184 52.0949 79.9603C50.5817 79.0583 49.1827 77.9487 47.9408 76.6816" fill="#C13D27"/>
<path d="M53.915 68.8859C53.8579 69.2581 53.8008 69.6304 53.8222 70.0026C53.8436 70.3749 53.9579 70.7543 54.2077 71.0335C54.6216 71.4988 55.2997 71.5632 55.9136 71.599C58.2333 71.735 60.446 71.6062 62.573 70.5395C64.6215 69.5087 63.9577 67.5042 62.9941 65.8506" fill="white"/>
</g>
<path d="M61.324 22.1613C59.4111 20.4361 57.3555 18.7824 54.9501 17.9663C51.7525 16.8782 48.2122 17.3722 45.0716 18.6321C41.9382 19.8992 39.126 21.8821 36.3495 23.8508C30.8249 27.7737 25.3004 31.6967 19.7688 35.6196L15.6718 42.1555C28.184 36.536 41.5671 32.9996 55.1571 31.7253C59.9036 31.2815 64.7501 31.1097 69.3753 32.2837C67.1697 28.554 64.5145 25.032 61.324 22.1613Z" fill="white"/>
<path d="M18.2271 61.7776L7.37793 68.0629" stroke="#6D3119" stroke-width="2" stroke-miterlimit="10"/>
<path d="M74.2858 23.7295C70.6884 16.6067 65.4351 10.1567 58.5402 6.75631C55.9635 5.48923 53.2155 4.66598 50.439 4.06465C35.4642 0.82177 18.9121 4.41543 7.56325 15.2465C-0.973351 23.3931 -6.19095 35.298 -6.77624 47.5107C-7.23305 56.9172 -4.97042 66.4167 -0.516537 74.6206C1.98163 79.2236 4.24426 83.0177 7.9701 86.776C11.8244 90.6488 16.1498 94.0206 20.8178 96.7695L25.4073 93.3548C21.0391 89.8471 17.0278 85.6664 14.6152 80.5122C12.3954 75.766 11.6674 70.4614 11.5532 65.2355C11.4461 60.3032 11.3962 55.4496 13.3519 50.8896C16.935 42.5425 31.8526 27.0512 49.561 23.7009C56.713 25.9559 63.7578 28.9983 69.7177 33.7875C75.6776 38.5766 80.5027 45.27 82.2014 53.0014C82.6939 42.9577 77.8832 30.8524 74.2858 23.7295Z" fill="#EF9952"/>
<path d="M34.972 75.1214C44.4604 75.1214 52.1523 67.1601 52.1523 57.3393C52.1523 47.5185 44.4604 39.5571 34.972 39.5571C25.4836 39.5571 17.7917 47.5185 17.7917 57.3393C17.7917 67.1601 25.4836 75.1214 34.972 75.1214Z" stroke="#6D3119" stroke-width="2" stroke-miterlimit="10"/>
<path d="M76.7104 66.0748C84.7691 65.2477 90.4942 56.6605 89.4978 46.8947C88.5014 37.1289 81.1607 29.8826 73.102 30.7097C65.0433 31.5368 59.3183 40.124 60.3147 49.8898C61.3111 59.6556 68.6517 66.9019 76.7104 66.0748Z" stroke="#6D3119" stroke-width="2" stroke-miterlimit="10"/>
<path d="M60.2893 49.7367C56.9989 49.2427 54.0867 50.1662 51.0532 52.0417" stroke="#6D3119" stroke-width="2" stroke-miterlimit="10"/>
<path d="M18.6553 85.9026C22.531 92.5458 28.6265 97.5927 35.4787 99.8262" stroke="#CE6F2E" stroke-width="1.5" stroke-miterlimit="10" stroke-linejoin="round"/>
<path d="M49.3971 23.8007C55.0858 22.1041 61.2456 22.1614 66.9057 23.9511" stroke="#CE6F2E" stroke-width="1.5" stroke-miterlimit="10" stroke-linejoin="round"/>
<path d="M12.1101 54.2182C12.5955 43.4229 16.4141 32.6348 23.6088 24.8032C27.0991 21.0019 31.3317 17.938 35.9783 15.8477" stroke="#CE6F2E" stroke-width="1.5" stroke-miterlimit="10" stroke-linejoin="round"/>
<path d="M-7.9895 89.5894C2.68839 99.7117 16.414 106.491 30.8178 108.03C45.2215 109.569 60.2105 105.718 71.8734 96.8268" stroke="#CE6F2E" stroke-width="1.5" stroke-miterlimit="10" stroke-linejoin="round"/>
<path d="M75.2139 92.1589C79.8248 88.4149 83.0081 82.8312 83.9432 76.8394" stroke="#CE6F2E" stroke-width="1.5" stroke-miterlimit="10" stroke-linejoin="round"/>
<path d="M77.605 137.309C79.2324 137.953 81.131 137.538 82.6013 136.572C84.0788 135.605 85.1851 134.145 86.1345 132.627C91.5947 123.822 92.0087 112.59 90.4028 102.253" stroke="#65663A" stroke-width="1.5" stroke-miterlimit="10" stroke-linejoin="round"/>
<path d="M80.189 100.477C87.5835 100.334 94.1501 103.727 99.9102 108.266" stroke="#65663A" stroke-width="1.5" stroke-miterlimit="10" stroke-linejoin="round"/>
<path d="M59.0186 94.8937L56.3135 128.124C56.1993 129.535 57.5126 130.608 58.8116 130.165L76.3916 124.173C77.6978 123.729 78.6186 122.519 78.7328 121.109L81.4379 87.8782C81.5521 86.4679 80.2388 85.3941 78.9398 85.838L61.3598 91.8298C60.0536 92.2665 59.1328 93.4763 59.0186 94.8937Z" fill="#2E3247"/>
<path d="M63.0443 95.4734L62.559 101.415C62.5376 101.666 62.7731 101.859 63.0086 101.78L66.1492 100.706C66.3847 100.628 66.5489 100.413 66.5703 100.155L67.0557 94.2135C67.0771 93.9629 66.8415 93.7696 66.606 93.8484L63.4655 94.9222C63.2299 95.0081 63.0657 95.2228 63.0443 95.4734Z" fill="#565C75"/>
<path d="M57.9623 128.933L60.6674 95.7025C60.7816 94.2851 61.7024 93.0824 63.0086 92.6386L80.5886 86.6468C80.7527 86.5895 80.9169 86.5609 81.0739 86.5465C80.61 85.8879 79.7749 85.5443 78.9398 85.8307L61.3598 91.8225C60.0536 92.2663 59.1328 93.4761 59.0186 94.8864L56.3135 128.117C56.2135 129.348 57.2057 130.322 58.3263 130.25C58.0693 129.892 57.9266 129.441 57.9623 128.933Z" fill="#565C75"/>
<path d="M36.9064 125.468C39.3403 123.406 41.6386 121.166 43.7728 118.768C44.6578 117.772 45.7213 116.785 46.1782 115.517C46.6707 114.157 46.9847 112.661 47.3701 111.258C48.0625 108.724 48.8905 106.004 50.6035 103.992C52.1167 102.217 54.7219 100.864 56.3921 100.377C57.4485 100.069 58.5762 99.9903 59.704 100.112C60.3749 100.184 62.0808 100.32 62.4519 101.1C62.7089 101.644 62.3663 102.238 62.0023 102.646C61.3456 103.376 60.5676 103.971 59.7182 104.407C61.1957 104.228 62.6803 104.042 64.1578 103.863C65.0001 103.763 66.0636 103.777 66.5061 104.608C66.9772 105.474 66.3205 106.476 65.5568 106.913C64.7931 107.349 63.3227 108.266 63.3227 108.266C63.3227 108.266 65.928 108.344 67.227 108.552C67.9836 108.674 68.8829 108.953 69.1613 109.733C69.4397 110.521 68.8972 111.043 68.3333 111.358C68.055 111.509 65.9922 111.995 65.9922 111.995C65.9922 111.995 67.484 112.468 68.0336 112.769C68.5832 113.076 69.1256 113.613 69.1328 114.265C69.147 114.981 68.5261 115.446 67.9479 115.725C66.9415 116.212 65.7638 116.255 64.9144 117.014C64.1436 117.694 64.1221 118.567 64.2221 119.641C64.5361 122.869 63.0586 123.893 61.2171 125.969C59.5541 127.838 55.1787 136.693 53.4585 138.755" fill="#C66742"/>
<path d="M60.5819 114.68C62.4734 113.155 64.8288 112.246 67.227 112.11" stroke="#893D1F" stroke-width="1.5" stroke-miterlimit="10" stroke-linejoin="round"/>
<path d="M58.2336 110.6C60.225 109.096 62.6518 108.223 65.1143 108.115" stroke="#893D1F" stroke-width="1.5" stroke-miterlimit="10" stroke-linejoin="round"/>
<path d="M55.193 106.763C57.0488 105.116 59.34 104.014 61.7453 103.599" stroke="#893D1F" stroke-width="1.5" stroke-miterlimit="10" stroke-linejoin="round"/>
<path d="M83.0867 96.3968C81.024 95.7883 78.7828 96.2537 76.8199 97.1986C75.6636 97.7498 73.8078 99.246 75.2568 100.585C75.6493 100.943 76.1561 101.129 76.6486 101.308C76.2275 101.694 75.5708 101.544 75.0426 101.752C74.5501 101.945 74.2004 102.482 74.2147 103.026C74.2289 103.477 74.4645 103.892 74.7785 104.2C75.0926 104.508 75.4852 104.722 75.8777 104.916C76.306 105.13 76.7343 105.324 77.1768 105.496C76.4559 105.481 75.5994 105.546 75.2282 106.19C74.9855 106.619 75.0569 107.178 75.3067 107.607C75.5565 108.037 75.942 108.345 76.3417 108.624C76.8128 108.96 77.3124 109.261 77.8263 109.519C77.4194 109.497 76.9769 109.54 76.6629 109.812C76.3417 110.099 76.2418 110.592 76.3274 111.029C76.4131 111.459 76.6486 111.845 76.9056 112.196C77.4195 112.905 77.9905 113.377 78.6685 113.893C78.7542 113.957 78.8399 114.021 78.8898 114.115C78.9755 114.258 78.954 114.444 78.9469 114.608C78.8827 115.532 79.0897 116.477 79.5251 117.286C79.575 117.372 79.6321 117.472 79.732 117.479C79.8034 117.486 79.8677 117.45 79.9248 117.415C81.0668 116.727 82.1446 115.897 82.9368 114.809C83.7291 113.721 84.2288 112.361 84.1217 111.001C85.5849 110.17 86.263 108.116 85.5992 106.534C86.3129 106.061 86.677 105.138 86.6413 104.257C86.6127 103.377 86.2344 102.546 85.7419 101.83C85.7705 101.866 86.2987 100.456 86.3201 100.284C86.3843 99.6683 86.2987 99.0312 86.0489 98.4657C85.5492 97.3489 84.1931 96.719 83.0867 96.3968Z" fill="#C66742"/>
<path d="M78.6045 113.971C79.304 114.401 80.0392 114.759 80.81 115.031" stroke="#893D1F" stroke-width="1.5" stroke-miterlimit="10" stroke-linejoin="round"/>
<path d="M76.9557 109.368C78.3047 109.476 79.6609 109.39 81.0099 109.504C82.2518 109.612 83.7507 109.87 84.336 111.158" stroke="#893D1F" stroke-width="1.5" stroke-miterlimit="10" stroke-linejoin="round"/>
<path d="M76.0564 105.338C78.6117 105.532 81.2098 105.303 83.7293 105.818C84.6215 105.997 85.5423 106.305 86.1419 107.006" stroke="#893D1F" stroke-width="1.5" stroke-miterlimit="10" stroke-linejoin="round"/>
<path d="M75.6849 101.322C78.3044 100.914 80.9739 100.864 83.6149 101.157C84.6712 101.279 85.7918 101.486 86.5556 102.252" stroke="#893D1F" stroke-width="1.5" stroke-miterlimit="10" stroke-linejoin="round"/>
<path d="M26.9708 123.643L29.6902 126.986L43.6585 117.515C54.0367 123.178 60.9887 139.435 64.9144 150.137C61.9666 152.55 48.9332 164.476 41.7599 167.798C32.5952 172.05 20.1258 173.661 11.7105 168.234C4.24456 163.424 -0.473411 155.141 -3.89233 146.751" fill="#818457"/>
<path d="M-3.89233 146.751C-0.473411 155.141 4.24456 163.423 11.7105 168.234C20.1258 173.66 32.5952 172.042 41.7599 167.797C48.9261 164.469 61.9666 152.549 64.9144 150.137C63.5011 144.711 57.6626 133.765 57.013 132.641" stroke="#65663A" stroke-width="1.5" stroke-miterlimit="10" stroke-linejoin="round"/>
<path d="M26.9706 123.643L29.69 126.986L43.6584 117.515" stroke="#65663A" stroke-width="1.5" stroke-miterlimit="10" stroke-linejoin="round"/>
<path d="M29.747 126.972C26.2139 130.157 23.266 134.037 21.1105 138.34" stroke="#65663A" stroke-width="1.5" stroke-miterlimit="10" stroke-linejoin="round"/>
<path d="M16.9637 134.101C18.4626 132.076 20.4398 130.422 22.6738 129.334" stroke="#65663A" stroke-width="1.5" stroke-miterlimit="10" stroke-linejoin="round"/>
<path d="M36.4637 122.333C45.6142 132.09 53.023 143.622 57.6768 156.336" stroke="#65663A" stroke-width="1.5" stroke-miterlimit="10" stroke-linejoin="round"/>
</svg>
