<svg width="170" height="227" viewBox="0 0 170 227" fill="none" xmlns="http://www.w3.org/2000/svg">
<g clip-path="url(#clip0_30_894)">
<path d="M178.934 204.797C178.934 204.797 183.685 221.971 183.075 229.854C180.246 229.195 174.863 228.692 171.706 228.96C174.916 217.971 171.608 204.296 171.608 204.296L178.934 204.797Z" fill="white"/>
<path d="M67.0756 169.84C60.0969 194.629 58.1662 220.843 61.4394 246.398C61.6496 248.017 61.9697 249.8 63.2676 250.784C64.013 251.345 64.9598 251.545 65.8749 251.708C71.209 252.665 76.6691 252.917 82.0706 252.476C84.7155 252.261 87.3436 251.88 89.9411 251.331C91.6019 250.981 93.4023 251.053 94.9831 250.374C97.2535 249.397 97.0825 247.632 97.5957 245.483C98.0193 243.734 98.4568 241.99 98.9149 240.249C99.8636 236.67 100.896 233.119 102.033 229.6C104.313 222.554 106.997 215.637 110.151 208.941C113.96 214.948 117.63 222.269 123.348 226.49C132.449 233.206 144.533 233.978 155.823 233.622C160.786 233.464 165.957 234.257 170.798 232.828C173.679 231.978 176.426 230.232 177.845 227.574C178.518 226.317 178.865 224.913 179.158 223.516C180.077 219.16 180.563 214.718 180.609 210.266C180.656 205.587 179.044 202.532 174.626 200.717C172.562 199.869 170.29 199.711 168.085 199.37C164.397 198.8 160.792 197.69 157.41 196.095C156.853 191.288 155.88 186.547 154.772 181.845C153.913 178.189 153.664 174.052 152.188 170.644C148.471 162.101 142.641 153.951 136.943 146.644" fill="#48739B"/>
<path d="M110.391 209.828C110.391 209.828 106.132 201.075 104.346 194.833" stroke="#304F70" stroke-width="2" stroke-miterlimit="10" stroke-linejoin="round"/>
<path d="M71.284 121.394C64.123 124.908 56.364 127.68 48.3158 127.95C40.261 128.22 31.8492 125.698 26.5584 120.035C24.424 117.755 22.8684 115.053 21.3678 112.362C19.3298 108.7 17.371 104.987 15.7775 101.128C11.5848 90.9704 10.0296 80.0305 8.50522 69.2131C15.7037 64.8856 22.8286 60.4617 29.3917 55.3167C36.9343 67.0809 44.392 78.9039 51.9345 90.6681C57.7569 88.5521 63.4347 86.4967 69.661 86.1924C75.8864 85.8815 82.3732 87.2223 87.2116 90.8734" fill="#72CDED"/>
<mask id="mask0_30_894" style="mask-type:luminance" maskUnits="userSpaceOnUse" x="8" y="55" width="80" height="73">
<path d="M71.284 121.394C64.123 124.908 56.364 127.68 48.3158 127.95C40.261 128.22 31.8492 125.698 26.5584 120.035C24.424 117.755 22.8684 115.053 21.3678 112.362C19.3298 108.7 17.371 104.987 15.7775 101.128C11.5848 90.9704 10.0296 80.0305 8.50522 69.2131C15.7037 64.8856 22.8286 60.4617 29.3917 55.3167C36.9343 67.0809 44.392 78.9039 51.9345 90.6681C57.7569 88.5521 63.4347 86.4967 69.661 86.1924C75.8864 85.8815 82.3732 87.2223 87.2116 90.8734" fill="white"/>
</mask>
<g mask="url(#mask0_30_894)">
<path d="M48.2544 70.3981C39.1062 71.8721 30.9117 75.3733 23.0682 80.3599C15.7606 84.9966 6.3549 90.746 4.62551 99.8365C4.1458 102.361 6.77589 105.038 9.31834 104.476C17.6055 102.657 23.4471 95.0582 30.122 90.1843C36.85 85.2629 43.8025 80.6566 50.62 75.8959C53.1562 74.1202 51.1892 69.9275 48.2544 70.3981Z" fill="#84DCF4"/>
<path d="M47.9665 86.8667C42.3037 91.6969 39.2018 99.7475 37.1617 106.793C34.8623 114.729 33.218 122.873 35.5475 130.973C37.2578 136.918 45.8377 134.537 46.6965 129.388C47.8093 122.702 47.0814 115.896 48.2752 109.171C49.4485 102.583 52.4184 96.6005 53.6419 90.0851C54.2047 87.068 50.239 84.9216 47.9665 86.8667Z" fill="#84DCF4"/>
</g>
<path d="M139.247 105.825C136.221 98.6323 132.961 94.0494 125.524 91.315C118.915 88.8835 111.754 88.3261 104.775 88.0632C97.1345 87.781 89.3426 87.7939 82.0171 90.0101C75.6487 91.9367 70.2164 95.5792 66.2523 100.936C62.1158 106.53 61.4841 112.714 61.1206 119.615C60.4086 133.053 61.1355 146.687 61.9127 160.067C62.1532 163.351 62.4039 166.659 63.3321 169.818C63.8507 171.594 64.6293 173.372 66.0269 174.588C67.0368 175.466 68.2966 175.995 69.5509 176.437C76.7969 178.998 84.6119 179.336 92.2919 179.286C104.32 179.204 116.398 178.208 128.131 175.486C138.15 173.16 151.166 170.99 151.762 158.376C151.935 154.626 151.035 150.923 150.138 147.279C147.758 137.604 145.379 127.936 142.998 118.262C141.967 114.05 140.926 109.819 139.247 105.825Z" fill="#72CDED"/>
<mask id="mask1_30_894" style="mask-type:luminance" maskUnits="userSpaceOnUse" x="60" y="87" width="92" height="93">
<path d="M139.247 105.825C136.221 98.6323 132.961 94.0494 125.524 91.315C118.915 88.8835 111.754 88.3261 104.775 88.0632C97.1345 87.781 89.3426 87.7939 82.0171 90.0101C75.6487 91.9367 70.2164 95.5792 66.2523 100.936C62.1158 106.53 61.4841 112.714 61.1206 119.615C60.4086 133.053 61.1355 146.687 61.9127 160.067C62.1532 163.351 62.4039 166.659 63.3321 169.818C63.8507 171.594 64.6293 173.372 66.0269 174.588C67.0368 175.466 68.2966 175.995 69.5509 176.437C76.7969 178.998 84.6119 179.336 92.2919 179.286C104.32 179.204 116.398 178.208 128.131 175.486C138.15 173.16 151.166 170.99 151.762 158.376C151.935 154.626 151.035 150.923 150.138 147.279C147.758 137.604 145.379 127.936 142.998 118.262C141.967 114.05 140.926 109.819 139.247 105.825Z" fill="white"/>
</mask>
<g mask="url(#mask1_30_894)">
<path d="M51.7142 164.641C60.6866 168.532 69.5989 171.204 79.2756 172.605C89.2039 174.044 99.1942 174.092 109.183 173.287C118.914 172.497 128.447 170.735 137.838 168.065C142.642 166.695 147.378 165.134 151.996 163.249C157.084 161.17 162.6 159.051 165.218 153.913C167.054 150.308 163.976 145.879 160.283 145.423C155.317 144.807 150.586 147.903 146.126 149.725C142.051 151.392 137.872 152.854 133.646 154.069C125.027 156.549 116.094 158.226 107.178 159.187C98.473 160.124 89.629 160.32 80.8792 160.055C71.7678 159.775 62.4851 159.178 53.4289 158.116C49.5895 157.654 48.1677 163.103 51.7142 164.641Z" fill="#84DCF4"/>
<path d="M55.6153 147.372C72.6873 154.023 91.6429 156.415 109.812 153.786C119.04 152.454 128.162 150.096 136.939 146.946C145.393 143.908 156.834 140.306 161.307 132.02C163.588 127.798 159.024 124.248 155.304 124.303C150.774 124.366 147.006 126.931 143.082 128.964C139.287 130.925 135.401 132.706 131.44 134.29C123.681 137.396 115.675 139.695 107.443 141.152C90.7452 144.107 73.9834 144.601 57.3888 140.605C53.4675 139.66 51.9588 145.949 55.6153 147.372Z" fill="#84DCF4"/>
</g>
<path d="M93.3476 95.8819C93.554 97.4279 92.1938 106.259 92.1938 106.259C95.0051 110.539 102.122 111.817 104.162 111.84C116.555 111.981 121.784 107.707 124.068 105.84C124.244 102.397 123.366 90.273 123.366 90.273" fill="#C66742"/>
<path d="M68.4283 40.8628C69.7197 35.1989 70.1692 30.5425 74.0724 26.2562C81.1488 18.4949 95.0558 15.5234 105.143 15.6448C121.27 15.8355 139.776 24.8529 147.024 40.07C155.073 56.9824 148.905 80.1276 134.114 91.3485C122.086 100.468 105.711 104.618 90.8167 102.003C82.5714 100.558 74.6409 96.6455 69.065 90.3824C63.4957 84.1185 60.488 75.4143 61.8192 67.1281C62.6996 61.6628 65.3337 56.6424 66.5979 51.256C67.4031 47.8373 67.6445 44.2918 68.4283 40.8628Z" fill="#C66742"/>
<path d="M77.8651 64.7335C78.3086 65.1377 78.4752 65.7949 78.4005 66.3929C78.1548 68.4571 76.0959 69.2838 74.2684 69.5369C72.52 69.7854 70.7028 69.4096 69.1635 68.5537C67.9345 67.8673 66.6145 65.8855 67.1284 64.3973C67.6526 62.8876 69.783 62.8919 71.1128 63.07C72.9794 63.3253 74.8291 63.6965 76.6481 64.1788C77.0628 64.2868 77.4933 64.4125 77.8194 64.6932C77.8343 64.7045 77.8492 64.7157 77.8651 64.7335Z" fill="#AD563E"/>
<path d="M75.0164 56.6342C74.8167 57.6639 74.7083 58.8675 74.9532 59.6537C75.2399 60.5475 75.9378 60.9623 76.6507 61.1079C77.1716 61.2141 77.9871 61.1449 78.4783 60.7613C79.238 60.1594 79.5981 58.9467 79.8603 57.6078C80.1011 56.3987 80.1471 55.0371 79.769 54.203C79.4654 53.5186 78.8224 53.2562 78.2195 53.135C77.5551 53.0025 76.7657 53.068 76.1878 53.6841C75.6126 54.3199 75.2385 55.5279 75.0164 56.6342Z" fill="#141833"/>
<path d="M93.8729 64.2736C92.0133 62.1949 89.6606 60.9541 87.3969 60.8553C84.4903 60.7278 83.2858 62.3208 82.0708 64.7297" stroke="#893D1F" stroke-width="1.5" stroke-miterlimit="10" stroke-linejoin="round"/>
<path d="M119.099 47.8981C119.069 49.0438 117.928 49.8668 116.817 50.1049C115.777 50.3261 114.712 50.1838 113.671 50.3051C112.289 50.4615 110.311 51.6706 108.942 51.0307C108.016 50.6017 107.249 48.8149 107.267 47.8645C107.334 44.9646 112.277 44.0149 114.416 44.4518C116.157 44.8051 119.168 45.572 119.099 47.8981Z" fill="#2B1A1A"/>
<path d="M80.2661 42.6242C82.4951 43.2753 83.7099 44.985 82.2806 47.0572C81.3213 48.4552 80.039 48.3305 78.6776 47.6495C77.5539 47.095 75.6426 46.6191 74.737 45.7732C73.6526 44.7459 74.529 43.3263 75.612 42.7986C76.9933 42.1216 78.8217 42.2021 80.2661 42.6242Z" fill="#2B1A1A"/>
<path d="M112.233 66.4098C113.567 66.4739 115.18 66.7252 115.67 67.9706C115.963 68.7232 115.695 69.6024 115.179 70.2298C114.668 70.8498 113.941 71.2602 113.22 71.6164C111.628 72.4034 109.933 73.0315 108.159 73.1903C105.549 73.421 99.6042 71.536 101.561 67.7933C103.158 64.7428 109.567 66.2882 112.233 66.4098Z" fill="#AD563E"/>
<path d="M102.822 59.0565C102.616 60.0871 102.514 61.2898 102.759 62.076C103.045 62.9698 103.743 63.3846 104.456 63.5302C104.977 63.6364 105.792 63.5672 106.284 63.1836C107.043 62.5817 107.403 61.369 107.666 60.03C107.906 58.821 107.953 57.4594 107.574 56.6253C107.271 55.9409 106.628 55.6785 106.025 55.5573C105.36 55.4248 104.571 55.4903 103.993 56.1064C103.411 56.7432 103.036 57.9446 102.822 59.0565Z" fill="#141833"/>
<mask id="mask2_30_894" style="mask-type:luminance" maskUnits="userSpaceOnUse" x="82" y="72" width="10" height="12">
<path d="M91.3504 76.214C92.0644 79.083 91.0644 82.6762 88.411 83.3471C86.6188 83.8022 84.8864 83.5545 83.8916 81.9403C82.335 79.4181 82.3783 74.6191 85.016 73.1828C86.1466 72.5682 87.5213 72.3127 88.729 72.8018C90.1146 73.3725 90.9837 74.7576 91.3504 76.214Z" fill="white"/>
</mask>
<g mask="url(#mask2_30_894)">
<path d="M100.32 72.4558C101.185 73.6212 101.684 78.0694 99.6358 81.4512C95.9045 87.6021 86.4456 90.5421 79.7564 86.6535C73.2628 82.8772 72.0923 72.8172 74.6823 72.1219C75.5481 71.8921 81.1032 72.4374 85.4479 72.4273C92.674 72.4147 99.456 71.2904 100.32 72.4558Z" fill="#752727"/>
<path d="M86.3155 78.5319C85.2901 79.4186 84.6532 80.6973 84.7525 82.1451C84.7795 82.5217 84.8604 82.9041 85.0346 83.2398C85.4715 84.0655 86.4424 84.4815 87.3734 84.5694C89.7208 84.7898 92.1089 83.0952 92.6743 80.7987C92.9617 79.6364 92.7051 77.3633 91.2551 77.0421C90.3959 76.8505 89.1163 77.2126 88.2802 77.4649C87.5514 77.6753 86.8719 78.0456 86.3155 78.5319Z" fill="#C6493C"/>
<path d="M90.3499 71.4234C90.4354 72.1655 90.5144 72.9553 90.175 73.611C89.8673 74.2088 89.2447 74.6044 88.597 74.7765C87.7377 75.0055 86.6435 75.0809 85.8012 74.7735C83.8518 74.076 84.7153 72.0041 85.2786 70.629" fill="white"/>
</g>
<path d="M112.743 101.789C106.188 103.289 99.0146 103.207 92.4028 102.157" stroke="#893D1F" stroke-width="1.5" stroke-miterlimit="10" stroke-linejoin="round"/>
<path d="M130.434 14.6596C127.96 13.4559 125.445 12.4317 122.959 11.5635C113.31 8.20246 102.774 7.69085 93.0367 10.6838C86.5583 12.6794 80.5334 16.226 75.5499 21.1064C68.6891 27.8091 64.5205 38.094 66.0443 48.0171C66.1177 48.4872 66.3282 49.0781 66.7727 49.0683C67.1977 49.0613 67.3852 48.5073 67.4608 48.056C67.9509 45.0893 68.167 42.0681 68.726 39.1183C69.2851 36.1685 70.2253 33.2312 71.977 30.8996C73.3437 29.0899 75.4354 27.4642 77.646 27.19C79.9014 26.9027 80.0713 28.988 81.1547 30.7097C83.4173 34.3131 87.3327 36.48 91.2503 37.0712C95.7653 37.7444 100.35 36.5653 104.573 34.7635C107.629 33.4613 110.735 31.8049 114.02 32.1122C117.217 32.412 120.029 34.5422 122.383 36.9177C124.077 38.626 125.672 40.5754 126.389 42.95C126.979 44.902 126.938 46.9973 127.219 49.0265C127.798 53.143 129.729 56.9404 132.179 60.1767C134.622 63.4139 137.58 66.1508 140.515 68.8643C143.588 71.705 141.408 77.5754 144.953 79.6681C160.044 67.8905 158.017 43.24 148.654 29.5252C144.149 22.9297 137.483 18.0832 130.434 14.6596Z" fill="#2B1A1A"/>
<path d="M126.969 68.6138C128.422 66.1911 130.619 64.1366 133.35 63.1209C136.088 62.1109 139.38 62.2304 141.976 63.737C145.509 65.7847 147.172 69.9473 147.403 73.8194C147.627 77.5925 146.724 81.4055 144.639 84.5256C142.56 87.6447 139.278 90.0271 135.492 90.9257C132.84 91.5564 129.873 91.4307 127.406 90.1327C124.944 88.8272 123.121 86.2093 123.301 83.5871" fill="#C66742"/>
<path d="M135.493 90.9323C132.841 91.563 129.874 91.4373 127.407 90.1393C124.945 88.8338 123.122 86.2159 123.302 83.5937" stroke="#893D1F" stroke-width="1.5" stroke-miterlimit="10" stroke-linejoin="round"/>
<path d="M126.969 68.6139C128.422 66.1913 130.619 64.1367 133.35 63.1211C136.088 62.111 139.379 62.2305 141.976 63.7371" stroke="#893D1F" stroke-width="1.5" stroke-miterlimit="10" stroke-linejoin="round"/>
<path d="M140.353 73.3399C139.053 71.7759 136.934 71.196 135.052 71.5369C131.121 72.2559 128.791 75.9982 126.549 79.1405" stroke="#893D1F" stroke-width="1.5" stroke-miterlimit="10" stroke-linejoin="round"/>
<path d="M137.591 82.0962C137.576 78.2467 135.434 75.0201 132.262 72.6541" stroke="#893D1F" stroke-width="1.5" stroke-miterlimit="10" stroke-linejoin="round"/>
<path d="M138.789 43.4703C138.869 44.8274 138.947 46.1779 139.027 47.535" stroke="#493232" stroke-width="1.5" stroke-miterlimit="10" stroke-linejoin="round"/>
<path d="M144.256 47.6994C144.355 48.3528 144.364 49.0257 144.278 49.6789" stroke="#493232" stroke-width="1.5" stroke-miterlimit="10" stroke-linejoin="round"/>
<path d="M148.753 50.825C148.478 51.4648 148.209 52.0972 147.934 52.7371" stroke="#493232" stroke-width="1.5" stroke-miterlimit="10" stroke-linejoin="round"/>
<path d="M114.837 21.1021C115.978 21.6341 116.758 22.8649 116.758 24.1266" stroke="#493232" stroke-width="1.5" stroke-miterlimit="10" stroke-linejoin="round"/>
<path d="M120.754 21.1021C121.069 21.9117 121.283 22.7624 121.392 23.6214" stroke="#493232" stroke-width="1.5" stroke-miterlimit="10" stroke-linejoin="round"/>
<path d="M126.271 24.2827C126.433 24.8605 126.409 25.4847 126.189 26.0434" stroke="#493232" stroke-width="1.5" stroke-miterlimit="10" stroke-linejoin="round"/>
<path d="M142.965 32.0627C143.248 32.6966 143.069 33.503 142.548 33.9575" stroke="#493232" stroke-width="1.5" stroke-miterlimit="10" stroke-linejoin="round"/>
<path d="M89.722 20.7937C90.0014 21.6351 90.2732 22.4709 90.5526 23.3123" stroke="#493232" stroke-width="1.5" stroke-miterlimit="10" stroke-linejoin="round"/>
<path d="M85.5718 20.9099C85.8111 21.5167 86.0495 22.117 86.2889 22.7238" stroke="#493232" stroke-width="1.5" stroke-miterlimit="10" stroke-linejoin="round"/>
<path d="M81.4862 22.3184C81.4021 22.8043 81.5437 23.3315 81.8762 23.7048" stroke="#493232" stroke-width="1.5" stroke-miterlimit="10" stroke-linejoin="round"/>
<path d="M32.7262 77.6519L10.1191 75.6056C8.50786 75.4608 7.37039 73.967 7.64948 72.372L14.8003 31.5179C15.0766 29.95 16.499 28.86 18.0767 29.0029L40.6838 31.0492C42.295 31.194 43.4325 32.6878 43.1534 34.2828L36.0026 75.1369C35.7263 76.7048 34.3039 77.7948 32.7262 77.6519Z" fill="#2E3247"/>
<path d="M21.0879 42.6462L15.8758 42.1723C15.5049 42.1382 15.2431 41.795 15.3038 41.4259L16.9522 31.9998C17.0138 31.6372 17.3437 31.3834 17.7081 31.4184L22.9202 31.8923C23.2911 31.9264 23.5529 32.2697 23.4923 32.6388L21.8439 42.0648C21.7822 42.4274 21.4523 42.6812 21.0879 42.6462Z" fill="#565C75"/>
<path d="M41.6555 31.3315C41.6751 31.5624 41.675 31.796 41.6293 32.0362L34.4784 72.8903C34.2021 74.4582 32.7797 75.5482 31.202 75.4053L8.59493 73.359C8.24453 73.3287 7.91653 73.2218 7.62208 73.07C7.72796 74.3767 8.74904 75.4731 10.118 75.5989L32.7251 77.6453C34.3028 77.7882 35.7317 76.6972 36.0015 75.1303L43.1523 34.2761C43.3689 33.0371 42.7159 31.8617 41.6555 31.3315Z" fill="#565C75"/>
<path d="M21.3035 34.4252C21.2091 35.1662 20.3209 35.6596 19.3172 35.5286C18.3201 35.3966 17.5813 34.694 17.6756 33.953C17.7699 33.212 18.6582 32.7185 19.6618 32.8496C20.6655 32.9806 21.3978 33.6842 21.3035 34.4252Z" fill="#2E3247"/>
<path d="M20.4715 39.2494C20.3771 39.9904 19.4889 40.4838 18.4852 40.3528C17.4881 40.2209 16.7493 39.5182 16.8436 38.7772C16.9379 38.0362 17.8262 37.5428 18.8298 37.6738C19.8335 37.8048 20.5658 38.5084 20.4715 39.2494Z" fill="#2E3247"/>
<path d="M64.0103 90.3129C61.3928 85.8989 55.193 77.9156 54.1962 76.7089C50.1129 71.7689 44.7374 68.9285 38.9612 66.1717C38.1757 65.796 37.2802 65.4427 36.4647 65.7456C35.542 66.0903 35.0962 67.2151 35.2161 68.1993C35.3361 69.1835 35.8792 70.0542 36.4297 70.8838C38.0282 73.2799 40.1134 74.7924 41.8852 77.6579C40.0027 77.7586 38.0372 77.8845 36.4256 78.8612C34.814 79.8379 33.7166 81.9498 34.5194 83.6647C34.5958 83.8273 34.6927 83.9938 34.7047 84.1723C34.727 84.4228 34.5937 84.6554 34.4865 84.8842C33.5279 86.8962 34.0266 89.6556 35.9489 90.9577C35.9644 91.8633 35.8228 91.8034 35.5961 92.69C35.2714 93.9644 35.6578 95.4181 36.4981 96.4134C37.5629 97.6772 39.0419 97.6872 40.5731 97.6898C40.9058 97.6892 41.2552 97.6663 41.5665 97.7956C42.1488 98.0532 42.349 98.759 42.5734 99.3546C43.4572 101.732 45.6794 103.412 48.0714 104.227C50.4634 105.042 53.0421 105.109 55.5704 105.103" fill="#C66742"/>
<path d="M35.9329 91.3135C37.0069 89.9727 38.7228 89.2615 40.4301 89.1456C42.1374 89.0297 43.8474 89.4475 45.4455 90.0614" stroke="#893D1F" stroke-width="1.5" stroke-miterlimit="10" stroke-linejoin="round"/>
<path d="M42.2029 98.2925C41.6162 97.0208 41.115 96.1642 39.7871 95.8123" stroke="#893D1F" stroke-width="1.5" stroke-miterlimit="10" stroke-linejoin="round"/>
<path d="M34.2833 84.5793C37.145 82.2367 41.3407 81.6469 44.7381 83.1198" stroke="#893D1F" stroke-width="1.5" stroke-miterlimit="10" stroke-linejoin="round"/>
<path d="M41.6418 77.679C43.2717 77.7677 44.8904 78.105 46.4214 78.6683" stroke="#893D1F" stroke-width="1.5" stroke-miterlimit="10" stroke-linejoin="round"/>
<path d="M129.355 121.782C124.525 126.194 119.525 130.489 113.904 133.832C108.275 137.168 101.956 139.535 95.4237 139.796C91.9885 139.931 88.5443 139.486 85.2017 138.679C77.6685 136.86 70.5896 133.18 64.7684 128.047C58.894 122.867 54.6446 115.541 50.1936 109.092C52.8808 100.746 56.894 92.8329 62.0421 85.7396C65.7106 84.2502 78.8107 94.2364 89.246 99.2413C94.081 98.7009 103.844 97.4332 108.595 96.3973C113.347 95.3614 118.392 94.8511 123.015 96.3767C128.232 98.0983 132.362 102.244 135.263 106.925" fill="#72CDED"/>
<mask id="mask3_30_894" style="mask-type:luminance" maskUnits="userSpaceOnUse" x="50" y="85" width="86" height="55">
<path d="M129.355 121.782C124.525 126.194 119.525 130.489 113.904 133.832C108.275 137.168 101.956 139.535 95.4237 139.796C91.9885 139.931 88.5443 139.486 85.2017 138.679C77.6685 136.86 70.5896 133.18 64.7684 128.047C58.894 122.867 54.6446 115.541 50.1936 109.092C52.8808 100.746 56.894 92.8329 62.0421 85.7396C65.7106 84.2502 78.8107 94.2364 89.246 99.2413C94.081 98.7009 103.844 97.4332 108.595 96.3973C113.347 95.3614 118.392 94.8511 123.015 96.3767C128.232 98.0983 132.362 102.244 135.263 106.925" fill="white"/>
</mask>
<g mask="url(#mask3_30_894)">
<path d="M75.5538 83.5452C73.0469 83.5144 71.2977 83.5228 69.3206 85.2991C67.8636 86.6143 66.6554 88.2746 65.4947 89.848C62.8554 93.4273 60.6923 97.2193 58.8665 101.277C55.3658 109.051 51.8995 117.487 50.9867 126.001C50.6494 129.153 52.6205 132.203 55.718 132.971C59.0354 133.788 61.6826 132.137 63.2555 129.25C66.8322 122.667 68.4503 115.181 71.3188 108.251C72.7064 104.903 74.232 101.589 75.7398 98.291C76.4159 96.8198 77.1106 95.3393 77.9227 93.9355C78.9697 92.1245 79.4268 90.4709 79.569 88.7552C79.7569 86.4722 78.1483 83.5836 75.5538 83.5452Z" fill="#84DCF4"/>
<path d="M90.1647 92.2692C87.5785 96.128 84.6939 100.37 83.1354 104.763C81.4604 109.46 80.513 114.688 79.8369 119.624C78.4502 129.72 78.9736 141.127 83.3725 150.395C87.316 158.705 98.8972 154.916 98.3945 146.136C97.8928 137.41 96.2512 128.859 95.824 120.095C95.6294 116.104 95.953 112.2 96.2122 108.218C96.5005 103.784 96.2165 99.3524 96.6427 94.9062C96.9754 91.4879 92.268 89.1332 90.1647 92.2692Z" fill="#84DCF4"/>
<path d="M109.484 91.9319C109.283 94.0233 108.028 96.0107 107.578 98.0905C107.125 100.151 106.771 102.25 106.442 104.333C105.742 108.725 105.656 113.083 105.928 117.523C106.173 121.593 107.059 125.386 108.276 129.271C109.771 134.025 111.849 137.501 115.495 140.908C120.253 145.351 129.789 139.957 128.024 133.486C126.218 126.868 123.225 120.845 121.809 114.111C121.082 110.636 120.488 107.116 119.871 103.619C119.546 101.756 119.319 99.8726 118.995 98.0162C118.631 95.9251 117.597 93.9895 117.57 91.8773C117.518 87.2521 109.914 87.4185 109.484 91.9319Z" fill="#84DCF4"/>
</g>
<path d="M129.355 121.782C124.525 126.194 119.525 130.489 113.904 133.832C108.275 137.168 101.956 139.535 95.4237 139.796C91.9886 139.931 88.5443 139.486 85.2017 138.679C77.6685 136.86 70.5896 133.18 64.7684 128.047C58.894 122.867 54.6446 115.541 50.1937 109.092" stroke="#36A1BA" stroke-width="2" stroke-miterlimit="10" stroke-linejoin="round"/>
<path d="M13.2151 45.414C15.6595 45.6606 17.8463 47.092 19.5596 48.891C20.5621 49.9501 21.9305 52.2721 19.8437 53.0427C19.2807 53.2495 18.6647 53.2236 18.0692 53.2015C18.357 53.7747 19.1212 53.9064 19.6019 54.3387C20.0529 54.7485 20.199 55.4486 19.9649 56.0026C19.77 56.4575 19.345 56.7916 18.8855 56.9771C18.426 57.1626 17.9209 57.2143 17.4269 57.2512C16.8864 57.288 16.3496 57.3042 15.81 57.3008C16.5835 57.5914 17.4696 58.0194 17.5989 58.8354C17.6891 59.3767 17.3749 59.9286 16.9434 60.2637C16.5053 60.5996 15.9619 60.757 15.427 60.8798C14.7885 61.0239 14.1371 61.1232 13.4857 61.1757C13.9264 61.3267 14.3849 61.5552 14.6038 61.9714C14.832 62.4062 14.7302 62.9547 14.4692 63.3656C14.2016 63.7774 13.798 64.0751 13.3813 64.3279C12.549 64.8401 11.7521 65.0869 10.8145 65.3269C10.699 65.3567 10.5834 65.3865 10.4939 65.4593C10.3438 65.5741 10.2916 65.7684 10.2366 65.9431C9.92317 66.9222 9.32369 67.8084 8.53044 68.4552C8.44748 68.5271 8.3375 68.5961 8.23406 68.5708C8.15765 68.5483 8.10176 68.4828 8.05331 68.4229C7.11892 67.2341 6.31316 65.9201 5.90632 64.4627C5.49947 63.0052 5.52974 61.3922 6.19551 60.0359C4.97417 58.5608 5.08572 56.1619 6.43646 54.8017C5.86541 54.0151 5.86106 52.9076 6.25365 52.0174C6.64624 51.1272 7.37892 50.429 8.19544 49.899C8.15256 49.9252 8.15955 48.242 8.20713 48.0617C8.38625 47.4021 8.74429 46.7838 9.23554 46.3068C10.2106 45.3471 11.9114 45.2789 13.2151 45.414Z" fill="#C66742"/>
<path d="M10.8397 65.4101C9.9217 65.5539 8.99163 65.6127 8.06717 65.5706" stroke="#893D1F" stroke-width="1.5" stroke-miterlimit="10" stroke-linejoin="round"/>
<path d="M14.4654 61.3701C12.9884 60.9059 11.5767 60.2454 10.096 59.8018C8.7262 59.389 7.02925 59.0162 5.88548 60.0999" stroke="#893D1F" stroke-width="1.5" stroke-miterlimit="10" stroke-linejoin="round"/>
<path d="M17.0633 57.5966C14.2622 56.7131 11.5898 55.3775 8.70559 54.8463C7.68704 54.6573 6.57807 54.5813 5.65346 55.0532" stroke="#893D1F" stroke-width="1.5" stroke-miterlimit="10" stroke-linejoin="round"/>
<path d="M19.0931 53.6165C16.4664 52.0874 13.6495 50.9058 10.7253 50.0933C9.55494 49.7724 8.2736 49.5139 7.14771 49.9744" stroke="#893D1F" stroke-width="1.5" stroke-miterlimit="10" stroke-linejoin="round"/>
<path d="M125.184 97.3503C128.96 99.6171 132.361 102.518 135.203 105.892" stroke="#36A1BA" stroke-width="2" stroke-miterlimit="10" stroke-linejoin="round"/>
<path d="M90.5769 100.641C92.5798 103.494 93.9711 106.774 94.6253 110.205" stroke="#36A1BA" stroke-width="2" stroke-miterlimit="10" stroke-linejoin="round"/>
<path d="M96.0201 101.242C97.779 103.409 99.0727 105.955 99.7831 108.658" stroke="#36A1BA" stroke-width="2" stroke-miterlimit="10" stroke-linejoin="round"/>
<path d="M118.275 130.961C123.578 130.815 128.82 128.921 133.143 125.577" stroke="#36A1BA" stroke-width="2" stroke-miterlimit="10" stroke-linejoin="round"/>
</g>
<defs>
<clipPath id="clip0_30_894">
<rect width="166" height="205" fill="white" transform="translate(0 23.3625) rotate(-8.09061)"/>
</clipPath>
</defs>
</svg>
