<svg width="79" height="65" viewBox="0 0 79 65" fill="none" xmlns="http://www.w3.org/2000/svg">
<path d="M17.0741 0.254013C17.0741 0.254013 78.1343 5.67789 78.5471 15.8371C78.96 25.9963 70.7862 59.1683 67.9751 59.4601C65.164 59.7519 33.709 55.3718 33.709 55.3718C33.709 55.3718 26.6052 68.1116 24.8641 63.8059C23.8422 61.2792 23.6395 54.441 23.6395 54.441C23.6395 54.441 1.1117 53.732 0.0854274 47.3665C-0.941579 41.0002 7.44296 -3.75846 17.0741 0.254013Z" fill="#62EED2"/>
<path d="M30.0473 45.1491C31.1538 44.6947 33.2071 41.8471 33.2071 41.8471C33.2071 41.8471 32.3427 40.9273 30.986 39.4925C31.4405 38.583 31.7599 37.6253 31.9401 36.6435C34.1254 36.6566 35.5689 36.626 35.6105 36.5297C36.0853 35.4319 35.5675 31.9599 35.5675 31.9599C35.5675 31.9599 34.0415 31.8936 31.7308 31.8002C31.474 30.8797 31.0831 29.9898 30.5754 29.1503C31.8249 27.8731 32.6017 27.0284 32.5659 26.9416C32.1115 25.8351 29.2639 23.7825 29.2639 23.7825C29.2639 23.7825 28.4776 24.5214 27.2354 25.6958C26.2741 25.0699 25.2347 24.617 24.158 24.3303C24.1362 22.3113 24.1179 21.0152 24.1179 21.0152C24.1179 21.0152 20.6627 20.3937 19.5511 20.8357C19.4577 20.8729 19.387 22.1625 19.3359 24.1582C18.5219 24.3157 17.7247 24.574 16.9573 24.9219C15.5321 23.5054 14.5787 22.6184 14.473 22.6687C13.9908 22.9007 11.1461 25.191 11.3154 25.8519C11.3475 25.9759 12.0134 26.7403 13.0762 27.8986C12.257 28.8972 11.6502 30.011 11.2453 31.1817C9.73983 31.1787 8.79816 31.2152 8.76461 31.3078C8.58153 31.8104 8.14315 35.4363 8.72595 35.7908C8.81858 35.847 9.55895 35.9148 10.734 35.987C10.9105 37.4546 11.3883 38.8915 12.1724 40.2008C10.8566 41.5298 10.0367 42.4167 10.0848 42.5174C10.3168 42.9995 12.6071 45.8442 13.268 45.675C13.4 45.6415 14.2622 44.8843 15.5445 43.702C16.7188 44.4656 18.0084 44.9784 19.341 45.2352C19.3804 46.6874 19.4307 47.624 19.4913 47.7305C19.8283 48.3235 23.4658 47.9931 23.9735 47.8253C24.0727 47.7925 24.1391 46.7326 24.1807 45.0645C25.5031 44.7093 26.7701 44.0951 27.9058 43.2249C29.145 44.4343 29.9627 45.1841 30.0473 45.1491ZM16.516 39.4211C13.9485 36.7762 14.0113 32.55 16.6568 29.9825C19.3017 27.415 23.5278 27.4777 26.0954 30.1233C28.6629 32.7689 28.6001 36.9943 25.9546 39.5618C23.309 42.1294 19.0835 42.0666 16.516 39.4211Z" fill="#1942D2"/>
<path d="M29.9218 33.4538H29.9188C29.7175 33.4516 29.5556 33.2868 29.5571 33.0855C29.603 27.9198 22.4701 26.3333 22.3979 26.3187C22.201 26.2764 22.0755 26.0831 22.1178 25.8855C22.1601 25.6885 22.3534 25.566 22.5504 25.6046C22.6284 25.6214 30.3375 27.3297 30.2865 33.0928C30.285 33.2926 30.1216 33.4538 29.9218 33.4538Z" fill="#261D2A"/>
<path d="M29.4149 39.0118C29.2603 39.0118 29.1166 38.9126 29.067 38.7573C29.0159 38.5968 29.0816 38.4283 29.2158 38.3415C29.4011 38.0373 29.6687 36.5078 29.8161 35.2226C29.8387 35.0227 30.0225 34.8812 30.2195 34.9016C30.4193 34.9242 30.5637 35.1051 30.5404 35.3057C30.1407 38.8003 29.7242 38.9323 29.5243 38.9958C29.4886 39.006 29.4514 39.0118 29.4149 39.0118ZM29.3055 38.2992H29.3048C29.3048 38.2992 29.3048 38.2992 29.3055 38.2992Z" fill="#261D2A"/>
<path d="M16.0309 42.2775C15.9871 42.2775 15.9426 42.2694 15.8996 42.2534C11.5428 40.5757 12.0767 36.5903 12.0826 36.5501C12.1117 36.3517 12.2963 36.208 12.4954 36.2431C12.6945 36.2715 12.8324 36.4568 12.8039 36.6552C12.7843 36.7952 12.3612 40.1089 16.1614 41.5721C16.3496 41.6451 16.443 41.8559 16.3708 42.0433C16.3153 42.1885 16.1775 42.2775 16.0309 42.2775Z" fill="#261D2A"/>
<path d="M64.52 42.6924C66.0685 42.0556 68.9416 38.0701 68.9416 38.0701C68.9416 38.0701 67.7316 36.7827 65.8329 34.7747C66.469 33.5018 66.9153 32.1612 67.1677 30.787C70.2269 30.806 72.2466 30.7629 72.3049 30.6272C72.9694 29.0904 72.2444 24.2311 72.2444 24.2311C72.2444 24.2311 70.1094 24.1384 66.8745 24.0079C66.5149 22.719 65.9678 21.4739 65.2581 20.2988C67.0065 18.5118 68.0941 17.3287 68.0437 17.2076C67.407 15.6591 63.4215 12.7859 63.4215 12.7859C63.4215 12.7859 62.3215 13.8202 60.5826 15.4636C59.2368 14.5876 57.7824 13.9537 56.2754 13.5525C56.2448 10.7261 56.22 8.91275 56.22 8.91275C56.22 8.91275 51.384 8.0433 49.8282 8.66184C49.6984 8.71363 49.5985 10.5189 49.527 13.3125C48.3876 13.5328 47.2724 13.8946 46.1972 14.3811C44.2023 12.3986 42.8675 11.1571 42.7201 11.2279C42.0454 11.5525 38.0636 14.7582 38.3007 15.6824C38.3452 15.856 39.2773 16.9253 40.7653 18.5468C39.6187 19.9451 38.7689 21.5038 38.2029 23.1413C36.0957 23.1377 34.7783 23.188 34.7309 23.3178C34.4749 24.0217 33.8615 29.0962 34.6769 29.5922C34.806 29.671 35.8433 29.7658 37.4874 29.8672C37.7346 31.9219 38.4035 33.9322 39.5005 35.7652C37.6588 37.6252 36.5107 38.8666 36.5792 39.0074C36.9038 39.6821 40.1096 43.664 41.0337 43.4269C41.2183 43.3795 42.4247 42.3197 44.2198 40.6661C45.8639 41.7347 47.6684 42.4524 49.5335 42.812C49.589 44.8441 49.659 46.1556 49.7436 46.3044C50.2155 47.1338 55.3061 46.672 56.0173 46.4372C56.1566 46.3912 56.2485 44.9076 56.3075 42.5735C58.1588 42.0768 59.9313 41.2168 61.5221 39.9987C63.2566 41.6916 64.4011 42.7413 64.52 42.6924ZM45.5816 34.6755C41.9885 30.973 42.0761 25.0589 45.7785 21.4651C49.4803 17.8721 55.3951 17.9596 58.9881 21.6621C62.5819 25.3646 62.4937 31.2786 58.7912 34.8717C55.0887 38.4662 49.1747 38.3779 45.5816 34.6755Z" fill="#1942D2"/>
<path d="M64.3442 26.1771H64.3412C64.1399 26.175 63.978 26.0101 63.9795 25.8095C64.0436 18.4593 53.9464 16.2156 53.8443 16.1937C53.6474 16.1514 53.5219 15.9581 53.5642 15.7605C53.6058 15.5635 53.7991 15.441 53.9968 15.4796C54.1047 15.5023 64.7796 17.8677 64.7096 25.8146C64.7074 26.0159 64.5447 26.1771 64.3442 26.1771Z" fill="#261D2A"/>
<path d="M63.6353 33.9563C63.4807 33.9563 63.3362 33.8564 63.2874 33.701C63.2341 33.5311 63.3115 33.3509 63.4624 33.27C63.7316 32.9155 64.1262 30.7025 64.3421 28.8155C64.3647 28.6156 64.5456 28.4719 64.7455 28.4945C64.9453 28.5171 65.0897 28.698 65.0664 28.8986C64.5179 33.6959 63.9562 33.8732 63.7447 33.9396C63.7083 33.9505 63.6718 33.9563 63.6353 33.9563Z" fill="#261D2A"/>
<path d="M44.9025 38.5282C44.8588 38.5282 44.8143 38.5202 44.7712 38.5042C38.7813 36.1978 39.5122 30.7345 39.5202 30.6783C39.5494 30.4792 39.7317 30.3362 39.9331 30.3713C40.1322 30.3997 40.27 30.585 40.2416 30.7841C40.2132 30.9847 39.5997 35.7302 45.0331 37.8222C45.2213 37.8951 45.3146 38.1059 45.2424 38.2941C45.187 38.4392 45.0491 38.5282 44.9025 38.5282Z" fill="#261D2A"/>
</svg>
