<svg width="190" height="175" viewBox="0 0 190 175" fill="none" xmlns="http://www.w3.org/2000/svg">
<g clip-path="url(#clip0_30_187)">
<path d="M95 174.992C147.467 174.992 190 169.064 190 161.751C190 154.438 147.467 148.509 95 148.509C42.533 148.509 0 154.438 0 161.751C0 169.064 42.533 174.992 95 174.992Z" fill="#B3CEF4"/>
<path d="M98.5498 117.985C90.4856 117.224 82.3581 116.566 74.2859 117.232C65.6208 117.953 57.0901 120.243 49.1998 123.904C45.2546 125.735 41.4676 127.914 37.9019 130.402C35.0478 132.399 30.9129 133.944 29.3791 137.28C27.3235 141.734 30.3358 147.582 31.8775 151.806C33.601 156.552 36.0045 161.6 40.5979 163.676C45.4839 165.887 51.1289 164.025 56.2283 162.393C70.4198 157.844 85.2122 155.189 100.099 154.516C110.536 154.04 121.264 154.5 131.115 151.013C140.895 147.55 149.244 140.173 153.885 130.878" fill="#A0371F"/>
<path d="M44.2347 158.692C45.5076 159.461 47.1521 159.27 48.5594 158.771C49.9667 158.272 51.2712 157.503 52.7259 157.147C53.8723 156.869 55.074 156.869 56.2521 156.766C58.0546 156.616 59.8335 156.243 61.5729 155.768C68.7674 153.779 75.3374 149.959 82.4609 147.733C92.4068 144.626 103.04 144.729 113.437 145.284" stroke="#BA5236" stroke-width="3" stroke-miterlimit="10" stroke-linejoin="round"/>
<path d="M91.0074 137.225C89.1495 137.249 87.3943 137.439 85.6392 136.686C84.0026 135.981 82.6269 134.776 81.1406 133.81C75.8119 130.339 69.5581 127.058 63.1146 126.757C62.2371 126.717 60.7507 126.725 60.0154 127.328C59.1299 128.057 59.4304 129.895 59.7466 130.822C60.1577 132.035 60.9325 133.088 61.6915 134.119C65.9529 139.919 70.1511 145.791 73.7088 152.051C75.97 156.029 77.9702 160.166 80.603 163.898C81.4252 165.071 82.3502 166.228 83.5203 167.068C84.8802 168.05 86.0582 168.058 87.6869 167.821C89.9955 167.488 92.1301 166.442 94.2331 165.42C98.3048 163.431 102.376 161.434 106.456 159.445" fill="#441F1D"/>
<path d="M68.6885 127.922C72.1909 130.505 74.1516 134.515 76.3653 138.144C78.9823 142.423 82.453 146.14 85.4336 150.15C88.6673 154.5 92.7863 160.134 92.644 165.832" stroke="#26100D" stroke-width="1.5" stroke-miterlimit="10" stroke-linejoin="round"/>
<path d="M73.7642 139.753C78.326 146.013 84.0896 151.457 87.6157 158.351C88.604 160.285 89.4262 162.4 89.4974 164.603C89.529 165.538 89.6871 167.084 88.7463 167.599C87.8925 168.066 86.5089 168.272 85.5443 168.336C83.1646 168.494 80.69 167.654 78.9902 165.943C77.9703 164.912 77.235 163.645 76.5076 162.393C75.5194 160.681 74.5232 158.985 73.527 157.281C70.7441 152.559 67.9137 147.867 65.02 143.216C63.5732 140.886 62.1185 138.564 60.6479 136.25C59.3988 134.277 57.7859 132.423 57.9282 129.887C58.0152 128.334 59.3592 126.361 61.1065 126.67C62.8538 126.979 64.2452 128.271 65.5418 129.388C68.9178 132.288 71.1789 136.195 73.7642 139.753Z" fill="#28100F"/>
<path d="M78.6818 131.932C80.6662 134.325 81.9549 137.296 82.3423 140.379" stroke="#26100D" stroke-width="1.5" stroke-miterlimit="10" stroke-linejoin="round"/>
<path d="M82.5637 134.206C83.4255 134.848 84.0738 135.743 84.6114 136.678C85.7973 138.715 86.5484 140.965 87.2916 143.2" stroke="#26100D" stroke-width="1.5" stroke-miterlimit="10" stroke-linejoin="round"/>
<path d="M27.9639 135.038C26.3273 134.333 24.9517 133.128 23.4653 132.161C20.0815 129.958 16.6028 127.803 12.8 126.4C9.73238 125.267 -0.600928 121.931 1.73138 128.73C2.1425 129.943 3.26517 131.44 4.02416 132.47C8.28556 138.271 12.4837 144.143 16.0415 150.403C18.3026 154.381 20.3029 158.518 22.9356 162.25C23.7658 163.423 24.6829 164.58 25.853 165.42C27.2128 166.402 28.3908 166.41 30.0195 166.172C32.3281 165.84 34.4627 164.794 36.5658 163.771C38.4158 162.868 41.0564 162.099 42.6456 160.8C44.0133 159.675 43.9264 157.305 43.4836 155.744C43.0172 154.088 41.0802 149.611 40.2421 148.113C38.3921 144.824 35.9965 140.387 32.3755 136.71C30.9287 135.268 29.7428 135.799 27.9639 135.038Z" fill="#441F1D"/>
<path d="M9.58215 125.275C14.0886 127.914 17.1641 134.182 20.2633 138.39C24.1215 143.628 30.0511 149.246 32.6918 155.197C34.2335 158.668 34.1702 161.117 34.2097 164.912" stroke="#26100D" stroke-width="1.5" stroke-miterlimit="10" stroke-linejoin="round"/>
<path d="M16.0889 138.105C20.6507 144.365 26.4143 149.809 29.9404 156.703C30.9287 158.636 31.7509 160.752 31.8221 162.955C31.8537 163.89 32.0118 165.435 31.071 165.95C30.2172 166.418 28.8336 166.624 27.869 166.687C25.4893 166.846 23.0147 166.006 21.3149 164.294C20.295 163.264 19.5597 161.996 18.8323 160.744C17.8441 159.041 16.8479 157.337 15.8517 155.633C13.0688 150.91 10.2384 146.219 7.34474 141.567C5.89791 139.238 4.44319 136.916 2.97265 134.602C1.72348 132.629 0.110631 130.775 0.252941 128.239C0.339909 126.686 1.68395 124.712 3.4312 125.022C5.17846 125.331 6.56994 126.622 7.86654 127.74C11.2504 130.64 13.5036 134.554 16.0889 138.105Z" fill="#28100F"/>
<path d="M21.0065 130.283C22.9909 132.676 24.2796 135.648 24.667 138.731" stroke="#26100D" stroke-width="1.5" stroke-miterlimit="10" stroke-linejoin="round"/>
<path d="M24.8884 132.566C25.7502 133.207 26.3985 134.103 26.9361 135.038C28.122 137.074 28.8731 139.325 29.6163 141.56" stroke="#26100D" stroke-width="1.5" stroke-miterlimit="10" stroke-linejoin="round"/>
<path d="M98.5973 74.8132C95.6088 76.723 91.3395 78.9259 89.9084 77.032C88.7541 75.5027 91.5608 61.9363 98.961 53.6078C106.361 45.2794 110.369 41.8482 112.915 45.1447C115.453 48.4412 105.412 70.4628 98.5973 74.8132Z" fill="#E8BFB1"/>
<path d="M116.971 52.6728C112.623 43.9244 107.223 35.7465 101.412 27.9094C100.076 26.1026 84.8169 7.15566 84.7062 7.2666C81.0931 11.1812 77.8516 15.4524 75.0528 19.993C73.7957 22.0375 71.8508 22.5684 72.0643 24.9853C72.3015 27.6558 73.8748 31.087 74.7998 33.599C81.4568 51.7139 90.2168 69.1157 98.0992 86.7155" fill="#A05138"/>
<path d="M101.483 100.29C99.5697 93.4512 92.3356 81.6678 89.9084 77.0321C101.855 75.0431 112.077 57.7523 113.619 43.5282C116.544 46.6028 118.948 50.0261 121.296 53.5445C123.351 56.6191 126.253 58.8934 128.838 61.4926C131.605 64.2661 133.558 67.8478 134.396 71.6832C135.25 75.6216 134.965 79.7977 136.349 83.5776" fill="white"/>
<path d="M99.6251 89.3782C99.7357 92.6033 99.4907 95.8444 98.8265 99.0062C98.1308 102.295 97.7592 105.567 96.6998 108.801C96.178 110.393 95.5534 111.994 94.4624 113.262C93.2211 114.696 91.3236 115.853 91.1655 117.747C91.0864 118.666 91.4659 119.57 91.9324 120.37C93.9722 123.896 97.9252 126.186 101.973 126.353C106.954 126.567 111.903 126.424 116.908 126.028C120.371 125.751 122.885 125.402 126.308 126.076C129.858 126.773 133.408 127.494 136.95 128.247C151.11 131.274 165.151 134.8 179.042 138.818C184.197 137.011 188.245 130.608 188.142 125.537C188.039 120.33 187.423 115.156 186.719 110.005C186.071 105.243 186.845 100.884 186.687 96.09C186.387 86.4858 183.509 76.9608 178.331 68.7592" fill="white"/>
<path d="M117.58 91.5256C118.979 93.6097 121.066 95.3372 123.533 96.4387C132.301 100.369 141.646 98.3405 149.189 93.3324" stroke="#E8BFB1" stroke-width="1.5" stroke-miterlimit="10" stroke-linejoin="round"/>
<path d="M133.297 94.0614C130.024 93.9821 124.221 92.4052 122.917 88.871L125.66 82.6583L146.698 82.7296L148.137 88.8947C148.145 88.9027 143.472 94.307 133.297 94.0614Z" fill="#C66742"/>
<path d="M113.287 36.4042C113.374 36.1744 113.469 35.9525 113.556 35.7227C114.267 33.916 115.121 32.8541 116.449 31.4436C121.541 26.0313 128.712 22.6477 136.104 22.0613C136.989 21.9899 137.883 21.9582 138.776 21.9741C147.963 22.093 156.968 26.5781 162.732 33.7496C168.495 40.9211 170.954 50.6204 169.468 59.7096C167.649 70.8353 159.87 80.804 149.529 85.2416C142.54 88.2449 134.681 88.7838 127.13 87.8804C116.821 86.6521 104.187 81.2953 102.867 69.4168C102.313 64.48 104.171 59.6224 105.982 54.9946C105.982 54.1784 106.804 52.8947 107.104 52.126C107.547 51.0008 107.99 49.8676 108.432 48.7423C109.286 46.5711 110.14 44.3998 110.994 42.2286C111.761 40.2951 112.528 38.3536 113.287 36.4042Z" fill="#C66742"/>
<path d="M126.126 58.3149C125.296 56.5082 124.134 55.2482 122.924 54.8441C121.723 54.4399 120.481 54.8995 119.525 56.112" stroke="#893D1F" stroke-width="1.5" stroke-miterlimit="10" stroke-linejoin="round"/>
<path d="M145.868 48.4492C145.536 49.2337 144.54 49.4793 143.718 49.3208C142.951 49.1703 142.271 48.7661 141.528 48.5443C140.65 48.2828 139.725 48.3303 138.855 48.0767C137.97 47.8152 137.345 46.8564 137.661 45.8104C137.946 44.8832 138.697 44.3602 139.749 44.0195C140.832 43.6629 142.018 43.9799 142.808 44.2651C144.129 44.7644 146.595 46.7296 145.868 48.4492Z" fill="#2B1A1A"/>
<path d="M116.86 38.0445C117.588 38.3219 118.212 38.6864 118.513 39.4234C118.924 40.4297 118.307 42.078 117.082 42.1969C116.473 42.2523 115.88 41.9988 115.35 41.7135C114.56 41.2856 113.492 41.2539 112.726 40.715C111.603 39.9305 111.832 38.6785 113.129 38.1475C114.196 37.7276 115.841 37.6562 116.86 38.0445Z" fill="#2B1A1A"/>
<path d="M142.5 61.4687C143.385 61.8887 144.397 62.5306 144.382 63.537C144.374 64.1472 143.947 64.686 143.425 64.9792C142.903 65.2645 142.302 65.3437 141.717 65.3913C140.421 65.4864 139.1 65.4388 137.867 65.0505C136.041 64.4641 132.554 61.445 134.918 59.3926C136.831 57.7126 140.729 60.6208 142.5 61.4687Z" fill="#AD563E"/>
<path d="M113.864 54.6619C114.172 54.9551 114.307 55.4384 114.283 55.898C114.196 57.4671 112.852 58.1565 111.65 58.41C110.496 58.6557 109.278 58.4338 108.227 57.8395C107.389 57.364 106.44 55.9139 106.725 54.7728C107.017 53.6158 108.432 53.5445 109.326 53.6396C110.575 53.7664 111.816 53.9883 113.042 54.2894C113.318 54.3607 113.611 54.44 113.84 54.6381C113.84 54.646 113.848 54.6539 113.864 54.6619Z" fill="#AD563E"/>
<path d="M112.457 47.3477C112.18 48.0846 111.943 48.9721 112.022 49.5823C112.109 50.2876 112.559 50.6838 113.058 50.8819C113.421 51.0245 114.014 51.08 114.417 50.8581C115.042 50.5095 115.453 49.6536 115.817 48.6869C116.149 47.8152 116.354 46.8088 116.188 46.1432C116.054 45.5964 115.627 45.319 115.216 45.1526C114.757 44.9704 114.18 44.9149 113.682 45.3032C113.176 45.6994 112.757 46.5473 112.457 47.3477Z" fill="#2B1A1A"/>
<path d="M133.068 52.0944C132.791 52.8313 132.554 53.7188 132.633 54.329C132.72 55.0343 133.171 55.4305 133.669 55.6286C134.033 55.7712 134.625 55.8267 135.029 55.6048C135.653 55.2562 136.064 54.4003 136.428 53.4336C136.752 52.5619 136.966 51.5555 136.8 50.8899C136.665 50.3431 136.238 50.0658 135.827 49.8993C135.369 49.7171 134.792 49.6616 134.293 50.0499C133.795 50.4461 133.368 51.294 133.068 52.0944Z" fill="#2B1A1A"/>
<path d="M133.479 63.8144C134.009 64.8842 133.961 68.6324 132.103 71.1761C128.735 75.8039 121.414 77.0638 116.797 73.0066C112.322 69.0761 112.417 60.5971 114.417 60.3515C115.081 60.2643 119.169 61.4133 122.403 61.9443C127.787 62.8318 132.949 62.7446 133.479 63.8144Z" fill="#702218"/>
<mask id="mask0_30_187" style="mask-type:luminance" maskUnits="userSpaceOnUse" x="113" y="60" width="21" height="16">
<path d="M133.479 63.8144C134.009 64.8842 133.961 68.6324 132.103 71.1761C128.735 75.8039 121.414 77.0638 116.797 73.0066C112.322 69.0761 112.417 60.5971 114.417 60.3515C115.081 60.2643 119.169 61.4133 122.403 61.9443C127.787 62.8318 132.949 62.7446 133.479 63.8144Z" fill="white"/>
</mask>
<g mask="url(#mask0_30_187)">
<path d="M137.242 69.726C135.637 68.5056 133.748 67.8162 131.835 67.4992C129.929 67.1823 127.992 67.2219 126.071 67.3407C122.719 67.5468 119.303 68.0302 116.339 69.7339C115.429 70.2569 114.56 70.9067 113.975 71.8417C113.39 72.7768 113.137 74.0288 113.532 75.0986C113.99 76.3427 115.168 77.0638 116.299 77.5155C117.722 78.0861 119.208 78.4031 120.687 78.7042C123.549 79.2906 126.553 79.8136 129.297 78.823C130.419 78.4189 131.463 77.777 132.443 77.0638C134.38 75.6692 136.151 73.9892 137.701 72.0874" fill="#C64E39"/>
<path d="M129.131 61.2628C129.233 61.7937 129.344 62.3246 129.344 62.8635C129.344 63.4023 129.218 63.957 128.917 64.3691C128.403 65.0664 127.51 65.2011 126.696 65.2883C123.628 65.6291 120.671 65.5894 117.754 64.1868C114.939 62.8318 115.659 59.9156 116.813 57.467" fill="white"/>
</g>
<path d="M123.541 87.8646C127.858 88.6571 134.902 88.7918 139.251 88.0944" stroke="#893D1F" stroke-width="1.5" stroke-miterlimit="10" stroke-linejoin="round"/>
<path d="M181.517 65.1694C183.058 63.7589 184.545 62.3484 184.932 60.3515C185.486 57.5304 183.557 54.8837 182.885 52.0864C181.96 48.2352 182.924 44.4078 181.707 40.5883C180.584 37.0699 178.212 34.6688 174.963 32.973C173.903 32.4183 172.733 31.9508 172.006 30.9999C171.405 30.2154 171.191 29.2169 170.954 28.2581C170.393 26.0314 169.555 23.7809 167.895 22.196C165.934 20.3259 163.08 19.6682 160.376 19.6999C159.15 19.7078 157.893 19.8425 156.707 19.5176C153.774 18.7093 152.28 15.4683 149.829 13.6536C147.394 11.8548 144.271 11.6409 141.354 11.7835C140.152 11.839 138.737 11.7518 137.606 12.1401C136.191 12.6235 135.203 13.8517 133.621 14.0023C132.807 14.0815 132.001 13.8676 131.202 13.7329C126.261 12.8929 120.924 15.2781 118.244 19.5255C117.406 20.8489 117.185 21.9504 115.69 22.5447C113.848 23.2816 111.903 23.8284 110.243 24.914C108.844 25.8333 107.61 26.8713 107.262 28.5592C106.867 30.5165 107.017 32.6402 107.99 34.3915C108.962 36.1348 110.836 37.4344 112.828 37.4265C112.876 37.4265 113.991 34.9541 114.141 34.7085C114.718 33.7972 115.414 32.8304 116.236 32.1331C118.631 30.1124 121.288 32.2044 123.889 31.5942C125.273 31.2693 126.387 30.2709 127.637 29.5894C128.886 28.9079 130.578 28.5988 131.621 29.5656C132.064 29.9697 132.309 30.5403 132.681 31.0157C133.811 32.4342 135.819 32.7115 137.63 32.8542C139.44 32.9889 141.441 33.1791 142.666 34.5183C144.967 37.0144 142.903 41.4758 144.88 44.2414C145.694 45.3746 147.054 46.0006 147.892 47.1179C149.418 49.1624 148.722 52.0547 149.252 54.5509C149.821 57.2372 151.995 59.5194 154.652 60.2168C156.439 60.6843 159.079 60.7477 160.328 62.3246C161.609 63.9332 161.823 66.7305 161.562 68.6799C161.04 72.6341 163.435 76.208 166.93 77.9196C170.322 79.5758 174.923 77.9038 176.473 74.4567C177.247 72.7371 177.311 70.7481 178.149 69.0603C178.916 67.5229 180.228 66.3422 181.517 65.1694Z" fill="#2B1A1A"/>
<path d="M152.596 28.2185C155.094 28.8762 157.221 30.8414 158.075 33.29C158.47 34.4311 158.621 35.6753 159.206 36.7213C160.028 38.1793 161.593 39.0589 163.159 39.6453C164.724 40.2317 166.384 40.5962 167.855 41.3966C169.325 42.197 170.638 43.5599 170.788 45.224C171.017 47.7202 168.669 50.0499 169.278 52.4748C169.681 54.0913 171.239 55.0898 172.306 56.3656C173.16 57.3878 173.721 58.6478 173.903 59.9711C174.014 60.7477 173.99 61.5481 173.745 62.2929C173.105 64.2265 171.128 65.328 169.294 66.1996" stroke="#493232" stroke-width="1.5" stroke-miterlimit="10" stroke-linejoin="round"/>
<path d="M151.896 61.7516C154.912 55.5086 152.308 47.9969 146.079 44.9739C139.851 41.9509 132.356 44.5613 129.34 50.8043C126.324 57.0473 128.928 64.5589 135.157 67.5819C141.386 70.6049 148.88 67.9946 151.896 61.7516Z" stroke="#FFF0B0" stroke-width="2" stroke-miterlimit="10" stroke-linejoin="round"/>
<path d="M122.936 48.8495C124.682 42.1369 121.463 35.4841 115.746 33.9902C110.029 32.4962 103.979 36.7268 102.233 43.4394C100.487 50.1521 103.706 56.8048 109.423 58.2988C115.139 59.7928 121.189 55.5622 122.936 48.8495Z" stroke="#FFF0B0" stroke-width="2" stroke-miterlimit="10" stroke-linejoin="round"/>
<path d="M123.027 48.5046C125.454 48.4729 127.47 49.4 129.487 51.0086" stroke="#FFF0B0" stroke-width="2" stroke-miterlimit="10" stroke-linejoin="round"/>
<path d="M153.434 56.5082L163.246 63.1567" stroke="#FFF0B0" stroke-width="2" stroke-miterlimit="10" stroke-linejoin="round"/>
<path d="M156.344 62.9665C157.767 61.1518 159.743 59.7334 162.028 59.2262C164.313 58.719 166.914 59.2183 168.804 60.7714C171.373 62.8793 172.227 66.4928 171.974 69.6942C171.729 72.8164 170.583 75.8355 168.574 78.1494C166.574 80.4554 163.704 82.0165 160.589 82.3017C158.415 82.4998 156.067 82.0402 154.264 80.6773C152.454 79.3143 151.3 76.9449 151.742 74.8133" fill="#C66742"/>
<path d="M156.004 81.6678C155.387 81.4142 154.802 81.0893 154.264 80.6851C152.454 79.3222 151.3 76.9528 151.742 74.8212" stroke="#893D1F" stroke-width="1.5" stroke-miterlimit="10" stroke-linejoin="round"/>
<path d="M156.344 62.9665C157.767 61.1518 159.743 59.7334 162.028 59.2262C164.313 58.719 166.914 59.2183 168.804 60.7714" stroke="#893D1F" stroke-width="1.5" stroke-miterlimit="10" stroke-linejoin="round"/>
<path d="M166.44 68.458C165.578 67.0157 163.965 66.2867 162.431 66.3422C159.229 66.461 156.96 69.2504 154.826 71.5643" stroke="#893D1F" stroke-width="1.5" stroke-miterlimit="10" stroke-linejoin="round"/>
<path d="M163.254 75.3046C163.673 72.1428 162.336 69.2425 160.083 66.9207" stroke="#893D1F" stroke-width="1.5" stroke-miterlimit="10" stroke-linejoin="round"/>
<path d="M139.282 25.6431C143.338 22.4496 148.493 20.6825 153.656 20.6983" stroke="#493232" stroke-width="1.5" stroke-miterlimit="10" stroke-linejoin="round"/>
<path d="M183.588 53.4573C182.513 52.3162 181.43 51.1751 180.394 49.9944C179.738 49.2495 179.09 48.4729 178.75 47.5378C178.022 45.5568 178.789 43.2033 177.832 41.3252" stroke="#493232" stroke-width="1.5" stroke-miterlimit="10" stroke-linejoin="round"/>
<path d="M174.306 35.8338C173.682 33.195 171.452 31 168.804 30.4294C167.839 30.2234 166.772 30.1838 165.997 29.5736C165.104 28.8683 164.874 27.6321 164.353 26.6178C163.578 25.1043 162.02 24.0107 160.328 23.8126" stroke="#493232" stroke-width="1.5" stroke-miterlimit="10" stroke-linejoin="round"/>
<path d="M115.92 22.2831C118.173 21.5066 120.813 22.9488 122.98 21.9424C123.889 21.5145 124.569 20.7141 125.399 20.1436C127.747 18.527 130.91 19.0025 133.677 19.684" stroke="#493232" stroke-width="1.5" stroke-miterlimit="10" stroke-linejoin="round"/>
<path d="M134.088 14.137C136.057 14.0498 138.073 13.9785 139.938 14.6204C141.804 15.2543 143.504 16.7599 143.789 18.7172" stroke="#493232" stroke-width="1.5" stroke-miterlimit="10" stroke-linejoin="round"/>
<path d="M87.2204 14.858C87.6947 15.1354 87.7105 16.0071 87.252 16.8074C86.7934 17.6078 86.0265 18.0357 85.5522 17.7583C85.0778 17.481 85.062 16.6093 85.5205 15.809C85.987 15.0007 86.746 14.5807 87.2204 14.858Z" fill="#2E3247"/>
<path d="M115.659 26.3167L78.2073 22.6556C77.0451 22.5447 76.3573 21.3006 76.8712 20.2467L85.4573 2.78945C86.3744 0.92724 88.343 -0.174237 90.4065 0.0238705L127.858 3.68489C129.02 3.79583 129.708 5.03995 129.194 6.09388L120.608 23.5511C119.699 25.4133 117.722 26.5148 115.659 26.3167Z" fill="#2E3247"/>
<path d="M90.9283 18.7489L81.8283 17.8614C81.5437 17.8376 81.3777 17.5286 81.5042 17.275L83.5914 13.0276C83.8128 12.5759 84.295 12.3065 84.7931 12.354L93.8931 13.2416C94.1777 13.2653 94.3437 13.5744 94.2172 13.828L92.13 18.0754C91.9086 18.5271 91.4264 18.7965 90.9283 18.7489Z" fill="#45495B"/>
<path d="M128.301 3.78796C128.269 3.8989 128.245 4.00192 128.19 4.10494L119.604 21.5621C118.687 23.4244 116.718 24.5258 114.655 24.3277L77.2032 20.6667C77.0451 20.6509 76.9028 20.6112 76.7684 20.5637C76.5154 21.5304 77.1716 22.5448 78.2152 22.6478L115.667 26.3088C117.73 26.5069 119.707 25.4133 120.616 23.5432L129.202 6.08601C129.652 5.18264 129.186 4.12871 128.301 3.78796Z" fill="#45495B"/>
<path d="M89.7108 13.9706C90.2326 14.2717 90.2484 15.2305 89.7424 16.1022C89.2364 16.9739 88.4063 17.4414 87.8845 17.1403C87.3627 16.8392 87.3469 15.8803 87.8528 15.0087C88.3588 14.1291 89.189 13.6615 89.7108 13.9706Z" fill="#2E3247"/>
<path d="M79.3379 24.7952C80.8796 25.025 82.3343 25.7619 83.4412 26.8555C84.548 27.957 85.2833 29.415 85.5284 30.9523" stroke="#7A3218" stroke-width="1.5" stroke-miterlimit="10" stroke-linejoin="round"/>
<path d="M85.8051 5.35686C88.2481 6.42664 90.0349 8.63752 91.205 11.0703C91.8928 12.4966 92.5253 15.3573 90.114 15.4524C89.4657 15.4762 88.8332 15.2464 88.2244 15.0245C88.3351 15.7139 89.0783 16.1022 89.4261 16.7124C89.7503 17.2829 89.6791 18.0595 89.2443 18.5508C88.8885 18.9549 88.343 19.161 87.8054 19.1927C87.2678 19.2323 86.7301 19.1214 86.2083 18.9866C85.6391 18.844 85.0778 18.6855 84.5164 18.4953C85.2122 19.058 85.987 19.7949 85.8526 20.6824C85.7656 21.2768 85.2596 21.7364 84.6983 21.9424C84.1369 22.1405 83.5203 22.1247 82.9273 22.0692C82.2157 22.0058 81.5121 21.8869 80.8164 21.7284C81.2196 22.0296 81.6228 22.4179 81.7018 22.925C81.7888 23.448 81.5121 23.9869 81.101 24.3197C80.6899 24.6525 80.1681 24.8268 79.6542 24.9536C78.6264 25.2072 77.7172 25.1914 76.6656 25.128C76.5391 25.12 76.4047 25.1121 76.2861 25.1597C76.0964 25.231 75.9778 25.4132 75.8592 25.5796C75.2109 26.4909 74.2938 27.2041 73.2581 27.6083C73.1474 27.6558 73.013 27.6875 72.9102 27.6241C72.8391 27.5766 72.7995 27.4894 72.7679 27.4102C72.1987 25.8728 71.8034 24.2404 71.8666 22.6001C71.9378 20.9598 72.4991 19.3036 73.6455 18.1229C72.8786 16.1894 73.7957 13.7487 75.6378 12.7978C75.3137 11.7914 75.6774 10.6503 76.3731 9.85786C77.0768 9.06543 78.065 8.58997 79.0849 8.32055C79.0296 8.33639 79.5988 6.60097 79.7095 6.42664C80.1127 5.80062 80.6899 5.28554 81.354 4.95272C82.7138 4.28708 84.4927 4.78631 85.8051 5.35686Z" fill="#A05138"/>
<path d="M73.7483 24.4624C74.7761 24.8427 75.7644 25.0408 76.8475 25.1359C77.9306 25.231 79.0454 25.2469 80.089 24.8982C80.6978 24.6922 81.2908 24.3435 81.5912 23.7809C82.1209 22.8062 81.3935 22.0137 80.6741 21.4432C79.7095 20.6825 78.7766 19.8821 77.7646 19.1769C76.4917 18.2893 74.8552 17.3384 73.3135 18.0754" stroke="#7A3218" stroke-width="1.5" stroke-miterlimit="10" stroke-linejoin="round"/>
<path d="M85.7182 19.2323C83.1171 17.3859 80.8006 15.1117 77.9939 13.5981C76.9977 13.0593 75.883 12.6155 74.7682 12.7898" stroke="#7A3218" stroke-width="1.5" stroke-miterlimit="10" stroke-linejoin="round"/>
<path d="M89.1416 15.7932C86.9357 13.3366 84.4137 11.1733 81.6624 9.35865C80.5555 8.62962 79.3222 7.9402 78.0018 8.04322" stroke="#7A3218" stroke-width="1.5" stroke-miterlimit="10" stroke-linejoin="round"/>
<path d="M174.868 58.0295C173.334 55.359 162.273 58.6952 154.707 62.1105C147.141 65.518 142.326 70.0031 144.05 73.2442C145.773 76.4931 157.458 74.8686 163.641 72.111C169.816 69.3454 176.749 61.2943 174.868 58.0295Z" fill="#E8BFB1"/>
<path d="M149.157 79.6392C143.006 63.1329 136.325 46.476 129.763 30.5482C135.479 27.0139 141.346 23.5352 147.615 21.1104C161.672 34.3677 171.626 53.275 178.916 71.5485" fill="#C66742"/>
<path d="M148.208 79.6391C142.84 62.4196 137.298 45.5963 129.755 30.5481" stroke="#893D1F" stroke-width="1.5" stroke-miterlimit="10" stroke-linejoin="round"/>
<path d="M148.912 97.0884C147.971 92.0406 144.99 78.2919 144.042 73.2442C155.173 76.6833 171.12 67.1583 174.86 58.0295C179.975 67.3089 182.956 77.7372 184.173 88.2686" fill="white"/>
<path d="M152.738 27.1645C148.058 20.2783 142.587 13.503 135.052 9.98461C132.515 8.79597 129.811 8.01939 127.115 7.25073C125.992 6.92584 124.798 6.60094 123.675 6.92584C122.197 7.34582 121.248 8.76427 120.505 10.1193C118.339 10.1114 116.433 12.3064 116.734 14.4539C115.848 14.3588 114.979 14.9373 114.536 15.7139C114.093 16.4905 114.006 17.4255 114.07 18.321C112.069 19.7156 110.338 21.8552 110.203 24.3751C110.196 24.5812 110.196 24.7951 110.282 24.9774C110.377 25.1676 110.551 25.3102 110.725 25.4211C111.808 26.1105 113.287 26.1185 114.37 25.4291C114.718 25.2072 115.034 24.9219 115.398 24.7317C116.173 24.3355 117.098 24.4068 117.944 24.6049C118.995 24.8427 119.983 24.9853 120.821 25.6668C121.818 26.483 122.703 27.4101 123.644 28.2897C126.727 31.1979 130.759 33.3216 134.997 33.2899" fill="#C66742"/>
<path d="M113.492 18.8361C115.153 17.901 117.113 17.6316 119.003 17.8059C120.893 17.9723 122.719 18.5508 124.498 19.2402" stroke="#893D1F" stroke-width="1.5" stroke-miterlimit="10" stroke-linejoin="round"/>
<path d="M115.991 14.129C119.533 13.0751 123.47 13.4158 126.783 15.0482" stroke="#893D1F" stroke-width="1.5" stroke-miterlimit="10" stroke-linejoin="round"/>
<path d="M120.41 9.86574C123.415 9.45368 126.53 9.86574 129.328 11.0306" stroke="#893D1F" stroke-width="1.5" stroke-miterlimit="10" stroke-linejoin="round"/>
<path d="M125.818 30.2787C127.526 31.8873 129.874 32.8065 132.214 32.7748" stroke="#893D1F" stroke-width="1.5" stroke-miterlimit="10" stroke-linejoin="round"/>
<path d="M147.323 89.3782C147.671 92.0804 147.963 94.7984 148.208 97.5164" stroke="#E8BFB1" stroke-width="1.5" stroke-miterlimit="10" stroke-linejoin="round"/>
<path d="M181.959 75.7167C183.375 79.9007 184.41 84.2194 185.035 88.5936" stroke="#E8BFB1" stroke-width="1.5" stroke-miterlimit="10" stroke-linejoin="round"/>
<path d="M168.369 135.846C158.154 126.464 146.999 118.864 133.542 115.544C131.036 114.926 128.467 114.474 125.881 114.458C121.604 114.435 117.406 115.592 113.382 117.026C102.708 120.83 92.7626 126.686 84.2477 134.174C87.7975 138.303 90.3038 143.271 92.3752 148.311C93.5927 151.259 94.5336 154.326 96.0673 157.123C97.5932 159.92 99.8227 162.488 102.788 163.629C104.1 164.136 105.594 164.334 106.891 163.779C107.405 163.557 107.871 163.225 108.385 162.995C109.666 162.424 110.749 162.725 112.03 162.583C113.745 162.393 115.501 161.632 117.129 161.069C120.798 159.793 124.395 158.304 127.889 156.592C128.846 156.124 129.842 155.625 130.91 155.641C131.637 155.649 132.333 155.895 133.013 156.14C139.021 158.256 145.18 160.166 151.529 160.578C157.885 160.99 164.511 159.793 169.745 156.148C176.322 151.568 179.01 147.067 179.018 138.818" fill="#A0371F"/>
<path d="M96.3835 154.896C98.8661 156.33 102.305 156.941 104.614 154.674C104.962 154.333 105.286 153.929 105.697 153.747C106.092 153.573 106.527 153.628 106.946 153.668C108.029 153.779 109.128 153.795 110.188 153.462C111.974 152.899 113.073 151.639 114.283 150.324C115.627 148.858 117.825 148.176 119.62 147.344C124.023 145.292 128.49 143.358 132.989 141.536C136.207 140.236 139.1 139.951 142.484 140.91C146.651 142.098 150.778 143.691 154.77 145.371C157.34 146.449 159.886 147.622 162.582 148.295C169.057 149.896 174.48 144.563 175.832 138.509" stroke="#BA5236" stroke-width="3" stroke-miterlimit="10" stroke-linejoin="round"/>
<path d="M167.088 134.348C169.325 135.759 171.318 137.574 172.939 139.666" stroke="#7C2314" stroke-width="1.5" stroke-miterlimit="10" stroke-linejoin="round"/>
<path d="M130.498 155.197C132.807 153.723 134.625 151.497 135.622 148.945" stroke="#7C2314" stroke-width="1.5" stroke-miterlimit="10" stroke-linejoin="round"/>
<path d="M137.519 152.241C139.44 151.164 141.188 149.753 142.65 148.105" stroke="#7C2314" stroke-width="1.5" stroke-miterlimit="10" stroke-linejoin="round"/>
<path d="M83.4729 135.014C86.3507 132.209 89.5369 129.713 92.9602 127.605" stroke="#7C2314" stroke-width="1.5" stroke-miterlimit="10" stroke-linejoin="round"/>
<path d="M88.9202 135.513C96.5417 140.91 102.274 149.167 104.804 158.415" stroke="#7C2314" stroke-width="1.5" stroke-miterlimit="10" stroke-linejoin="round"/>
<path d="M102.637 146.766C105.294 149.619 107.998 152.535 109.705 156.045" stroke="#7C2314" stroke-width="1.5" stroke-miterlimit="10" stroke-linejoin="round"/>
<path d="M46.9465 148.509C49.4449 152.384 50.9945 156.869 51.4293 161.465" stroke="#7C2314" stroke-width="1.5" stroke-miterlimit="10" stroke-linejoin="round"/>
</g>
<defs>
<clipPath id="clip0_30_187">
<rect width="190" height="175" fill="white"/>
</clipPath>
</defs>
</svg>
