<svg width="142" height="93" viewBox="0 0 142 93" fill="none" xmlns="http://www.w3.org/2000/svg">
<path d="M13.3998 21.7405L65.9074 10.559L121.352 12.2876C123.753 15.1481 126.446 86.7802 126.446 86.7802C126.446 86.7802 23.9214 93.2713 20.3865 92.9259C16.8515 92.5805 13.3998 21.7405 13.3998 21.7405Z" fill="#EEEBD5"/>
<path d="M12.3224 8.71608C12.3224 8.71608 119.42 -2.38104 120.233 0.467633C121.046 3.31575 121.352 12.2876 121.352 12.2876L13.3996 21.7405L12.3224 8.71608Z" fill="#403955"/>
<path d="M22.5386 29.7228C22.5386 29.7228 111.203 18.8203 113.331 23.7341C115.459 28.6478 116.483 77.2795 116.483 77.2795L27.5361 84.0564C26.4898 77.185 22.5386 29.7228 22.5386 29.7228Z" fill="#F4961D"/>
<path d="M66.0716 27.2387C66.0716 27.2387 60.5042 73.1798 61.3648 72.925C62.2255 72.6702 70.8441 72.8732 70.8441 72.8732C70.8441 72.8732 77.0551 26.4461 76.4081 26.3611C75.7612 26.2768 66.0716 27.2387 66.0716 27.2387Z" fill="#403955"/>
<path d="M53.3448 33.9593C53.3448 33.9593 30.4524 49.3463 31.7507 50.3887C33.0491 51.4311 53.5321 68.3623 53.5321 68.3623C53.5321 68.3623 59.383 60.6763 58.5161 59.6497C57.6487 58.6225 42.7348 49.6551 42.7348 49.6551L56.6952 41.6941L53.3448 33.9593Z" fill="#403955"/>
<path d="M83.99 69.1273C83.99 69.1273 106.882 53.7403 105.584 52.6973C104.286 51.6549 83.8027 34.7238 83.8027 34.7238C83.8027 34.7238 77.9517 42.4097 78.8192 43.4363C79.6866 44.4635 94.6005 53.4309 94.6005 53.4309L80.6401 61.3924L83.99 69.1273Z" fill="#403955"/>
<path d="M102.485 6.77925C102.419 6.89457 102.277 6.94857 102.147 6.90188C101.004 6.48954 100.442 7.27878 100.419 7.31253C100.33 7.43967 100.156 7.47285 100.028 7.38566C99.9012 7.29847 99.8607 7.11958 99.9529 6.99751C100.23 6.58405 101.086 5.92138 102.338 6.3731C102.484 6.42598 102.56 6.58686 102.507 6.73312C102.501 6.74887 102.494 6.76463 102.485 6.77925Z" fill="#FCFDFF"/>
<path d="M104.467 8.30768C104.4 8.423 104.258 8.47701 104.128 8.43032C102.985 8.01798 102.424 8.80721 102.401 8.84097C102.313 8.9681 102.138 9.00129 102.01 8.91466C101.883 8.82747 101.846 8.65364 101.934 8.52651C102.212 8.11248 103.067 7.44982 104.319 7.90153C104.466 7.95441 104.542 8.1153 104.489 8.26156C104.482 8.27787 104.475 8.29362 104.467 8.30768Z" fill="#FCFDFF"/>
<path d="M106.213 5.87249C106.146 5.98781 106.005 6.04181 105.875 5.99512C104.719 5.57829 104.154 6.39621 104.148 6.40465C104.062 6.53347 103.887 6.56835 103.758 6.48172C103.629 6.39565 103.589 6.22014 103.681 6.09132C103.958 5.67785 104.814 5.01463 106.065 5.46634C106.212 5.51922 106.287 5.6801 106.235 5.82636C106.229 5.84268 106.222 5.85787 106.213 5.87249Z" fill="#FCFDFF"/>
<path d="M108.566 7.20624C108.499 7.32156 108.357 7.37556 108.227 7.32887C107.071 6.91203 106.506 7.7294 106.5 7.73784C106.414 7.86666 106.239 7.90153 106.11 7.8149C105.982 7.72827 105.943 7.55107 106.033 7.4245C106.311 7.01104 107.166 6.34781 108.419 6.80009C108.565 6.85297 108.64 7.01385 108.588 7.16011C108.581 7.17586 108.574 7.19161 108.566 7.20624Z" fill="#FCFDFF"/>
<path d="M106.806 9.57338C106.739 9.6887 106.598 9.7427 106.468 9.69601C105.325 9.28424 104.763 10.0729 104.74 10.1067C104.652 10.2338 104.477 10.267 104.349 10.1798C104.221 10.0932 104.184 9.91202 104.273 9.79164C104.551 9.37818 105.406 8.71551 106.658 9.16723C106.805 9.22011 106.88 9.38099 106.828 9.52725C106.822 9.543 106.815 9.55875 106.806 9.57338Z" fill="#FCFDFF"/>
<path d="M110.477 5.02643C110.411 5.14175 110.269 5.19576 110.139 5.14907C108.996 4.73673 108.434 5.52597 108.412 5.55972C108.324 5.68685 108.149 5.72004 108.021 5.63341C107.894 5.54622 107.858 5.37183 107.946 5.24526C108.223 4.83123 109.078 4.16857 110.33 4.62028C110.476 4.67316 110.552 4.83405 110.499 4.98031C110.493 4.99662 110.486 5.01237 110.477 5.02643Z" fill="#FCFDFF"/>
<path d="M112.212 6.98235C112.208 6.98854 112.204 6.99472 112.2 7.00091C112.112 7.12861 111.937 7.16067 111.809 7.07235C110.749 6.34049 110.026 6.91484 109.996 6.94016C109.877 7.03804 109.699 7.02229 109.6 6.90416C109.501 6.78546 109.514 6.60995 109.633 6.51038C109.996 6.19986 110.987 5.82184 112.128 6.60995C112.251 6.6932 112.285 6.85634 112.212 6.98235Z" fill="#FCFDFF"/>
<path d="M31.8346 10.8948C31.7676 11.0101 31.6259 11.0641 31.4959 11.0174C30.3529 10.6056 29.7915 11.3943 29.7678 11.4281C29.6801 11.5552 29.5051 11.5884 29.3774 11.5012C29.2503 11.414 29.2104 11.2351 29.302 11.1131C29.5794 10.6996 30.435 10.0369 31.6872 10.4886C31.8335 10.5415 31.9094 10.7024 31.8565 10.8487C31.8498 10.865 31.843 10.8807 31.8346 10.8948Z" fill="#FCFDFF"/>
<path d="M33.8159 12.4238C33.7489 12.5391 33.6071 12.5931 33.4772 12.5464C32.3341 12.1346 31.7727 12.9233 31.7497 12.9571C31.6613 13.0842 31.487 13.1174 31.3593 13.0307C31.2316 12.9436 31.195 12.7697 31.2833 12.6426C31.5606 12.2286 32.4157 11.5659 33.6685 12.0176C33.8147 12.0705 33.8901 12.2314 33.8378 12.3776C33.8316 12.394 33.8243 12.4091 33.8159 12.4238Z" fill="#FCFDFF"/>
<path d="M35.5626 9.98858C35.4956 10.1039 35.3539 10.1579 35.2239 10.1112C34.0679 9.69438 33.5031 10.5123 33.4975 10.5207C33.4109 10.6496 33.2365 10.6844 33.1077 10.5978C32.9788 10.5112 32.9389 10.3362 33.0306 10.2074C33.3079 9.79394 34.1635 9.13071 35.4152 9.58243C35.5614 9.63531 35.6368 9.79619 35.5845 9.94245C35.5778 9.9582 35.571 9.97395 35.5626 9.98858Z" fill="#FCFDFF"/>
<path d="M37.9145 11.3218C37.8476 11.4371 37.7058 11.4911 37.5759 11.4444C36.4193 11.0276 35.8545 11.8449 35.8489 11.8534C35.7623 11.9822 35.5879 12.0165 35.4585 11.9304C35.3297 11.8438 35.2909 11.6661 35.3814 11.54C35.6587 11.1266 36.5144 10.4634 37.7666 10.9156C37.9128 10.9685 37.9888 11.1294 37.9359 11.2757C37.9303 11.292 37.923 11.3072 37.9145 11.3218Z" fill="#FCFDFF"/>
<path d="M36.1555 13.6889C36.0886 13.8042 35.9468 13.8582 35.8169 13.8116C34.6738 13.3998 34.1124 14.1884 34.0888 14.2222C34.0004 14.3493 33.8261 14.3825 33.6984 14.2953C33.5707 14.2087 33.533 14.0276 33.623 13.9072C33.9003 13.4937 34.7559 12.8311 36.0081 13.2828C36.1544 13.3356 36.2298 13.4965 36.1775 13.6428C36.1713 13.6591 36.164 13.6743 36.1555 13.6889Z" fill="#FCFDFF"/>
<path d="M39.8265 9.14246C39.7595 9.25778 39.6178 9.31179 39.4878 9.2651C38.3453 8.85276 37.7834 9.64199 37.7609 9.67574C37.6725 9.80288 37.4982 9.83607 37.3705 9.74944C37.2433 9.66225 37.2068 9.48786 37.2945 9.36129C37.5719 8.94726 38.4269 8.2846 39.6791 8.73631C39.8254 8.78919 39.9007 8.95007 39.8484 9.09633C39.8422 9.11208 39.8349 9.12784 39.8265 9.14246Z" fill="#FCFDFF"/>
<path d="M41.5608 11.0979C41.5574 11.104 41.5535 11.1102 41.5496 11.1164C41.4612 11.2441 41.2857 11.2762 41.158 11.1879C40.0977 10.456 39.3748 11.0304 39.345 11.0557C39.2257 11.1536 39.0485 11.1378 38.9495 11.0197C38.8505 10.901 38.8635 10.7255 38.9821 10.6259C39.3461 10.3154 40.3367 9.93735 41.4781 10.7249C41.5991 10.8093 41.6339 10.9724 41.5608 11.0979Z" fill="#FCFDFF"/>
<path d="M28.3704 24.4896C28.3704 24.4896 34.529 24.1774 34.821 25.4937C35.1135 26.8101 31.3681 30.4328 31.3681 30.4328C31.3681 30.4328 36.9485 34.424 35.8634 35.5631C34.7782 36.7022 30.0124 38.261 30.0124 38.261C30.0124 38.261 31.7861 42.3945 30.8821 42.8057C29.9781 43.217 25.6258 42.5425 25.6258 42.5425C25.6258 42.5425 25.8722 48.48 25.1713 48.6291C24.4709 48.7782 18.8917 45.0216 18.8917 45.0216C18.8917 45.0216 13.4475 50.1339 13.1437 49.762C12.5783 49.0696 10.4852 43.8712 10.4852 43.8712C10.4852 43.8712 4.95768 44.1558 4.69104 43.9032C4.16057 43.4009 6.94681 37.2473 6.94681 37.2473C6.94681 37.2473 -0.663168 34.6754 0.0467517 33.4682C0.756671 32.261 5.60291 29.9512 5.60291 29.9512L2.0055 24.7506L7.79624 23.6374C7.79624 23.6374 8.35708 15.1172 9.44278 15.7804C10.5285 16.4431 14.4657 19.708 14.4657 19.708C14.4657 19.708 18.269 13.8667 18.9806 14.652C19.6922 15.4373 21.6205 20.0703 21.6205 20.0703C21.6205 20.0703 28.1369 16.4662 28.8075 16.9432L28.3704 24.4896Z" fill="#1AB9FF"/>
<path d="M8.4718 36.3675C8.4718 36.3675 10.439 31.1607 10.9053 31.3474C11.3717 31.5336 16.7579 34.6895 16.7579 34.6895C16.7579 34.6895 20.235 23.6896 20.3554 23.9692C20.4757 24.2488 25.0435 26.0146 25.0435 26.0146C25.0435 26.0146 19.9633 40.9555 18.7049 40.303L8.4718 36.3675Z" fill="#FCFDFF"/>
<path d="M134.367 57.8985C134.367 57.8985 140.526 57.5863 140.818 58.9027C141.11 60.219 137.364 63.8417 137.364 63.8417C137.364 63.8417 142.945 67.8329 141.86 68.972C140.775 70.1112 136.009 71.67 136.009 71.67C136.009 71.67 137.783 75.8035 136.879 76.2147C135.975 76.6259 131.623 75.9514 131.623 75.9514C131.623 75.9514 131.869 81.889 131.168 82.038C130.468 82.1871 124.889 78.4305 124.889 78.4305C124.889 78.4305 119.444 83.5428 119.141 83.171C118.575 82.4785 116.482 77.2801 116.482 77.2801C116.482 77.2801 110.955 77.5648 110.688 77.3122C110.157 76.8098 112.944 70.6563 112.944 70.6563C112.944 70.6563 105.334 68.0844 106.044 66.8772C106.753 65.67 111.599 63.3602 111.599 63.3602L108.002 58.1595L113.793 57.0463C113.793 57.0463 114.353 48.5261 115.439 49.1894C116.525 49.8526 120.462 53.117 120.462 53.117C120.462 53.117 124.265 47.2756 124.977 48.0609C125.69 48.8462 127.617 53.4793 127.617 53.4793C127.617 53.4793 134.134 49.8751 134.804 50.3521L134.367 57.8985Z" fill="#FC477E"/>
<path d="M132.182 62.0911L128.414 57.6808L124.321 61.9353C122.364 59.8804 120.669 58.1382 120.269 57.8389L115.815 61.5545L120.371 66.0424L116.705 69.8535C116.705 69.8535 120.509 73.4543 120.553 73.4538C120.57 73.4532 122.23 71.8815 124.292 69.9036L127.849 73.4065C127.849 73.4065 131.494 69.6454 131.494 69.6015C131.494 69.5852 130.074 68.0484 128.239 66.0885C130.225 64.1517 131.893 62.4872 132.182 62.0911Z" fill="#FCFDFF"/>
</svg>
