<svg width="213" height="156" viewBox="0 0 213 156" fill="none" xmlns="http://www.w3.org/2000/svg">
<g clip-path="url(#clip0_30_79)">
<path d="M106.359 156C161.044 156 205.374 150.207 205.374 143.06C205.374 135.913 161.044 130.12 106.359 130.12C51.6742 130.12 7.34351 135.913 7.34351 143.06C7.34351 150.207 51.6742 156 106.359 156Z" fill="#B3CEF4"/>
<path d="M87.5136 134.827C81.0834 133.854 74.6828 132.214 68.9209 129.185C65.3567 127.314 61.9189 124.819 59.1493 121.798C55.9119 118.256 54.3377 114.782 53.6472 110.083C52.1918 100.164 53.9367 89.8597 56.3574 79.9042C63.6118 80.5501 70.5098 81.0475 77.6306 82.4061C77.9574 88.5011 78.4251 94.6111 78.7593 100.699L101.48 102.807" fill="#ED8585"/>
<path d="M78.8484 100.639C75.663 100.699 72.7151 102.213 69.8936 103.691" stroke="#D35F5F" stroke-width="1.5" stroke-miterlimit="10" stroke-linejoin="round"/>
<path d="M77.7569 82.0646C71.3044 78.4566 64.3544 77.4395 56.3277 78.3081C55.2956 81.4707 54.5976 84.7372 54.2412 88.0409C60.6715 86.6601 70.8143 87.3876 78.4549 90.4166C78.0613 86.7343 77.7569 82.0646 77.7569 82.0646Z" fill="white"/>
<path d="M80.1924 68.4713C80.3855 69.7557 79.8286 72.0645 79.8286 72.0645C79.4573 73.4602 78.2544 80.9733 77.0218 81.7008C75.4031 82.6585 74.1334 82.2947 72.3811 81.9904C68.4903 81.3074 64.5103 80.7728 60.5601 81.2702C60.0923 81.3296 59.6171 81.4039 59.1939 81.6192C58.6296 81.9087 58.1989 82.4209 57.7237 82.8441C56.2832 84.1359 54.2858 84.7001 52.4221 84.3438C50.5509 83.9874 49.9792 82.1017 48.7614 80.8174C47.4472 79.4365 45.8507 78.3749 44.232 77.4395C42.3312 76.3333 40.2595 75.3236 38.8116 73.5493C36.9553 71.2776 35.849 63.7942 39.7621 62.7771C44.9894 61.4111 53.3651 61.5744 58.6964 62.5321C66.8419 63.9946 72.485 65.2641 80.1924 68.4713Z" fill="white"/>
<path d="M79.8285 72.0645C80.9794 77.2539 79.6206 81.003 80.0364 82.5992C80.1775 83.1634 80.2889 83.7499 80.1627 84.3215C79.7171 86.3557 78.0093 85.4054 76.799 84.8561C76.1976 84.5814 75.5442 84.47 74.8908 84.3586C70.198 83.5494 65.431 82.7402 60.7011 83.3193C60.2334 83.3787 59.7581 83.4529 59.3275 83.6608C58.7632 83.9355 58.3325 84.4255 57.8499 84.8338C56.4094 86.0587 54.4046 86.6007 52.5408 86.274C50.6697 85.94 50.1128 84.1582 48.8876 82.9407C47.5808 81.6341 45.9843 80.6392 44.3731 79.7558C42.4796 78.7164 40.408 77.7587 38.9749 76.0883C37.1261 73.9428 35.6484 67.2612 39.5615 66.2813C44.7963 64.9672 55.5852 65.9546 60.909 66.8381C69.0694 68.1818 72.1286 69.0578 79.8285 72.0645Z" fill="#6471FB"/>
<path d="M45.4349 80.8693C47.811 80.1789 49.9346 78.6644 51.3603 76.6525" stroke="#2C3EC4" stroke-width="2" stroke-miterlimit="10" stroke-linecap="round" stroke-linejoin="round"/>
<path d="M48.8654 83.2748C51.5978 82.6363 54.1224 81.1738 56.0381 79.1248" stroke="#2C3EC4" stroke-width="2" stroke-miterlimit="10" stroke-linecap="round" stroke-linejoin="round"/>
<path d="M86.2291 143.869C77.7346 143.632 66.4854 143.186 58.1766 141.056C53.6769 139.897 49.0064 136.839 45.6725 133.461C38.47 126.156 32.6784 117.967 27.6069 108.65C33.6139 104.099 39.2423 99.6743 45.6428 95.7693C50.1351 100.209 54.7461 104.567 59.2384 108.999C66.8195 109.734 73.6656 110.513 81.2468 111.248" fill="#FF9797"/>
<path d="M45.4869 95.4277C38.032 97.1575 32.0027 101.211 26.4561 107.455C27.8668 110.595 29.6043 113.587 31.6389 116.363C35.6039 110.832 43.8831 104.329 51.8429 101.337C48.9693 98.7908 45.4869 95.4277 45.4869 95.4277Z" fill="white"/>
<path d="M37.8909 83.3119C38.9304 84.1582 40.111 86.3186 40.111 86.3186C40.7941 87.6475 45.1008 94.24 44.6701 95.658C44.0984 97.514 42.8732 98.1227 41.3139 99.1101C37.8538 101.293 34.4382 103.654 31.7576 106.786C31.4384 107.158 31.1265 107.551 30.9557 108.011C30.7255 108.628 30.7478 109.318 30.681 109.979C30.4805 111.968 29.337 113.787 27.6589 114.812C25.9808 115.836 24.2359 114.797 22.3944 114.656C20.4267 114.507 18.4665 114.812 16.5731 115.22C14.3455 115.695 12.0511 116.363 9.71957 116.007C6.71236 115.554 0.6608 110.595 2.94777 107.091C5.99954 102.406 12.5337 96.7047 17.2785 93.7277C24.5478 89.1694 29.7528 86.2221 37.8909 83.3119Z" fill="white"/>
<path d="M40.111 86.326C44.6033 89.4961 46.17 93.312 47.6031 94.2549C48.108 94.5815 48.5981 94.9601 48.9025 95.4798C49.9791 97.3507 48.004 97.8109 46.6972 98.2267C46.0438 98.4346 45.4646 98.8058 44.8854 99.1695C40.7273 101.812 36.5098 104.515 33.2947 108.242C32.9754 108.613 32.6635 108.999 32.4779 109.452C32.2329 110.06 32.2403 110.729 32.1586 111.375C31.9061 113.32 30.7552 115.124 29.092 116.17C27.4287 117.217 25.7581 116.245 23.976 116.156C22.0677 116.067 20.152 116.408 18.2957 116.853C16.1201 117.381 13.8703 118.086 11.6056 117.804C8.69489 117.44 2.91064 113.357 5.22731 109.882C8.3162 105.235 17.2785 98.4791 21.9712 95.4575C29.1737 90.8324 32.1215 89.3699 40.111 86.326Z" fill="#6471FB"/>
<path d="M19.8921 116.994C21.2286 114.812 21.8078 112.176 21.4959 109.637" stroke="#2C3EC4" stroke-width="2" stroke-miterlimit="10" stroke-linecap="round" stroke-linejoin="round"/>
<path d="M24.1913 116.445C25.8397 114.055 26.753 111.174 26.7975 108.271" stroke="#2C3EC4" stroke-width="2" stroke-miterlimit="10" stroke-linecap="round" stroke-linejoin="round"/>
<path d="M108.282 102.733C101.235 102.08 91.1372 101.553 86.8677 101.092C78.8855 102.243 72.2028 105.792 67.1982 112.117C77.9128 114.879 88.271 117.945 98.9039 121.003" fill="#FFF0B0"/>
<path d="M104.399 149.348C90.0605 151.39 75.0764 150.825 60.9091 147.789C52.9195 135.428 57.1296 118.85 65.832 108.182C65.832 108.182 78.0391 109.444 84.5881 109.904" fill="#FFF0B0"/>
<path d="M59.4908 144.315C74.0294 147.173 89.214 147.804 104.072 146.156" stroke="white" stroke-width="2" stroke-miterlimit="10" stroke-linejoin="round"/>
<path d="M58.1766 140.751C72.7078 143.654 87.8924 144.322 102.75 142.726" stroke="white" stroke-width="2" stroke-miterlimit="10" stroke-linejoin="round"/>
<path d="M78.6702 111.642C81.5512 110.105 84.3876 108.472 87.521 107.514C90.7807 106.512 94.1963 106.029 97.6045 106.081" stroke="#DBBB61" stroke-width="1.5" stroke-miterlimit="10" stroke-linejoin="round"/>
<path d="M70.4133 108.642L83.4075 109.17" stroke="#DBBB61" stroke-width="1.5" stroke-miterlimit="10" stroke-linejoin="round"/>
<path d="M74.4007 108.501C70.5767 114.626 67.9184 121.545 67.1833 128.732C66.4408 135.918 67.6734 143.364 71.1261 149.704" stroke="#DBBB61" stroke-width="1.5" stroke-miterlimit="10" stroke-linejoin="round"/>
<path d="M59.0231 108.694C56.803 109.281 53.6547 110.09 49.6525 113.32" stroke="#D35F5F" stroke-width="1.5" stroke-miterlimit="10" stroke-linejoin="round"/>
<path d="M199.011 105.064C198.194 104.923 197.392 105.175 196.612 105.703C195.001 106.794 193.308 107.781 191.697 108.88C188.519 111.055 185.452 113.371 182.401 115.717C178.413 108.769 173.683 99.2956 168.679 95.3535C166.756 93.8316 164.58 92.5769 162.211 92.0424C158.269 91.1441 154.177 91.8345 150.643 93.7648C145.297 96.6824 141.332 102.109 139.691 108.034C138.161 113.535 138.428 121.308 143.292 125.124C145.95 127.202 149.678 127.336 152.856 126.319C153.94 125.97 154.964 125.502 155.959 124.968C158.128 127.848 160.155 130.84 162.197 133.832C164.038 136.534 166.035 139.17 168.575 141.174C172.117 143.958 176.928 145.154 181.242 143.958C185.282 142.845 188.757 139.86 191.823 137.047C194.162 134.901 196.241 132.51 198.187 130.031C202.144 124.983 205.79 120.261 204.32 113.557C203.763 111.011 202.649 107.343 200.407 105.703C199.932 105.346 199.471 105.138 199.011 105.064Z" fill="#ED8585"/>
<path d="M157.222 129.058C159.486 122.689 160.905 113.743 160.348 106.979C159.858 100.966 159.724 95.4426 154.712 92.473C150.992 90.2681 137.359 88.9467 132.741 89.4886C127.951 90.0528 118.596 95.1605 114.051 96.8235C111.698 97.6847 108.171 98.7389 102.074 100.179C90.1496 106.274 86.8973 115.413 85.7984 123.097C84.796 130.105 85.2563 141.182 95.7705 150.306C111.111 150.848 132.837 150.974 142.141 146.779C149.046 143.661 154.422 136.92 157.222 129.058Z" fill="#6471FB"/>
<path d="M91.0034 145.198C95.0576 145.05 99.0449 143.713 102.75 141.256C104.502 140.098 106.203 138.672 107.636 136.623C109.069 134.574 110.22 131.865 110.673 128.687" stroke="#3A4BCC" stroke-width="2" stroke-miterlimit="10" stroke-linejoin="round"/>
<path d="M92.793 147.693C97.0476 147.537 101.235 146.186 105.134 143.713C106.975 142.548 108.765 141.115 110.272 139.066C111.779 137.017 112.997 134.3 113.48 131.122" stroke="#3A4BCC" stroke-width="2" stroke-miterlimit="10" stroke-linejoin="round"/>
<path d="M125.82 94.975C125.538 97.514 126.511 100.083 128.063 102.013C129.622 103.943 131.716 105.287 133.906 106.289C137.864 108.101 143.44 108.628 147.584 106.883C151.333 105.302 154.593 101.033 153.108 96.3039" stroke="#3A4BCC" stroke-width="2" stroke-miterlimit="10" stroke-linejoin="round"/>
<path d="M139.743 103.668C143.106 104.284 151.534 103.676 149.811 98.1671C148.995 95.5613 146.789 93.5494 144.302 92.4284C141.814 91.2999 139.045 90.9584 136.312 90.7877C132.243 90.5353 125.353 91.7602 128.842 97.1352C131.226 100.81 135.533 102.896 139.743 103.668Z" fill="#FF9797"/>
<path d="M168.077 45.2862C165.954 41.2179 162.739 37.7435 158.885 35.249C151.913 30.7352 142.594 31.2475 134.887 33.3559C122.561 36.7264 110.176 47.3204 107.666 60.394C104.874 74.9302 114.237 91.3817 127.818 96.9942C138.859 101.56 152.247 101.456 163.14 96.482C169.169 93.7277 174.471 89.1545 177.485 83.2524C180.507 77.3504 181.064 70.0971 178.391 64.0392C176.624 60.0377 173.602 56.7266 171.552 52.8661C170.253 50.4088 169.362 47.751 168.077 45.2862Z" fill="#FF9797"/>
<path d="M152.841 69.2804C153.791 67.4319 155.261 66.0956 156.873 65.5981C158.944 64.9597 160.118 65.8803 161.454 67.3799" stroke="#D35F5F" stroke-width="1.5" stroke-miterlimit="10" stroke-linejoin="round"/>
<path d="M128.813 62.2574C129.377 62.8959 130.424 62.829 131.174 62.4281C131.872 62.0569 132.421 61.4705 133.075 61.0399C133.847 60.535 134.768 60.2975 135.54 59.8001C136.327 59.2878 136.981 58.5825 136.357 57.6916C135.228 56.0955 131.887 56.4147 130.535 57.417C129.399 58.2707 127.588 60.8691 128.813 62.2574Z" fill="#53112B"/>
<path d="M164.476 48.6567C163.682 48.679 162.857 48.9463 162.315 49.5328C161.573 50.3271 161.476 51.6189 162.62 52.1237C163.184 52.3761 163.838 52.3316 164.454 52.2425C165.36 52.1014 166.399 52.4281 167.32 52.1757C168.671 51.8119 168.879 50.5795 167.803 49.659C166.934 48.9166 165.597 48.627 164.476 48.6567Z" fill="#53112B"/>
<path d="M134.82 75.2122C133.958 75.7022 132.963 76.4149 133.06 77.4097C133.119 78.011 133.595 78.501 134.144 78.7386C134.694 78.9761 135.317 78.9984 135.919 78.9984C137.24 78.9836 138.584 78.8277 139.817 78.3303C141.629 77.6027 144.948 74.3362 142.386 72.5173C140.3 71.0399 136.557 74.2322 134.82 75.2122Z" fill="#F97D7D"/>
<path d="M166.897 65.7541C166.578 66.0659 166.466 66.5559 166.533 67.0014C166.763 68.5307 168.322 69.0949 169.696 69.2434C171.003 69.3844 172.354 69.0652 173.483 68.3896C174.381 67.8477 175.317 66.3406 174.901 65.2493C174.471 64.1357 172.882 64.1951 171.894 64.3584C170.506 64.5886 169.139 64.9152 167.795 65.3161C167.491 65.4052 167.172 65.5091 166.934 65.7244C166.919 65.7393 166.904 65.7467 166.897 65.7541Z" fill="#F97D7D"/>
<path d="M170.142 60.3569C170.483 61.0548 170.788 61.9085 170.758 62.5173C170.721 63.2152 170.298 63.6458 169.808 63.8833C169.451 64.0541 168.85 64.1654 168.426 63.9798C167.766 63.6903 167.276 62.8885 166.83 61.9679C166.429 61.1439 166.139 60.1713 166.251 59.5032C166.34 58.9538 166.756 58.642 167.164 58.4415C167.617 58.2188 168.204 58.1149 168.738 58.4564C169.28 58.7979 169.778 59.5997 170.142 60.3569Z" fill="#141833"/>
<path d="M138.963 67.7438C139.305 68.4416 139.609 69.2954 139.579 69.9041C139.542 70.602 139.119 71.0326 138.629 71.2702C138.273 71.4409 137.671 71.5523 137.248 71.3667C136.587 71.0771 136.097 70.2753 135.651 69.3548C135.25 68.5307 134.961 67.5582 135.072 66.89C135.161 66.3406 135.577 66.0288 135.986 65.8284C136.439 65.6057 137.025 65.5017 137.56 65.8432C138.102 66.1922 138.592 66.9865 138.963 67.7438Z" fill="#141833"/>
<path d="M145.898 77.2242C145.438 78.36 145.98 82.0869 148.378 84.4031C152.737 88.6125 161.083 88.9986 165.724 84.4031C170.223 79.9488 169.035 71.5077 166.771 71.5003C166.013 71.4928 161.595 73.1261 158.046 74.0467C152.135 75.5686 146.351 76.0957 145.898 77.2242Z" fill="#752727"/>
<mask id="mask0_30_79" style="mask-type:luminance" maskUnits="userSpaceOnUse" x="145" y="71" width="24" height="17">
<path d="M145.898 77.2242C145.438 78.36 145.98 82.0869 148.378 84.4031C152.737 88.6125 161.083 88.9986 165.724 84.4031C170.223 79.9488 169.035 71.5077 166.771 71.5003C166.013 71.4928 161.595 73.1261 158.046 74.0467C152.135 75.5686 146.351 76.0957 145.898 77.2242Z" fill="white"/>
</mask>
<g mask="url(#mask0_30_79)">
<path d="M142.438 83.5717C144.079 82.1611 146.106 81.2554 148.2 80.706C150.294 80.1641 152.462 79.971 154.623 79.8523C158.395 79.6592 162.278 79.7261 165.813 81.0772C166.889 81.493 167.951 82.0349 168.723 82.8961C169.496 83.7573 169.934 84.9748 169.637 86.0884C169.288 87.3876 168.055 88.2414 166.845 88.8278C165.33 89.5628 163.711 90.0602 162.093 90.5428C158.967 91.4708 155.677 92.3468 152.484 91.6935C151.178 91.4262 149.93 90.9066 148.735 90.3126C146.388 89.1471 144.198 87.692 142.223 85.977" fill="#C6493C"/>
<path d="M150.428 74.1581C150.376 74.7 150.324 75.242 150.398 75.7839C150.472 76.3184 150.673 76.8604 151.066 77.2316C151.735 77.8626 152.744 77.8923 153.665 77.8849C157.14 77.8552 160.437 77.4617 163.518 75.7171C166.488 74.0318 165.308 71.2033 163.711 68.9093" fill="white"/>
</g>
<path d="M131.285 97.9221C137.263 100.654 144.116 100.491 150.688 100.276" stroke="#D35F5F" stroke-width="1.5" stroke-miterlimit="10" stroke-linejoin="round"/>
<path d="M171.226 27.2979C172.837 20.9356 170.914 13.6898 166.585 8.75284C162.256 3.8159 155.692 1.03191 149.128 0.965091C144.985 0.927971 140.797 1.94506 137.285 4.14998C135.139 5.50114 133.275 7.31259 131.879 9.42842C126.437 6.77064 119.955 6.12475 114.311 8.29255C105.899 11.522 98.8966 21.4627 98.5402 30.7204C94.4786 31.4776 90.7956 34.2393 89.073 38.0107C87.1499 42.2275 87.7662 47.4689 90.558 51.1586C87.3875 53.2225 84.6179 55.9322 82.9546 59.3027C80.9424 63.3784 80.7567 68.4936 83.1551 72.354C84.8183 75.0341 87.5954 76.9272 90.6174 77.8552C92.7188 78.5011 94.9389 78.7015 97.1368 78.5902C97.6343 79.9785 98.4882 81.248 99.5871 82.2279C101.711 84.1136 104.621 84.9748 107.458 84.908C108.898 84.8709 110.369 84.5962 111.586 83.8315C113.725 82.4952 114.727 79.8968 115.069 77.3949C115.388 75.0638 115.188 72.5768 114.207 70.4758C114.957 67.5953 114.868 64.4772 114.749 61.4631C117.215 61.2107 119.353 60.9582 121.039 59.1394C121.655 58.4712 122.1 57.662 122.442 56.8157C123.177 55.0116 123.474 53.0665 123.764 51.1363C127.254 53.1408 131.352 54.1876 135.332 53.5565C137.493 53.215 139.646 52.4355 141.25 50.9433C142.846 49.4511 143.804 47.1571 143.314 45.0264C146.893 47.5134 151.586 48.3449 155.945 48.4785C159.835 48.5973 163.83 48.2558 167.387 46.6819C170.951 45.1081 174.04 42.1459 175.05 38.3819C176.141 34.3878 174.552 29.7924 171.226 27.2979Z" fill="#53112B"/>
<path d="M123.994 51.6411C121.885 50.7873 119.531 50.5498 117.296 50.9655" stroke="#7F264F" stroke-width="1.5" stroke-miterlimit="10" stroke-linejoin="round"/>
<path d="M143.589 45.9024C143.084 41.5297 139.691 37.6395 135.436 36.5333" stroke="#7F264F" stroke-width="1.5" stroke-miterlimit="10" stroke-linejoin="round"/>
<path d="M171.753 27.6097C167.528 23.972 161.788 22.1605 156.242 22.7099" stroke="#7F264F" stroke-width="1.5" stroke-miterlimit="10" stroke-linejoin="round"/>
<path d="M131.412 9.65857C132.919 10.542 133.966 12.0714 134.508 13.7343C135.05 15.3899 135.117 17.1716 134.991 18.9088" stroke="#7F264F" stroke-width="1.5" stroke-miterlimit="10" stroke-linejoin="round"/>
<path d="M114.749 61.4631C112.477 61.4556 110.22 62.5173 108.787 64.2767" stroke="#7F264F" stroke-width="1.5" stroke-miterlimit="10" stroke-linejoin="round"/>
<path d="M95.6517 78.2561C97.2482 78.6199 98.9188 78.6273 100.523 78.2858" stroke="#7F264F" stroke-width="1.5" stroke-miterlimit="10" stroke-linejoin="round"/>
<path d="M98.2061 30.7055C100.174 30.3937 102.171 30.2675 104.169 30.3343" stroke="#7F264F" stroke-width="1.5" stroke-miterlimit="10" stroke-linejoin="round"/>
<path d="M159.524 28.1145C163.006 29.0054 166.392 30.5644 168.954 33.0811C171.515 35.6053 173.171 39.1688 172.896 42.7546" stroke="#7F264F" stroke-width="1.5" stroke-miterlimit="10" stroke-linejoin="round"/>
<path d="M145.468 17.6987C149.447 15.0409 154.378 13.8457 159.13 14.4025C163.882 14.9518 168.411 17.2458 171.671 20.75" stroke="#7F264F" stroke-width="1.5" stroke-miterlimit="10" stroke-linejoin="round"/>
<path d="M126.177 38.7679C129.689 38.9535 133.261 39.9187 136 42.1236C138.74 44.3285 140.522 47.9069 139.966 51.3813" stroke="#7F264F" stroke-width="1.5" stroke-miterlimit="10" stroke-linejoin="round"/>
<path d="M89.5928 51.7897C91.9094 50.3123 94.6048 49.4363 97.3521 49.2655" stroke="#7F264F" stroke-width="1.5" stroke-miterlimit="10" stroke-linejoin="round"/>
<path d="M87.0236 76.3036C86.4816 75.5909 86.2217 74.7075 86.0658 73.8314C85.4421 70.4164 86.1994 66.8232 87.8478 63.7645C89.4888 60.7058 91.9837 58.152 94.7978 56.1252" stroke="#7F264F" stroke-width="1.5" stroke-miterlimit="10" stroke-linejoin="round"/>
<path d="M85.9543 41.7598C86.2365 40.1859 86.7563 38.6566 87.4765 37.2312C90.4392 31.4033 97.857 30.5941 103.626 31.8117" stroke="#53112B" stroke-width="1.5" stroke-miterlimit="10" stroke-linejoin="round"/>
<path d="M100.04 29.3321C97.4858 23.8755 99.4535 17.3053 103.961 13.7269" stroke="#53112B" stroke-width="1.5" stroke-miterlimit="10" stroke-linejoin="round"/>
<path d="M133.595 9.07205C140.983 0.935368 152.121 -0.519731 158.826 1.19521C165.53 2.91015 171.478 7.76543 174.018 14.202" stroke="#53112B" stroke-width="1.5" stroke-miterlimit="10" stroke-linejoin="round"/>
<path d="M118.729 72.9851C117.304 71.0103 115.269 69.4141 112.841 68.7386C110.413 68.063 107.599 68.4119 105.475 69.8893C102.587 71.9012 101.466 75.5835 101.547 78.9243C101.629 82.176 102.683 85.3757 104.703 87.8998C106.715 90.424 109.708 92.228 113.034 92.7254C115.358 93.0744 117.905 92.7551 119.925 91.4559C121.944 90.1642 123.326 87.7885 122.977 85.5465" fill="#FF9797"/>
<path d="M113.034 92.718C115.358 93.067 117.905 92.7477 119.925 91.4485C121.944 90.1568 123.326 87.7811 122.977 85.5391" stroke="#D35F5F" stroke-width="1.5" stroke-miterlimit="10" stroke-linejoin="round"/>
<path d="M118.729 72.9851C117.304 71.0103 115.269 69.4141 112.841 68.7386C110.413 68.063 107.599 68.4119 105.475 69.8893" stroke="#D35F5F" stroke-width="1.5" stroke-miterlimit="10" stroke-linejoin="round"/>
<path d="M107.569 77.9963C108.579 76.5635 110.354 75.9102 111.995 76.0735C115.425 76.4076 117.705 79.444 119.858 81.9755" stroke="#D35F5F" stroke-width="1.5" stroke-miterlimit="10" stroke-linejoin="round"/>
<path d="M110.584 85.3014C110.316 81.9978 111.92 79.0876 114.475 76.8307" stroke="#D35F5F" stroke-width="1.5" stroke-miterlimit="10" stroke-linejoin="round"/>
<path d="M195.454 43.7494L128.679 91.6489L163.852 119.994L210.735 97.9221L195.454 43.7494Z" fill="url(#paint0_linear_30_79)"/>
<path d="M200.496 120.899L165.917 121.657C164.454 121.686 163.429 120.216 163.971 118.85L171.345 100.394C171.894 99.0283 173.201 98.1151 174.679 98.0854L209.258 97.3282C210.721 97.2985 211.745 98.7685 211.203 100.134L203.83 118.59C203.28 119.964 201.966 120.87 200.496 120.899Z" fill="#2E3247"/>
<path d="M191.727 112.154L186.752 112.265C186.544 112.273 186.395 112.057 186.47 111.864L187.532 109.207C187.613 109.006 187.799 108.88 188.014 108.873L192.989 108.761C193.197 108.754 193.345 108.969 193.271 109.162L192.209 111.82C192.128 112.02 191.942 112.147 191.727 112.154Z" stroke="#555A6D" stroke-miterlimit="10"/>
<path d="M206.607 106.675L197.281 106.883C196.887 106.89 196.613 106.497 196.754 106.126L198.744 101.152C198.892 100.78 199.241 100.535 199.642 100.528L208.968 100.32C209.362 100.313 209.636 100.706 209.495 101.077L207.505 106.051C207.357 106.423 207 106.668 206.607 106.675Z" fill="#555A6D"/>
<path d="M165.375 120.35L172.748 101.894C173.297 100.528 174.604 99.6148 176.082 99.5851L210.661 98.8278C210.876 98.8204 211.084 98.8575 211.277 98.9169C211.062 98.026 210.275 97.3133 209.25 97.3356L174.664 98.0928C173.193 98.1225 171.879 99.0357 171.33 100.402L163.956 118.858C163.496 120.016 164.172 121.248 165.286 121.575C165.196 121.181 165.204 120.766 165.375 120.35Z" fill="#555A6D"/>
<path d="M202.122 104.522C201.573 105.339 200.563 105.613 199.872 105.146C199.182 104.678 199.063 103.639 199.612 102.822C200.162 102.005 201.172 101.731 201.862 102.198C202.553 102.666 202.672 103.705 202.122 104.522Z" fill="#2E3247"/>
<path d="M206.622 104.567C206.072 105.383 205.063 105.658 204.372 105.19C203.681 104.722 203.563 103.683 204.112 102.866C204.662 102.05 205.671 101.775 206.362 102.243C207.06 102.718 207.171 103.757 206.622 104.567Z" fill="#2E3247"/>
<path d="M208.619 101.664C208.463 101.901 208.174 101.976 207.973 101.842C207.773 101.708 207.743 101.411 207.899 101.174C208.055 100.936 208.344 100.862 208.545 100.996C208.745 101.129 208.775 101.426 208.619 101.664Z" fill="#7F88A3"/>
<path d="M160.615 110.268C154.861 113.824 149.737 117.551 144.361 121.812C140.144 114.782 135.102 105.175 129.964 101.27C127.989 99.7707 125.776 98.5457 123.385 98.0632C119.412 97.2688 115.343 98.1077 111.876 100.216C106.634 103.401 102.854 109.117 101.406 115.279C100.062 121.003 100.59 128.999 105.587 132.77C108.312 134.827 112.039 134.849 115.188 133.691C116.257 133.297 117.267 132.778 118.247 132.191C120.511 135.087 122.642 138.101 124.781 141.122C126.711 143.847 128.798 146.505 131.404 148.479C135.035 151.234 139.884 152.31 144.161 150.937C148.163 149.652 151.534 146.467 154.504 143.468C158.967 138.954 162.308 132.718 165.768 127.343L160.615 110.268Z" fill="#FF9797"/>
<path d="M145.096 121.219C141.822 124.077 138.562 125.858 135.941 127.752C134.033 129.132 132.139 130.699 131.137 132.837" stroke="#D35F5F" stroke-width="1.5" stroke-miterlimit="10" stroke-linejoin="round"/>
<path d="M118.9 133.037C118.9 133.037 115.425 127.863 113.933 127.306C112.44 126.749 110.866 126.252 110.866 126.252" stroke="#D35F5F" stroke-width="1.5" stroke-miterlimit="10" stroke-linejoin="round"/>
<path d="M155.328 114.01C160.14 110.387 164.766 105.955 169.176 105.116C171.582 104.656 174.664 105.257 176.386 105.955C177.485 106.4 178.488 107.076 179.371 107.907C179.898 108.405 181.257 109.637 181.072 110.521C180.945 111.137 180.277 111.397 179.705 111.493C178.688 111.656 177.649 111.642 176.646 111.434C178.02 112.258 179.394 113.082 180.76 113.898C181.539 114.366 182.43 115.079 182.289 116.051C182.133 117.069 180.945 117.462 180.017 117.321C179.097 117.172 177.262 116.965 177.262 116.965C177.262 116.965 179.423 118.739 180.403 119.763C180.968 120.357 181.554 121.174 181.294 122.005C181.035 122.837 180.233 122.904 179.557 122.792C179.223 122.74 177.166 121.775 177.166 121.775C177.166 121.775 178.139 123.141 178.413 123.758C178.688 124.366 178.8 125.168 178.399 125.71C177.953 126.304 177.136 126.282 176.461 126.133C175.295 125.873 174.27 125.138 173.067 125.198C171.983 125.25 171.404 125.955 170.81 126.905C168.181 131.122 164.402 130.617 160.288 128.769" fill="#FF9797"/>
<path d="M170.869 120.439C173.446 120.432 176.022 121.226 178.146 122.696" stroke="#D35F5F" stroke-width="1.5" stroke-miterlimit="10" stroke-linejoin="round"/>
<path d="M171.463 115.547C174.107 115.621 176.728 116.497 178.889 118.026" stroke="#D35F5F" stroke-width="1.5" stroke-miterlimit="10" stroke-linejoin="round"/>
<path d="M171.307 110.402C173.929 110.268 176.572 110.87 178.881 112.109" stroke="#D35F5F" stroke-width="1.5" stroke-miterlimit="10" stroke-linejoin="round"/>
<path d="M164.565 130.127C163.578 130.112 161.217 130.38 160.355 130.862" stroke="#D35F5F" stroke-width="1.5" stroke-miterlimit="10" stroke-linejoin="round"/>
<path d="M209.926 102.681C207.854 101.679 205.404 101.745 203.154 102.339C201.833 102.688 199.605 103.876 200.897 105.509C201.246 105.947 201.751 106.237 202.241 106.512C201.729 106.831 201.053 106.556 200.459 106.668C199.902 106.771 199.434 107.254 199.36 107.818C199.293 108.279 199.471 108.754 199.746 109.125C200.028 109.496 200.399 109.786 200.778 110.06C201.187 110.357 201.61 110.632 202.048 110.892C201.29 110.751 200.37 110.654 199.865 111.241C199.531 111.634 199.508 112.221 199.694 112.703C199.88 113.186 200.236 113.579 200.607 113.936C201.045 114.366 201.521 114.76 202.011 115.123C201.58 115.027 201.105 114.982 200.726 115.213C200.333 115.45 200.14 115.933 200.154 116.393C200.162 116.853 200.347 117.284 200.555 117.692C200.971 118.509 201.491 119.095 202.122 119.749C202.196 119.83 202.278 119.912 202.315 120.016C202.375 120.179 202.323 120.365 202.285 120.528C202.055 121.464 202.1 122.458 202.419 123.372C202.456 123.468 202.501 123.579 202.605 123.609C202.679 123.631 202.753 123.609 202.82 123.579C204.149 123.089 205.441 122.436 206.473 121.471C207.513 120.506 208.278 119.207 208.404 117.796C210.097 117.217 211.188 115.25 210.765 113.505C211.604 113.156 212.154 112.28 212.272 111.374C212.399 110.469 212.146 109.555 211.753 108.731C211.775 108.776 212.592 107.425 212.636 107.261C212.814 106.645 212.837 105.977 212.673 105.354C212.369 104.106 211.04 103.215 209.926 102.681Z" fill="#FF9797"/>
<path d="M202.055 119.808C202.716 120.372 203.436 120.877 204.201 121.3" stroke="#D35F5F" stroke-width="1.5" stroke-miterlimit="10" stroke-linejoin="round"/>
<path d="M201.127 114.804C202.538 115.161 203.986 115.324 205.389 115.695C206.689 116.037 208.226 116.579 208.612 118.004" stroke="#D35F5F" stroke-width="1.5" stroke-miterlimit="10" stroke-linejoin="round"/>
<path d="M200.897 110.513C203.57 111.189 206.354 111.434 208.931 112.421C209.837 112.77 210.758 113.253 211.27 114.084" stroke="#D35F5F" stroke-width="1.5" stroke-miterlimit="10" stroke-linejoin="round"/>
<path d="M201.224 106.341C204.067 106.408 206.904 106.846 209.636 107.64C210.735 107.959 211.879 108.383 212.555 109.303" stroke="#D35F5F" stroke-width="1.5" stroke-miterlimit="10" stroke-linejoin="round"/>
<path d="M0.378662 98.4789C4.81895 94.3364 9.8681 90.8545 15.3182 88.1819" stroke="#526F99" stroke-width="1.5" stroke-miterlimit="10"/>
<path d="M4.3512 89.2362C6.98715 87.5955 9.62311 85.9548 12.2665 84.3141" stroke="#526F99" stroke-width="1.5" stroke-miterlimit="10"/>
<path d="M49.8158 54.7444C56.5505 54.8929 63.2629 56.0584 69.656 58.1817" stroke="#526F99" stroke-width="1.5" stroke-miterlimit="10"/>
<path d="M65.9879 52.6285C69.656 53.5862 73.324 54.5513 76.9921 55.509" stroke="#526F99" stroke-width="1.5" stroke-miterlimit="10"/>
</g>
<defs>
<linearGradient id="paint0_linear_30_79" x1="195.328" y1="110.027" x2="162.269" y2="67.945" gradientUnits="userSpaceOnUse">
<stop offset="0.1835" stop-color="white" stop-opacity="0.5"/>
<stop offset="0.8949" stop-color="white" stop-opacity="0"/>
</linearGradient>
<clipPath id="clip0_30_79">
<rect width="213" height="156" fill="white"/>
</clipPath>
</defs>
</svg>
