<svg width="209" height="227" viewBox="0 0 209 227" fill="none" xmlns="http://www.w3.org/2000/svg">
<path d="M6.17149 66.5812L0.119324 78.612C-0.250325 79.3467 0.283611 80.2125 1.10572 80.2125H6.39871C7.19961 80.2125 7.73422 81.0386 7.40564 81.7693L4.57696 88.0632C4.08277 89.1629 5.45737 90.146 6.33843 89.3226L19.0284 77.46C19.7571 76.779 19.2808 75.5575 18.2831 75.5488L13.4936 75.5091C12.5681 75.5011 12.062 74.4266 12.6456 73.7085L17.4683 67.773C18.0546 67.0515 17.5412 65.9724 16.6111 65.9724H7.15789C6.74054 65.9731 6.35896 66.2082 6.17149 66.5812Z" fill="#FFCC2C"/>
<path d="M19.0284 77.4597L6.3371 89.3256C5.79918 89.825 5.07247 89.6515 4.71674 89.1891L12.9861 78.6177C13.4101 78.0725 13.0239 77.2848 12.3349 77.2848H7.96541C7.30693 77.2848 6.91277 76.5349 7.28374 75.9897L14.1521 65.9714H16.6131C17.5445 65.9714 18.0592 67.0545 17.469 67.7733L12.645 73.7102C12.062 74.4296 12.5695 75.5048 13.4929 75.5127L18.2864 75.5505C19.2781 75.5591 19.7557 76.7787 19.0284 77.4597Z" fill="#FFB815"/>
<path d="M196.698 121.51H152.014C148.197 121.51 145.102 118.415 145.102 114.597V55.2912C145.102 51.4738 148.197 48.3792 152.014 48.3792H196.698C200.515 48.3792 203.61 51.4738 203.61 55.2912V114.597C203.604 118.415 200.515 121.51 196.698 121.51Z" fill="url(#paint0_linear_28_3633)"/>
<path d="M174.476 116.62H156.345C153.151 116.62 150.569 114.032 150.569 110.844V62.04C150.569 58.8462 153.157 56.2644 156.345 56.2644H174.476C177.664 56.2644 180.251 58.8521 180.251 62.04V110.844C180.251 114.032 177.664 116.62 174.476 116.62Z" fill="#365CA7" fill-opacity="0.5"/>
<path d="M184.034 74.0461H199.443" stroke="url(#paint1_linear_28_3633)" stroke-width="2" stroke-miterlimit="10" stroke-linecap="round"/>
<path d="M185.199 68.4805H198.353" stroke="url(#paint2_linear_28_3633)" stroke-width="6" stroke-miterlimit="10" stroke-linecap="round"/>
<path d="M184.034 78.4229H199.443" stroke="url(#paint3_linear_28_3633)" stroke-width="2" stroke-miterlimit="10" stroke-linecap="round"/>
<path d="M184.034 82.7998H194.909" stroke="url(#paint4_linear_28_3633)" stroke-width="2" stroke-miterlimit="10" stroke-linecap="round"/>
<path d="M172.92 112.161H157.895C156.374 112.161 155.138 110.926 155.138 109.405V100.995C155.138 99.4736 156.374 98.238 157.895 98.238H172.92C174.441 98.238 175.676 99.4736 175.676 100.995V109.405C175.676 110.926 174.441 112.161 172.92 112.161Z" fill="url(#paint5_linear_28_3633)"/>
<path d="M158.099 89.362H82.777C77.9281 89.362 74 85.4339 74 80.585V15.777C74 10.9281 77.9281 7 82.777 7H158.099C162.948 7 166.876 10.9281 166.876 15.777V80.585C166.876 85.4339 162.948 89.362 158.099 89.362Z" fill="url(#paint6_linear_28_3633)"/>
<path d="M122.122 44.55H86.9732C85.3122 44.55 83.9717 43.2038 83.9717 41.5486V20.9756C83.9717 19.3146 85.318 17.9741 86.9732 17.9741H122.122C123.783 17.9741 125.124 19.3204 125.124 20.9756V41.5486C125.124 43.2038 123.777 44.55 122.122 44.55Z" fill="#365CA7" fill-opacity="0.5"/>
<path d="M154.928 44.55H133.568C131.907 44.55 130.567 43.2038 130.567 41.5486V20.9756C130.567 19.3146 131.913 17.9741 133.568 17.9741H154.928C156.589 17.9741 157.93 19.3204 157.93 20.9756V41.5486C157.93 43.2038 156.589 44.55 154.928 44.55Z" fill="#365CA7" fill-opacity="0.5"/>
<path d="M90.7789 24.6414H119.995" stroke="url(#paint7_linear_28_3633)" stroke-width="6" stroke-miterlimit="10" stroke-linecap="round"/>
<path d="M90.7789 30.7024H119.995" stroke="url(#paint8_linear_28_3633)" stroke-width="2" stroke-miterlimit="10" stroke-linecap="round"/>
<path d="M90.7789 34.7241H119.995" stroke="url(#paint9_linear_28_3633)" stroke-width="2" stroke-miterlimit="10" stroke-linecap="round"/>
<path d="M90.7789 38.751H119.995" stroke="url(#paint10_linear_28_3633)" stroke-width="2" stroke-miterlimit="10" stroke-linecap="round"/>
<path d="M150.767 28.0392H139.088C137.77 28.0392 136.698 26.9668 136.698 25.6497V25.1368C136.698 23.8197 137.77 22.7473 139.088 22.7473H150.767C152.084 22.7473 153.157 23.8197 153.157 25.1368V25.6497C153.157 26.9668 152.084 28.0392 150.767 28.0392Z" fill="url(#paint11_linear_28_3633)"/>
<path d="M156.863 57.296H86.3554C85.0383 57.296 83.9659 56.2237 83.9659 54.9065V54.3937C83.9659 53.0765 85.0383 52.0042 86.3554 52.0042H156.863C158.18 52.0042 159.253 53.0765 159.253 54.3937V54.9065C159.253 56.2237 158.186 57.296 156.863 57.296Z" fill="url(#paint12_linear_28_3633)"/>
<path d="M156.863 67.4774H86.3554C85.0383 67.4774 83.9659 66.4051 83.9659 65.0879V64.575C83.9659 63.2579 85.0383 62.1855 86.3554 62.1855H156.863C158.18 62.1855 159.253 63.2579 159.253 64.575V65.0879C159.253 66.4051 158.186 67.4774 156.863 67.4774Z" fill="url(#paint13_linear_28_3633)"/>
<path d="M156.863 77.6593H86.3554C85.0383 77.6593 83.9659 76.5869 83.9659 75.2698V74.7569C83.9659 73.4398 85.0383 72.3674 86.3554 72.3674H156.863C158.18 72.3674 159.253 73.4398 159.253 74.7569V75.2698C159.253 76.5869 158.186 77.6593 156.863 77.6593Z" fill="url(#paint14_linear_28_3633)"/>
<g clip-path="url(#clip0_28_3633)">
<path d="M94.4145 226.35C132.199 226.35 162.829 219.354 162.829 210.723C162.829 202.092 132.199 195.095 94.4145 195.095C56.6302 195.095 26 202.092 26 210.723C26 219.354 56.6302 226.35 94.4145 226.35Z" fill="#B3CEF4"/>
<path d="M126.413 172.609L103.354 206.876C112.22 207.025 120.651 210.889 129.493 211.501C132.889 211.735 136.347 211.472 139.576 210.403C142.806 209.334 145.807 207.425 147.882 204.727C149.694 202.372 150.768 199.417 150.683 196.45C150.448 188.562 148.825 183.058 126.413 172.609Z" fill="#F9B887"/>
<path d="M115.146 182.28C123.875 185.47 134.112 193.57 134.621 201.978C134.752 204.144 134.478 206.345 133.74 208.38C132.02 213.107 127.533 216.399 122.749 217.942C117.964 219.491 112.843 219.554 107.813 219.6C98.2499 219.692 75.9691 216.193 75.9691 216.193C75.9691 216.193 82.5596 202.955 87.281 200.177C84.8174 194.421 90.2418 185.584 98.4042 182.881C102.588 181.497 109.899 180.36 115.146 182.28Z" fill="#FFC799"/>
<path d="M85.509 204.453C88.4184 205.413 94.9918 208.391 97.7697 209.683C100.862 211.118 104.183 212.798 107.521 212.089" stroke="#C16B4D" stroke-width="0.857396" stroke-miterlimit="10" stroke-linejoin="round"/>
<path d="M90.6991 200.457C87.8183 201.881 84.0914 205.436 82.2166 208.654C80.4332 211.718 79.1814 214.816 80.8848 217.508C77.781 216.805 73.7284 217.931 70.8361 219.337C67.658 220.881 63.794 221.898 60.2387 221.355C53.5224 220.338 56.6205 213.558 59.3013 210.009C62.8909 205.265 64.7372 204.179 69.0927 200.166C70.6132 198.766 74.8487 195.433 76.6092 194.353C80.9534 195.107 85.4804 198.468 90.6991 200.457Z" fill="white"/>
<path d="M58.3295 220.795C57.9866 219.149 58.3067 217.417 58.9697 215.879C60.2615 212.89 62.5479 210.472 64.7543 208.128C69.2756 203.327 74.2485 199.046 79.5244 195.09" stroke="#DBBB61" stroke-width="0.857396" stroke-miterlimit="10" stroke-linejoin="round"/>
<path d="M71.4592 215.222C72.6481 216.628 74.2257 217.714 75.9691 218.32" stroke="#DBBB61" stroke-width="0.857396" stroke-miterlimit="10" stroke-linejoin="round"/>
<path d="M73.8541 214.284C73.5169 215.33 73.3283 216.422 73.3054 217.52C73.294 217.954 73.3168 218.411 73.534 218.789" stroke="#DBBB61" stroke-width="0.857396" stroke-miterlimit="10" stroke-linejoin="round"/>
<path d="M68.3268 216.199C69.207 217.508 70.4131 218.6 71.8021 219.343" stroke="#DBBB61" stroke-width="0.857396" stroke-miterlimit="10" stroke-linejoin="round"/>
<path d="M69.7844 216.016C69.6644 216.702 69.5043 217.382 69.4529 218.074C69.4014 218.765 69.4757 219.491 69.7958 220.069" stroke="#DBBB61" stroke-width="0.857396" stroke-miterlimit="10" stroke-linejoin="round"/>
<path d="M127.59 138.262L139.651 131.323L148.419 141.337C148.419 141.337 139.942 153.838 128.167 160.543C124.149 161.057 127.59 138.262 127.59 138.262Z" fill="#F9B887"/>
<path d="M130.785 136.713C131.168 136.227 131.545 135.741 131.928 135.256C132.1 135.038 132.328 134.798 132.597 134.855C132.849 134.907 132.974 135.193 133.037 135.444C133.249 136.267 133.283 137.142 133.129 137.976C133.929 137.736 134.775 138.445 134.958 139.257C135.141 140.074 134.838 140.914 134.461 141.657C135.307 141.595 135.952 142.532 135.907 143.384C135.861 144.23 135.352 144.978 134.861 145.67C135.581 145.624 136.25 146.162 136.513 146.83C136.77 147.505 136.673 148.271 136.393 148.934C136.118 149.597 135.678 150.18 135.244 150.757C135.752 150.746 136.341 150.769 136.667 151.163C137.027 151.603 136.856 152.272 136.518 152.729C136.181 153.187 135.712 153.53 135.398 153.998C136.055 153.964 136.558 154.593 136.758 155.216C137.09 156.233 136.936 157.405 136.347 158.302C136.278 158.405 136.204 158.508 136.09 158.548C135.998 158.582 135.895 158.565 135.798 158.554C133.855 158.291 131.814 158.88 130.316 160.143" fill="white"/>
<path d="M136.958 134.181C137.942 131.094 137.124 127.813 138.262 124.687C139.045 122.526 140.457 120.657 141.84 118.828C142.732 117.65 143.795 116.742 144.589 115.507C145.452 114.164 146.504 112.918 147.299 111.54C147.499 111.197 147.704 110.814 148.076 110.671C148.819 110.38 149.568 110.66 149.888 111.38C150.934 113.746 149.596 116.17 148.659 118.325C150.185 118.045 151.814 118.885 152.1 120.491C152.826 120.228 153.695 120.411 154.249 120.943C154.809 121.474 155.027 122.337 154.798 123.069C155.027 122.337 156.353 123.241 156.564 123.446C157.433 124.298 157.667 125.298 157.673 126.476C157.679 127.562 157.69 128.654 157.696 129.74C157.702 130.563 157.553 131.374 156.564 131.386C155.918 131.392 155.29 130.963 155.055 130.363C154.878 132.1 154.695 133.849 154.186 135.518C153.678 137.188 152.803 138.794 151.454 139.897C149.453 141.532 146.716 141.875 144.138 141.972" fill="#F9B887"/>
<path d="M141.04 122.286C142.006 121.343 143.057 120.48 144.383 120.148C145.578 119.851 146.818 119.851 148.047 119.857C148.733 119.857 149.551 119.942 149.865 120.548C150.088 120.983 150.002 121.811 149.688 122.189C149.374 122.566 148.676 122.835 148.242 123.063C146.944 123.749 146.373 123.721 145.458 124.892C148.488 127.419 150.031 131.603 148.905 135.381" fill="#F9B887"/>
<path d="M141.04 122.286C142.006 121.343 143.057 120.48 144.383 120.148C145.578 119.851 146.818 119.851 148.047 119.857C148.733 119.857 149.551 119.942 149.865 120.548C150.088 120.983 150.002 121.811 149.688 122.189C149.374 122.566 148.676 122.835 148.242 123.063C146.944 123.749 146.373 123.721 145.458 124.892C148.488 127.419 150.031 131.603 148.905 135.381" stroke="#C16B4D" stroke-width="0.857396" stroke-miterlimit="10" stroke-linejoin="round"/>
<path d="M148.825 118.125C148.59 118.685 148.35 119.245 148.116 119.805" stroke="#C16B4D" stroke-width="0.857396" stroke-miterlimit="10" stroke-linejoin="round"/>
<path d="M147.624 123.543C147.459 124.332 147.424 125.195 147.796 125.915C148.167 126.636 149.036 127.139 149.802 126.876C150.311 126.704 150.671 126.241 150.877 125.75C151.083 125.258 151.168 124.721 151.3 124.201C151.654 122.8 152.374 121.411 152.123 119.988" stroke="#C16B4D" stroke-width="0.857396" stroke-miterlimit="10" stroke-linejoin="round"/>
<path d="M150.522 126.247C150.522 126.842 150.597 127.447 150.825 127.996C151.054 128.545 151.46 129.036 151.997 129.294C152.214 129.397 152.449 129.459 152.689 129.437C153.066 129.402 153.392 129.145 153.603 128.836C153.815 128.528 153.929 128.162 154.038 127.796C154.558 125.973 154.861 124.098 155.164 122.229" stroke="#C16B4D" stroke-width="0.857396" stroke-miterlimit="10" stroke-linejoin="round"/>
<path d="M153.981 128.299C154.243 129.202 154.684 130.048 155.267 130.786" stroke="#C16B4D" stroke-width="0.857396" stroke-miterlimit="10" stroke-linejoin="round"/>
<path d="M144.161 181.56C142.429 180.577 140.44 180.046 138.445 180.034L133.529 178.285C124.824 180.154 116.267 183.075 108.682 187.739C101.097 192.404 94.7003 198.84 90.6992 206.796C91.1907 207.488 91.6823 208.185 92.1739 208.877C92.4654 209.289 92.7855 209.723 93.2599 209.889C94.043 210.163 94.9061 209.546 95.2148 208.78C95.5234 208.008 95.4148 207.145 95.3062 206.328C96.0836 207.105 97.5126 206.836 98.2157 205.996C98.9187 205.15 99.0216 203.944 98.8273 202.864C99.8047 203.567 101.228 203.573 102.211 202.875C103.194 202.178 103.663 200.835 103.326 199.68C104.463 200.274 105.886 200.366 107.024 199.766C108.156 199.166 108.899 197.828 108.653 196.571C109.528 196.879 110.505 197.016 111.431 197.022C112.357 197.028 113.317 196.753 113.992 196.119C114.655 195.496 114.992 194.541 114.866 193.638C116.358 193.518 118.084 193.953 119.199 192.952C119.919 192.301 120.034 191.232 120.045 190.26C121.091 190.563 122.183 190.872 123.252 190.66C124.321 190.449 125.332 189.534 125.264 188.448C126.367 188.797 127.584 189.06 128.665 188.637C129.745 188.214 130.517 186.853 129.928 185.859C130.642 186.082 131.025 186.385 131.774 186.453C132.517 186.522 133.3 186.413 133.94 186.019C134.718 185.539 135.204 184.624 135.169 183.71C135.987 184.093 136.701 184.424 137.564 184.167C138.428 183.91 139.136 183.007 138.919 182.132C139.799 182.441 140.697 182.749 141.628 182.801C142.56 182.852 143.549 182.612 144.212 181.955C144.275 181.892 144.332 181.818 144.321 181.732C144.309 181.652 144.229 181.6 144.161 181.56Z" fill="white"/>
<path d="M105.338 133.22C103.274 132.923 99.5474 133.255 97.5068 133.22C93.3627 133.152 89.0072 132.774 84.9488 134.032C80.9248 135.278 77.5238 138.273 75.1116 141.657C72.5509 145.252 71.4248 149.671 70.7904 153.981C69.9501 159.657 69.3614 164.407 67.7552 169.974C65.9718 176.153 63.2396 182.715 65.4516 189.105C66.4348 191.952 68.4239 194.427 70.6532 196.622C73.3111 199.245 77.0779 201.035 80.4218 202.915C84.1257 205.007 87.8925 207.002 91.7165 208.911C94.7289 203.464 99.9533 198.354 106.006 195.181C112.608 191.723 119.222 190.654 125.732 187.059C128.024 185.79 130.059 184.155 132.397 182.955C135.461 181.383 139.005 180.594 142.52 180.703C137.056 176.707 132.591 174.404 126.704 170.946C125.292 162.692 123.749 156.987 121.131 148.979C120.279 146.367 119.33 143.761 117.907 141.36C116.484 138.959 114.558 136.758 112.054 135.261C109.533 133.758 108.31 133.649 105.338 133.22Z" fill="#FFE98D"/>
<path d="M122.571 183.458C121.285 181.566 119.21 180.326 117.033 179.623C113.609 178.514 109.202 177.828 106.006 179.937C104.829 180.715 103.932 182.058 104.04 183.464C104.189 185.419 106.064 186.716 107.744 187.722C104.715 187.648 101.679 188.077 98.7872 188.98C97.2896 189.449 95.5805 190.409 95.6034 191.975C95.6148 192.707 96.0321 193.376 96.5236 193.924C98.187 195.782 100.656 196.622 103.183 196.834C104.097 196.239 105.035 195.679 106.001 195.176C112.603 191.718 119.216 190.649 125.727 187.054C128.019 185.785 130.054 184.15 132.391 182.95C133.312 182.475 134.283 182.081 135.278 181.755C135.055 181.589 134.826 181.429 134.586 181.292C130.762 179.068 125.384 180.04 122.571 183.458Z" fill="#FFFACA"/>
<path d="M81.7993 192.038C81.5821 190.34 79.8845 189.14 78.1868 188.911C76.4892 188.683 74.7915 189.203 73.1568 189.717C74.1056 188.865 75.2317 188.231 76.2434 187.454C77.2551 186.676 78.1868 185.693 78.5126 184.458C78.8384 183.224 78.3926 181.721 77.238 181.166C76.5749 180.846 75.7918 180.886 75.0659 181.029C71.7964 181.675 69.2528 184.207 67.1207 186.768C66.7492 184.436 66.3719 182.098 66.0004 179.766C65.8918 179.074 65.7431 178.331 65.5088 177.645C64.5714 181.446 64.1312 185.299 65.4459 189.094C66.4291 191.941 68.4182 194.416 70.6475 196.611C70.7961 196.754 70.9561 196.885 71.1047 197.028C72.6137 197.079 74.1399 197.005 75.6947 196.834C77.1351 196.673 78.6098 196.422 79.833 195.645C81.062 194.879 81.9822 193.478 81.7993 192.038Z" fill="#FFFACA"/>
<path d="M101.651 133.221C104.532 132.803 107.47 132.923 110.311 133.581C115.535 134.787 124.652 138.651 124.652 138.651C124.652 138.651 128.133 137.147 131.34 136.096C132.22 138.199 133.9 148.162 132.974 159.108C129.453 162.012 123.96 164.384 119.61 164.664C116.895 164.841 113.529 164.653 110.951 163.675C104.943 161.395 101.428 159.417 95.6663 156.433" fill="#FFE98D"/>
<path d="M91.2535 136.822C94.5745 138.485 98.6557 139.262 102.365 138.908C105.023 138.651 108.344 137.193 108.093 133.969" stroke="#DBBB61" stroke-width="0.857396" stroke-miterlimit="10" stroke-linejoin="round"/>
<path d="M124.206 139.937C123.835 142.24 123.537 144.555 123.332 146.876" stroke="#DBBB61" stroke-width="0.857396" stroke-miterlimit="10" stroke-linejoin="round"/>
<path d="M125.549 140.423C125.567 142.092 125.715 143.761 125.995 145.401" stroke="#DBBB61" stroke-width="0.857396" stroke-miterlimit="10" stroke-linejoin="round"/>
<path d="M125.344 164.001C125.126 159.257 121.285 148.242 120.131 143.675" stroke="#DBBB61" stroke-width="0.857396" stroke-miterlimit="10" stroke-linejoin="round"/>
<path d="M112.025 182.749C114.483 181.606 117.261 181.257 119.959 180.789C122.657 180.32 125.429 179.668 127.567 178.062" stroke="#DBBB61" stroke-width="0.857396" stroke-miterlimit="10" stroke-linejoin="round"/>
<path d="M112.969 179.805C117.038 179.617 121.897 178.274 124.578 176.839" stroke="#DBBB61" stroke-width="0.857396" stroke-miterlimit="10" stroke-linejoin="round"/>
<path d="M125.961 144.818C127.087 145.115 128.39 145.115 129.305 144.389C130.545 143.4 130.568 141.52 130.191 139.977C129.934 138.919 129.539 137.816 128.87 136.959C126.573 137.816 124.658 138.645 124.658 138.645C124.658 138.645 118.227 135.918 113.071 134.335C112.688 134.684 112.328 135.067 112.003 135.484C111.231 136.473 110.711 138.01 111.597 138.902C111.945 139.251 112.431 139.405 112.911 139.531C115.381 140.16 118.021 140.125 120.474 139.422C121.194 142.006 123.36 144.138 125.961 144.818Z" fill="#FFFACA"/>
<path d="M127.647 100.331C129.105 100.948 130.751 100.605 132.22 101.194C133.54 101.725 134.598 103.006 135.158 104.515C135.712 106.024 135.798 107.738 135.547 109.356C135.444 110.002 135.295 110.694 135.512 111.3C135.741 111.945 136.318 112.294 136.816 112.677C138.159 113.706 139.199 115.324 139.536 117.17C139.874 119.016 139.451 121.068 138.325 122.423C136.644 124.452 133.563 125.172 131.14 125.195C129.551 125.212 128.104 124.841 126.521 125.327C124.972 125.801 123.606 126.881 122.017 127.173C119.702 127.596 117.176 126.504 114.883 126.195C112.797 125.91 110.716 126.367 108.602 126.453C107.561 126.493 106.487 126.481 105.544 125.967C104.132 125.207 103.263 123.435 102.994 121.634C102.714 119.771 102.994 117.793 103.777 116.141C104.395 114.832 105.298 113.752 106.052 112.551C106.807 111.351 107.441 109.933 107.378 108.442C107.344 107.584 107.081 106.767 106.858 105.944C106.418 104.326 106.138 102.651 106.012 100.959C105.915 99.6161 105.921 98.25 106.212 96.9525C106.801 94.3174 108.579 92.1625 110.699 91.0764C116.358 88.1842 120.885 91.6423 124.28 96.8553C125.195 98.2557 126.184 99.7133 127.647 100.331Z" fill="#A55D47"/>
<path d="M126.527 125.104C127.87 124.115 129.339 122.183 128.802 120.302C128.636 119.725 128.305 119.211 128.167 118.622C127.739 116.77 129.219 114.998 128.579 113.14C128.442 112.74 128.162 112.414 127.876 112.117C126.853 111.065 125.647 110.254 124.578 109.259C123.509 108.264 122.549 107.018 122.274 105.521" stroke="#82412A" stroke-width="0.857396" stroke-miterlimit="10" stroke-linejoin="round"/>
<path d="M97.787 136.736C100.165 137.084 104.578 136.736 105.989 134.552L104.829 130.094L89.5845 127.59V133.592C89.5845 133.592 92.3453 135.935 97.787 136.736Z" fill="#FFC799"/>
<path d="M74.2943 70.0704C71.3906 72.1453 70.6075 77.5126 70.9333 81.4737C67.075 79.1588 64.4743 78.5243 61.3648 78.3585C59.8786 78.2842 58.0552 78.993 56.9521 80.0276C53.894 82.8799 56.9692 90.4135 58.4782 92.7285C60.4502 95.7637 63.1082 97.5814 65.8061 97.267C66.9493 97.1355 67.9382 96.4496 68.9613 95.9009C72.8082 93.8488 73.8142 87.0182 73.8142 87.0182C77.8668 87.4126 86.7894 87.8928 85.9835 81.3594C85.4233 76.7981 79.0957 66.6408 74.2943 70.0704Z" fill="#EF8A6F"/>
<path d="M61.1533 85.9322C62.931 84.6575 65.1031 84.0859 67.258 83.9488C69.4129 83.8059 71.5735 84.0688 73.717 84.3317" stroke="#CC5F4A" stroke-width="0.857396" stroke-miterlimit="10" stroke-linejoin="round"/>
<path d="M73.9171 82.3424C73.7856 80.6505 73.7856 78.93 74.1514 77.2781C74.5172 75.6204 75.2603 74.0257 76.4492 72.8596" stroke="#CC5F4A" stroke-width="0.857396" stroke-miterlimit="10" stroke-linejoin="round"/>
<path d="M119.891 91.9111C118.833 88.4529 116.907 85.3263 114.398 82.9027C109.853 78.5071 102.989 77.7926 97.1125 78.53C87.7097 79.7018 77.3867 86.5495 73.9742 96.541C70.1788 107.647 75.0203 121.726 84.2516 127.779C91.7566 132.7 103.806 134.026 112.363 131.42C117.096 129.979 121.514 127.762 124.429 123.48C127.344 119.199 127.184 114.163 125.332 109.299C124.006 105.818 123.086 105.349 121.514 98.3015C121.04 96.1523 120.531 94.0088 119.891 91.9111Z" fill="#FFC799"/>
<path d="M109.368 108.905C110.128 107.539 111.117 106.624 112.088 106.384C113.06 106.144 114.003 106.578 114.678 107.584" stroke="#C16B4D" stroke-width="0.857396" stroke-miterlimit="10" stroke-linejoin="round"/>
<path d="M94.5346 102.44C94.889 103.012 95.6892 103.092 96.3123 102.869C96.8896 102.663 97.3755 102.268 97.9242 102.011C98.5758 101.708 99.3017 101.64 99.9476 101.342C100.605 101.039 100.982 100.222 100.611 99.4447C100.285 98.7588 99.6333 98.4444 98.7816 98.2958C97.8956 98.1472 97.0096 98.5245 96.4266 98.8446C95.4606 99.3761 93.7687 101.188 94.5346 102.44Z" fill="#A55D47"/>
<path d="M116.478 95.7063C115.861 95.7006 115.306 95.7863 114.872 96.2379C114.283 96.8552 114.26 98.2385 115.124 98.6786C115.552 98.8958 116.055 98.8787 116.53 98.8215C117.233 98.7358 118.027 99.0159 118.736 98.8444C119.788 98.5929 119.976 97.6155 119.176 96.8552C118.525 96.2379 117.341 95.712 116.478 95.7063Z" fill="#A55D47"/>
<path d="M96.3351 112.866C95.6206 113.146 94.7804 113.58 94.7347 114.375C94.7061 114.855 95.009 115.301 95.3977 115.558C95.7864 115.815 96.2551 115.912 96.7124 115.981C97.7241 116.135 98.7587 116.181 99.7533 115.947C101.222 115.598 104.137 113.449 102.411 111.694C101.005 110.271 97.7756 112.311 96.3351 112.866Z" fill="#F2AF7C"/>
<path d="M118.153 107.773C117.896 107.984 117.759 108.356 117.753 108.716C117.73 109.945 118.742 110.568 119.668 110.842C120.554 111.105 121.525 111.002 122.389 110.602C123.074 110.282 123.909 109.202 123.749 108.293C123.589 107.367 122.48 107.23 121.777 107.247C120.788 107.276 119.805 107.367 118.822 107.533C118.599 107.573 118.364 107.613 118.176 107.756C118.17 107.756 118.164 107.761 118.153 107.773Z" fill="#F2AF7C"/>
<path d="M120.525 102.709C120.697 103.303 120.828 104.006 120.731 104.486C120.617 105.029 120.245 105.315 119.845 105.441C119.553 105.532 119.079 105.538 118.782 105.344C118.313 105.035 118.039 104.338 117.81 103.56C117.604 102.857 117.501 102.063 117.667 101.548C117.804 101.125 118.153 100.937 118.49 100.828C118.862 100.714 119.319 100.702 119.685 101.034C120.056 101.371 120.337 102.063 120.525 102.709Z" fill="#141833"/>
<path d="M100.651 107.19C100.822 107.784 100.954 108.487 100.856 108.967C100.742 109.51 100.371 109.796 99.9705 109.922C99.679 110.013 99.2103 110.019 98.9073 109.825C98.4386 109.516 98.1642 108.819 97.9356 108.041C97.7298 107.338 97.6269 106.544 97.7927 106.029C97.9299 105.606 98.2786 105.418 98.6158 105.309C98.9873 105.195 99.4446 105.183 99.8105 105.515C100.182 105.858 100.462 106.55 100.651 107.19Z" fill="#141833"/>
<path d="M104.823 114.792C104.452 115.581 104.64 118.29 106.195 120.074C109.013 123.32 114.786 124.012 118.233 120.948C121.571 117.976 121.16 111.848 119.588 111.728C119.068 111.688 115.918 112.637 113.409 113.117C109.236 113.917 105.195 114.003 104.823 114.792Z" fill="#702218"/>
<mask id="mask0_28_3633" style="mask-type:luminance" maskUnits="userSpaceOnUse" x="104" y="111" width="17" height="12">
<path d="M104.823 114.792C104.452 115.581 104.64 118.29 106.195 120.074C109.013 123.32 114.786 124.012 118.233 120.948C121.571 117.976 121.16 111.848 119.588 111.728C119.068 111.688 115.918 112.637 113.409 113.117C109.236 113.917 105.195 114.003 104.823 114.792Z" fill="white"/>
</mask>
<g mask="url(#mask0_28_3633)">
<path d="M102.12 119.176C103.326 118.244 104.778 117.696 106.258 117.41C107.739 117.124 109.253 117.095 110.757 117.124C113.386 117.175 116.078 117.421 118.462 118.57C119.188 118.919 119.896 119.37 120.394 120.022C120.885 120.679 121.131 121.577 120.868 122.366C120.56 123.28 119.668 123.835 118.799 124.195C117.713 124.646 116.564 124.921 115.415 125.183C113.203 125.692 110.877 126.155 108.693 125.521C107.801 125.264 106.961 124.823 106.161 124.338C104.589 123.383 103.137 122.223 101.851 120.891" fill="#C64E39"/>
<path d="M108.116 112.82C108.053 113.203 107.99 113.597 108.013 113.986C108.036 114.374 108.15 114.775 108.407 115.06C108.836 115.546 109.539 115.621 110.179 115.661C112.591 115.815 114.901 115.701 117.124 114.603C119.268 113.546 118.587 111.454 117.593 109.722" fill="white"/>
</g>
<path d="M105.595 132.734C102.108 133.106 98.4557 132.934 95.0376 132.111" stroke="#C16B4D" stroke-width="0.857396" stroke-miterlimit="10" stroke-linejoin="round"/>
<path d="M127.704 81.4163C125.664 72.5394 115.238 68.5267 107.333 68.8183C104.429 68.9269 101.519 69.3956 98.8158 70.4816C96.9924 71.2132 95.2719 72.2364 93.78 73.5339C90.6477 72.5336 87.3667 72.0192 84.0972 72.2364C73.2883 72.9509 65.0001 82.3079 62.5994 92.8082C62.4336 93.5227 62.3079 94.2486 62.1993 94.9745C57.838 97.5353 57.6608 101.777 56.4433 102.777C52.1277 106.326 48.7153 103.56 44.5312 104.977C42.6164 105.629 40.7758 107.395 40.1699 109.407C39.2211 112.563 40.7072 114.752 41.8619 117.518C42.4049 118.816 41.6789 119.61 40.9873 120.605C40.4157 121.422 40.0956 122.383 40.0728 123.383C40.027 125.286 41.1131 127.11 42.9993 127.641C43.6795 127.83 44.394 127.847 45.0914 127.944C47.8408 128.322 49.8128 130.436 52.3678 131.311C55.0715 132.237 57.7122 132.729 60.5817 132.334C63.0795 131.991 65.5546 131.322 68.0696 131.448C69.3843 131.511 70.6875 131.791 72.0022 131.785C74.1514 131.774 76.3749 130.899 77.6839 129.133C79.4501 126.744 78.667 123.909 77.1694 121.651C75.346 118.902 73.7513 115.684 75.0374 112.242C75.4089 111.242 76.0491 110.373 76.6035 109.465C77.358 108.23 77.9639 106.841 78.0154 105.383C80.2275 105.315 82.4281 104.783 84.4401 103.829C85.0403 103.543 85.6691 103.171 85.932 102.542C86.0749 102.2 86.092 101.817 86.0978 101.445C86.1492 97.4438 84.886 93.4312 82.571 90.2246C85.469 92.4709 87.8754 95.7176 89.0301 99.2672C89.0929 99.4559 89.1558 99.6559 89.293 99.7988C89.4359 99.9474 89.6359 100.01 89.8303 100.05C91.5165 100.405 93.2427 99.0843 93.7915 97.3924C94.3345 95.7062 93.8829 93.8085 92.9855 92.288C92.0881 90.7676 90.7963 89.5558 89.5159 88.3612C91.9281 89.1785 94.3745 90.4418 96.3579 92.088C98.9015 94.1972 101.411 97.6553 105.161 96.5636C106.555 96.1577 107.744 95.0603 108.299 93.677C109.596 94.1972 110.871 94.8316 112.26 94.9059C113.649 94.986 115.101 94.6602 116.192 93.7628C116.358 93.6256 116.524 93.4712 116.724 93.4027C117.095 93.2712 117.496 93.4369 117.861 93.5856C119.439 94.2086 121.182 94.4544 122.829 94.0657C125.401 93.4541 126.647 91.2191 126.687 88.6127C126.693 88.0925 126.653 87.5895 126.595 87.0922C127.779 85.5832 128.144 83.3254 127.704 81.4163Z" fill="#A55D47"/>
<path d="M71.2077 97.3813C71.705 99.6906 70.4075 101.994 68.9728 103.835C67.5323 105.675 65.8404 107.459 65.3088 109.762C64.9259 111.431 64.8401 113.592 66.1148 114.895C67.1722 115.975 68.8242 116.073 70.1731 116.718" stroke="#82412A" stroke-width="0.857396" stroke-miterlimit="10" stroke-linejoin="round"/>
<path d="M80.3361 111.957C79.0614 110.539 77.3524 109.476 75.4318 109.185C73.517 108.899 71.3963 109.448 69.9159 110.825C67.9039 112.706 67.4009 115.73 67.7838 118.359C68.1554 120.92 69.27 123.349 71.0534 125.144C72.8368 126.939 75.2946 128.065 77.8782 128.133C79.6902 128.179 81.5993 127.67 83.0169 126.447C84.4345 125.224 85.2633 123.206 84.7774 121.474" fill="#FFC799"/>
<path d="M81.6393 127.35C82.1309 127.11 82.5996 126.807 83.0226 126.441C84.4402 125.218 85.269 123.2 84.7831 121.468" stroke="#C16B4D" stroke-width="0.857396" stroke-miterlimit="10" stroke-linejoin="round"/>
<path d="M80.336 111.957C79.0614 110.539 77.3523 109.476 75.4317 109.185C73.5169 108.899 71.3963 109.447 69.9158 110.825" stroke="#C16B4D" stroke-width="0.857396" stroke-miterlimit="10" stroke-linejoin="round"/>
<path d="M72.2937 117.033C72.9225 115.798 74.22 115.106 75.4889 115.072C78.1411 114.992 80.1703 117.17 82.0623 118.959" stroke="#C16B4D" stroke-width="0.857396" stroke-miterlimit="10" stroke-linejoin="round"/>
<path d="M75.3003 122.508C74.7802 119.925 75.7233 117.461 77.461 115.421" stroke="#C16B4D" stroke-width="0.857396" stroke-miterlimit="10" stroke-linejoin="round"/>
<path d="M80.6562 88.9443C81.7136 89.4016 82.7139 89.9961 83.6285 90.7106" stroke="#82412A" stroke-width="0.857396" stroke-miterlimit="10" stroke-linejoin="round"/>
<path d="M76.8951 94.1575C78.204 98.1244 78.5641 102.417 77.9354 106.555" stroke="#82412A" stroke-width="0.857396" stroke-miterlimit="10" stroke-linejoin="round"/>
<path d="M83.9143 86.8752C85.0918 87.0867 86.3379 87.3725 87.4696 87.7384C88.5843 88.0927 89.7217 88.5557 90.602 89.3617" stroke="#82412A" stroke-width="0.857396" stroke-miterlimit="10" stroke-linejoin="round"/>
<path d="M96.6724 83.7429C98.7358 84.1716 100.765 84.8232 102.623 85.8521C104.48 86.8753 106.155 88.2928 107.361 90.0819C107.819 90.7621 108.213 91.5109 108.362 92.3283C108.516 93.1457 108.407 94.0374 107.939 94.7119" stroke="#82412A" stroke-width="0.857396" stroke-miterlimit="10" stroke-linejoin="round"/>
<path d="M99.3875 76.9581C102.6 75.8378 106.087 75.3234 109.39 76.1007C112.694 76.8781 115.787 79.073 117.181 82.2683C118.805 85.9779 119.039 90.3621 116.37 93.7288" stroke="#82412A" stroke-width="0.857396" stroke-miterlimit="10" stroke-linejoin="round"/>
<path d="M107.441 73.8657C112.551 72.9511 115.964 74.0314 118.496 75.329C123 77.6325 126.264 81.3765 126.687 87.1439" stroke="#82412A" stroke-width="0.857396" stroke-miterlimit="10" stroke-linejoin="round"/>
<path d="M62.245 94.3003C62.1136 96.5009 62.3422 98.7416 63.0796 100.811C63.8112 102.88 65.0687 104.778 66.7778 106.092" stroke="#82412A" stroke-width="0.857396" stroke-miterlimit="10" stroke-linejoin="round"/>
<path d="M65.5775 94.4487C66.4063 97.1067 68.3154 99.3816 70.7447 100.605" stroke="#82412A" stroke-width="0.857396" stroke-miterlimit="10" stroke-linejoin="round"/>
<path d="M90.1561 75.9293C91.5737 74.9347 92.997 73.9401 94.4145 72.9456" stroke="#82412A" stroke-width="0.857396" stroke-miterlimit="10" stroke-linejoin="round"/>
<path d="M62.5995 99.1245C62.8395 100.445 62.2622 102.428 61.2505 103.274C59.7358 104.538 57.8666 105.223 56.0832 106.018C53.4196 107.201 50.6416 108.899 50.7045 112.271C50.7274 113.443 51.3047 114.483 51.7162 115.541C52.0363 116.358 52.2593 117.278 52.0078 118.124C51.4933 119.896 49.487 120.422 48.0752 121.148C46.8119 121.805 45.623 122.874 45.12 124.269C44.7085 125.407 44.7999 126.773 45.503 127.744" stroke="#82412A" stroke-width="0.857396" stroke-miterlimit="10" stroke-linejoin="round"/>
<path d="M59.9986 107.55C60.4616 109.099 59.307 110.574 58.2324 111.494C57.1921 112.386 55.9117 113.1 55.1286 114.272C54.1684 115.701 54.1798 117.364 54.8657 118.902C55.2372 119.736 55.6602 120.605 55.5802 121.52C55.5002 122.4 54.9629 123.16 54.3856 123.806C53.6596 124.623 52.7965 125.418 52.465 126.51C51.8763 128.453 53.008 131.74 55.3344 131.694" stroke="#82412A" stroke-width="0.857396" stroke-miterlimit="10" stroke-linejoin="round"/>
<path d="M65.063 111.957C64.9087 113.98 62.9424 115.192 63.1196 117.353C63.2797 119.302 64.1828 121.457 63.6112 123.412C63.3768 124.212 62.7195 124.789 62.2679 125.481C61.5934 126.498 61.3591 127.819 61.6392 129.019C61.9192 130.22 62.7081 131.283 63.7598 131.871" stroke="#82412A" stroke-width="0.857396" stroke-miterlimit="10" stroke-linejoin="round"/>
<path d="M66.4005 117.067C66.0176 117.913 65.7146 118.839 65.8118 119.765C65.8918 120.514 66.2233 121.211 66.4806 121.914C66.9264 123.155 66.8178 124.086 66.0862 125.167C64.6114 127.356 65.2059 130.237 67.6809 131.346" stroke="#82412A" stroke-width="0.857396" stroke-miterlimit="10" stroke-linejoin="round"/>
<path d="M135.735 111.946C134.478 111.174 133.575 109.756 133.357 108.213C133.289 107.71 133.283 107.19 133.112 106.71C132.849 105.961 132.214 105.435 131.551 105.098C130.219 104.418 128.699 104.332 127.293 103.863C125.887 103.389 124.463 102.297 124.309 100.708" stroke="#82412A" stroke-width="0.857396" stroke-miterlimit="10" stroke-linejoin="round"/>
<path d="M127.401 107.83C128.173 108.585 129.156 109.013 130.054 109.579C130.951 110.139 131.826 110.928 132.089 112.014C132.391 113.277 131.808 114.689 132.283 115.89C132.609 116.713 133.352 117.233 133.992 117.799C134.918 118.622 135.712 119.691 136.01 120.948C136.307 122.206 136.033 123.669 135.129 124.526" stroke="#82412A" stroke-width="0.857396" stroke-miterlimit="10" stroke-linejoin="round"/>
<path d="M141.04 56.9004L177.045 121.102L132.734 170.037L78.0897 136.392L141.04 56.9004Z" fill="url(#paint15_linear_28_3633)"/>
<path d="M160.806 164.544L133.952 170.265C132.774 170.517 131.757 169.448 132.123 168.345L145.149 128.91C145.63 127.453 146.887 126.35 148.448 126.018L175.301 120.296C176.479 120.045 177.496 121.114 177.13 122.217L164.104 161.651C163.624 163.109 162.366 164.212 160.806 164.544Z" fill="#2E3247"/>
<path d="M152.94 137.804L147.459 138.97C147.219 139.022 147.013 138.805 147.087 138.576L149.745 130.528C149.842 130.231 150.1 130.008 150.42 129.939L155.901 128.773C156.141 128.722 156.347 128.939 156.273 129.167L153.615 137.216C153.518 137.507 153.26 137.736 152.94 137.804Z" stroke="#555A6D" stroke-width="0.571597" stroke-miterlimit="10" stroke-linejoin="round"/>
<path d="M133.86 169.831L146.887 130.397C147.367 128.939 148.625 127.836 150.185 127.504L177.039 121.783C177.096 121.771 177.147 121.765 177.205 121.76C177.21 120.839 176.313 120.079 175.301 120.296L148.448 126.018C146.887 126.35 145.635 127.453 145.149 128.91L132.123 168.345C131.774 169.397 132.683 170.414 133.792 170.288C133.786 170.14 133.809 169.985 133.86 169.831Z" fill="#555A6D"/>
<path d="M152.609 135.284C152.843 135.855 152.397 136.564 151.614 136.855C150.831 137.153 150.002 136.924 149.768 136.347C149.534 135.775 149.979 135.066 150.763 134.775C151.551 134.478 152.374 134.706 152.609 135.284Z" fill="#555A6D"/>
<path d="M153.764 131.888C153.998 132.46 153.552 133.169 152.769 133.46C151.986 133.757 151.157 133.529 150.923 132.951C150.688 132.38 151.134 131.671 151.917 131.379C152.7 131.088 153.529 131.317 153.764 131.888Z" fill="#555A6D"/>
<path d="M104.486 175.478C112.7 173.186 120.759 170.334 128.59 166.95C128.224 160.68 126.361 151.14 126.361 151.14C126.361 151.14 117.273 151.545 109.099 151.848" fill="#FFC799"/>
<path d="M107.018 176.953C107.961 177.433 108.933 177.85 109.933 178.199C110.471 178.388 111.088 178.548 111.585 178.279C112.037 178.033 112.26 177.49 112.265 176.981C112.271 176.467 112.088 175.975 111.911 175.49C113.083 175.844 114.352 174.861 114.615 173.666C114.878 172.472 114.34 171.225 113.546 170.299C114.632 170.174 115.615 169.373 115.952 168.333C116.289 167.293 115.964 166.064 115.152 165.332C115.826 165.058 116.455 164.618 116.85 164C117.244 163.383 117.37 162.583 117.095 161.908C116.833 161.274 116.267 160.834 115.867 160.274C115.746 160.108 115.638 159.914 115.672 159.713C115.729 159.353 116.158 159.228 116.49 159.073C117.21 158.742 117.696 157.964 117.678 157.17C117.661 156.375 117.135 155.621 116.404 155.324C116.964 155.552 118.422 153.935 118.65 153.529C119.525 151.974 118.124 150.208 116.398 150.534C116.027 150.602 115.689 150.791 115.346 150.957C113.786 151.688 112.031 151.86 110.311 152.02" fill="white"/>
<path d="M122.417 152.071C127.459 147.882 131.746 145.155 136.907 145.807C137.673 145.904 139.902 146.367 142.263 147.653C144.835 149.053 145.87 151.048 145.401 151.809C145.058 152.369 144.635 152.592 144.012 152.609C145.195 153.335 145.384 154.421 144.818 155.324C144.252 156.227 143.109 156.49 142.126 156.307C143.035 156.61 142.949 158.205 142.177 158.799C141.4 159.394 140.359 159.285 139.422 159.154C140.137 159.199 140.451 160.302 140.074 160.96C139.696 161.623 138.925 161.88 138.216 161.943C137.502 162.006 136.77 161.926 136.084 162.143C134.415 162.669 133.58 164.664 132.243 165.876C130.94 167.053 128.716 167.533 127.07 167.179" fill="#FFC799"/>
<path d="M124.578 168.048C125.727 167.333 127.099 167.053 128.407 167.276" stroke="#C16B4D" stroke-width="0.857396" stroke-miterlimit="10" stroke-linejoin="round"/>
<path d="M139.942 159.359C137.867 158.451 135.501 158.376 133.38 159.154" stroke="#C16B4D" stroke-width="0.857396" stroke-miterlimit="10" stroke-linejoin="round"/>
<path d="M143.12 156.587C142.046 156.061 140.943 155.587 139.828 155.164C139.136 154.901 138.428 154.655 137.702 154.541C136.53 154.358 135.341 154.518 134.163 154.678" stroke="#C16B4D" stroke-width="0.857396" stroke-miterlimit="10" stroke-linejoin="round"/>
<path d="M144.612 152.609C143.012 151.7 142.149 151.031 140.428 150.448C138.702 149.865 137.336 149.494 135.009 149.602" stroke="#C16B4D" stroke-width="0.857396" stroke-miterlimit="10" stroke-linejoin="round"/>
<path d="M88.7499 136.49C95.0947 140.577 101.022 145.315 106.401 150.614C109.15 150.825 111.722 151.003 114.472 151.208C114.106 158.994 111.625 169.477 107.27 177.656C102.194 178.068 94.906 178.222 90.2589 176.124C88.3098 175.244 86.5893 173.935 85.0574 172.466C83.6799 171.146 77.4609 163.658 75.2374 156.73" fill="#FFE98D"/>
<path d="M107.921 159.188C109.825 158.713 110.654 156.427 110.654 154.466C110.654 153.157 110.471 151.968 110.133 150.894C108.905 150.802 107.67 150.717 106.401 150.619C103.303 147.567 100.016 144.709 96.5809 142.045C94.6775 141.811 92.7798 141.771 91.0192 141.874C89.2416 141.983 87.4239 142.28 85.8977 143.2C85.2918 143.566 84.7088 144.069 84.5087 144.749C84.1029 146.144 85.4519 147.441 86.7951 148.001C89.5217 149.139 92.614 148.853 95.552 148.539C93.3056 151.5 92.7455 155.661 94.1287 159.108C95.1748 161.725 97.7412 162.269 100.125 160.925C101.8 159.982 103.114 158.416 103.754 156.598C104.435 158.244 106.189 159.616 107.921 159.188Z" fill="#FFFACA"/>
<path d="M107.27 177.656C102.194 178.067 94.906 178.222 90.2589 176.124C88.3098 175.244 86.5893 173.935 85.0574 172.466C83.6799 171.145 77.4609 163.657 75.2374 156.73" stroke="#DBBB61" stroke-width="0.857396" stroke-miterlimit="10" stroke-linejoin="round"/>
<path d="M88.7499 136.49C95.0947 140.577 101.022 145.315 106.401 150.614C109.15 150.825 111.722 151.003 114.472 151.208" stroke="#DBBB61" stroke-width="0.857396" stroke-miterlimit="10" stroke-linejoin="round"/>
<path d="M99.7875 156.084C101.148 154.152 102.583 152.609 104.429 151.283" stroke="#DBBB61" stroke-width="0.857396" stroke-miterlimit="10" stroke-linejoin="round"/>
<path d="M105.098 153.209C104.417 154.855 103.966 156.593 103.766 158.359" stroke="#DBBB61" stroke-width="0.857396" stroke-miterlimit="10" stroke-linejoin="round"/>
<path d="M111.271 61.7305C118.227 62.5136 124.795 66.2918 128.962 71.9163" stroke="#526F99" stroke-width="0.857396" stroke-miterlimit="10"/>
<path d="M123.006 61.8333C127.756 63.6166 131.791 67.2406 134.072 71.779" stroke="#526F99" stroke-width="0.857396" stroke-miterlimit="10"/>
</g>
<path d="M138.795 129.773L134.953 137.411C134.719 137.878 135.057 138.427 135.579 138.427H138.94C139.449 138.427 139.788 138.952 139.579 139.416L137.783 143.412C137.469 144.11 138.342 144.734 138.901 144.211L146.958 136.68C147.421 136.247 147.118 135.472 146.485 135.467L143.445 135.442C142.857 135.437 142.536 134.755 142.906 134.298L145.968 130.53C146.34 130.071 146.014 129.386 145.424 129.386H139.421C139.157 129.387 138.915 129.537 138.795 129.773Z" fill="#FFCC2C"/>
<path d="M146.958 136.68L138.901 144.213C138.56 144.531 138.098 144.42 137.872 144.126L143.122 137.415C143.391 137.069 143.146 136.569 142.709 136.569H139.935C139.517 136.569 139.266 136.094 139.502 135.747L143.863 129.386H145.425C146.017 129.386 146.343 130.074 145.968 130.53L142.906 134.3C142.536 134.756 142.858 135.439 143.445 135.444L146.488 135.468C147.117 135.473 147.42 136.247 146.958 136.68Z" fill="#FFB815"/>
<path d="M161.728 49.8367H153.626C152.502 49.8367 151.591 48.9258 151.591 47.8017C151.591 46.6775 152.502 45.7666 153.626 45.7666H161.728C162.851 45.7666 163.763 46.6775 163.763 47.8017C163.763 48.9252 162.852 49.8367 161.728 49.8367Z" fill="#5C82C6"/>
<path d="M170.102 57.2059H162.001C160.877 57.2059 159.966 56.295 159.966 55.1708C159.966 54.0466 160.877 53.1357 162.001 53.1357H170.102C171.226 53.1357 172.137 54.0466 172.137 55.1708C172.137 56.295 171.226 57.2059 170.102 57.2059Z" fill="#5C82C6"/>
<path d="M170.102 49.8367H167.696C166.571 49.8367 165.661 48.9258 165.661 47.8017C165.661 46.6775 166.571 45.7666 167.696 45.7666H170.102C171.226 45.7666 172.137 46.6775 172.137 47.8017C172.137 48.9252 171.226 49.8367 170.102 49.8367Z" fill="#5C82C6"/>
<path d="M47.7637 60.6751H39.6626C38.5384 60.6751 37.6275 59.7642 37.6275 58.64C37.6275 57.5158 38.5384 56.605 39.6626 56.605H47.7637C48.8879 56.605 49.7988 57.5158 49.7988 58.64C49.7988 59.7642 48.8879 60.6751 47.7637 60.6751Z" fill="#5C82C6"/>
<path d="M56.1385 53.7347H48.0374C46.9132 53.7347 46.0023 52.8238 46.0023 51.6996C46.0023 50.5761 46.9132 49.6646 48.0374 49.6646H56.1385C57.2627 49.6646 58.1736 50.5754 58.1736 51.6996C58.1736 52.8231 57.262 53.7347 56.1385 53.7347Z" fill="#5C82C6"/>
<path d="M56.1385 60.6751H53.7318C52.6076 60.6751 51.6967 59.7642 51.6967 58.64C51.6967 57.5158 52.6076 56.605 53.7318 56.605H56.1385C57.2626 56.605 58.1735 57.5158 58.1735 58.64C58.1735 59.7642 57.262 60.6751 56.1385 60.6751Z" fill="#5C82C6"/>
<path d="M180.063 44.4067L176.026 52.4297C175.78 52.9193 176.136 53.4969 176.684 53.4969H180.214C180.748 53.4969 181.105 54.0481 180.886 54.535L179 58.7323C178.67 59.4656 179.586 60.1215 180.174 59.5723L188.637 51.6613C189.123 51.2068 188.805 50.392 188.14 50.3867L184.946 50.3602C184.328 50.3549 183.991 49.6388 184.38 49.1592L187.596 45.201C187.987 44.7194 187.645 44 187.025 44H180.72C180.442 44.0013 180.188 44.1577 180.063 44.4067Z" fill="#5C82C6"/>
<path d="M25.0377 149.222H23.035C21.9109 149.222 21 148.312 21 147.187C21 146.063 21.9109 145.152 23.035 145.152H25.0377C26.1618 145.152 27.0727 146.063 27.0727 147.187C27.0727 148.311 26.1618 149.222 25.0377 149.222Z" fill="#5C82C6"/>
<path d="M41.2082 149.222H30.8176C29.6934 149.222 28.7825 148.312 28.7825 147.187C28.7825 146.063 29.6934 145.152 30.8176 145.152H41.2082C42.3323 145.152 43.2432 146.063 43.2432 147.187C43.2432 148.311 42.3317 149.222 41.2082 149.222Z" fill="#5C82C6"/>
<path d="M35.2951 156.592H30.5996C29.4755 156.592 28.5646 155.681 28.5646 154.557C28.5646 153.432 29.4755 152.521 30.5996 152.521H35.2951C36.4193 152.521 37.3302 153.432 37.3302 154.557C37.3295 155.681 36.4186 156.592 35.2951 156.592Z" fill="#5C82C6"/>
<path d="M41.2082 156.592C40.084 156.592 39.1732 155.681 39.1732 154.557C39.1732 153.432 40.084 152.521 41.2082 152.521C42.3324 152.521 43.2433 153.432 43.2433 154.557C43.2433 155.681 42.3317 156.592 41.2082 156.592Z" fill="#5C82C6"/>
<defs>
<linearGradient id="paint0_linear_28_3633" x1="145.102" y1="84.9442" x2="203.609" y2="84.9442" gradientUnits="userSpaceOnUse">
<stop stop-color="#B250FE" stop-opacity="0.5"/>
<stop offset="1" stop-color="#B250FE" stop-opacity="0.2"/>
</linearGradient>
<linearGradient id="paint1_linear_28_3633" x1="-nan" y1="-nan" x2="-nan" y2="-nan" gradientUnits="userSpaceOnUse">
<stop stop-color="white"/>
<stop offset="1" stop-color="white" stop-opacity="0.5"/>
</linearGradient>
<linearGradient id="paint2_linear_28_3633" x1="-nan" y1="-nan" x2="-nan" y2="-nan" gradientUnits="userSpaceOnUse">
<stop stop-color="white"/>
<stop offset="1" stop-color="white" stop-opacity="0.5"/>
</linearGradient>
<linearGradient id="paint3_linear_28_3633" x1="-nan" y1="-nan" x2="-nan" y2="-nan" gradientUnits="userSpaceOnUse">
<stop stop-color="white"/>
<stop offset="1" stop-color="white" stop-opacity="0.5"/>
</linearGradient>
<linearGradient id="paint4_linear_28_3633" x1="-nan" y1="-nan" x2="-nan" y2="-nan" gradientUnits="userSpaceOnUse">
<stop stop-color="white"/>
<stop offset="1" stop-color="white" stop-opacity="0.5"/>
</linearGradient>
<linearGradient id="paint5_linear_28_3633" x1="155.141" y1="105.201" x2="175.676" y2="105.201" gradientUnits="userSpaceOnUse">
<stop stop-color="white" stop-opacity="0.5"/>
<stop offset="1" stop-color="white" stop-opacity="0.2"/>
</linearGradient>
<linearGradient id="paint6_linear_28_3633" x1="74" y1="48.1809" x2="166.875" y2="48.1809" gradientUnits="userSpaceOnUse">
<stop stop-color="#B250FE" stop-opacity="0.5"/>
<stop offset="1" stop-color="#B250FE" stop-opacity="0.2"/>
</linearGradient>
<linearGradient id="paint7_linear_28_3633" x1="-nan" y1="-nan" x2="-nan" y2="-nan" gradientUnits="userSpaceOnUse">
<stop stop-color="white"/>
<stop offset="1" stop-color="white" stop-opacity="0.5"/>
</linearGradient>
<linearGradient id="paint8_linear_28_3633" x1="-nan" y1="-nan" x2="-nan" y2="-nan" gradientUnits="userSpaceOnUse">
<stop stop-color="white"/>
<stop offset="1" stop-color="white" stop-opacity="0.5"/>
</linearGradient>
<linearGradient id="paint9_linear_28_3633" x1="-nan" y1="-nan" x2="-nan" y2="-nan" gradientUnits="userSpaceOnUse">
<stop stop-color="white"/>
<stop offset="1" stop-color="white" stop-opacity="0.5"/>
</linearGradient>
<linearGradient id="paint10_linear_28_3633" x1="-nan" y1="-nan" x2="-nan" y2="-nan" gradientUnits="userSpaceOnUse">
<stop stop-color="white"/>
<stop offset="1" stop-color="white" stop-opacity="0.5"/>
</linearGradient>
<linearGradient id="paint11_linear_28_3633" x1="136.697" y1="25.3916" x2="153.157" y2="25.3916" gradientUnits="userSpaceOnUse">
<stop stop-color="white"/>
<stop offset="1" stop-color="white" stop-opacity="0.5"/>
</linearGradient>
<linearGradient id="paint12_linear_28_3633" x1="83.9683" y1="54.6476" x2="159.255" y2="54.6476" gradientUnits="userSpaceOnUse">
<stop stop-color="white"/>
<stop offset="1" stop-color="white" stop-opacity="0.5"/>
</linearGradient>
<linearGradient id="paint13_linear_28_3633" x1="83.9683" y1="64.8284" x2="159.255" y2="64.8284" gradientUnits="userSpaceOnUse">
<stop stop-color="white"/>
<stop offset="1" stop-color="white" stop-opacity="0.5"/>
</linearGradient>
<linearGradient id="paint14_linear_28_3633" x1="83.9683" y1="75.0097" x2="159.255" y2="75.0097" gradientUnits="userSpaceOnUse">
<stop stop-color="white"/>
<stop offset="1" stop-color="white" stop-opacity="0.5"/>
</linearGradient>
<linearGradient id="paint15_linear_28_3633" x1="159.69" y1="140.273" x2="111.947" y2="98.7192" gradientUnits="userSpaceOnUse">
<stop offset="0.1835" stop-color="white" stop-opacity="0.5"/>
<stop offset="0.8949" stop-color="white" stop-opacity="0"/>
</linearGradient>
<clipPath id="clip0_28_3633">
<rect width="151.205" height="169.45" fill="white" transform="translate(26 56.9004)"/>
</clipPath>
</defs>
</svg>
