<svg width="224" height="227" viewBox="0 0 224 227" fill="none" xmlns="http://www.w3.org/2000/svg">
<g clip-path="url(#clip0_28_3355)">
<path d="M132.726 226.353C98.7559 226.353 71.2176 221.159 71.2176 214.752C71.2176 208.345 98.7559 203.151 132.726 203.151C166.696 203.151 194.235 208.345 194.235 214.752C194.235 221.159 166.696 226.353 132.726 226.353Z" fill="#B3CEF4"/>
<path d="M113.735 187.389C115.777 188.617 117.675 190.334 119.194 191.822C121.975 194.55 124.54 197.941 125.801 201.652C126.492 203.694 127.038 206.157 126.684 208.313C126.522 209.319 126.017 210.271 125.068 210.717C124.101 211.168 122.942 211.126 121.921 210.909C115.909 209.632 110.834 204.838 107.591 199.796C106.558 198.194 105.729 196.454 105.188 194.622C104.678 192.9 104.011 190.49 104.774 188.762C105.729 186.599 107.831 185.383 110.173 185.889C111.38 186.148 112.582 186.69 113.735 187.389Z" fill="#822E7A"/>
<path d="M130.408 170.319C135.381 168.801 140.925 167.102 146.234 167.969C153.015 169.078 155.405 174.86 157.574 180.697C159.682 186.389 160.342 192.322 162.336 198.044C155.706 200.369 149.531 202.224 142.696 203.874C140.606 201.338 138.528 198.688 136.81 195.869C136.726 195.737 136.654 195.598 136.57 195.46C133.952 196.695 131.057 197.984 129.033 199.092L117.579 188.172L116.071 174.728C120.852 173.252 125.633 171.776 130.408 170.319Z" fill="#F49A82"/>
<path d="M136.81 195.863C134.636 192.297 133.045 188.448 132.726 184.19" stroke="black" stroke-width="0.579106" stroke-miterlimit="10" stroke-linejoin="round"/>
<path d="M139.405 200.326C146.823 200.037 154.348 197.821 161.85 194.948C163.267 200.079 166.781 204.79 171.532 207.169C173.099 207.952 174.943 208.699 175.532 210.355C176.024 211.728 175.394 213.319 174.307 214.288C173.219 215.252 171.76 215.692 170.324 215.909C164.138 216.83 158.054 214.132 151.862 213.246C149.663 212.933 147.447 212.843 145.231 212.686C144.618 212.644 143.976 212.584 143.447 212.264C142.949 211.963 142.612 211.463 142.306 210.963C140.312 207.747 139.867 204.085 139.405 200.326Z" fill="#FFE9FC"/>
<path d="M142.931 207.596C144.054 207.958 145.249 207.994 146.426 208.018C150.324 208.114 152.967 207.825 158.078 208.434C160.042 205.826 162.493 203.236 165.568 202.212C166.012 202.694 166.198 203.169 167.015 203.699C164.895 204.868 162.631 207.343 161.387 209.53C162.463 209.855 163.568 210.102 164.685 210.259C165.147 210.325 165.622 210.373 166.066 210.235C166.649 210.048 167.087 209.56 167.496 209.096C168.517 207.94 169.273 207.271 170.523 206.398C170.787 206.518 175.322 208.47 176.018 210.494C176.547 212.018 176.445 213.608 175.46 214.879C174.469 216.15 172.997 216.963 171.46 217.396C168.913 218.113 166.192 217.842 163.622 217.234C160.432 216.481 157.255 215.674 154.042 215.029C150.853 214.385 147.597 214.186 144.414 213.523C143.561 213.349 142.702 213.108 141.994 212.596C140 211.15 140.072 207.572 140.168 205.332C140.63 206.434 141.808 207.235 142.931 207.596Z" fill="#E491F2"/>
<path d="M175.658 213.819C173.76 215.258 171.634 216.204 169.309 216.373C166.769 216.559 163.892 216.011 161.411 215.415C159.585 214.975 157.892 214.192 156.09 213.68C154.222 213.144 152.3 212.807 150.36 212.638C148.246 212.451 146.114 212.463 144.03 212.042C142.69 211.771 141.381 211.331 140.12 210.801" stroke="#CE62D1" stroke-width="0.579106" stroke-miterlimit="10" stroke-linejoin="round"/>
<path d="M116.972 180.624C121.315 178.715 125.681 176.547 130.552 176.679C133.783 176.769 137.225 176.806 139.633 179.215C142.042 181.624 143.627 184.72 145.165 187.726C147.928 193.129 149.279 198.941 151.928 204.392C145.615 207.482 139.699 210.06 133.111 212.5C130.738 210.223 128.366 207.844 126.33 205.242C126.234 205.115 126.144 204.989 126.048 204.862C123.591 206.398 120.864 208.024 118.99 209.355L106.336 199.863L103.26 186.69C107.825 184.666 112.396 182.642 116.972 180.624Z" fill="#FFB399"/>
<path d="M126.324 205.241C123.747 201.953 121.711 198.321 120.9 194.135" stroke="#C45F4E" stroke-width="0.579106" stroke-miterlimit="10" stroke-linejoin="round"/>
<path d="M129.423 209.367C136.756 208.205 143.97 205.121 151.081 201.374C153.093 206.301 157.135 210.566 162.126 212.373C163.772 212.969 165.694 213.493 166.475 215.065C167.123 216.372 166.685 218.023 165.718 219.113C164.751 220.203 163.351 220.805 161.952 221.191C155.922 222.841 149.555 220.878 143.303 220.727C141.087 220.673 138.871 220.848 136.654 220.956C136.036 220.986 135.393 221.004 134.834 220.745C134.306 220.504 133.909 220.046 133.549 219.589C132.042 217.685 131.849 215.631 131.159 213.361C130.774 212.09 130.324 211.15 129.423 209.367Z" fill="white"/>
<path d="M137.489 216.728C141.357 216.234 143.928 215.553 149.069 215.385C150.625 212.511 152.655 209.584 155.544 208.108C156.054 208.518 156.306 208.958 157.195 209.361C155.273 210.837 153.405 213.62 152.504 215.975C153.622 216.137 154.745 216.21 155.874 216.198C156.336 216.192 156.817 216.174 157.237 215.963C157.79 215.692 158.144 215.144 158.48 214.626C159.315 213.331 160.216 212.03 161.321 210.975C161.604 211.054 166.12 212.825 167.117 214.722C167.868 216.149 168.006 217.734 167.219 219.137C166.433 220.54 165.099 221.57 163.64 222.227C161.225 223.317 158.499 223.462 155.862 223.251C152.595 222.992 149.333 222.667 146.06 222.51C142.811 222.353 139.561 222.643 136.318 222.474C135.447 222.426 134.528 222.378 133.783 221.92C131.513 220.51 131.897 217.559 131.861 216.005C132.943 217.372 136.318 216.872 137.489 216.728Z" fill="#F5AEFF"/>
<path d="M88.9719 186.804C85.218 193.225 85.206 203.043 89.7046 209.138C97.3023 219.438 115.225 214.752 124.906 210.801C119.813 210.536 116.125 206.458 112.702 202.158C109.278 197.857 106.492 189.858 106.191 184.365C99.8009 185.467 93.8488 187.34 88.6956 191.292" fill="#C45FB5"/>
<path d="M115.777 213.939C113.825 213.373 112.203 212.036 110.702 210.662C109.056 209.163 107.483 207.578 106.113 205.826C101.927 200.459 98.96 192.538 99.4705 185.738" stroke="#A0359B" stroke-width="0.579106" stroke-miterlimit="10" stroke-linejoin="round"/>
<path d="M167.417 218.444C165.622 219.968 163.417 220.474 161.135 220.896C158.426 221.402 155.646 221.342 152.913 221.125C148.967 220.818 145.015 220.203 141.069 220.559C138.246 220.811 135.339 221.558 132.636 220.697" stroke="#E57FE5" stroke-width="0.579106" stroke-miterlimit="10" stroke-linejoin="round"/>
<path d="M119.639 152.248C124.666 152.194 128.588 154.32 131.969 157.964C133.981 160.133 135.585 162.825 137.345 165.295C133.002 167.909 124.498 171.276 119.639 172.691C118.005 168.8 115.296 162.47 115.296 162.47" fill="white"/>
<path d="M96.2391 150.592C97.8067 151.833 99.9389 153.025 101.657 154.085C105.476 156.435 110.323 158.681 113.837 154.748C114.66 153.826 115.212 152.73 115.687 151.622C118.227 151.513 119.158 151.995 121.687 152.26C123.453 155.308 124.756 158.639 126.035 161.91C127.447 165.518 129.255 169.372 129.387 173.306C129.435 174.775 129.098 176.305 128.156 177.432C127.321 178.438 126.095 179.022 124.918 179.576C123.495 180.238 122.059 180.901 120.762 181.793C118.624 183.262 116.924 185.298 114.792 186.78C112.942 188.063 110.828 188.882 108.66 189.448C106.816 189.93 104.822 190.611 102.924 190.623C99.8968 190.641 96.8697 190.839 93.8727 191.255C92.3111 191.472 90.7015 191.683 89.1759 192.08C87.9326 192.406 86.8876 192.863 85.5422 192.767C83.4881 192.61 81.6923 191.954 81.7704 189.924C81.8364 188.231 82.7374 186.515 82.6593 184.882C82.5752 183.136 82.1608 181.323 82.0407 179.546C81.6683 173.848 81.6503 167.186 83.1758 161.536C83.9086 158.814 85.6323 155.392 88.1128 153.61C89.242 152.796 91.5303 151.736 92.9057 151.465C93.3802 151.369 95.9748 150.381 96.2391 150.592Z" fill="#7FE1E5"/>
<path d="M126.93 164.253C127.897 159.344 125.573 154.633 121.555 151.67C120.077 151.646 118.96 151.664 117.489 151.64C118.984 153.381 125.158 159.868 126.93 164.253Z" fill="#F5AEFF"/>
<path d="M108.515 154.507C111.074 154.917 117.374 154.513 115.843 149.809C115.116 147.58 113.368 145.924 111.446 145.044C109.524 144.165 107.422 143.966 105.362 143.924C102.293 143.864 97.1579 145.183 100.017 149.712C101.975 152.808 105.314 153.995 108.515 154.507Z" fill="#FFB399"/>
<path d="M98.7375 148.273C101.855 151.08 105.554 153.23 109.53 154.543C110.095 154.73 110.72 154.899 111.266 154.67C111.663 154.507 111.945 154.158 112.209 153.826C113.026 152.796 113.819 151.748 114.582 150.682C115.338 150.809 116.311 150.941 117.068 151.062C117.158 151.074 117.26 151.098 117.314 151.17C117.38 151.267 117.338 151.399 117.296 151.513C116.642 153.086 115.975 154.67 115.05 156.097C114.54 156.886 113.933 157.645 113.146 158.157C112.071 158.856 110.732 159.049 109.464 158.892C108.197 158.735 106.99 158.26 105.837 157.699C102.035 155.844 98.7074 153.031 96.2449 149.586L98.7375 148.273Z" fill="#F5AEFF"/>
<path d="M111.164 154.664C111.308 155.049 111.452 155.435 111.597 155.82C111.717 156.145 111.843 156.477 111.909 156.82C111.957 157.079 111.975 157.35 111.993 157.615C112.011 157.952 112.035 158.296 112.053 158.633" stroke="#DA78EF" stroke-width="0.579106" stroke-miterlimit="10" stroke-linejoin="round"/>
<path d="M107.849 154.146C108.323 155.603 108.522 157.145 108.42 158.675" stroke="#DA78EF" stroke-width="0.579106" stroke-miterlimit="10" stroke-linejoin="round"/>
<path d="M99.4463 147.833C103.711 150.821 105.591 152.356 110.239 154.561C108.233 156.501 106.624 159.121 105.542 161.397C101.062 158.494 97.6264 153.959 94.8516 149.146L99.4463 147.833Z" fill="white"/>
<path d="M114.227 148.779L117.915 149.447C118.239 151.357 117.915 153.357 117.272 155.157C116.636 156.958 115.753 158.627 114.816 160.241C113.609 158.302 112.005 156.23 110.251 154.67C111.843 152.989 113.194 150.989 114.227 148.779Z" fill="white"/>
<path d="M127.17 160.555C126.348 160.404 125.495 160.404 124.678 160.561" stroke="#DA78EF" stroke-width="0.579106" stroke-miterlimit="10" stroke-linejoin="round"/>
<path d="M126.029 157.055C124.768 156.868 123.477 156.892 122.227 157.121" stroke="#DA78EF" stroke-width="0.579106" stroke-miterlimit="10" stroke-linejoin="round"/>
<path d="M123.489 153.525C122.209 153.483 120.906 153.441 119.687 153.82" stroke="#DA78EF" stroke-width="0.579106" stroke-miterlimit="10" stroke-linejoin="round"/>
<path d="M82.2387 78.7642C86.7433 80.3423 90.4431 84.0647 92.0107 88.5882C92.7314 90.6723 93.0137 92.9189 92.7194 95.1054C92.293 98.2676 90.7014 101.141 89.0617 103.875C87.9566 105.712 86.8034 107.537 85.3019 109.061C81.8604 112.555 75.4639 115.073 70.5509 114.47C64.3646 113.711 60.0582 107.646 59.3435 101.767C57.914 90.0519 69.2716 74.2106 82.2387 78.7642Z" fill="#E25B37"/>
<path d="M89.1217 84.1188C89.4341 83.1611 89.7944 82.2095 90.347 81.3722C90.6173 80.9687 90.9776 80.5591 91.4581 80.4989C92.0767 80.4206 92.6053 80.9386 92.9536 81.4566C93.8906 82.86 94.275 84.5766 94.269 86.2631C94.269 87.9497 93.8966 89.6181 93.4341 91.2384C93.2299 91.9431 92.9777 92.69 92.4011 93.1477C91.8065 93.6176 90.9957 93.6778 90.2389 93.72C89.4521 93.7621 88.1127 93.8826 87.4701 93.2863C86.8034 92.6659 87.3259 91.4672 87.4761 90.7083C87.9145 88.4857 88.419 86.2752 89.1217 84.1188Z" fill="#FFF0B0"/>
<path d="M82.533 86.3537C81.9804 85.7273 81.4038 85.1189 80.7672 84.5829C80.4669 84.3299 80.1365 84.089 79.7581 83.9745C78.7191 83.6733 78.1245 84.5588 77.9683 85.4683C77.3016 89.2569 78.3947 93.0998 80.1065 96.4668C80.593 97.4185 81.2416 97.9666 82.3408 97.8883C84.1726 97.7558 85.7642 96.521 86.8934 95.0694C87.3198 94.5213 87.7162 93.8948 87.7342 93.1961C87.7763 91.347 85.7042 89.9255 84.593 88.7148C83.8843 87.9559 83.2237 87.1367 82.533 86.3537Z" fill="#FFF0B0"/>
<path d="M67.854 111.88C65.7158 115.03 61.8058 117.036 57.4334 117.379C48.2621 118.096 43.8116 108.399 45.9858 101.333C47.4452 96.5869 53.3132 90.0396 59.4154 91.0033C63.2233 91.6056 65.8119 95.2919 67.2954 98.2072C68.6228 100.815 69.6318 103.634 69.5597 106.555C69.5117 108.555 68.893 110.35 67.854 111.88Z" fill="#E25B37"/>
<path d="M51.049 111.302C52.3824 112.838 53.4695 114.657 53.7758 116.669C54.0881 118.681 53.5175 120.897 51.992 122.24C51.0671 123.053 49.8778 123.493 48.6766 123.746C45.6856 124.373 42.2261 123.746 40.2861 121.379C39.5413 120.476 39.0669 119.373 38.7906 118.235C38.25 115.982 38.5263 113.489 39.7816 111.549C42.5624 107.248 47.9439 107.712 51.049 111.302Z" fill="#E25B37"/>
<path d="M47.3012 124.15C47.7876 125.439 47.6735 126.932 46.6405 128.155C45.8176 129.131 44.5083 129.643 43.235 129.607C41.3131 129.547 39.8596 128.619 39.319 126.794C38.4782 123.963 40.274 121.114 43.3551 121.228C45.187 121.289 46.7005 122.566 47.3012 124.15Z" fill="#E25B37"/>
<path d="M44.5384 129.691C42.6105 128.522 38.0818 129.661 39.7035 132.534C40.0518 133.148 40.6164 133.612 41.2351 133.955C42.0759 134.419 43.0609 134.684 43.9979 134.485C46.4303 133.967 46.5204 130.986 44.5925 129.733C44.5805 129.715 44.5564 129.703 44.5384 129.691Z" fill="#E25B37"/>
<path d="M136.372 112.91C135.603 109.266 133.855 105.851 131.399 103.062C126.948 98.0085 119.579 96.3822 113.116 96.3461C102.78 96.2919 90.8274 101.863 86.0225 111.531C80.6831 122.276 84.3948 137.178 93.7524 144.532C101.362 150.507 111.813 153.35 121.38 151.845C126.678 151.007 131.801 148.592 135.441 144.641C139.074 140.689 139.921 136.678 139.153 131.359C138.648 127.848 138.186 123.065 137.435 119.602C136.954 117.391 136.834 115.121 136.372 112.91Z" fill="#FFB399"/>
<path d="M119.975 133.564C120.924 132.275 122.065 131.468 123.104 131.341C124.143 131.215 125.08 131.769 125.669 132.865" stroke="#C45F4E" stroke-width="0.579106" stroke-miterlimit="10" stroke-linejoin="round"/>
<path d="M103.386 123.282C103.687 123.903 104.515 124.077 105.188 123.933C105.813 123.794 106.365 123.457 106.972 123.264C107.687 123.035 108.449 123.053 109.164 122.83C109.885 122.602 110.552 122.192 110.257 121.361C109.723 119.867 107.05 119.385 105.783 119.879C104.708 120.295 102.732 121.927 103.386 123.282Z" fill="#E25B37"/>
<path d="M132.366 117.41C131.723 117.331 131.038 117.452 130.534 117.855C129.849 118.41 129.615 119.428 130.468 119.976C130.888 120.247 131.417 120.289 131.921 120.289C132.666 120.283 133.459 120.668 134.222 120.578C135.345 120.451 135.657 119.482 134.912 118.614C134.3 117.916 133.267 117.524 132.366 117.41Z" fill="#E25B37"/>
<path d="M106.828 133.04C106.047 133.233 105.122 133.576 104.978 134.371C104.894 134.853 105.158 135.341 105.536 135.648C105.915 135.955 106.389 136.112 106.858 136.232C107.891 136.509 108.972 136.678 110.041 136.563C111.615 136.389 114.906 134.564 113.308 132.582C112.005 130.974 108.389 132.654 106.828 133.04Z" fill="#ED927A"/>
<path d="M131.231 129.757C130.912 129.932 130.72 130.293 130.678 130.655C130.528 131.902 131.615 132.679 132.654 133.094C133.645 133.492 134.762 133.534 135.789 133.251C136.606 133.028 137.669 132.052 137.579 131.106C137.489 130.143 136.24 129.842 135.429 129.757C134.3 129.637 133.164 129.589 132.023 129.613C131.765 129.619 131.495 129.631 131.261 129.745C131.249 129.745 131.237 129.751 131.231 129.757Z" fill="#ED927A"/>
<path d="M133.663 125.969C133.777 126.589 133.831 127.318 133.669 127.788C133.489 128.324 133.062 128.571 132.63 128.649C132.312 128.709 131.819 128.655 131.531 128.42C131.08 128.053 130.87 127.312 130.726 126.505C130.594 125.77 130.582 124.951 130.81 124.451C131.002 124.041 131.393 123.89 131.753 123.824C132.156 123.752 132.63 123.8 132.972 124.18C133.333 124.565 133.543 125.294 133.663 125.969Z" fill="#141833"/>
<path d="M110.81 128.408C110.924 129.028 110.978 129.757 110.816 130.227C110.635 130.763 110.209 131.01 109.777 131.088C109.458 131.149 108.966 131.094 108.678 130.859C108.227 130.492 108.017 129.751 107.873 128.944C107.741 128.209 107.729 127.39 107.957 126.89C108.149 126.481 108.539 126.33 108.9 126.264C109.302 126.191 109.777 126.24 110.119 126.619C110.479 127.005 110.69 127.733 110.81 128.408Z" fill="#141833"/>
<path d="M117.254 137.334C116.876 137.828 116.63 139.726 117.483 141.183C119.032 143.84 123.056 145.165 125.945 143.557C128.744 141.99 129.321 137.702 128.215 137.383C127.849 137.28 125.471 137.473 123.609 137.437C120.522 137.377 117.633 136.847 117.254 137.334Z" fill="#702218"/>
<mask id="mask0_28_3355" style="mask-type:luminance" maskUnits="userSpaceOnUse" x="116" y="137" width="13" height="8">
<path d="M117.254 137.334C116.876 137.828 116.63 139.726 117.483 141.183C119.032 143.84 123.056 145.165 125.945 143.557C128.744 141.99 129.321 137.702 128.215 137.383C127.849 137.28 125.471 137.473 123.609 137.437C120.522 137.377 117.633 136.847 117.254 137.334Z" fill="white"/>
</mask>
<g mask="url(#mask0_28_3355)">
<path d="M114.702 139.967C115.693 139.503 116.81 139.334 117.903 139.352C118.996 139.37 120.083 139.575 121.152 139.816C123.02 140.238 124.906 140.804 126.444 141.942C126.912 142.291 127.357 142.707 127.615 143.231C127.873 143.755 127.921 144.418 127.621 144.918C127.273 145.508 126.558 145.755 125.885 145.875C125.044 146.026 124.186 146.05 123.333 146.062C121.681 146.086 119.957 146.068 118.492 145.309C117.891 145.002 117.357 144.574 116.852 144.123C115.867 143.231 114.996 142.219 114.263 141.111" fill="#C64E39"/>
<path d="M119.885 136.455C119.789 136.714 119.687 136.973 119.651 137.244C119.615 137.515 119.639 137.81 119.783 138.045C120.023 138.442 120.516 138.599 120.96 138.719C122.66 139.183 124.324 139.442 126.065 139.008C127.747 138.593 127.555 137.045 127.086 135.702" fill="white"/>
</g>
<path d="M88.359 126.041C88.9176 122.692 90.2389 119.494 92.1789 116.777C93.7825 117.675 95.8246 117.632 97.3982 116.669C99.0379 115.663 100.059 113.826 100.774 111.971C101.482 110.115 101.879 108.296 102.81 106.55C106.936 108.923 111.32 110.941 115.963 111.705C121.381 112.597 128.113 111.916 131.777 107.122C133.969 108.911 134.978 111.724 136.017 114.434C137.044 117.114 137.891 122.228 137.891 122.228C137.891 122.228 142.468 121.222 146.168 116.627C151.429 110.091 152.162 100.376 148.288 92.9309C144.414 85.4862 136.372 80.5531 128.017 79.9447C119.663 79.3304 111.218 82.86 105.35 88.8472C86.2749 88.3231 80.3829 98.5446 77.7642 103.616C72.4008 114.012 74.0464 128.631 81.6982 135.811C82.8514 136.889 84.1427 137.642 85.6502 138.033" fill="#E25B37"/>
<path d="M103.236 106.712C101.548 105.652 100.017 104.345 98.6955 102.845" stroke="#B73827" stroke-width="0.579106" stroke-miterlimit="10" stroke-linejoin="round"/>
<path d="M144.588 95.467C146.516 99.4545 146.817 104.406 145.657 108.706C144.426 113.272 141.273 116.663 137.165 118.09" stroke="#B73827" stroke-width="0.579106" stroke-miterlimit="10" stroke-linejoin="round"/>
<path d="M96.3811 128.723C95.805 122.279 100.547 116.587 106.973 116.009C113.399 115.431 119.075 120.187 119.651 126.631C120.228 133.075 115.485 138.768 109.059 139.346C102.634 139.924 96.9572 135.168 96.3811 128.723Z" stroke="#FFF0B0" stroke-width="0.772141" stroke-miterlimit="10"/>
<path d="M125.557 124.236C125.22 117.775 129.405 112.303 134.904 112.015C140.402 111.727 145.133 116.731 145.47 123.192C145.806 129.653 141.622 135.124 136.123 135.413C130.625 135.701 125.894 130.697 125.557 124.236Z" stroke="#FFF0B0" stroke-width="0.772141" stroke-miterlimit="10"/>
<path d="M125.537 123.897C123.326 123.415 121.308 123.879 119.17 124.969" stroke="#FFF0B0" stroke-width="0.772141" stroke-miterlimit="10"/>
<path d="M96.275 125.481L85.6442 125.577" stroke="#FFF0B0" stroke-width="0.772141" stroke-miterlimit="10"/>
<path d="M92.8634 128.667C91.6922 127.077 90.0345 125.794 88.0645 125.276C86.0945 124.752 83.8182 125.053 82.1124 126.27C79.7941 127.926 78.9172 130.926 79.0133 133.63C79.1034 136.269 79.9863 138.859 81.638 140.882C83.2896 142.912 85.7221 144.346 88.4128 144.725C90.2988 144.99 92.3529 144.707 93.9745 143.641C95.6022 142.575 96.6953 140.635 96.3889 138.822" fill="#FFB399"/>
<path d="M92.4371 144.394C92.9777 144.207 93.5002 143.96 93.9867 143.641C95.6144 142.575 96.7075 140.636 96.4012 138.823" stroke="#C45F4E" stroke-width="0.579106" stroke-miterlimit="10" stroke-linejoin="round"/>
<path d="M92.8636 128.667C91.6925 127.077 90.0348 125.794 88.0648 125.276C86.0948 124.752 83.8185 125.053 82.1127 126.27" stroke="#C45F4E" stroke-width="0.579106" stroke-miterlimit="10" stroke-linejoin="round"/>
<path d="M83.8784 132.835C84.6832 131.661 86.1126 131.119 87.44 131.233C90.2148 131.474 92.0827 133.92 93.8485 135.955" stroke="#C45F4E" stroke-width="0.579106" stroke-miterlimit="10" stroke-linejoin="round"/>
<path d="M86.3829 138.732C86.1366 136.058 87.4099 133.679 89.458 131.824" stroke="#C45F4E" stroke-width="0.579106" stroke-miterlimit="10" stroke-linejoin="round"/>
<path d="M112.828 152.104C110.461 152.031 108.107 151.598 105.867 150.821" stroke="#C45F4E" stroke-width="0.579106" stroke-miterlimit="10" stroke-linejoin="round"/>
<path d="M131.657 107.284C133.363 105.526 134.504 101.135 134.011 98.7434" stroke="#B73827" stroke-width="0.579106" stroke-miterlimit="10" stroke-linejoin="round"/>
<path d="M92.5573 116.94C91.6683 116.397 90.7674 115.825 90.1007 115.018C89.2359 113.964 88.8395 112.567 88.8455 111.193C88.8515 109.826 89.2239 108.477 89.7464 107.218" stroke="#B73827" stroke-width="0.579106" stroke-miterlimit="10" stroke-linejoin="round"/>
<path d="M67.7639 113.729C59.8238 109.254 58.7307 98.7012 61.1932 90.7686" stroke="#B73827" stroke-width="0.579106" stroke-miterlimit="10" stroke-linejoin="round"/>
<path d="M54.1241 117.205C49.9739 116.018 46.5745 112.488 45.5474 108.284" stroke="#B73827" stroke-width="0.579106" stroke-miterlimit="10" stroke-linejoin="round"/>
<path d="M47.7698 123.963C45.1751 124.505 42.3343 123.68 40.4243 121.831" stroke="#B73827" stroke-width="0.579106" stroke-miterlimit="10" stroke-linejoin="round"/>
<path d="M44.5925 129.468C43.3252 129.583 41.9258 129.661 40.9228 128.872" stroke="#B73827" stroke-width="0.579106" stroke-miterlimit="10" stroke-linejoin="round"/>
<path d="M105.05 89.1965C103.711 90.359 102.251 91.4131 100.611 92.0877C98.9717 92.7623 97.1339 93.0394 95.4101 92.6479" stroke="#B73827" stroke-width="0.579106" stroke-miterlimit="10" stroke-linejoin="round"/>
<path d="M92.365 90.7205C87.5 92.1841 75.3137 98.1833 74.7611 114.434" stroke="#B73827" stroke-width="0.579106" stroke-miterlimit="10" stroke-linejoin="round"/>
<path d="M64.9891 113.994C63.3615 117.223 59.8059 119.379 56.1962 119.319" stroke="#E25B37" stroke-width="0.579106" stroke-miterlimit="10" stroke-linejoin="round"/>
<path d="M59.1152 91.9913C55.8299 90.7565 51.986 91.7202 49.1992 93.8645C46.4123 96.0088 44.5624 99.177 43.3312 102.472" stroke="#E25B37" stroke-width="0.579106" stroke-miterlimit="10" stroke-linejoin="round"/>
<path d="M40.5864 122.758C38.9227 123.451 37.9678 125.505 38.5023 127.228" stroke="#E25B37" stroke-width="0.579106" stroke-miterlimit="10" stroke-linejoin="round"/>
<path d="M177.904 145.111L160.667 100.334L89.4583 143.918L130.011 182.461L177.904 145.111Z" fill="url(#paint0_linear_28_3355)"/>
<path d="M131.285 182.889L171.514 175.498C172.114 175.39 172.126 174.529 171.526 174.408L155.94 171.131C154.967 170.927 153.958 170.915 152.979 171.095L112.377 178.558C111.861 178.655 111.849 179.395 112.365 179.504L128.324 182.859C129.297 183.058 130.306 183.07 131.285 182.889Z" fill="#2E3247"/>
<path d="M127.945 182.111C128.918 182.316 129.927 182.328 130.906 182.148L171.129 174.757C171.345 174.715 171.484 174.576 171.544 174.408C172.114 174.552 172.096 175.383 171.508 175.492L131.279 182.882C130.3 183.063 129.297 183.051 128.318 182.846L112.359 179.491C111.993 179.413 111.897 179.028 112.053 178.769L127.945 182.111Z" fill="#576087"/>
<path d="M131.477 182.877L171.171 175.583C172.589 175.324 173.688 174.197 173.916 172.77L178.156 146.334C178.349 145.135 177.304 144.111 176.114 144.328L136.42 151.622C135.003 151.881 133.903 153.008 133.675 154.435L129.435 180.871C129.243 182.07 130.288 183.1 131.477 182.877Z" fill="#2E3247"/>
<path d="M152.775 166.578L158.703 165.488C158.913 165.451 159.081 165.283 159.111 165.066L159.742 161.121C159.772 160.94 159.616 160.789 159.435 160.82L153.507 161.91C153.297 161.946 153.129 162.115 153.099 162.331L152.468 166.277C152.438 166.457 152.594 166.614 152.775 166.578Z" fill="#576087"/>
<path d="M129.435 180.871L133.675 154.435C133.903 153.007 135.003 151.881 136.42 151.622L176.114 144.328C176.853 144.189 177.538 144.539 177.904 145.105C177.7 145.069 177.484 145.05 177.262 145.093L137.567 152.387C136.15 152.646 135.051 153.772 134.822 155.2L130.582 181.636C130.51 182.088 130.612 182.515 130.84 182.865C129.945 182.696 129.279 181.847 129.435 180.871Z" fill="#576087"/>
<path d="M102.72 168.156L105.194 175.094C109.152 173.667 113.302 172.679 117.404 171.709C118.438 174.787 121.699 183.503 121.735 184.683C118.227 188.418 114.251 191.815 109.603 193.959C105.392 195.899 100.287 196.736 95.6924 195.67C84.9595 193.176 83.0976 179.708 83.1096 170.547L102.72 168.156Z" fill="#FFB399"/>
<path d="M120.9 184.858C117.579 189.195 113.194 192.61 108.299 194.664" stroke="#C45F4E" stroke-width="0.579106" stroke-miterlimit="10" stroke-linejoin="round"/>
<path d="M101.608 163.307C103.002 166.439 103.945 169.065 105.542 173.589C98.1309 175.932 88.7494 177.516 80.5811 178.419C80.5811 170.523 80.3349 165.506 84.1127 158.573C85.6322 155.79 87.5542 154.007 90.7434 153.206" fill="white"/>
<path d="M104.137 169.65C96.4132 171.541 88.4912 172.962 80.5631 173.625" stroke="#7FE1E5" stroke-width="0.579106" stroke-miterlimit="10" stroke-linejoin="round"/>
<path d="M103.158 166.927C103.488 164.789 102.948 162.735 101.771 160.922C100.593 159.109 98.9838 157.627 97.3381 156.23C95.5363 154.694 93.284 152.754 91.0918 152.043C86.8334 152.218 84.7673 156.326 84.7733 156.374C88.6533 156.374 91.8425 158.428 93.6263 159.404C97.194 161.355 100.437 163.897 103.158 166.927Z" fill="#F5AEFF"/>
<path d="M105.14 175.064C101.819 176.402 98.7977 178.474 96.3412 181.082" stroke="#C45F4E" stroke-width="0.579106" stroke-miterlimit="10" stroke-linejoin="round"/>
<path d="M101.777 161.091C101.128 162.121 100.72 163.301 100.6 164.512" stroke="#DA78EF" stroke-width="0.579106" stroke-miterlimit="10" stroke-linejoin="round"/>
<path d="M99.1761 157.994C98.047 158.832 97.1221 159.952 96.5094 161.217" stroke="#DA78EF" stroke-width="0.579106" stroke-miterlimit="10" stroke-linejoin="round"/>
<path d="M95.8187 155.091C93.9268 155.507 92.4013 156.856 91.3982 158.181" stroke="#DA78EF" stroke-width="0.579106" stroke-miterlimit="10" stroke-linejoin="round"/>
<path d="M92.7495 152.923C91.266 153.326 88.8756 154.151 87.3801 156.573" stroke="#DA78EF" stroke-width="0.579106" stroke-miterlimit="10" stroke-linejoin="round"/>
<path d="M114.642 173.143C116.534 168.945 120.918 166.102 125.513 165.969C126.198 165.951 128.96 166.186 131.177 166.927C133.591 167.728 135.429 169.071 134.918 170.155C134.684 170.655 134.108 170.89 133.567 170.981C134.45 170.926 135.02 172.113 134.63 172.908C134.24 173.709 133.273 174.064 132.384 174.04C133.213 174.167 133.327 175.462 132.72 176.04C132.114 176.618 131.189 176.667 130.348 176.679C130.978 176.624 131.381 177.474 131.129 178.052C130.876 178.63 130.234 178.937 129.615 179.082C128.996 179.22 128.348 179.257 127.771 179.516C126.372 180.148 125.873 181.865 124.846 183.015C123.843 184.129 121.951 184.798 120.468 184.726" fill="#FFB399"/>
<path d="M118.39 185.738C119.308 185.015 120.48 184.617 121.651 184.629C123.357 184.503 124.786 183.605 125.729 182.172" stroke="#C45F4E" stroke-width="0.579106" stroke-miterlimit="10" stroke-linejoin="round"/>
<path d="M130.828 176.787C128.906 176.317 126.822 176.558 125.062 177.455" stroke="#C45F4E" stroke-width="0.579106" stroke-miterlimit="10" stroke-linejoin="round"/>
<path d="M133.291 174.143C132.288 173.854 131.273 173.613 130.246 173.414C129.609 173.287 128.96 173.185 128.312 173.185C127.267 173.185 126.24 173.468 125.231 173.745" stroke="#C45F4E" stroke-width="0.579106" stroke-miterlimit="10" stroke-linejoin="round"/>
<path d="M134.516 170.89C133.008 170.36 131.483 169.848 129.909 169.595C128.33 169.342 126.684 169.36 125.17 169.872" stroke="#C45F4E" stroke-width="0.579106" stroke-miterlimit="10" stroke-linejoin="round"/>
<path d="M176.931 154.814C175.231 154.332 173.393 154.7 171.772 155.447C170.823 155.886 169.291 157.079 170.487 158.145C170.805 158.434 171.225 158.585 171.634 158.723C171.285 159.031 170.745 158.916 170.312 159.079C169.904 159.229 169.616 159.657 169.634 160.097C169.646 160.452 169.838 160.789 170.096 161.036C170.354 161.283 170.679 161.452 170.997 161.608C171.345 161.777 171.706 161.934 172.066 162.072C171.472 162.06 170.769 162.114 170.463 162.626C170.258 162.964 170.324 163.415 170.523 163.759C170.727 164.096 171.045 164.349 171.375 164.572C171.766 164.837 172.174 165.078 172.595 165.289C172.258 165.271 171.892 165.301 171.64 165.524C171.375 165.752 171.291 166.144 171.363 166.493C171.429 166.837 171.628 167.144 171.838 167.427C172.258 167.993 172.727 168.367 173.291 168.782C173.357 168.83 173.43 168.885 173.472 168.957C173.538 169.071 173.526 169.216 173.514 169.348C173.46 170.083 173.628 170.836 173.988 171.481C174.024 171.553 174.078 171.625 174.156 171.637C174.21 171.643 174.27 171.613 174.318 171.589C175.255 171.047 176.144 170.378 176.799 169.511C177.454 168.644 177.862 167.559 177.778 166.475C178.985 165.813 179.544 164.18 178.997 162.916C179.586 162.536 179.88 161.801 179.856 161.103C179.832 160.404 179.52 159.741 179.117 159.169C179.141 159.199 179.58 158.073 179.592 157.934C179.646 157.446 179.574 156.934 179.37 156.489C178.961 155.573 177.838 155.073 176.931 154.814Z" fill="#FFB399"/>
<path d="M173.238 168.824C173.814 169.168 174.421 169.451 175.051 169.667" stroke="#C45F4E" stroke-width="0.579106" stroke-miterlimit="10" stroke-linejoin="round"/>
<path d="M171.88 165.156C172.991 165.241 174.108 165.174 175.22 165.271C176.241 165.361 177.478 165.566 177.958 166.59" stroke="#C45F4E" stroke-width="0.579106" stroke-miterlimit="10" stroke-linejoin="round"/>
<path d="M171.141 161.94C173.25 162.096 175.388 161.916 177.454 162.325C178.187 162.47 178.943 162.717 179.436 163.277" stroke="#C45F4E" stroke-width="0.579106" stroke-miterlimit="10" stroke-linejoin="round"/>
<path d="M170.835 158.735C172.991 158.41 175.189 158.368 177.358 158.609C178.229 158.705 179.147 158.874 179.778 159.482" stroke="#C45F4E" stroke-width="0.579106" stroke-miterlimit="10" stroke-linejoin="round"/>
<path d="M50.5326 130.39C50.2023 131.763 49.7998 133.154 49.007 134.329C48.2142 135.497 46.9529 136.431 45.5415 136.497" stroke="#526F99" stroke-width="0.579106" stroke-miterlimit="10"/>
<path d="M54.7368 133.642C53.8719 135.546 52.1422 137.027 50.1301 137.588" stroke="#526F99" stroke-width="0.579106" stroke-miterlimit="10"/>
<path d="M183.544 158.916C183.994 156.742 183.153 154.344 181.442 152.929" stroke="#526F99" stroke-width="0.579106" stroke-miterlimit="10"/>
<path d="M185.412 153.573C185.159 151.977 184.379 150.471 183.225 149.345" stroke="#526F99" stroke-width="0.579106" stroke-miterlimit="10"/>
</g>
<path d="M153.129 139.873L149.286 147.511C149.052 147.977 149.39 148.527 149.912 148.527H153.273C153.782 148.527 154.121 149.052 153.912 149.515L152.116 153.511C151.802 154.21 152.676 154.834 153.235 154.311L161.291 146.779C161.754 146.347 161.452 145.571 160.818 145.566L157.778 145.541C157.19 145.537 156.869 144.854 157.239 144.398L160.301 140.629C160.673 140.171 160.347 139.486 159.757 139.486H153.755C153.49 139.487 153.248 139.636 153.129 139.873Z" fill="#FFCC2C"/>
<path d="M161.291 146.779L153.234 154.313C152.893 154.63 152.431 154.52 152.205 154.226L157.455 147.515C157.724 147.169 157.479 146.669 157.042 146.669H154.268C153.85 146.669 153.6 146.193 153.835 145.847L158.196 139.486H159.758C160.35 139.486 160.677 140.173 160.302 140.63L157.239 144.399C156.869 144.856 157.191 145.539 157.778 145.543L160.821 145.567C161.45 145.572 161.753 146.347 161.291 146.779Z" fill="#FFB815"/>
<path d="M176.061 59.9363H167.96C166.836 59.9363 165.925 59.0255 165.925 57.9013C165.925 56.7771 166.836 55.8662 167.96 55.8662H176.061C177.185 55.8662 178.096 56.7771 178.096 57.9013C178.096 59.0248 177.185 59.9363 176.061 59.9363Z" fill="#5C82C6"/>
<path d="M184.436 67.3055H176.334C175.21 67.3055 174.299 66.3946 174.299 65.2704C174.299 64.1462 175.21 63.2354 176.334 63.2354H184.436C185.56 63.2354 186.471 64.1462 186.471 65.2704C186.471 66.3946 185.559 67.3055 184.436 67.3055Z" fill="#5C82C6"/>
<path d="M184.436 59.9363H182.029C180.905 59.9363 179.994 59.0255 179.994 57.9013C179.994 56.7771 180.905 55.8662 182.029 55.8662H184.436C185.56 55.8662 186.471 56.7771 186.471 57.9013C186.471 59.0248 185.559 59.9363 184.436 59.9363Z" fill="#5C82C6"/>
<path d="M62.097 70.7747H53.9959C52.8717 70.7747 51.9608 69.8638 51.9608 68.7396C51.9608 67.6155 52.8717 66.7046 53.9959 66.7046H62.097C63.2212 66.7046 64.1321 67.6155 64.1321 68.7396C64.1321 69.8638 63.2212 70.7747 62.097 70.7747Z" fill="#5C82C6"/>
<path d="M70.4718 63.8343H62.3706C61.2465 63.8343 60.3356 62.9234 60.3356 61.7992C60.3356 60.6757 61.2465 59.7642 62.3706 59.7642H70.4718C71.5959 59.7642 72.5068 60.675 72.5068 61.7992C72.5068 62.9227 71.5953 63.8343 70.4718 63.8343Z" fill="#5C82C6"/>
<path d="M70.4718 70.7747H68.0651C66.9409 70.7747 66.03 69.8638 66.03 68.7396C66.03 67.6155 66.9409 66.7046 68.0651 66.7046H70.4718C71.596 66.7046 72.5068 67.6155 72.5068 68.7396C72.5068 69.8638 71.5953 70.7747 70.4718 70.7747Z" fill="#5C82C6"/>
<path d="M194.396 54.5064L190.36 62.5293C190.113 63.0189 190.469 63.5965 191.018 63.5965H194.547C195.082 63.5965 195.438 64.1477 195.219 64.6346L193.333 68.8319C193.003 69.5652 193.92 70.2211 194.507 69.6719L202.97 61.7609C203.456 61.3064 203.139 60.4916 202.473 60.4863L199.279 60.4598C198.662 60.4545 198.325 59.7384 198.713 59.2588L201.93 55.3006C202.32 54.819 201.978 54.0996 201.358 54.0996H195.053C194.776 54.1009 194.521 54.2573 194.396 54.5064Z" fill="#5C82C6"/>
<path d="M28.3477 159.322H26.3451C25.2209 159.322 24.3101 158.411 24.3101 157.287C24.3101 156.163 25.2209 155.252 26.3451 155.252H28.3477C29.4719 155.252 30.3828 156.163 30.3828 157.287C30.3828 158.411 29.4719 159.322 28.3477 159.322Z" fill="#5C82C6"/>
<path d="M44.5182 159.322H34.1276C33.0034 159.322 32.0925 158.411 32.0925 157.287C32.0925 156.163 33.0034 155.252 34.1276 155.252H44.5182C45.6423 155.252 46.5532 156.163 46.5532 157.287C46.5532 158.411 45.6417 159.322 44.5182 159.322Z" fill="#5C82C6"/>
<path d="M38.6052 166.691H33.9097C32.7855 166.691 31.8746 165.78 31.8746 164.656C31.8746 163.532 32.7855 162.621 33.9097 162.621H38.6052C39.7294 162.621 40.6402 163.532 40.6402 164.656C40.6396 165.78 39.7287 166.691 38.6052 166.691Z" fill="#5C82C6"/>
<path d="M44.5182 166.691C43.394 166.691 42.4832 165.78 42.4832 164.656C42.4832 163.532 43.394 162.621 44.5182 162.621C45.6424 162.621 46.5533 163.532 46.5533 164.656C46.5533 165.78 45.6417 166.691 44.5182 166.691Z" fill="#5C82C6"/>
<path d="M6.17149 66.5812L0.119324 78.612C-0.250325 79.3467 0.283611 80.2125 1.10572 80.2125H6.39871C7.19961 80.2125 7.73422 81.0386 7.40564 81.7693L4.57696 88.0632C4.08277 89.1629 5.45737 90.146 6.33843 89.3226L19.0284 77.46C19.7571 76.779 19.2808 75.5575 18.2831 75.5488L13.4936 75.5091C12.5681 75.5011 12.062 74.4266 12.6456 73.7085L17.4683 67.773C18.0546 67.0515 17.5412 65.9724 16.6111 65.9724H7.15789C6.74054 65.9731 6.35896 66.2082 6.17149 66.5812Z" fill="#FFCC2C"/>
<path d="M19.0284 77.4597L6.33716 89.3256C5.79924 89.825 5.07253 89.6515 4.7168 89.1891L12.9862 78.6177C13.4102 78.0725 13.024 77.2848 12.335 77.2848H7.96547C7.30699 77.2848 6.91283 76.5349 7.2838 75.9897L14.1521 65.9714H16.6131C17.5445 65.9714 18.0593 67.0545 17.469 67.7733L12.645 73.7102C12.0621 74.4296 12.5695 75.5048 13.493 75.5127L18.2865 75.5505C19.2782 75.5591 19.7558 76.7787 19.0284 77.4597Z" fill="#FFB815"/>
<path d="M146.137 19.6842C142.602 -0.395877 123.099 0.656444 123.099 0.656444C123.099 0.656444 103.596 -0.395877 100.061 19.6842C99.9253 20.4556 99.8817 21.242 99.9104 22.025C100.07 26.3575 101.694 39.8066 115.432 45.2173H123.1H130.768C144.506 39.8066 146.129 26.3575 146.289 22.025C146.317 21.2414 146.273 20.4556 146.137 19.6842Z" fill="#FFAB09"/>
<path d="M126.368 39.3919C136.185 39.3919 144.143 31.177 144.143 21.0434C144.143 10.9097 136.185 2.69482 126.368 2.69482C116.551 2.69482 108.593 10.9097 108.593 21.0434C108.593 31.177 116.551 39.3919 126.368 39.3919Z" fill="#FFBD1A"/>
<path d="M129.897 23.8716C127.53 23.8716 125.604 25.7968 125.604 28.164V30.9673H120.592V28.164C120.592 25.7968 118.667 23.8716 116.3 23.8716C113.933 23.8716 112.007 25.7968 112.007 28.164V28.3113C112.007 30.6784 113.933 32.6037 116.3 32.6037H118.956V45.2183C118.956 45.6711 119.321 46.0362 119.774 46.0362C120.226 46.0362 120.592 45.6711 120.592 45.2183V32.6037H125.604V45.2183C125.604 45.6711 125.975 46.0362 126.422 46.0362C126.874 46.0362 127.24 45.6711 127.24 45.2183V32.6037H129.896C132.263 32.6037 134.188 30.6784 134.188 28.3113V28.164C134.189 25.7968 132.264 23.8716 129.897 23.8716ZM116.3 30.9667C114.832 30.9667 113.644 29.7723 113.644 28.3107V28.1634C113.644 26.6961 114.832 25.5074 116.3 25.5074C117.761 25.5074 118.956 26.6961 118.956 28.1634V30.9667H116.3ZM132.553 28.3107C132.553 29.7723 131.364 30.9667 129.897 30.9667H127.241V28.1634C127.241 26.6961 128.435 25.5074 129.897 25.5074C131.364 25.5074 132.553 26.6961 132.553 28.1634V28.3107Z" fill="#E5E5FF"/>
<path d="M129.897 23.8716C127.53 23.8716 125.604 25.7968 125.604 28.164V30.9673H120.592V28.164C120.592 25.7968 118.667 23.8716 116.3 23.8716C113.933 23.8716 112.007 25.7968 112.007 28.164V28.3113C112.007 30.6784 113.933 32.6037 116.3 32.6037H118.956V37.7248C119.485 37.9759 120.03 38.2046 120.592 38.4012V32.6037H125.604V39.3772C125.855 39.3881 126.112 39.3939 126.368 39.3939C126.662 39.3939 126.951 39.3887 127.24 39.3721V32.6037H129.896C132.263 32.6037 134.189 30.6784 134.189 28.3113V28.164C134.189 25.7968 132.264 23.8716 129.897 23.8716ZM118.956 30.9667H116.3C114.833 30.9667 113.644 29.7723 113.644 28.3107V28.1634C113.644 26.6961 114.833 25.5074 116.3 25.5074C117.762 25.5074 118.956 26.6961 118.956 28.1634V30.9667ZM132.553 28.3107C132.553 29.7723 131.364 30.9667 129.897 30.9667H127.241V28.1634C127.241 26.6961 128.435 25.5074 129.897 25.5074C131.364 25.5074 132.553 26.6961 132.553 28.1634V28.3107Z" fill="white"/>
<path d="M133.442 50.8577C133.949 51.4086 134.26 52.1393 134.26 52.9463C134.26 54.6589 132.869 56.0443 131.157 56.0443H115.041C113.328 56.0443 111.943 54.6589 111.943 52.9463C111.943 52.1393 112.253 51.4028 112.766 50.8577C112.963 50.6342 113.197 50.4434 113.453 50.2903C113.197 50.1373 112.963 49.9464 112.766 49.7229C112.608 49.5595 112.472 49.379 112.357 49.183C112.095 48.7302 111.943 48.196 111.943 47.6343C111.943 45.9217 113.328 44.5364 115.041 44.5364H131.157C132.869 44.5364 134.26 45.9217 134.26 47.6343C134.26 48.4413 133.949 49.1721 133.442 49.7235C133.24 49.9418 133 50.1327 132.744 50.2909C133 50.4485 133.24 50.6394 133.442 50.8577Z" fill="#BDCCF7"/>
<path d="M133.442 50.8575C133.949 51.4083 134.26 52.1391 134.26 52.9461C134.26 54.6587 132.869 56.044 131.156 56.044H119.48C117.767 56.044 116.382 54.6587 116.382 52.9461C116.382 52.1391 116.692 51.4026 117.205 50.8575C117.402 50.634 117.636 50.4431 117.892 50.2901C117.636 50.137 117.402 49.9462 117.205 49.7226C117.047 49.5593 116.911 49.3788 116.796 49.1827C116.534 48.7299 116.382 48.1958 116.382 47.6341C116.382 45.9215 117.767 44.5361 119.48 44.5361H131.156C132.869 44.5361 134.26 45.9215 134.26 47.6341C134.26 48.4411 133.949 49.1718 133.442 49.7232C133.24 49.9416 133 50.1325 132.744 50.2907C133 50.4483 133.24 50.6391 133.442 50.8575Z" fill="#D5E2F7"/>
<path d="M132.744 50.2901C133 50.4483 133.24 50.6391 133.442 50.8575H112.766C112.962 50.634 113.197 50.4431 113.453 50.2901C113.197 50.1371 112.962 49.9462 112.766 49.7227H133.442C133.24 49.941 133 50.1319 132.744 50.2901Z" fill="#90A4D3"/>
<path d="M132.743 50.2903C133 50.4485 133.24 50.6394 133.442 50.8578H117.205C117.402 50.6342 117.636 50.4434 117.892 50.2903C117.636 50.1373 117.402 49.9464 117.205 49.7229H133.442C133.24 49.9413 133 50.1321 132.743 50.2903Z" fill="#A6B5E0"/>
<path d="M151.694 78.8149C151.242 78.8149 150.876 78.4487 150.876 77.997V76.3612C150.876 75.9096 151.242 75.5433 151.694 75.5433C152.146 75.5433 152.513 75.9096 152.513 76.3612V77.997C152.513 78.4487 152.146 78.8149 151.694 78.8149ZM151.694 73.9064C151.242 73.9064 150.876 73.5401 150.876 73.0885V71.4521C150.876 71.0005 151.242 70.6342 151.694 70.6342C152.146 70.6342 152.513 71.0005 152.513 71.4521V73.0885C152.513 73.5401 152.146 73.9064 151.694 73.9064ZM148.767 71.9244H147.131C146.68 71.9244 146.313 71.5582 146.313 71.1065C146.313 70.6549 146.68 70.2886 147.131 70.2886H148.767C149.219 70.2886 149.585 70.6549 149.585 71.1065C149.585 71.5582 149.219 71.9244 148.767 71.9244ZM143.859 71.9244H142.223C141.772 71.9244 141.405 71.5582 141.405 71.1065C141.405 70.6549 141.772 70.2886 142.223 70.2886H143.859C144.311 70.2886 144.677 70.6549 144.677 71.1065C144.677 71.5582 144.311 71.9244 143.859 71.9244ZM138.95 71.9244H137.314C136.862 71.9244 136.496 71.5582 136.496 71.1065C136.496 70.6549 136.862 70.2886 137.314 70.2886H138.95C139.402 70.2886 139.768 70.6549 139.768 71.1065C139.768 71.5582 139.402 71.9244 138.95 71.9244ZM134.042 71.9244H132.406C131.954 71.9244 131.587 71.5582 131.587 71.1065C131.587 70.6549 131.954 70.2886 132.406 70.2886H134.042C134.494 70.2886 134.86 70.6549 134.86 71.1065C134.86 71.5582 134.494 71.9244 134.042 71.9244ZM129.133 71.9244H127.497C127.045 71.9244 126.679 71.5582 126.679 71.1065C126.679 70.6549 127.045 70.2886 127.497 70.2886H129.133C129.584 70.2886 129.951 70.6549 129.951 71.1065C129.951 71.5582 129.585 71.9244 129.133 71.9244ZM124.225 71.9244H123.099C122.647 71.9244 122.28 71.5582 122.28 71.1065V70.5964C122.28 70.1447 122.647 69.7785 123.099 69.7785C123.442 69.7785 123.735 69.9894 123.857 70.2886H124.225C124.677 70.2886 125.043 70.6549 125.043 71.1065C125.043 71.5582 124.677 71.9244 124.225 71.9244ZM123.099 68.1421C122.647 68.1421 122.28 67.7759 122.28 67.3242V65.6884C122.28 65.2368 122.647 64.8705 123.099 64.8705C123.55 64.8705 123.917 65.2368 123.917 65.6884V67.3242C123.917 67.7753 123.55 68.1421 123.099 68.1421ZM123.099 63.233C122.647 63.233 122.28 62.8668 122.28 62.4151V60.7793C122.28 60.3277 122.647 59.9614 123.099 59.9614C123.55 59.9614 123.917 60.3277 123.917 60.7793V62.4151C123.917 62.8668 123.55 63.233 123.099 63.233Z" fill="#4B75B2"/>
<path d="M127.124 71.1066C127.124 72.9808 125.604 74.5002 123.73 74.5002C121.856 74.5002 120.337 72.9808 120.337 71.1066C120.337 69.2323 121.856 67.7129 123.73 67.7129C125.604 67.7129 127.124 69.2323 127.124 71.1066Z" fill="#FFCC2C"/>
<path d="M142.934 117.824C142.934 117.824 150.747 116.38 153.592 110.688L159.563 115.153C159.563 115.153 152.309 120.272 142.934 117.824Z" fill="#EAEAFB"/>
<path d="M147.176 98.1341C147.176 109.374 157.2 118.485 169.572 118.485C181.586 118.485 191.391 109.89 191.946 99.0979C191.962 98.7786 191.968 98.4593 191.968 98.1341C191.968 86.8995 181.939 77.7888 169.572 77.7888C161.487 77.7888 154.41 81.6774 150.476 87.5103C148.381 90.6033 147.176 94.2402 147.176 98.1341Z" fill="#EAEAFB"/>
<path d="M149.434 93.5568C149.434 104.438 159.144 113.263 171.124 113.263C180.986 113.263 189.313 107.285 191.946 99.0982C191.962 98.7789 191.968 98.4596 191.968 98.1343C191.968 86.8998 181.939 77.7891 169.572 77.7891C161.487 77.7891 154.41 81.6777 150.476 87.5106C149.799 89.4158 149.434 91.4495 149.434 93.5568Z" fill="#D5E2F7"/>
<path d="M178.33 98.1361C178.33 99.8061 179.684 101.161 181.354 101.161C183.025 101.161 184.379 99.8068 184.379 98.1361C184.379 96.4654 183.025 95.1113 181.354 95.1113C179.684 95.1113 178.33 96.4654 178.33 98.1361Z" fill="white"/>
<path d="M166.546 98.1361C166.546 99.8061 167.9 101.161 169.571 101.161C171.242 101.161 172.596 99.8068 172.596 98.1361C172.596 96.4654 171.242 95.1113 169.571 95.1113C167.901 95.1113 166.546 96.4654 166.546 98.1361Z" fill="white"/>
<path d="M154.763 98.1361C154.763 99.8061 156.117 101.161 157.788 101.161C159.458 101.161 160.812 99.8068 160.812 98.1361C160.812 96.4654 159.458 95.1113 157.788 95.1113C156.117 95.1113 154.763 96.4654 154.763 98.1361Z" fill="white"/>
<defs>
<linearGradient id="paint0_linear_28_3355" x1="145.421" y1="152.415" x2="128.011" y2="126.659" gradientUnits="userSpaceOnUse">
<stop offset="0.2968" stop-color="white" stop-opacity="0.5"/>
<stop offset="0.8949" stop-color="white" stop-opacity="0"/>
</linearGradient>
<clipPath id="clip0_28_3355">
<rect width="156.339" height="148.389" fill="white" transform="matrix(-1 0 0 1 194.235 77.9634)"/>
</clipPath>
</defs>
</svg>
