<svg width="339" height="266" viewBox="0 0 339 266" fill="none" xmlns="http://www.w3.org/2000/svg">
<path d="M337.606 92.237C335.994 92.032 334.779 90.654 334.779 89.03C334.779 88.461 334.318 88 333.75 88C333.181 88 332.72 88.461 332.72 89.03C332.72 90.653 331.507 92.032 329.899 92.237C329.384 92.303 328.999 92.741 329 93.26C329.001 93.779 329.387 94.216 329.903 94.28C331.509 94.479 332.72 95.857 332.72 97.486C332.72 98.055 333.181 98.516 333.75 98.516C334.318 98.516 334.779 98.055 334.779 97.486C334.779 95.858 335.993 94.479 337.603 94.28C338.118 94.216 338.505 93.779 338.506 93.26C338.506 92.741 338.121 92.303 337.606 92.237Z" fill="#365CA7"/>
<path d="M276.608 82.237C274.996 82.032 273.781 80.654 273.781 79.03C273.781 78.461 273.32 78 272.751 78C272.183 78 271.721 78.461 271.721 79.03C271.721 80.653 270.509 82.032 268.9 82.237C268.385 82.303 268 82.741 268 83.26C268.001 83.779 268.387 84.216 268.903 84.28C270.509 84.479 271.72 85.857 271.72 87.486C271.72 88.055 272.181 88.516 272.75 88.516C273.318 88.516 273.78 88.055 273.78 87.486C273.78 85.858 274.994 84.479 276.604 84.28C277.119 84.216 277.506 83.779 277.507 83.26C277.508 82.741 277.123 82.303 276.608 82.237Z" fill="#365CA7"/>
<path d="M126.042 61.8757C124.43 61.6707 123.215 60.2927 123.215 58.6687C123.215 58.0997 122.754 57.6387 122.185 57.6387C121.617 57.6387 121.155 58.0997 121.155 58.6687C121.155 60.2917 119.942 61.6707 118.334 61.8757C117.819 61.9417 117.434 62.3797 117.434 62.8987C117.435 63.4177 117.822 63.8547 118.337 63.9187C119.943 64.1177 121.154 65.4957 121.154 67.1247C121.154 67.6937 121.615 68.1547 122.184 68.1547C122.752 68.1547 123.214 67.6937 123.214 67.1247C123.214 65.4957 124.428 64.1177 126.038 63.9187C126.553 63.8547 126.94 63.4177 126.941 62.8987C126.942 62.3797 126.557 61.9417 126.042 61.8757Z" fill="#2C72FF"/>
<path d="M214.667 4.237C213.055 4.032 211.84 2.654 211.84 1.03C211.84 0.460999 211.379 0 210.81 0C210.242 0 209.78 0.460999 209.78 1.03C209.78 2.653 208.567 4.032 206.959 4.237C206.444 4.303 206.059 4.74099 206.059 5.25999C206.059 5.77899 206.446 6.216 206.962 6.28C208.568 6.479 209.779 7.85799 209.779 9.48599C209.779 10.055 210.24 10.516 210.809 10.516C211.377 10.516 211.839 10.055 211.839 9.48599C211.839 7.85799 213.053 6.479 214.663 6.28C215.178 6.216 215.565 5.77899 215.566 5.25999C215.567 4.74099 215.182 4.303 214.667 4.237Z" fill="#2C72FF"/>
<path d="M8.608 77.322C6.996 77.117 5.781 75.739 5.781 74.115C5.781 73.546 5.32 73.085 4.751 73.085C4.183 73.085 3.721 73.546 3.721 74.115C3.721 75.738 2.508 77.117 0.900002 77.322C0.385002 77.388 0 77.8259 0 78.3449C0.001 78.8639 0.387 79.301 0.903 79.365C2.509 79.564 3.72 80.942 3.72 82.571C3.72 83.14 4.181 83.601 4.75 83.601C5.319 83.601 5.78 83.14 5.78 82.571C5.78 80.942 6.994 79.564 8.604 79.365C9.119 79.301 9.506 78.8639 9.507 78.3449C9.508 77.8259 9.123 77.387 8.608 77.322Z" fill="#2C72FF"/>
<path d="M242.608 167.237C240.996 167.032 239.781 165.654 239.781 164.03C239.781 163.461 239.32 163 238.751 163C238.183 163 237.721 163.461 237.721 164.03C237.721 165.653 236.508 167.032 234.9 167.237C234.385 167.303 234 167.741 234 168.26C234.001 168.779 234.387 169.216 234.903 169.28C236.509 169.479 237.72 170.858 237.72 172.486C237.72 173.055 238.181 173.516 238.75 173.516C239.318 173.516 239.78 173.055 239.78 172.486C239.78 170.858 240.994 169.479 242.604 169.28C243.119 169.216 243.506 168.779 243.507 168.26C243.508 167.741 243.123 167.303 242.608 167.237Z" fill="#365CA7"/>
<path d="M290.795 91.1202C288.582 90.8392 286.914 88.9472 286.914 86.7182C286.914 85.9372 286.281 85.3052 285.501 85.3052C284.721 85.3052 284.088 85.9382 284.088 86.7182C284.088 88.9462 282.423 90.8392 280.216 91.1212C279.509 91.2112 278.98 91.8132 278.981 92.5252C278.982 93.2372 279.513 93.8382 280.221 93.9262C282.426 94.2002 284.089 96.0922 284.089 98.3272C284.089 99.1082 284.722 99.7402 285.502 99.7402C286.282 99.7402 286.915 99.1072 286.915 98.3272C286.915 96.0912 288.581 94.1992 290.792 93.9262C291.499 93.8392 292.031 93.2382 292.032 92.5252C292.031 91.8122 291.502 91.2112 290.795 91.1202Z" fill="#365CA7"/>
<path d="M21.781 69.1348C19.568 68.8538 17.9 66.9618 17.9 64.7328C17.9 63.9518 17.267 63.3198 16.487 63.3198C15.707 63.3198 15.074 63.9528 15.074 64.7328C15.074 66.9608 13.409 68.8538 11.202 69.1358C10.495 69.2258 9.96604 69.8278 9.96704 70.5398C9.96804 71.2518 10.499 71.8528 11.207 71.9408C13.412 72.2148 15.075 74.1068 15.075 76.3418C15.075 77.1228 15.708 77.7548 16.488 77.7548C17.268 77.7548 17.901 77.1218 17.901 76.3418C17.901 74.1058 19.568 72.2138 21.778 71.9408C22.485 71.8538 23.017 71.2528 23.018 70.5398C23.017 69.8268 22.488 69.2248 21.781 69.1348Z" fill="#2C72FF"/>
<path d="M52.596 204.482C50.383 204.201 48.715 202.309 48.715 200.08C48.715 199.299 48.082 198.667 47.302 198.667C46.522 198.667 45.889 199.3 45.889 200.08C45.889 202.308 44.224 204.201 42.017 204.483C41.31 204.573 40.781 205.175 40.782 205.887C40.783 206.599 41.314 207.2 42.022 207.288C44.227 207.562 45.89 209.454 45.89 211.689C45.89 212.47 46.523 213.102 47.303 213.102C48.083 213.102 48.716 212.469 48.716 211.689C48.716 209.453 50.382 207.561 52.593 207.288C53.3 207.201 53.832 206.6 53.833 205.887C53.834 205.174 53.302 204.572 52.596 204.482Z" fill="#365CA7"/>
<path d="M72.3161 0.920959L63.1801 19.082C62.6221 20.191 63.4281 21.498 64.6691 21.498H72.6591C73.8681 21.498 74.6751 22.745 74.1791 23.848L69.9091 33.349C69.1631 35.009 71.2381 36.493 72.5681 35.25L91.7241 17.343C92.8241 16.315 92.1051 14.471 90.5991 14.458L83.3691 14.398C81.9721 14.386 81.2081 12.764 82.0891 11.68L89.3691 2.71996C90.2541 1.63096 89.4791 0.00195312 88.0751 0.00195312H73.8051C73.1751 0.00295313 72.5991 0.357959 72.3161 0.920959Z" fill="#FFCC2C"/>
<path d="M91.7241 17.342L72.5661 35.254C71.7541 36.008 70.6571 35.746 70.1201 35.048L82.6031 19.09C83.2431 18.267 82.6601 17.078 81.6201 17.078H75.0241C74.0301 17.078 73.4351 15.946 73.9951 15.123L84.3631 0H88.0781C89.4841 0 90.2611 1.635 89.3701 2.72L82.0881 11.682C81.2081 12.768 81.9741 14.391 83.3681 14.403L90.6041 14.46C92.1011 14.473 92.8221 16.314 91.7241 17.342Z" fill="#FFB815"/>
<path d="M45.27 161.885L39.5851 173.185C39.2381 173.875 39.739 174.688 40.512 174.688H45.483C46.235 174.688 46.738 175.464 46.429 176.151L43.772 182.063C43.308 183.096 44.599 184.019 45.427 183.246L57.346 172.104C58.03 171.464 57.583 170.317 56.646 170.309L52.148 170.272C51.279 170.265 50.803 169.256 51.351 168.581L55.881 163.006C56.432 162.328 55.949 161.315 55.076 161.315H46.1961C45.8051 161.313 45.447 161.534 45.27 161.885Z" fill="#FFCC2C"/>
<path d="M57.3471 172.102L45.426 183.248C44.921 183.717 44.2381 183.554 43.9041 183.12L51.6711 173.191C52.0691 172.679 51.7071 171.939 51.0591 171.939H46.955C46.336 171.939 45.966 171.235 46.315 170.723L52.7661 161.313H55.078C55.953 161.313 56.436 162.33 55.882 163.006L51.3511 168.582C50.8031 169.258 51.28 170.268 52.148 170.275L56.65 170.311C57.581 170.317 58.0291 171.462 57.3471 172.102Z" fill="#FFB815"/>
<g clip-path="url(#clip0_85_598)">
<path d="M175.24 265.13C248.887 265.13 308.59 257.326 308.59 247.7C308.59 238.074 248.887 230.27 175.24 230.27C101.593 230.27 41.89 238.074 41.89 247.7C41.89 257.326 101.593 265.13 175.24 265.13Z" fill="#B3CEF4"/>
<path d="M149.86 236.61C141.2 235.3 132.58 233.09 124.82 229.01C120.02 226.49 115.39 223.13 111.66 219.06C107.3 214.29 105.18 209.61 104.25 203.28C102.29 189.92 104.64 176.04 107.9 162.63C117.67 163.5 126.96 164.17 136.55 166C136.99 174.21 137.62 182.44 138.07 190.64L168.67 193.48" fill="#ED8585"/>
<path d="M138.19 190.56C133.9 190.64 129.93 192.68 126.13 194.67" stroke="#D35F5F" stroke-width="1.5" stroke-miterlimit="10" stroke-linejoin="round"/>
<path d="M136.72 165.54C128.03 160.68 118.67 159.31 107.86 160.48C106.47 164.74 105.53 169.14 105.05 173.59C113.71 171.73 127.37 172.71 137.66 176.79C137.13 171.83 136.72 165.54 136.72 165.54Z" fill="white"/>
<path d="M140 147.23C140.26 148.96 139.51 152.07 139.51 152.07C139.01 153.95 137.39 164.07 135.73 165.05C133.55 166.34 131.84 165.85 129.48 165.44C124.24 164.52 118.88 163.8 113.56 164.47C112.93 164.55 112.29 164.65 111.72 164.94C110.96 165.33 110.38 166.02 109.74 166.59C107.8 168.33 105.11 169.09 102.6 168.61C100.08 168.13 99.31 165.59 97.67 163.86C95.9 162 93.75 160.57 91.57 159.31C89.01 157.82 86.22 156.46 84.27 154.07C81.77 151.01 80.28 140.93 85.55 139.56C92.59 137.72 103.87 137.94 111.05 139.23C122.02 141.2 129.62 142.91 140 147.23Z" fill="white"/>
<path d="M139.51 152.07C141.06 159.06 139.23 164.11 139.79 166.26C139.98 167.02 140.13 167.81 139.96 168.58C139.36 171.32 137.06 170.04 135.43 169.3C134.62 168.93 133.74 168.78 132.86 168.63C126.54 167.54 120.12 166.45 113.75 167.23C113.12 167.31 112.48 167.41 111.9 167.69C111.14 168.06 110.56 168.72 109.91 169.27C107.97 170.92 105.27 171.65 102.76 171.21C100.24 170.76 99.49 168.36 97.84 166.72C96.08 164.96 93.93 163.62 91.76 162.43C89.21 161.03 86.42 159.74 84.49 157.49C82 154.6 80.01 145.6 85.28 144.28C92.33 142.51 106.86 143.84 114.03 145.03C125.02 146.84 129.14 148.02 139.51 152.07Z" fill="#6471FB"/>
<path d="M93.1901 163.93C96.3901 163 99.2501 160.96 101.17 158.25" stroke="#2C3EC4" stroke-width="2" stroke-miterlimit="10" stroke-linecap="round" stroke-linejoin="round"/>
<path d="M97.8101 167.17C101.49 166.31 104.89 164.34 107.47 161.58" stroke="#2C3EC4" stroke-width="2" stroke-miterlimit="10" stroke-linecap="round" stroke-linejoin="round"/>
<path d="M148.13 248.79C136.69 248.47 121.54 247.87 110.35 245C104.29 243.44 98.0001 239.32 93.5101 234.77C83.8101 224.93 76.0101 213.9 69.1801 201.35C77.2701 195.22 84.8501 189.26 93.4701 184C99.5201 189.98 105.73 195.85 111.78 201.82C121.99 202.81 131.21 203.86 141.42 204.85" fill="#FF9797"/>
<path d="M93.26 183.54C83.22 185.87 75.1 191.33 67.63 199.74C69.53 203.97 71.87 208 74.61 211.74C79.95 204.29 91.1 195.53 101.82 191.5C97.95 188.07 93.26 183.54 93.26 183.54Z" fill="white"/>
<path d="M83.03 167.22C84.43 168.36 86.02 171.27 86.02 171.27C86.94 173.06 92.74 181.94 92.16 183.85C91.39 186.35 89.74 187.17 87.64 188.5C82.98 191.44 78.38 194.62 74.77 198.84C74.34 199.34 73.92 199.87 73.69 200.49C73.38 201.32 73.41 202.25 73.32 203.14C73.05 205.82 71.51 208.27 69.25 209.65C66.99 211.03 64.64 209.63 62.16 209.44C59.51 209.24 56.87 209.65 54.32 210.2C51.32 210.84 48.23 211.74 45.09 211.26C41.04 210.65 32.89 203.97 35.97 199.25C40.08 192.94 48.88 185.26 55.27 181.25C65.06 175.11 72.07 171.14 83.03 167.22Z" fill="white"/>
<path d="M86.02 171.28C92.07 175.55 94.18 180.69 96.11 181.96C96.79 182.4 97.45 182.91 97.86 183.61C99.31 186.13 96.65 186.75 94.89 187.31C94.01 187.59 93.23 188.09 92.45 188.58C86.85 192.14 81.17 195.78 76.84 200.8C76.41 201.3 75.99 201.82 75.74 202.43C75.41 203.25 75.42 204.15 75.31 205.02C74.97 207.64 73.42 210.07 71.18 211.48C68.94 212.89 66.69 211.58 64.29 211.46C61.72 211.34 59.14 211.8 56.64 212.4C53.71 213.11 50.68 214.06 47.63 213.68C43.71 213.19 35.92 207.69 39.04 203.01C43.2 196.75 55.27 187.65 61.59 183.58C71.29 177.35 75.26 175.38 86.02 171.28Z" fill="#6471FB"/>
<path d="M58.79 212.59C60.59 209.65 61.37 206.1 60.95 202.68" stroke="#2C3EC4" stroke-width="2" stroke-miterlimit="10" stroke-linecap="round" stroke-linejoin="round"/>
<path d="M64.5801 211.85C66.8001 208.63 68.0301 204.75 68.0901 200.84" stroke="#2C3EC4" stroke-width="2" stroke-miterlimit="10" stroke-linecap="round" stroke-linejoin="round"/>
<path d="M177.83 193.38C168.34 192.5 154.74 191.79 148.99 191.17C138.24 192.72 129.24 197.5 122.5 206.02C136.93 209.74 150.88 213.87 165.2 217.99" fill="#FFF0B0"/>
<path d="M172.6 256.17C153.29 258.92 133.11 258.16 114.03 254.07C103.27 237.42 108.94 215.09 120.66 200.72C120.66 200.72 137.1 202.42 145.92 203.04" fill="#FFF0B0"/>
<path d="M112.12 249.39C131.7 253.24 152.15 254.09 172.16 251.87" stroke="white" stroke-width="2" stroke-miterlimit="10" stroke-linejoin="round"/>
<path d="M110.35 244.59C129.92 248.5 150.37 249.4 170.38 247.25" stroke="white" stroke-width="2" stroke-miterlimit="10" stroke-linejoin="round"/>
<path d="M137.95 205.38C141.83 203.31 145.65 201.11 149.87 199.82C154.26 198.47 158.86 197.82 163.45 197.89" stroke="#DBBB61" stroke-width="1.5" stroke-miterlimit="10" stroke-linejoin="round"/>
<path d="M126.83 201.34L144.33 202.05" stroke="#DBBB61" stroke-width="1.5" stroke-miterlimit="10" stroke-linejoin="round"/>
<path d="M132.2 201.15C127.05 209.4 123.47 218.72 122.48 228.4C121.48 238.08 123.14 248.11 127.79 256.65" stroke="#DBBB61" stroke-width="1.5" stroke-miterlimit="10" stroke-linejoin="round"/>
<path d="M111.49 201.41C108.5 202.2 104.26 203.29 98.87 207.64" stroke="#D35F5F" stroke-width="1.5" stroke-miterlimit="10" stroke-linejoin="round"/>
<path d="M300.02 196.52C298.92 196.33 297.84 196.67 296.79 197.38C294.62 198.85 292.34 200.18 290.17 201.66C285.89 204.59 281.76 207.71 277.65 210.87C272.28 201.51 265.91 188.75 259.17 183.44C256.58 181.39 253.65 179.7 250.46 178.98C245.15 177.77 239.64 178.7 234.88 181.3C227.68 185.23 222.34 192.54 220.13 200.52C218.07 207.93 218.43 218.4 224.98 223.54C228.56 226.34 233.58 226.52 237.86 225.15C239.32 224.68 240.7 224.05 242.04 223.33C244.96 227.21 247.69 231.24 250.44 235.27C252.92 238.91 255.61 242.46 259.03 245.16C263.8 248.91 270.28 250.52 276.09 248.91C281.53 247.41 286.21 243.39 290.34 239.6C293.49 236.71 296.29 233.49 298.91 230.15C304.24 223.35 309.15 216.99 307.17 207.96C306.42 204.53 304.92 199.59 301.9 197.38C301.26 196.9 300.64 196.62 300.02 196.52Z" fill="#ED8585"/>
<path d="M243.74 228.84C246.79 220.26 248.7 208.21 247.95 199.1C247.29 191 247.11 183.56 240.36 179.56C235.35 176.59 216.99 174.81 210.77 175.54C204.32 176.3 191.72 183.18 185.6 185.42C182.43 186.58 177.68 188 169.47 189.94C153.41 198.15 149.03 210.46 147.55 220.81C146.2 230.25 146.82 245.17 160.98 257.46C181.64 258.19 210.9 258.36 223.43 252.71C232.73 248.51 239.97 239.43 243.74 228.84Z" fill="#6471FB"/>
<path d="M154.56 250.58C160.02 250.38 165.39 248.58 170.38 245.27C172.74 243.71 175.03 241.79 176.96 239.03C178.89 236.27 180.44 232.62 181.05 228.34" stroke="#3A4BCC" stroke-width="2" stroke-miterlimit="10" stroke-linejoin="round"/>
<path d="M156.97 253.94C162.7 253.73 168.34 251.91 173.59 248.58C176.07 247.01 178.48 245.08 180.51 242.32C182.54 239.56 184.18 235.9 184.83 231.62" stroke="#3A4BCC" stroke-width="2" stroke-miterlimit="10" stroke-linejoin="round"/>
<path d="M201.45 182.93C201.07 186.35 202.38 189.81 204.47 192.41C206.57 195.01 209.39 196.82 212.34 198.17C217.67 200.61 225.18 201.32 230.76 198.97C235.81 196.84 240.2 191.09 238.2 184.72" stroke="#3A4BCC" stroke-width="2" stroke-miterlimit="10" stroke-linejoin="round"/>
<path d="M220.2 194.64C224.73 195.47 236.08 194.65 233.76 187.23C232.66 183.72 229.69 181.01 226.34 179.5C222.99 177.98 219.26 177.52 215.58 177.29C210.1 176.95 200.82 178.6 205.52 185.84C208.73 190.79 214.53 193.6 220.2 194.64Z" fill="#FF9797"/>
<path d="M258.36 116C255.5 110.52 251.17 105.84 245.98 102.48C236.59 96.3998 224.04 97.0898 213.66 99.9298C197.06 104.47 180.38 118.74 177 136.35C173.24 155.93 185.85 178.09 204.14 185.65C219.01 191.8 237.04 191.66 251.71 184.96C259.83 181.25 266.97 175.09 271.03 167.14C275.1 159.19 275.85 149.42 272.25 141.26C269.87 135.87 265.8 131.41 263.04 126.21C261.29 122.9 260.09 119.32 258.36 116Z" fill="#FF9797"/>
<path d="M237.84 148.32C239.12 145.83 241.1 144.03 243.27 143.36C246.06 142.5 247.64 143.74 249.44 145.76" stroke="#D35F5F" stroke-width="1.5" stroke-miterlimit="10" stroke-linejoin="round"/>
<path d="M205.48 138.86C206.24 139.72 207.65 139.63 208.66 139.09C209.6 138.59 210.34 137.8 211.22 137.22C212.26 136.54 213.5 136.22 214.54 135.55C215.6 134.86 216.48 133.91 215.64 132.71C214.12 130.56 209.62 130.99 207.8 132.34C206.27 133.49 203.83 136.99 205.48 138.86Z" fill="#53112B"/>
<path d="M253.51 120.54C252.44 120.57 251.33 120.93 250.6 121.72C249.6 122.79 249.47 124.53 251.01 125.21C251.77 125.55 252.65 125.49 253.48 125.37C254.7 125.18 256.1 125.62 257.34 125.28C259.16 124.79 259.44 123.13 257.99 121.89C256.82 120.89 255.02 120.5 253.51 120.54Z" fill="#53112B"/>
<path d="M213.57 156.31C212.41 156.97 211.07 157.93 211.2 159.27C211.28 160.08 211.92 160.74 212.66 161.06C213.4 161.38 214.24 161.41 215.05 161.41C216.83 161.39 218.64 161.18 220.3 160.51C222.74 159.53 227.21 155.13 223.76 152.68C220.95 150.69 215.91 154.99 213.57 156.31Z" fill="#F97D7D"/>
<path d="M256.77 143.57C256.34 143.99 256.19 144.65 256.28 145.25C256.59 147.31 258.69 148.07 260.54 148.27C262.3 148.46 264.12 148.03 265.64 147.12C266.85 146.39 268.11 144.36 267.55 142.89C266.97 141.39 264.83 141.47 263.5 141.69C261.63 142 259.79 142.44 257.98 142.98C257.57 143.1 257.14 143.24 256.82 143.53C256.8 143.55 256.78 143.56 256.77 143.57Z" fill="#F97D7D"/>
<path d="M261.14 136.3C261.6 137.24 262.01 138.39 261.97 139.21C261.92 140.15 261.35 140.73 260.69 141.05C260.21 141.28 259.4 141.43 258.83 141.18C257.94 140.79 257.28 139.71 256.68 138.47C256.14 137.36 255.75 136.05 255.9 135.15C256.02 134.41 256.58 133.99 257.13 133.72C257.74 133.42 258.53 133.28 259.25 133.74C259.98 134.2 260.65 135.28 261.14 136.3Z" fill="#141833"/>
<path d="M219.15 146.25C219.61 147.19 220.02 148.34 219.98 149.16C219.93 150.1 219.36 150.68 218.7 151C218.22 151.23 217.41 151.38 216.84 151.13C215.95 150.74 215.29 149.66 214.69 148.42C214.15 147.31 213.76 146 213.91 145.1C214.03 144.36 214.59 143.94 215.14 143.67C215.75 143.37 216.54 143.23 217.26 143.69C217.99 144.16 218.65 145.23 219.15 146.25Z" fill="#141833"/>
<path d="M228.49 159.02C227.87 160.55 228.6 165.57 231.83 168.69C237.7 174.36 248.94 174.88 255.19 168.69C261.25 162.69 259.65 151.32 256.6 151.31C255.58 151.3 249.63 153.5 244.85 154.74C236.89 156.79 229.1 157.5 228.49 159.02Z" fill="#752727"/>
<mask id="mask0_85_598" style="mask-type:luminance" maskUnits="userSpaceOnUse" x="228" y="151" width="32" height="23">
<path d="M228.49 159.02C227.87 160.55 228.6 165.57 231.83 168.69C237.7 174.36 248.94 174.88 255.19 168.69C261.25 162.69 259.65 151.32 256.6 151.31C255.58 151.3 249.63 153.5 244.85 154.74C236.89 156.79 229.1 157.5 228.49 159.02Z" fill="white"/>
</mask>
<g mask="url(#mask0_85_598)">
<path d="M223.83 167.57C226.04 165.67 228.77 164.45 231.59 163.71C234.41 162.98 237.33 162.72 240.24 162.56C245.32 162.3 250.55 162.39 255.31 164.21C256.76 164.77 258.19 165.5 259.23 166.66C260.27 167.82 260.86 169.46 260.46 170.96C259.99 172.71 258.33 173.86 256.7 174.65C254.66 175.64 252.48 176.31 250.3 176.96C246.09 178.21 241.66 179.39 237.36 178.51C235.6 178.15 233.92 177.45 232.31 176.65C229.15 175.08 226.2 173.12 223.54 170.81" fill="#C6493C"/>
<path d="M234.59 154.89C234.52 155.62 234.45 156.35 234.55 157.08C234.65 157.8 234.92 158.53 235.45 159.03C236.35 159.88 237.71 159.92 238.95 159.91C243.63 159.87 248.07 159.34 252.22 156.99C256.22 154.72 254.63 150.91 252.48 147.82" fill="white"/>
</g>
<path d="M208.81 186.9C216.86 190.58 226.09 190.36 234.94 190.07" stroke="#D35F5F" stroke-width="1.5" stroke-miterlimit="10" stroke-linejoin="round"/>
<path d="M262.6 91.7701C264.77 83.2001 262.18 73.4401 256.35 66.7901C250.52 60.1401 241.68 56.3901 232.84 56.3001C227.26 56.2501 221.62 57.6201 216.89 60.5901C214 62.4101 211.49 64.8501 209.61 67.7001C202.28 64.1201 193.55 63.2501 185.95 66.1701C174.62 70.5201 165.19 83.9101 164.71 96.3801C159.24 97.4002 154.28 101.12 151.96 106.2C149.37 111.88 150.2 118.94 153.96 123.91C149.69 126.69 145.96 130.34 143.72 134.88C141.01 140.37 140.76 147.26 143.99 152.46C146.23 156.07 149.97 158.62 154.04 159.87C156.87 160.74 159.86 161.01 162.82 160.86C163.49 162.73 164.64 164.44 166.12 165.76C168.98 168.3 172.9 169.46 176.72 169.37C178.66 169.32 180.64 168.95 182.28 167.92C185.16 166.12 186.51 162.62 186.97 159.25C187.4 156.11 187.13 152.76 185.81 149.93C186.82 146.05 186.7 141.85 186.54 137.79C189.86 137.45 192.74 137.11 195.01 134.66C195.84 133.76 196.44 132.67 196.9 131.53C197.89 129.1 198.29 126.48 198.68 123.88C203.38 126.58 208.9 127.99 214.26 127.14C217.17 126.68 220.07 125.63 222.23 123.62C224.38 121.61 225.67 118.52 225.01 115.65C229.83 119 236.15 120.12 242.02 120.3C247.26 120.46 252.64 120 257.43 117.88C262.23 115.76 266.39 111.77 267.75 106.7C269.22 101.32 267.08 95.1301 262.6 91.7701Z" fill="#53112B"/>
<path d="M198.99 124.56C196.15 123.41 192.98 123.09 189.97 123.65" stroke="#7F264F" stroke-width="1.5" stroke-miterlimit="10" stroke-linejoin="round"/>
<path d="M225.38 116.83C224.7 110.94 220.13 105.7 214.4 104.21" stroke="#7F264F" stroke-width="1.5" stroke-miterlimit="10" stroke-linejoin="round"/>
<path d="M263.31 92.1898C257.62 87.2898 249.89 84.8498 242.42 85.5898" stroke="#7F264F" stroke-width="1.5" stroke-miterlimit="10" stroke-linejoin="round"/>
<path d="M208.98 68.0098C211.01 69.1998 212.42 71.2598 213.15 73.4998C213.88 75.7298 213.97 78.1298 213.8 80.4698" stroke="#7F264F" stroke-width="1.5" stroke-miterlimit="10" stroke-linejoin="round"/>
<path d="M186.54 137.79C183.48 137.78 180.44 139.21 178.51 141.58" stroke="#7F264F" stroke-width="1.5" stroke-miterlimit="10" stroke-linejoin="round"/>
<path d="M160.82 160.41C162.97 160.9 165.22 160.91 167.38 160.45" stroke="#7F264F" stroke-width="1.5" stroke-miterlimit="10" stroke-linejoin="round"/>
<path d="M164.26 96.3598C166.91 95.9398 169.6 95.7698 172.29 95.8598" stroke="#7F264F" stroke-width="1.5" stroke-miterlimit="10" stroke-linejoin="round"/>
<path d="M246.84 92.8701C251.53 94.0701 256.09 96.1701 259.54 99.5601C262.99 102.96 265.22 107.76 264.85 112.59" stroke="#7F264F" stroke-width="1.5" stroke-miterlimit="10" stroke-linejoin="round"/>
<path d="M227.91 78.8401C233.27 75.2601 239.91 73.6501 246.31 74.4001C252.71 75.1401 258.81 78.2301 263.2 82.9501" stroke="#7F264F" stroke-width="1.5" stroke-miterlimit="10" stroke-linejoin="round"/>
<path d="M201.93 107.22C206.66 107.47 211.47 108.77 215.16 111.74C218.85 114.71 221.25 119.53 220.5 124.21" stroke="#7F264F" stroke-width="1.5" stroke-miterlimit="10" stroke-linejoin="round"/>
<path d="M152.66 124.76C155.78 122.77 159.41 121.59 163.11 121.36" stroke="#7F264F" stroke-width="1.5" stroke-miterlimit="10" stroke-linejoin="round"/>
<path d="M149.2 157.78C148.47 156.82 148.12 155.63 147.91 154.45C147.07 149.85 148.09 145.01 150.31 140.89C152.52 136.77 155.88 133.33 159.67 130.6" stroke="#7F264F" stroke-width="1.5" stroke-miterlimit="10" stroke-linejoin="round"/>
<path d="M147.76 111.25C148.14 109.13 148.84 107.07 149.81 105.15C153.8 97.3001 163.79 96.2101 171.56 97.8501" stroke="#53112B" stroke-width="1.5" stroke-miterlimit="10" stroke-linejoin="round"/>
<path d="M166.73 94.5097C163.29 87.1597 165.94 78.3097 172.01 73.4897" stroke="#53112B" stroke-width="1.5" stroke-miterlimit="10" stroke-linejoin="round"/>
<path d="M211.92 67.22C221.87 56.26 236.87 54.3 245.9 56.61C254.93 58.92 262.94 65.46 266.36 74.13" stroke="#53112B" stroke-width="1.5" stroke-miterlimit="10" stroke-linejoin="round"/>
<path d="M191.9 153.31C189.98 150.65 187.24 148.5 183.97 147.59C180.7 146.68 176.91 147.15 174.05 149.14C170.16 151.85 168.65 156.81 168.76 161.31C168.87 165.69 170.29 170 173.01 173.4C175.72 176.8 179.75 179.23 184.23 179.9C187.36 180.37 190.79 179.94 193.51 178.19C196.23 176.45 198.09 173.25 197.62 170.23" fill="#FF9797"/>
<path d="M184.23 179.89C187.36 180.36 190.79 179.93 193.51 178.18C196.23 176.44 198.09 173.24 197.62 170.22" stroke="#D35F5F" stroke-width="1.5" stroke-miterlimit="10" stroke-linejoin="round"/>
<path d="M191.9 153.31C189.98 150.65 187.24 148.5 183.97 147.59C180.7 146.68 176.91 147.15 174.05 149.14" stroke="#D35F5F" stroke-width="1.5" stroke-miterlimit="10" stroke-linejoin="round"/>
<path d="M176.87 160.06C178.23 158.13 180.62 157.25 182.83 157.47C187.45 157.92 190.52 162.01 193.42 165.42" stroke="#D35F5F" stroke-width="1.5" stroke-miterlimit="10" stroke-linejoin="round"/>
<path d="M180.93 169.9C180.57 165.45 182.73 161.53 186.17 158.49" stroke="#D35F5F" stroke-width="1.5" stroke-miterlimit="10" stroke-linejoin="round"/>
<path d="M295.23 113.93L205.3 178.45L252.67 216.63L315.81 186.9L295.23 113.93Z" fill="url(#paint0_linear_85_598)"/>
<path d="M302.02 217.85L255.45 218.87C253.48 218.91 252.1 216.93 252.83 215.09L262.76 190.23C263.5 188.39 265.26 187.16 267.25 187.12L313.82 186.1C315.79 186.06 317.17 188.04 316.44 189.88L306.51 214.74C305.77 216.59 304 217.81 302.02 217.85Z" fill="#2E3247"/>
<path d="M290.21 206.07L283.51 206.22C283.23 206.23 283.03 205.94 283.13 205.68L284.56 202.1C284.67 201.83 284.92 201.66 285.21 201.65L291.91 201.5C292.19 201.49 292.39 201.78 292.29 202.04L290.86 205.62C290.75 205.89 290.5 206.06 290.21 206.07Z" stroke="#555A6D" stroke-miterlimit="10"/>
<path d="M310.25 198.69L297.69 198.97C297.16 198.98 296.79 198.45 296.98 197.95L299.66 191.25C299.86 190.75 300.33 190.42 300.87 190.41L313.43 190.13C313.96 190.12 314.33 190.65 314.14 191.15L311.46 197.85C311.26 198.35 310.78 198.68 310.25 198.69Z" fill="#555A6D"/>
<path d="M254.72 217.11L264.65 192.25C265.39 190.41 267.15 189.18 269.14 189.14L315.71 188.12C316 188.11 316.28 188.16 316.54 188.24C316.25 187.04 315.19 186.08 313.81 186.11L267.23 187.13C265.25 187.17 263.48 188.4 262.74 190.24L252.81 215.1C252.19 216.66 253.1 218.32 254.6 218.76C254.48 218.23 254.49 217.67 254.72 217.11Z" fill="#555A6D"/>
<path d="M304.21 195.79C303.47 196.89 302.11 197.26 301.18 196.63C300.25 196 300.09 194.6 300.83 193.5C301.57 192.4 302.93 192.03 303.86 192.66C304.79 193.29 304.95 194.69 304.21 195.79Z" fill="#2E3247"/>
<path d="M310.27 195.85C309.53 196.95 308.17 197.32 307.24 196.69C306.31 196.06 306.15 194.66 306.89 193.56C307.63 192.46 308.99 192.09 309.92 192.72C310.86 193.36 311.01 194.76 310.27 195.85Z" fill="#2E3247"/>
<path d="M312.96 191.94C312.75 192.26 312.36 192.36 312.09 192.18C311.82 192 311.78 191.6 311.99 191.28C312.2 190.96 312.59 190.86 312.86 191.04C313.13 191.22 313.17 191.62 312.96 191.94Z" fill="#7F88A3"/>
<path d="M248.31 203.53C240.56 208.32 233.66 213.34 226.42 219.08C220.74 209.61 213.95 196.67 207.03 191.41C204.37 189.39 201.39 187.74 198.17 187.09C192.82 186.02 187.34 187.15 182.67 189.99C175.61 194.28 170.52 201.98 168.57 210.28C166.76 217.99 167.47 228.76 174.2 233.84C177.87 236.61 182.89 236.64 187.13 235.08C188.57 234.55 189.93 233.85 191.25 233.06C194.3 236.96 197.17 241.02 200.05 245.09C202.65 248.76 205.46 252.34 208.97 255C213.86 258.71 220.39 260.16 226.15 258.31C231.54 256.58 236.08 252.29 240.08 248.25C246.09 242.17 250.59 233.77 255.25 226.53L248.31 203.53Z" fill="#FF9797"/>
<path d="M227.41 218.28C223 222.13 218.61 224.53 215.08 227.08C212.51 228.94 209.96 231.05 208.61 233.93" stroke="#D35F5F" stroke-width="1.5" stroke-miterlimit="10" stroke-linejoin="round"/>
<path d="M192.13 234.2C192.13 234.2 187.45 227.23 185.44 226.48C183.43 225.73 181.31 225.06 181.31 225.06" stroke="#D35F5F" stroke-width="1.5" stroke-miterlimit="10" stroke-linejoin="round"/>
<path d="M241.19 208.57C247.67 203.69 253.9 197.72 259.84 196.59C263.08 195.97 267.23 196.78 269.55 197.72C271.03 198.32 272.38 199.23 273.57 200.35C274.28 201.02 276.11 202.68 275.86 203.87C275.69 204.7 274.79 205.05 274.02 205.18C272.65 205.4 271.25 205.38 269.9 205.1C271.75 206.21 273.6 207.32 275.44 208.42C276.49 209.05 277.69 210.01 277.5 211.32C277.29 212.69 275.69 213.22 274.44 213.03C273.2 212.83 270.73 212.55 270.73 212.55C270.73 212.55 273.64 214.94 274.96 216.32C275.72 217.12 276.51 218.22 276.16 219.34C275.81 220.46 274.73 220.55 273.82 220.4C273.37 220.33 270.6 219.03 270.6 219.03C270.6 219.03 271.91 220.87 272.28 221.7C272.65 222.52 272.8 223.6 272.26 224.33C271.66 225.13 270.56 225.1 269.65 224.9C268.08 224.55 266.7 223.56 265.08 223.64C263.62 223.71 262.84 224.66 262.04 225.94C258.5 231.62 253.41 230.94 247.87 228.45" fill="#FF9797"/>
<path d="M262.12 217.23C265.59 217.22 269.06 218.29 271.92 220.27" stroke="#D35F5F" stroke-width="1.5" stroke-miterlimit="10" stroke-linejoin="round"/>
<path d="M262.92 210.64C266.48 210.74 270.01 211.92 272.92 213.98" stroke="#D35F5F" stroke-width="1.5" stroke-miterlimit="10" stroke-linejoin="round"/>
<path d="M262.71 203.71C266.24 203.53 269.8 204.34 272.91 206.01" stroke="#D35F5F" stroke-width="1.5" stroke-miterlimit="10" stroke-linejoin="round"/>
<path d="M253.63 230.28C252.3 230.26 249.12 230.62 247.96 231.27" stroke="#D35F5F" stroke-width="1.5" stroke-miterlimit="10" stroke-linejoin="round"/>
<path d="M314.72 193.31C311.93 191.96 308.63 192.05 305.6 192.85C303.82 193.32 300.82 194.92 302.56 197.12C303.03 197.71 303.71 198.1 304.37 198.47C303.68 198.9 302.77 198.53 301.97 198.68C301.22 198.82 300.59 199.47 300.49 200.23C300.4 200.85 300.64 201.49 301.01 201.99C301.39 202.49 301.89 202.88 302.4 203.25C302.95 203.65 303.52 204.02 304.11 204.37C303.09 204.18 301.85 204.05 301.17 204.84C300.72 205.37 300.69 206.16 300.94 206.81C301.19 207.46 301.67 207.99 302.17 208.47C302.76 209.05 303.4 209.58 304.06 210.07C303.48 209.94 302.84 209.88 302.33 210.19C301.8 210.51 301.54 211.16 301.56 211.78C301.57 212.4 301.82 212.98 302.1 213.53C302.66 214.63 303.36 215.42 304.21 216.3C304.31 216.41 304.42 216.52 304.47 216.66C304.55 216.88 304.48 217.13 304.43 217.35C304.12 218.61 304.18 219.95 304.61 221.18C304.66 221.31 304.72 221.46 304.86 221.5C304.96 221.53 305.06 221.5 305.15 221.46C306.94 220.8 308.68 219.92 310.07 218.62C311.47 217.32 312.5 215.57 312.67 213.67C314.95 212.89 316.42 210.24 315.85 207.89C316.98 207.42 317.72 206.24 317.88 205.02C318.05 203.8 317.71 202.57 317.18 201.46C317.21 201.52 318.31 199.7 318.37 199.48C318.61 198.65 318.64 197.75 318.42 196.91C318.01 195.23 316.22 194.03 314.72 193.31Z" fill="#FF9797"/>
<path d="M304.12 216.38C305.01 217.14 305.98 217.82 307.01 218.39" stroke="#D35F5F" stroke-width="1.5" stroke-miterlimit="10" stroke-linejoin="round"/>
<path d="M302.87 209.64C304.77 210.12 306.72 210.34 308.61 210.84C310.36 211.3 312.43 212.03 312.95 213.95" stroke="#D35F5F" stroke-width="1.5" stroke-miterlimit="10" stroke-linejoin="round"/>
<path d="M302.56 203.86C306.16 204.77 309.91 205.1 313.38 206.43C314.6 206.9 315.84 207.55 316.53 208.67" stroke="#D35F5F" stroke-width="1.5" stroke-miterlimit="10" stroke-linejoin="round"/>
<path d="M303 198.24C306.83 198.33 310.65 198.92 314.33 199.99C315.81 200.42 317.35 200.99 318.26 202.23" stroke="#D35F5F" stroke-width="1.5" stroke-miterlimit="10" stroke-linejoin="round"/>
<path d="M32.51 187.65C38.49 182.07 45.29 177.38 52.63 173.78" stroke="#526F99" stroke-width="1.5" stroke-miterlimit="10"/>
<path d="M37.86 175.2C41.41 172.99 44.96 170.78 48.52 168.57" stroke="#526F99" stroke-width="1.5" stroke-miterlimit="10"/>
<path d="M99.09 128.74C108.16 128.94 117.2 130.51 125.81 133.37" stroke="#526F99" stroke-width="1.5" stroke-miterlimit="10"/>
<path d="M120.87 125.89C125.81 127.18 130.75 128.48 135.69 129.77" stroke="#526F99" stroke-width="1.5" stroke-miterlimit="10"/>
</g>
<defs>
<linearGradient id="paint0_linear_85_598" x1="295.06" y1="203.205" x2="250.528" y2="146.529" gradientUnits="userSpaceOnUse">
<stop offset="0.1835" stop-color="white" stop-opacity="0.5"/>
<stop offset="0.8949" stop-color="white" stop-opacity="0"/>
</linearGradient>
<clipPath id="clip0_85_598">
<rect width="286.86" height="210.13" fill="white" transform="translate(32 55)"/>
</clipPath>
</defs>
</svg>
