<svg width="131" height="96" viewBox="0 0 131 96" fill="none" xmlns="http://www.w3.org/2000/svg">
<g clip-path="url(#clip0_30_6918)">
<path d="M65.4133 96.0004C99.0456 96.0004 126.31 92.4352 126.31 88.0373C126.31 83.6394 99.0456 80.0742 65.4133 80.0742C31.7809 80.0742 4.51648 83.6394 4.51648 88.0373C4.51648 92.4352 31.7809 96.0004 65.4133 96.0004Z" fill="#B3CEF4"/>
<path d="M53.8229 82.9704C49.8682 82.3719 45.9317 81.3622 42.3879 79.4982C40.1959 78.347 38.0816 76.8119 36.3782 74.9525C34.3871 72.7733 33.419 70.6352 32.9943 67.7432C32.0992 61.6396 33.1724 55.2984 34.6611 49.1719C39.1228 49.5693 43.3652 49.8754 47.7447 50.7115C47.9456 54.4623 48.2333 58.2223 48.4388 61.9685L62.4129 63.266" fill="#ED8585"/>
<path d="M48.4936 61.9321C46.5345 61.9687 44.7215 62.9007 42.9862 63.8098" stroke="#D35F5F" stroke-width="1.5" stroke-miterlimit="10" stroke-linejoin="round"/>
<path d="M47.8223 50.5016C43.8539 48.2813 39.5794 47.6554 34.6429 48.1899C34.0081 50.1362 33.5788 52.1463 33.3596 54.1794C37.3144 53.3296 43.5525 53.7773 48.2516 55.6413C48.0096 53.3753 47.8223 50.5016 47.8223 50.5016Z" fill="white"/>
<path d="M49.3202 42.1364C49.4389 42.9268 49.0964 44.3476 49.0964 44.3476C48.8681 45.2065 48.1283 49.8299 47.3702 50.2777C46.3747 50.867 45.5937 50.6431 44.516 50.4558C42.1231 50.0355 39.6753 49.7066 37.2458 50.0127C36.9581 50.0492 36.6659 50.0949 36.4056 50.2274C36.0585 50.4056 35.7936 50.7208 35.5014 50.9812C34.6154 51.7762 33.387 52.1234 32.2408 51.9041C31.0899 51.6848 30.7383 50.5244 29.9894 49.734C29.1811 48.8842 28.1992 48.2309 27.2037 47.6553C26.0346 46.9746 24.7605 46.3532 23.87 45.2613C22.7283 43.8633 22.0479 39.2582 24.4545 38.6323C27.6695 37.7917 32.8207 37.8922 36.0996 38.4815C41.1093 39.3815 44.5799 40.1628 49.3202 42.1364Z" fill="white"/>
<path d="M49.0964 44.3475C49.8043 47.5409 48.9686 49.8481 49.2243 50.8303C49.3111 51.1775 49.3796 51.5385 49.3019 51.8902C49.0279 53.142 47.9776 52.5573 47.2332 52.2192C46.8633 52.0501 46.4614 51.9816 46.0596 51.9131C43.1734 51.4151 40.2416 50.9171 37.3326 51.2735C37.0449 51.31 36.7527 51.3557 36.4878 51.4836C36.1407 51.6527 35.8759 51.9542 35.579 52.2055C34.6931 52.9593 33.4601 53.2928 32.3138 53.0918C31.163 52.8862 30.8205 51.7897 30.067 51.0405C29.2633 50.2364 28.2815 49.6242 27.2905 49.0806C26.126 48.441 24.8519 47.8516 23.9705 46.8237C22.8334 45.5033 21.9246 41.3916 24.3313 40.7885C27.5508 39.9799 34.1862 40.5875 37.4605 41.1312C42.4793 41.9581 44.3608 42.4972 49.0964 44.3475Z" fill="#6471FB"/>
<path d="M27.9435 49.7659C29.4048 49.341 30.7109 48.409 31.5877 47.1709" stroke="#2C3EC4" stroke-width="2" stroke-miterlimit="10" stroke-linecap="round" stroke-linejoin="round"/>
<path d="M30.0533 51.2462C31.7339 50.8533 33.2866 49.9533 34.4648 48.6924" stroke="#2C3EC4" stroke-width="2" stroke-miterlimit="10" stroke-linecap="round" stroke-linejoin="round"/>
<path d="M53.0329 88.535C47.8086 88.3888 40.8901 88.1147 35.7799 86.8035C33.0125 86.0908 30.1401 84.2086 28.0896 82.1298C23.6599 77.6343 20.0979 72.5952 16.9789 66.8616C20.6733 64.061 24.1349 61.3381 28.0714 58.9351C30.8342 61.6671 33.6701 64.3489 36.433 67.0763C41.0956 67.5286 45.306 68.0083 49.9686 68.4606" fill="#FF9797"/>
<path d="M27.9755 58.7251C23.3906 59.7896 19.6824 62.284 16.2711 66.1262C17.1388 68.0588 18.2074 69.8999 19.4587 71.6086C21.8973 68.2049 26.9891 64.2029 31.8846 62.3617C30.1173 60.7947 27.9755 58.7251 27.9755 58.7251Z" fill="white"/>
<path d="M23.3038 51.269C23.9431 51.7899 24.6692 53.1193 24.6692 53.1193C25.0894 53.9371 27.7381 57.994 27.4732 58.8666C27.1215 60.0088 26.368 60.3834 25.409 60.991C23.281 62.3342 21.1803 63.787 19.5317 65.715C19.3353 65.9434 19.1435 66.1855 19.0385 66.4688C18.8969 66.848 18.9106 67.2729 18.8695 67.6795C18.7462 68.9038 18.043 70.0231 17.0109 70.6536C15.9788 71.2841 14.9057 70.6445 13.7731 70.5577C12.5629 70.4663 11.3573 70.6536 10.1928 70.9049C8.82283 71.1973 7.41173 71.6084 5.97779 71.3892C4.12828 71.1105 0.406426 68.0586 1.81297 65.9023C3.68987 63.0195 7.70856 59.5108 10.6267 57.6788C15.0975 54.8737 18.2987 53.0599 23.3038 51.269Z" fill="white"/>
<path d="M24.6692 53.124C27.432 55.0748 28.3956 57.4231 29.277 58.0033C29.5875 58.2043 29.8889 58.4373 30.0762 58.7571C30.7383 59.9084 29.5236 60.1916 28.7199 60.4475C28.318 60.5754 27.9618 60.8038 27.6056 61.0277C25.0482 62.6541 22.4544 64.3171 20.477 66.6105C20.2806 66.839 20.0888 67.0765 19.9746 67.3552C19.8239 67.7298 19.8285 68.141 19.7783 68.5385C19.623 69.7355 18.9152 70.8456 17.8922 71.4898C16.8693 72.134 15.8418 71.5355 14.7458 71.4807C13.5722 71.4258 12.3939 71.636 11.2523 71.9101C9.91424 72.2345 8.53053 72.6685 7.13769 72.4949C5.34755 72.271 1.7901 69.7583 3.2149 67.6202C5.11465 64.7602 10.6266 60.6028 13.5128 58.7434C17.9425 55.8972 19.7554 54.9971 24.6692 53.124Z" fill="#6471FB"/>
<path d="M12.2341 71.9967C13.0561 70.6536 13.4123 69.0317 13.2205 67.4692" stroke="#2C3EC4" stroke-width="2" stroke-miterlimit="10" stroke-linecap="round" stroke-linejoin="round"/>
<path d="M14.8783 71.6589C15.8921 70.1879 16.4538 68.4152 16.4812 66.6289" stroke="#2C3EC4" stroke-width="2" stroke-miterlimit="10" stroke-linecap="round" stroke-linejoin="round"/>
<path d="M66.596 63.2206C62.2622 62.8186 56.0515 62.4942 53.4256 62.2109C48.5165 62.9191 44.4064 65.1029 41.3285 68.9953C47.9182 70.6948 54.2887 72.5817 60.8282 74.4639" fill="#FFF0B0"/>
<path d="M64.2076 91.9066C55.3894 93.163 46.1738 92.8158 37.4605 90.9472C32.5468 83.3405 35.1361 73.1388 40.4883 66.5737C40.4883 66.5737 47.9959 67.3504 52.0237 67.6336" fill="#FFF0B0"/>
<path d="M36.5883 88.8091C45.5298 90.568 54.8687 90.9563 64.0067 89.9421" stroke="white" stroke-width="2" stroke-miterlimit="10" stroke-linejoin="round"/>
<path d="M35.78 86.6162C44.717 88.4025 54.0559 88.8137 63.1939 87.8315" stroke="white" stroke-width="2" stroke-miterlimit="10" stroke-linejoin="round"/>
<path d="M48.384 68.703C50.1559 67.7573 51.9004 66.7522 53.8275 66.1629C55.8323 65.5461 57.933 65.2492 60.0291 65.2811" stroke="#DBBB61" stroke-width="1.5" stroke-miterlimit="10" stroke-linejoin="round"/>
<path d="M43.3059 66.8569L51.2976 67.1813" stroke="#DBBB61" stroke-width="1.5" stroke-miterlimit="10" stroke-linejoin="round"/>
<path d="M45.7582 66.7705C43.4064 70.5396 41.7715 74.7975 41.3194 79.2199C40.8628 83.6423 41.6208 88.2247 43.7443 92.1262" stroke="#DBBB61" stroke-width="1.5" stroke-miterlimit="10" stroke-linejoin="round"/>
<path d="M36.3006 66.8892C34.9352 67.2501 32.9989 67.7481 30.5375 69.7354" stroke="#D35F5F" stroke-width="1.5" stroke-miterlimit="10" stroke-linejoin="round"/>
<path d="M122.396 64.6552C121.894 64.5684 121.401 64.7237 120.921 65.0481C119.93 65.7197 118.889 66.3273 117.898 67.0034C115.944 68.342 114.058 69.7674 112.181 71.2111C109.728 66.9349 106.819 61.1054 103.741 58.6795C102.559 57.7429 101.221 56.9708 99.7639 56.6419C97.3389 56.0891 94.8227 56.5139 92.649 57.7018C89.3609 59.4972 86.9223 62.8369 85.9131 66.4826C84.9723 69.868 85.1367 74.6513 88.1279 76.9995C89.7628 78.2787 92.0553 78.361 94.0098 77.7351C94.6766 77.5204 95.3068 77.2325 95.9187 76.9036C97.2522 78.6762 98.4989 80.5174 99.7547 82.3585C100.887 84.0215 102.116 85.6433 103.677 86.8769C105.856 88.5901 108.815 89.3256 111.468 88.5901C113.953 87.9048 116.09 86.0682 117.976 84.3367C119.414 83.0164 120.693 81.5453 121.889 80.0194C124.323 76.9127 126.566 74.0071 125.662 69.8817C125.319 68.3146 124.634 66.0577 123.255 65.0481C122.963 64.8288 122.679 64.7009 122.396 64.6552Z" fill="#ED8585"/>
<path d="M96.695 79.421C98.0879 75.5011 98.9601 69.9959 98.6176 65.8339C98.3162 62.1334 98.234 58.7343 95.1515 56.9069C92.8636 55.55 84.4791 54.7368 81.6387 55.0703C78.6932 55.4175 72.9391 58.5607 70.1443 59.5841C68.6967 60.1141 66.5275 60.7628 62.7782 61.6491C55.4441 65.3999 53.4439 71.0239 52.7681 75.7524C52.1516 80.0651 52.4347 86.8815 58.9011 92.4963C68.3359 92.8298 81.698 92.9075 87.4201 90.3262C91.6671 88.4074 94.9734 84.2591 96.695 79.421Z" fill="#6471FB"/>
<path d="M55.9694 89.353C58.4628 89.2616 60.9151 88.4392 63.1939 86.927C64.2716 86.2143 65.3174 85.3372 66.1987 84.0762C67.0801 82.8153 67.788 81.1477 68.0665 79.1924" stroke="#3A4BCC" stroke-width="2" stroke-miterlimit="10" stroke-linejoin="round"/>
<path d="M57.0698 90.888C59.6865 90.7921 62.2621 89.9606 64.6597 88.4393C65.7922 87.722 66.8928 86.8403 67.8198 85.5793C68.7468 84.3184 69.4958 82.6463 69.7926 80.6909" stroke="#3A4BCC" stroke-width="2" stroke-miterlimit="10" stroke-linejoin="round"/>
<path d="M77.3825 58.4463C77.209 60.0088 77.8072 61.5895 78.7617 62.7773C79.7207 63.9652 81.0085 64.7921 82.3557 65.4088C84.7897 66.5236 88.2193 66.8479 90.7675 65.7743C93.0737 64.8012 95.0785 62.1743 94.1651 59.2641" stroke="#3A4BCC" stroke-width="2" stroke-miterlimit="10" stroke-linejoin="round"/>
<path d="M85.9451 63.7961C88.0138 64.1753 93.197 63.8007 92.1375 60.4108C91.6352 58.8072 90.2788 57.5691 88.749 56.8792C87.2192 56.1848 85.5158 55.9746 83.8353 55.8696C81.3327 55.7142 77.0948 56.4681 79.2412 59.7757C80.7071 62.0372 83.3557 63.321 85.9451 63.7961Z" fill="#FF9797"/>
<path d="M103.372 27.8688C102.065 25.3652 100.088 23.2271 97.718 21.6921C93.4299 18.9144 87.6987 19.2296 82.9584 20.5271C75.3777 22.6012 67.7605 29.1206 66.217 37.1659C64.4999 46.1112 70.2585 56.2353 78.611 59.6891C85.4016 62.4988 93.6354 62.4348 100.335 59.3739C104.043 57.6789 107.303 54.8647 109.158 51.2326C111.016 47.6006 111.359 43.1371 109.715 39.4091C108.628 36.9466 106.769 34.909 105.509 32.5334C104.71 31.0212 104.162 29.3856 103.372 27.8688Z" fill="#FF9797"/>
<path d="M94.0007 42.6342C94.5853 41.4966 95.4895 40.6742 96.4804 40.3681C97.7546 39.9752 98.4761 40.5417 99.2981 41.4646" stroke="#D35F5F" stroke-width="1.5" stroke-miterlimit="10" stroke-linejoin="round"/>
<path d="M79.223 38.3122C79.57 38.7051 80.2139 38.664 80.6752 38.4173C81.1044 38.1889 81.4424 37.828 81.8442 37.563C82.3192 37.2523 82.8855 37.1061 83.3604 36.8C83.8445 36.4848 84.2463 36.0508 83.8627 35.5026C83.1686 34.5203 81.1136 34.7168 80.2824 35.3335C79.5837 35.8589 78.4695 37.4579 79.223 38.3122Z" fill="#53112B"/>
<path d="M101.157 29.9427C100.668 29.9564 100.161 30.1208 99.8278 30.4818C99.3711 30.9706 99.3118 31.7655 100.015 32.0762C100.362 32.2315 100.764 32.2041 101.143 32.1493C101.7 32.0625 102.339 32.2635 102.906 32.1082C103.737 31.8843 103.865 31.1259 103.203 30.5594C102.668 30.1026 101.846 29.9244 101.157 29.9427Z" fill="#53112B"/>
<path d="M82.9174 46.2844C82.3876 46.5859 81.7757 47.0245 81.8351 47.6367C81.8716 48.0068 82.1639 48.3083 82.5018 48.4545C82.8397 48.6007 83.2233 48.6144 83.5932 48.6144C84.4061 48.6053 85.2327 48.5093 85.9907 48.2032C87.105 47.7555 89.1463 45.7453 87.5708 44.626C86.2876 43.7169 83.986 45.6814 82.9174 46.2844Z" fill="#F97D7D"/>
<path d="M102.645 40.4642C102.449 40.656 102.381 40.9576 102.422 41.2317C102.563 42.1728 103.522 42.52 104.367 42.6114C105.171 42.6982 106.002 42.5017 106.696 42.086C107.249 41.7525 107.824 40.8251 107.568 40.1535C107.304 39.4682 106.326 39.5047 105.719 39.6053C104.865 39.7469 104.025 39.9479 103.198 40.1946C103.011 40.2494 102.814 40.3134 102.668 40.4459C102.659 40.455 102.65 40.4596 102.645 40.4642Z" fill="#F97D7D"/>
<path d="M104.641 37.143C104.851 37.5725 105.038 38.0979 105.02 38.4725C104.997 38.9019 104.737 39.1669 104.436 39.3131C104.216 39.4182 103.847 39.4867 103.586 39.3725C103.18 39.1943 102.878 38.7009 102.604 38.1344C102.358 37.6273 102.18 37.0288 102.248 36.6176C102.303 36.2796 102.559 36.0877 102.81 35.9643C103.088 35.8273 103.449 35.7633 103.778 35.9735C104.111 36.1836 104.417 36.677 104.641 37.143Z" fill="#141833"/>
<path d="M85.4656 41.6884C85.6757 42.1179 85.8629 42.6433 85.8446 43.0179C85.8218 43.4473 85.5615 43.7123 85.2601 43.8585C85.0409 43.9636 84.671 44.0321 84.4107 43.9179C84.0043 43.7397 83.7029 43.2463 83.4289 42.6798C83.1822 42.1727 83.0041 41.5742 83.0726 41.163C83.1274 40.825 83.3832 40.6331 83.6344 40.5097C83.9129 40.3727 84.2737 40.3087 84.6025 40.5189C84.9359 40.7336 85.2373 41.2224 85.4656 41.6884Z" fill="#141833"/>
<path d="M89.7309 47.5229C89.4477 48.2219 89.7811 50.5153 91.2561 51.9407C93.9368 54.5311 99.0697 54.7687 101.924 51.9407C104.691 49.1996 103.961 44.0051 102.568 44.0005C102.102 43.9959 99.3848 45.001 97.202 45.5675C93.5669 46.5041 90.0094 46.8285 89.7309 47.5229Z" fill="#752727"/>
<mask id="mask0_30_6918" style="mask-type:luminance" maskUnits="userSpaceOnUse" x="89" y="44" width="15" height="10">
<path d="M89.7309 47.5229C89.4477 48.2219 89.7811 50.5153 91.2561 51.9407C93.9368 54.5311 99.0697 54.7687 101.924 51.9407C104.691 49.1996 103.961 44.0051 102.568 44.0005C102.102 43.9959 99.3848 45.001 97.202 45.5675C93.5669 46.5041 90.0094 46.8285 89.7309 47.5229Z" fill="white"/>
</mask>
<g mask="url(#mask0_30_6918)">
<path d="M87.6028 51.4294C88.612 50.5614 89.8587 50.004 91.1465 49.666C92.4343 49.3324 93.7678 49.2137 95.0967 49.1406C97.4166 49.0218 99.805 49.0629 101.979 49.8944C102.641 50.1502 103.294 50.4837 103.769 51.0137C104.244 51.5437 104.513 52.2929 104.331 52.9782C104.116 53.7777 103.358 54.3031 102.613 54.664C101.682 55.1163 100.686 55.4224 99.6908 55.7193C97.7682 56.2904 95.7452 56.8295 93.7815 56.4275C92.9778 56.263 92.2106 55.9432 91.4753 55.5777C90.0323 54.8605 88.6851 53.965 87.4703 52.9097" fill="#C6493C"/>
<path d="M92.5165 45.6363C92.4845 45.9698 92.4526 46.3033 92.4982 46.6368C92.5439 46.9657 92.6672 47.2992 92.9092 47.5277C93.3202 47.916 93.9413 47.9343 94.5076 47.9297C96.6448 47.9114 98.6724 47.6693 100.568 46.5957C102.394 45.5586 101.668 43.8179 100.686 42.4062" fill="white"/>
</g>
<path d="M80.7437 60.2598C84.4198 61.941 88.6349 61.8405 92.6764 61.708" stroke="#D35F5F" stroke-width="1.5" stroke-miterlimit="10" stroke-linejoin="round"/>
<path d="M105.308 16.7987C106.299 12.8834 105.116 8.42445 102.454 5.38633C99.7913 2.34821 95.7543 0.634982 91.7174 0.593865C89.1692 0.571022 86.5936 1.19692 84.4335 2.55379C83.1137 3.38528 81.9675 4.50002 81.109 5.80207C77.7616 4.16651 73.7749 3.76904 70.3042 5.10307C65.1301 7.09041 60.8237 13.2078 60.6045 18.9048C58.1066 19.3708 55.8415 21.0703 54.782 23.3912C53.5992 25.9861 53.9783 29.2116 55.6953 31.4822C53.7454 32.7522 52.042 34.4198 51.0191 36.4939C49.7815 39.0021 49.6673 42.1499 51.1424 44.5255C52.1653 46.1748 53.8732 47.3398 55.7319 47.9109C57.0243 48.3083 58.3897 48.4317 59.7414 48.3631C60.0474 49.2175 60.5726 49.9987 61.2484 50.6018C62.5545 51.7622 64.3447 52.2921 66.0891 52.251C66.9751 52.2282 67.8793 52.0591 68.6282 51.5886C69.9434 50.7662 70.5599 49.1672 70.77 47.6276C70.9664 46.1931 70.8431 44.6626 70.2402 43.3697C70.7015 41.597 70.6467 39.6782 70.5736 37.8234C72.0898 37.6681 73.405 37.5127 74.4416 36.3934C74.8206 35.9822 75.0946 35.4843 75.3047 34.9634C75.7568 33.8533 75.9395 32.6563 76.1176 31.4685C78.2639 32.702 80.7847 33.3462 83.2325 32.9578C84.5614 32.7477 85.8857 32.268 86.8721 31.3497C87.854 30.4314 88.4431 29.0197 88.1417 27.7085C90.3428 29.239 93.229 29.7507 95.9096 29.8329C98.3025 29.906 100.759 29.6959 102.947 28.7273C105.139 27.7588 107.039 25.9359 107.66 23.6196C108.331 21.1617 107.354 18.3337 105.308 16.7987Z" fill="#53112B"/>
<path d="M76.2592 31.7793C74.9622 31.2539 73.5146 31.1077 72.14 31.3636" stroke="#7F264F" stroke-width="1.5" stroke-miterlimit="10" stroke-linejoin="round"/>
<path d="M88.3106 28.248C88.0001 25.5571 85.9131 23.1631 83.2964 22.4824" stroke="#7F264F" stroke-width="1.5" stroke-miterlimit="10" stroke-linejoin="round"/>
<path d="M105.632 16.9908C103.034 14.7522 99.5036 13.6375 96.0923 13.9755" stroke="#7F264F" stroke-width="1.5" stroke-miterlimit="10" stroke-linejoin="round"/>
<path d="M80.8213 5.94385C81.7483 6.48751 82.3922 7.42864 82.7256 8.45201C83.059 9.47081 83.1001 10.5673 83.0224 11.6363" stroke="#7F264F" stroke-width="1.5" stroke-miterlimit="10" stroke-linejoin="round"/>
<path d="M70.5737 37.8238C69.1763 37.8192 67.788 38.4725 66.9066 39.5553" stroke="#7F264F" stroke-width="1.5" stroke-miterlimit="10" stroke-linejoin="round"/>
<path d="M58.8281 48.1577C59.81 48.3816 60.8375 48.3861 61.8239 48.176" stroke="#7F264F" stroke-width="1.5" stroke-miterlimit="10" stroke-linejoin="round"/>
<path d="M60.399 18.8959C61.6092 18.704 62.8377 18.6263 64.0661 18.6674" stroke="#7F264F" stroke-width="1.5" stroke-miterlimit="10" stroke-linejoin="round"/>
<path d="M98.1107 17.3013C100.252 17.8495 102.335 18.8089 103.91 20.3577C105.486 21.911 106.504 24.1039 106.335 26.3105" stroke="#7F264F" stroke-width="1.5" stroke-miterlimit="10" stroke-linejoin="round"/>
<path d="M89.4661 10.8916C91.9138 9.25606 94.9461 8.52051 97.8688 8.86316C100.791 9.20124 103.577 10.6129 105.582 12.7693" stroke="#7F264F" stroke-width="1.5" stroke-miterlimit="10" stroke-linejoin="round"/>
<path d="M77.6018 23.8574C79.7619 23.9716 81.9584 24.5656 83.6435 25.9224C85.3286 27.2793 86.4247 29.4814 86.0821 31.6195" stroke="#7F264F" stroke-width="1.5" stroke-miterlimit="10" stroke-linejoin="round"/>
<path d="M55.1017 31.8707C56.5265 30.9616 58.1842 30.4225 59.8739 30.3174" stroke="#7F264F" stroke-width="1.5" stroke-miterlimit="10" stroke-linejoin="round"/>
<path d="M53.5216 46.956C53.1882 46.5174 53.0284 45.9738 52.9325 45.4347C52.5489 43.3331 53.0147 41.1219 54.0285 39.2397C55.0377 37.3574 56.5721 35.7858 58.3029 34.5386" stroke="#7F264F" stroke-width="1.5" stroke-miterlimit="10" stroke-linejoin="round"/>
<path d="M52.864 25.6986C53.0375 24.7301 53.3572 23.789 53.8002 22.9118C55.6223 19.3254 60.1844 18.8275 63.7327 19.5767" stroke="#53112B" stroke-width="1.5" stroke-miterlimit="10" stroke-linejoin="round"/>
<path d="M61.527 18.0505C59.956 14.6925 61.1662 10.6493 63.9382 8.44727" stroke="#53112B" stroke-width="1.5" stroke-miterlimit="10" stroke-linejoin="round"/>
<path d="M82.1638 5.58295C86.7077 0.575761 93.5577 -0.319684 97.6814 0.735662C101.805 1.79101 105.463 4.77887 107.025 8.73985" stroke="#53112B" stroke-width="1.5" stroke-miterlimit="10" stroke-linejoin="round"/>
<path d="M73.0214 44.9143C72.1446 43.699 70.8933 42.7168 69.4 42.301C67.9067 41.8853 66.1759 42.1 64.8699 43.0092C63.0934 44.2473 62.4038 46.5133 62.4541 48.5692C62.5043 50.5702 63.1528 52.5393 64.3949 54.0926C65.6325 55.6459 67.4729 56.7561 69.5187 57.0622C70.9481 57.2769 72.5145 57.0805 73.7566 56.281C74.9988 55.486 75.8482 54.0241 75.6335 52.6443" fill="#FF9797"/>
<path d="M69.5188 57.0575C70.9482 57.2722 72.5145 57.0758 73.7567 56.2763C74.9988 55.4813 75.8482 54.0194 75.6336 52.6396" stroke="#D35F5F" stroke-width="1.5" stroke-miterlimit="10" stroke-linejoin="round"/>
<path d="M73.0214 44.9143C72.1446 43.699 70.8933 42.7168 69.4 42.301C67.9067 41.8853 66.1759 42.1 64.8699 43.0092" stroke="#D35F5F" stroke-width="1.5" stroke-miterlimit="10" stroke-linejoin="round"/>
<path d="M66.1577 47.9982C66.7788 47.1164 67.8702 46.7144 68.8795 46.8149C70.9893 47.0205 72.3912 48.889 73.7156 50.4469" stroke="#D35F5F" stroke-width="1.5" stroke-miterlimit="10" stroke-linejoin="round"/>
<path d="M68.0117 52.4935C67.8473 50.4605 68.8337 48.6696 70.4047 47.2808" stroke="#D35F5F" stroke-width="1.5" stroke-miterlimit="10" stroke-linejoin="round"/>
<path d="M120.209 26.9229L79.1406 56.3995L100.773 73.8424L129.607 60.2599L120.209 26.9229Z" fill="url(#paint0_linear_30_6918)"/>
<path d="M123.31 74.3996L102.043 74.8656C101.143 74.8839 100.513 73.9793 100.846 73.1387L105.381 61.7811C105.719 60.9405 106.522 60.3786 107.431 60.3603L128.698 59.8943C129.598 59.876 130.228 60.7806 129.895 61.6212L125.36 72.9788C125.022 73.824 124.214 74.3813 123.31 74.3996Z" fill="#2E3247"/>
<path d="M117.916 69.0181L114.857 69.0867C114.729 69.0912 114.638 68.9587 114.683 68.84L115.336 67.2044C115.386 67.0811 115.501 67.0034 115.633 66.9988L118.693 66.9303C118.821 66.9257 118.912 67.0582 118.866 67.177L118.213 68.8126C118.163 68.9359 118.049 69.0136 117.916 69.0181Z" stroke="#555A6D" stroke-miterlimit="10"/>
<path d="M127.068 65.6461L121.332 65.7741C121.09 65.7786 120.921 65.5365 121.008 65.3081L122.232 62.2471C122.323 62.0187 122.538 61.8679 122.784 61.8633L128.52 61.7354C128.762 61.7308 128.931 61.973 128.844 62.2014L127.621 65.2624C127.529 65.4908 127.31 65.6416 127.068 65.6461Z" fill="#555A6D"/>
<path d="M101.709 74.0619L106.244 62.7044C106.582 61.8637 107.386 61.3018 108.294 61.2835L129.561 60.8175C129.694 60.813 129.822 60.8358 129.94 60.8724C129.808 60.3241 129.324 59.8855 128.694 59.8992L107.422 60.3652C106.518 60.3835 105.71 60.9455 105.372 61.7861L100.837 73.1436C100.554 73.8563 100.969 74.6147 101.654 74.8157C101.6 74.5736 101.604 74.3177 101.709 74.0619Z" fill="#555A6D"/>
<path d="M124.31 64.3216C123.972 64.8241 123.351 64.9931 122.926 64.7053C122.501 64.4175 122.428 63.7779 122.766 63.2753C123.104 62.7728 123.725 62.6038 124.15 62.8916C124.575 63.1794 124.648 63.819 124.31 64.3216Z" fill="#2E3247"/>
<path d="M127.077 64.3489C126.739 64.8514 126.118 65.0205 125.693 64.7327C125.269 64.4448 125.196 63.8052 125.534 63.3027C125.872 62.8001 126.493 62.6311 126.917 62.9189C127.347 63.2113 127.415 63.8509 127.077 64.3489Z" fill="#2E3247"/>
<path d="M128.306 62.5626C128.21 62.7088 128.032 62.7545 127.908 62.6723C127.785 62.59 127.767 62.4073 127.863 62.2611C127.959 62.1149 128.137 62.0692 128.26 62.1514C128.383 62.2337 128.401 62.4164 128.306 62.5626Z" fill="#7F88A3"/>
<path d="M98.782 67.8575C95.2428 70.0459 92.0918 72.3393 88.7855 74.9617C86.1917 70.6352 83.0909 64.7234 79.9307 62.3204C78.716 61.3975 77.3551 60.6437 75.8846 60.3467C73.4415 59.8579 70.9389 60.3741 68.8063 61.6716C65.5822 63.6315 63.2577 67.1494 62.3672 70.9413C61.5407 74.4637 61.8649 79.3841 64.9383 81.7049C66.6143 82.9704 68.9067 82.9841 70.843 82.2714C71.5006 82.0293 72.1217 81.7095 72.7245 81.3486C74.1173 83.1303 75.428 84.9852 76.7432 86.8446C77.9305 88.5213 79.2138 90.1568 80.8167 91.3721C83.0498 93.067 86.0318 93.7295 88.6622 92.8843C91.1237 92.0939 93.197 90.134 95.0236 88.2883C97.7682 85.5106 99.8232 81.6729 101.951 78.3653L98.782 67.8575Z" fill="#FF9797"/>
<path d="M89.2376 74.5962C87.2237 76.3551 85.2189 77.4516 83.6069 78.6166C82.4332 79.4663 81.2687 80.4303 80.6522 81.746" stroke="#D35F5F" stroke-width="1.5" stroke-miterlimit="10" stroke-linejoin="round"/>
<path d="M73.1263 81.8695C73.1263 81.8695 70.9891 78.6852 70.0712 78.3426C69.1533 77.9999 68.1852 77.6938 68.1852 77.6938" stroke="#D35F5F" stroke-width="1.5" stroke-miterlimit="10" stroke-linejoin="round"/>
<path d="M95.5305 70.1599C98.4897 67.9304 101.335 65.2029 104.047 64.6867C105.527 64.4034 107.422 64.7735 108.482 65.2029C109.158 65.4771 109.774 65.8928 110.317 66.4045C110.642 66.7106 111.477 67.469 111.363 68.0126C111.286 68.3918 110.875 68.5517 110.523 68.6111C109.897 68.7116 109.258 68.7025 108.641 68.5746C109.486 69.0817 110.331 69.5888 111.171 70.0913C111.651 70.3792 112.199 70.8178 112.112 71.4162C112.016 72.0421 111.286 72.2843 110.715 72.1975C110.148 72.1061 109.021 71.9782 109.021 71.9782C109.021 71.9782 110.349 73.0701 110.952 73.7005C111.299 74.066 111.66 74.5686 111.5 75.0803C111.34 75.5919 110.847 75.6331 110.432 75.5645C110.226 75.5325 108.961 74.9386 108.961 74.9386C108.961 74.9386 109.559 75.7792 109.728 76.1584C109.897 76.5331 109.966 77.0265 109.719 77.36C109.445 77.7255 108.943 77.7118 108.527 77.6204C107.81 77.4605 107.18 77.0082 106.44 77.0448C105.774 77.0767 105.417 77.5107 105.052 78.0955C103.435 80.6905 101.111 80.3798 98.5811 79.2422" fill="#FF9797"/>
<path d="M105.089 74.1162C106.673 74.1117 108.258 74.6005 109.564 75.5051" stroke="#D35F5F" stroke-width="1.5" stroke-miterlimit="10" stroke-linejoin="round"/>
<path d="M105.454 71.1055C107.08 71.1512 108.692 71.6902 110.021 72.6314" stroke="#D35F5F" stroke-width="1.5" stroke-miterlimit="10" stroke-linejoin="round"/>
<path d="M105.358 67.9395C106.97 67.8572 108.596 68.2273 110.016 68.9903" stroke="#D35F5F" stroke-width="1.5" stroke-miterlimit="10" stroke-linejoin="round"/>
<path d="M101.212 80.0785C100.604 80.0693 99.1519 80.2338 98.6222 80.5308" stroke="#D35F5F" stroke-width="1.5" stroke-miterlimit="10" stroke-linejoin="round"/>
<path d="M129.109 63.1886C127.835 62.5718 126.328 62.6129 124.945 62.9784C124.132 63.1931 122.762 63.9241 123.556 64.9292C123.771 65.1988 124.081 65.3769 124.383 65.546C124.068 65.7424 123.652 65.5734 123.287 65.6419C122.944 65.7059 122.657 66.0028 122.611 66.35C122.57 66.6333 122.679 66.9257 122.848 67.1541C123.022 67.3826 123.25 67.5607 123.483 67.7298C123.734 67.9125 123.995 68.0815 124.264 68.2414C123.798 68.1546 123.232 68.0953 122.921 68.4562C122.716 68.6983 122.702 69.0592 122.816 69.3562C122.931 69.6531 123.15 69.8953 123.378 70.1146C123.648 70.3796 123.94 70.6217 124.241 70.8456C123.976 70.7862 123.684 70.7587 123.451 70.9004C123.209 71.0466 123.09 71.3435 123.1 71.6268C123.104 71.91 123.218 72.175 123.346 72.4263C123.602 72.9288 123.922 73.2898 124.31 73.6918C124.355 73.742 124.406 73.7923 124.428 73.8563C124.465 73.9568 124.433 74.071 124.41 74.1715C124.269 74.7471 124.296 75.3593 124.492 75.9213C124.515 75.9807 124.543 76.0492 124.607 76.0675C124.652 76.0812 124.698 76.0675 124.739 76.0492C125.556 75.7477 126.351 75.3456 126.986 74.7517C127.625 74.1578 128.096 73.3583 128.173 72.4902C129.214 72.1339 129.886 70.9232 129.625 69.8496C130.141 69.6349 130.479 69.0958 130.552 68.5384C130.63 67.981 130.475 67.4191 130.233 66.912C130.246 66.9394 130.749 66.1079 130.776 66.0074C130.886 65.6282 130.899 65.217 130.799 64.8333C130.612 64.0657 129.794 63.5175 129.109 63.1886Z" fill="#FF9797"/>
<path d="M124.269 73.7285C124.675 74.0757 125.118 74.3864 125.588 74.6468" stroke="#D35F5F" stroke-width="1.5" stroke-miterlimit="10" stroke-linejoin="round"/>
<path d="M123.698 70.6489C124.566 70.8682 125.456 70.9687 126.319 71.1972C127.118 71.4073 128.064 71.7408 128.301 72.618" stroke="#D35F5F" stroke-width="1.5" stroke-miterlimit="10" stroke-linejoin="round"/>
<path d="M123.556 68.0083C125.2 68.424 126.913 68.5748 128.497 69.1824C129.055 69.3972 129.621 69.6941 129.936 70.2058" stroke="#D35F5F" stroke-width="1.5" stroke-miterlimit="10" stroke-linejoin="round"/>
<path d="M123.757 65.4409C125.506 65.482 127.251 65.7516 128.931 66.2404C129.607 66.4369 130.31 66.6973 130.726 67.2638" stroke="#D35F5F" stroke-width="1.5" stroke-miterlimit="10" stroke-linejoin="round"/>
<path d="M0.23291 60.6028C2.96379 58.0535 6.06914 55.9108 9.42109 54.2661" stroke="#526F99" stroke-width="1.5" stroke-miterlimit="10"/>
<path d="M2.67615 54.9147C4.29732 53.9051 5.9185 52.8954 7.54424 51.8857" stroke="#526F99" stroke-width="1.5" stroke-miterlimit="10"/>
<path d="M30.6379 33.689C34.7799 33.7803 38.9082 34.4976 42.8401 35.8042" stroke="#526F99" stroke-width="1.5" stroke-miterlimit="10"/>
<path d="M40.5841 32.3867C42.8401 32.9761 45.096 33.57 47.3519 34.1593" stroke="#526F99" stroke-width="1.5" stroke-miterlimit="10"/>
</g>
<defs>
<linearGradient id="paint0_linear_30_6918" x1="120.131" y1="67.7092" x2="99.7844" y2="41.8241" gradientUnits="userSpaceOnUse">
<stop offset="0.1835" stop-color="white" stop-opacity="0.5"/>
<stop offset="0.8949" stop-color="white" stop-opacity="0"/>
</linearGradient>
<clipPath id="clip0_30_6918">
<rect width="131" height="96" fill="white"/>
</clipPath>
</defs>
</svg>
