<svg width="24" height="24" viewBox="0 0 24 24" fill="none" xmlns="http://www.w3.org/2000/svg">
<rect width="24" height="24" rx="4" fill="#B250FE"/>
<g clip-path="url(#clip0_89_978)">
<path d="M18.4 17.6994C18.4559 17.7737 18.49 17.8621 18.4984 17.9546C18.5068 18.0472 18.4893 18.1403 18.4478 18.2235C18.4062 18.3066 18.3423 18.3766 18.2632 18.4254C18.1841 18.4743 18.093 18.5001 18 18.5H6C5.90714 18.5 5.81612 18.4741 5.73713 18.4253C5.65815 18.3765 5.59431 18.3067 5.55279 18.2236C5.51126 18.1406 5.49368 18.0476 5.50202 17.9551C5.51036 17.8626 5.54429 17.7743 5.6 17.7C6.04274 17.1064 6.63314 16.6391 7.3125 16.3444C6.94011 16.0045 6.67918 15.56 6.56397 15.0691C6.44875 14.5783 6.48463 14.0641 6.66689 13.5941C6.84916 13.124 7.16929 12.72 7.58527 12.4351C8.00125 12.1503 8.49364 11.9978 8.99781 11.9978C9.50198 11.9978 9.99437 12.1503 10.4104 12.4351C10.8263 12.72 11.1465 13.124 11.3287 13.5941C11.511 14.0641 11.5469 14.5783 11.4317 15.0691C11.3164 15.56 11.0555 16.0045 10.6831 16.3444C11.1733 16.5562 11.6187 16.8593 11.9956 17.2375C12.3726 16.8593 12.818 16.5562 13.3081 16.3444C12.9357 16.0045 12.6748 15.56 12.5596 15.0691C12.4444 14.5783 12.4803 14.0641 12.6625 13.5941C12.8448 13.124 13.1649 12.72 13.5809 12.4351C13.9969 12.1503 14.4893 11.9978 14.9934 11.9978C15.4976 11.9978 15.99 12.1503 16.406 12.4351C16.822 12.72 17.1421 13.124 17.3244 13.5941C17.5066 14.0641 17.5425 14.5783 17.4273 15.0691C17.3121 15.56 17.0511 16.0045 16.6788 16.3444C17.3613 16.6375 17.9548 17.1048 18.4 17.6994ZM5.7 11.9C5.75253 11.9394 5.8123 11.9681 5.87591 11.9844C5.93952 12.0007 6.00571 12.0043 6.07071 11.995C6.13571 11.9857 6.19825 11.9637 6.25475 11.9302C6.31125 11.8968 6.3606 11.8525 6.4 11.8C6.70273 11.3964 7.09528 11.0688 7.54656 10.8431C7.99784 10.6175 8.49545 10.5 9 10.5C9.50455 10.5 10.0022 10.6175 10.4534 10.8431C10.9047 11.0688 11.2973 11.3964 11.6 11.8C11.6466 11.8621 11.707 11.9125 11.7764 11.9472C11.8458 11.9819 11.9224 12 12 12C12.0776 12 12.1542 11.9819 12.2236 11.9472C12.293 11.9125 12.3534 11.8621 12.4 11.8C12.7027 11.3964 13.0953 11.0688 13.5466 10.8431C13.9978 10.6175 14.4955 10.5 15 10.5C15.5045 10.5 16.0022 10.6175 16.4534 10.8431C16.9047 11.0688 17.2973 11.3964 17.6 11.8C17.6394 11.8525 17.6888 11.8968 17.7454 11.9302C17.8019 11.9637 17.8645 11.9856 17.9295 11.9949C17.9945 12.0041 18.0608 12.0005 18.1244 11.9842C18.188 11.9678 18.2478 11.9391 18.3003 11.8997C18.3528 11.8603 18.3971 11.8109 18.4305 11.7543C18.464 11.6978 18.4859 11.6352 18.4952 11.5702C18.5045 11.5051 18.5008 11.4389 18.4845 11.3753C18.4681 11.3117 18.4394 11.2519 18.4 11.1994C17.9572 10.606 17.3668 10.1388 16.6875 9.84438C17.0599 9.5045 17.3208 9.05998 17.436 8.56915C17.5512 8.07832 17.5154 7.56412 17.3331 7.09405C17.1508 6.62398 16.8307 6.22 16.4147 5.93513C15.9987 5.65027 15.5064 5.49783 15.0022 5.49783C14.498 5.49783 14.0056 5.65027 13.5896 5.93513C13.1737 6.22 12.8535 6.62398 12.6713 7.09405C12.489 7.56412 12.4531 8.07832 12.5683 8.56915C12.6836 9.05998 12.9445 9.5045 13.3169 9.84438C12.8267 10.0562 12.3813 10.3593 12.0044 10.7375C11.6274 10.3593 11.182 10.0562 10.6919 9.84438C11.0643 9.5045 11.3252 9.05998 11.4404 8.56915C11.5556 8.07832 11.5197 7.56412 11.3375 7.09405C11.1552 6.62398 10.8351 6.22 10.4191 5.93513C10.0031 5.65027 9.51073 5.49783 9.00656 5.49783C8.50239 5.49783 8.01 5.65027 7.59402 5.93513C7.17804 6.22 6.85791 6.62398 6.67564 7.09405C6.49338 7.56412 6.4575 8.07832 6.57272 8.56915C6.68793 9.05998 6.94886 9.5045 7.32125 9.84438C6.6387 10.1377 6.04516 10.6052 5.6 11.2C5.5606 11.2525 5.53194 11.3123 5.51564 11.3759C5.49935 11.4395 5.49574 11.5057 5.50503 11.5707C5.51431 11.6357 5.53631 11.6982 5.56976 11.7547C5.60322 11.8112 5.64747 11.8606 5.7 11.9Z" fill="white"/>
</g>
<defs>
<clipPath id="clip0_89_978">
<rect width="16" height="16" fill="white" transform="translate(4 4)"/>
</clipPath>
</defs>
</svg>
