<svg width="24" height="24" viewBox="0 0 24 24" fill="none" xmlns="http://www.w3.org/2000/svg">
<rect width="24" height="24" rx="4" fill="#1AB9FF"/>
<g clip-path="url(#clip0_90_453)">
<path d="M15 16.9525C15.3449 16.8166 15.6791 16.6551 16 16.4694V19C16 19.1326 15.9473 19.2598 15.8535 19.3536C15.7598 19.4473 15.6326 19.5 15.5 19.5C15.3674 19.5 15.2402 19.4473 15.1464 19.3536C15.0526 19.2598 15 19.1326 15 19V16.9525ZM15.735 11.4256L12.235 9.55876C12.1182 9.49911 11.9827 9.48773 11.8576 9.52705C11.7325 9.56638 11.6279 9.65327 11.5662 9.769C11.5046 9.88474 11.4909 10.0201 11.528 10.1458C11.5652 10.2715 11.6503 10.3776 11.765 10.4413L14.6875 12L15.75 11.4338L15.735 11.4256ZM19.735 9.55876L12.235 5.55876C12.1626 5.52024 12.0819 5.50009 12 5.50009C11.918 5.50009 11.8373 5.52024 11.765 5.55876L4.26497 9.55876C4.18497 9.60139 4.11807 9.66497 4.07142 9.74269C4.02477 9.82042 4.00012 9.90936 4.00012 10C4.00012 10.0907 4.02477 10.1796 4.07142 10.2573C4.11807 10.335 4.18497 10.3986 4.26497 10.4413L5.99997 11.3669V14.3931C5.99945 14.6387 6.08983 14.8758 6.25372 15.0588C7.07247 15.9706 8.90684 17.5 12 17.5C13.0256 17.5085 14.0435 17.3227 15 16.9525V12.1669L14.6875 12L12 13.4331L6.73934 10.625L5.56247 10L12 6.56688L18.4375 10L17.2637 10.625H17.26L15.75 11.4338C15.826 11.4777 15.8891 11.5408 15.933 11.6168C15.9769 11.6929 16 11.7791 16 11.8669V16.4694C16.652 16.093 17.2412 15.6171 17.7462 15.0588C17.9101 14.8758 18.0005 14.6387 18 14.3931V11.3669L19.735 10.4413C19.815 10.3986 19.8819 10.335 19.9285 10.2573C19.9752 10.1796 19.9998 10.0907 19.9998 10C19.9998 9.90936 19.9752 9.82042 19.9285 9.74269C19.8819 9.66497 19.815 9.60139 19.735 9.55876Z" fill="white"/>
</g>
<defs>
<clipPath id="clip0_90_453">
<rect width="16" height="16" fill="white" transform="translate(4 4)"/>
</clipPath>
</defs>
</svg>
