<svg width="39" height="36" viewBox="0 0 39 36" fill="none" xmlns="http://www.w3.org/2000/svg">
<path d="M14.2599 25.244C16.2684 20.8431 18.7904 16.6266 21.3202 12.5091C22.6275 10.3811 24.1193 8.40594 25.1097 6.10168C25.6049 4.94942 26.0365 3.29191 26.7559 2.28552C27.5246 1.21023 31.0066 4.46637 31.5456 4.94975C32.5135 5.81785 35.7445 7.31217 34.9941 8.86035C33.6476 11.6381 29.8127 13.6952 27.5981 15.7403C24.9198 18.2136 22.5202 20.8419 20.3192 23.7425C19.4912 24.8338 18.4691 26.3468 17.4299 27.2242C16.7811 27.7721 13.8058 26.8515 14.1192 25.6559C14.9428 22.5142 18.3783 19.4288 20.5219 17.156C22.4276 15.1354 24.7027 13.3621 26.396 11.1541C27.0299 10.3275 27.7074 9.37153 28.0091 8.3592C28.2292 7.62029 27.9324 6.2697 28.4473 5.67706C28.9495 5.09891 32.1782 7.91478 32.1248 8.5476C31.9687 10.3978 28.9604 12.1987 27.7511 13.2989C26.0503 14.8465 24.4968 16.5529 23.4032 18.5821C21.9884 21.2073 20.4012 23.778 17.6877 25.2154C16.6234 25.7792 18.4055 22.8972 18.996 21.8475C20.497 19.1794 22.0354 16.5189 23.7893 14.0064C24.5805 12.873 26.5772 9.59759 26.6227 10.979C26.6543 11.9408 24.3048 18.3414 23.3113 18.4155C23.3037 18.4161 25.9721 9.54572 26.3374 8.50064C26.5437 7.91037 25.7397 9.59932 25.4561 10.1566C25.1795 10.7002 24.9079 11.2467 24.6128 11.7805C24.2798 12.3827 23.8156 14.0628 23.445 13.4829C22.5522 12.0859 27.0714 7.17084 27.9559 6.05936" stroke="#F4961D" stroke-width="3.50199" stroke-linecap="round"/>
<path d="M7.04735 19.9576C6.81979 17.6126 6.8547 15.2189 6.91716 12.8649C6.94944 11.6483 7.09716 10.4507 6.95209 9.23795C6.87954 8.6315 6.65633 7.82816 6.71439 7.22795C6.77643 6.58665 9.04769 7.10013 9.3942 7.17094C10.0165 7.2981 11.7501 7.13222 11.8116 7.96796C11.9219 9.46747 10.8024 11.2756 10.3658 12.6804C9.83779 14.3793 9.46571 16.0749 9.24444 17.8362C9.16119 18.4988 9.09906 19.3865 8.87408 20.0111C8.73359 20.4011 7.24879 20.7455 7.08866 20.1655C6.6679 18.6415 7.36651 16.4989 7.71727 15.0158C8.02911 13.6973 8.55782 12.392 8.73385 11.0469C8.79974 10.5434 8.85243 9.97462 8.73219 9.47464C8.64443 9.10969 8.18806 8.61456 8.26085 8.23869C8.33187 7.872 10.3881 8.26259 10.5204 8.5419C10.9075 9.35857 10.0751 10.8557 9.8327 11.6159C9.49174 12.685 9.25208 13.7848 9.2861 14.9073C9.33012 16.3594 9.28783 17.831 8.49127 19.1028C8.17885 19.6016 8.22737 17.9511 8.22027 17.3644C8.20224 15.8731 8.20188 14.3757 8.32899 12.8876C8.38632 12.2163 8.42936 10.3476 8.78691 10.9175C9.03586 11.3143 9.60877 14.5843 9.2064 14.8597C9.2033 14.8619 8.16055 10.4746 8.05925 9.94516C8.00204 9.64614 8.07529 10.5543 8.09174 10.8584C8.10778 11.1551 8.12667 11.4517 8.13245 11.7488C8.13898 12.084 8.35393 12.9048 8.05508 12.7521C7.33503 12.3839 8.04428 9.20532 8.1465 8.5203" stroke="#F4961D" stroke-width="3.17784" stroke-linecap="round"/>
<path d="M23.1525 30.112C24.7991 28.621 26.6302 27.3013 28.4467 26.0248C29.3854 25.3651 30.3748 24.8034 31.2109 24.0116C31.629 23.6156 32.1114 22.995 32.5983 22.7014C33.1185 22.3877 34.0072 24.3952 34.1484 24.6972C34.4022 25.2396 35.5026 26.4582 34.9047 26.9747C33.832 27.9015 31.8342 28.0711 30.5256 28.5308C28.9431 29.0866 27.4507 29.7585 25.9935 30.5816C25.4452 30.8912 24.7385 31.3434 24.1393 31.5244C23.7652 31.6374 22.6696 30.7075 23.0185 30.2601C23.9351 29.0847 25.9494 28.4085 27.2689 27.8399C28.442 27.3344 29.7271 27.0004 30.844 26.3772C31.2621 26.1439 31.7221 25.8639 32.0329 25.4918C32.2597 25.2201 32.3777 24.5963 32.7031 24.44C33.0205 24.2876 33.8813 26.0632 33.7443 26.3205C33.344 27.0726 31.743 27.2847 31.0314 27.5287C30.0306 27.8719 29.0636 28.309 28.2333 28.966C27.1592 29.8159 26.0218 30.6115 24.6114 30.7239C24.0583 30.768 25.3345 29.8766 25.7745 29.5413C26.8929 28.6889 28.0258 27.8466 29.2234 27.1059C29.7636 26.7718 31.202 25.7535 30.9718 26.3446C30.8115 26.7561 28.6592 29.0285 28.2244 28.879C28.2211 28.8778 30.9547 25.6215 31.2984 25.2471C31.4925 25.0357 30.8465 25.6018 30.6255 25.7853C30.4101 25.9642 30.1962 26.1454 29.9746 26.3168C29.7247 26.5103 29.2244 27.1345 29.172 26.8224C29.0456 26.0705 31.8498 24.8197 32.4257 24.5119" stroke="#F4961D" stroke-width="2.9961" stroke-linecap="round"/>
</svg>
