<svg width="24" height="24" viewBox="0 0 24 24" fill="none" xmlns="http://www.w3.org/2000/svg">
<rect width="24" height="24" rx="4" fill="#FC477E"/>
<g clip-path="url(#clip0_90_454)">
<path d="M19.4651 14.8594C19.4654 14.8565 19.4654 14.8535 19.4651 14.8506L18.4407 9.59C18.4407 9.58625 18.4407 9.5825 18.4407 9.57875C18.2825 8.71503 17.8267 7.93405 17.1525 7.37157C16.4782 6.80909 15.6281 6.5007 14.7501 6.5H9.24318C8.36264 6.49966 7.51018 6.80981 6.83573 7.37589C6.16128 7.94198 5.70802 8.72775 5.55568 9.595L4.5363 14.8506C4.536 14.8535 4.536 14.8565 4.5363 14.8594C4.45333 15.3305 4.52268 15.8158 4.73429 16.2449C4.9459 16.6739 5.28876 17.0244 5.71307 17.2453C6.13739 17.4662 6.62108 17.5462 7.09392 17.4735C7.56676 17.4009 8.00414 17.1794 8.34255 16.8413L8.36443 16.8181L10.8451 14H13.1576L15.6394 16.8181C15.6463 16.8263 15.6538 16.8338 15.6613 16.8413C16.0831 17.2621 16.6542 17.4989 17.2501 17.5C17.5785 17.4998 17.9029 17.4277 18.2005 17.2887C18.498 17.1498 18.7616 16.9474 18.9726 16.6957C19.1837 16.4441 19.337 16.1493 19.422 15.8321C19.507 15.5148 19.5214 15.1828 19.4644 14.8594H19.4651ZM10.5001 11H10.0001V11.5C10.0001 11.6326 9.94737 11.7598 9.8536 11.8536C9.75984 11.9473 9.63266 12 9.50005 12C9.36744 12 9.24027 11.9473 9.1465 11.8536C9.05273 11.7598 9.00005 11.6326 9.00005 11.5V11H8.50005C8.36744 11 8.24027 10.9473 8.1465 10.8536C8.05273 10.7598 8.00005 10.6326 8.00005 10.5C8.00005 10.3674 8.05273 10.2402 8.1465 10.1464C8.24027 10.0527 8.36744 10 8.50005 10H9.00005V9.5C9.00005 9.36739 9.05273 9.24022 9.1465 9.14645C9.24027 9.05268 9.36744 9 9.50005 9C9.63266 9 9.75984 9.05268 9.8536 9.14645C9.94737 9.24022 10.0001 9.36739 10.0001 9.5V10H10.5001C10.6327 10 10.7598 10.0527 10.8536 10.1464C10.9474 10.2402 11.0001 10.3674 11.0001 10.5C11.0001 10.6326 10.9474 10.7598 10.8536 10.8536C10.7598 10.9473 10.6327 11 10.5001 11ZM13.0001 10.5C13.0001 10.3674 13.0527 10.2402 13.1465 10.1464C13.2403 10.0527 13.3674 10 13.5001 10H15.0001C15.1327 10 15.2598 10.0527 15.3536 10.1464C15.4474 10.2402 15.5001 10.3674 15.5001 10.5C15.5001 10.6326 15.4474 10.7598 15.3536 10.8536C15.2598 10.9473 15.1327 11 15.0001 11H13.5001C13.3674 11 13.2403 10.9473 13.1465 10.8536C13.0527 10.7598 13.0001 10.6326 13.0001 10.5ZM18.2732 15.9669C18.1795 16.1017 18.06 16.2166 17.9216 16.3049C17.7832 16.3932 17.6287 16.4532 17.4669 16.4812C17.2713 16.5155 17.0703 16.5028 16.8804 16.4442C16.6906 16.3857 16.5174 16.2829 16.3751 16.1444L14.4876 14H14.7501C15.3884 14.0001 16.0162 13.8372 16.574 13.5268C17.1318 13.2164 17.6011 12.7688 17.9376 12.2263L18.4838 15.0387C18.5116 15.1997 18.5073 15.3646 18.4712 15.5238C18.435 15.6831 18.3677 15.8337 18.2732 15.9669Z" fill="white"/>
</g>
<defs>
<clipPath id="clip0_90_454">
<rect width="16" height="16" fill="white" transform="translate(4 4)"/>
</clipPath>
</defs>
</svg>
