<svg width="24" height="24" viewBox="0 0 24 24" fill="none" xmlns="http://www.w3.org/2000/svg">
<rect width="24" height="24" rx="4" fill="#2C72FF"/>
<g clip-path="url(#clip0_90_452)">
<path d="M18 11.5V17.5C18 17.6326 17.9473 17.7598 17.8536 17.8535C17.7598 17.9473 17.6326 18 17.5 18H14C13.8674 18 13.7402 17.9473 13.6464 17.8535C13.5527 17.7598 13.5 17.6326 13.5 17.5V14.25C13.5 14.1837 13.4737 14.1201 13.4268 14.0732C13.3799 14.0263 13.3163 14 13.25 14H10.75C10.6837 14 10.6201 14.0263 10.5732 14.0732C10.5263 14.1201 10.5 14.1837 10.5 14.25V17.5C10.5 17.6326 10.4473 17.7598 10.3536 17.8535C10.2598 17.9473 10.1326 18 10 18H6.5C6.36739 18 6.24021 17.9473 6.14645 17.8535C6.05268 17.7598 6 17.6326 6 17.5V11.5C6.00012 11.2348 6.10556 10.9806 6.29312 10.7931L11.2931 5.79312C11.4806 5.60572 11.7349 5.50046 12 5.50046C12.2651 5.50046 12.5194 5.60572 12.7069 5.79312L17.7069 10.7931C17.8944 10.9806 17.9999 11.2348 18 11.5Z" fill="white"/>
</g>
<defs>
<clipPath id="clip0_90_452">
<rect width="16" height="16" fill="white" transform="translate(4 4)"/>
</clipPath>
</defs>
</svg>
