<svg width="537" height="12" viewBox="0 0 537 12" fill="none" xmlns="http://www.w3.org/2000/svg">
<path d="M152.045 7.34213C172.347 6.079 192.86 5.27823 213.466 4.79522C220.828 4.65223 228.191 4.51717 235.555 4.39165C263.516 4.01986 291.57 4.13427 319.43 4.37418C339.184 4.54419 358.938 4.79363 378.696 5.0113C365.274 5.17495 351.863 5.38945 338.478 5.62618C276.42 6.71931 214.2 8.32086 152.045 7.34213ZM408.26 2.65823C413.639 2.74721 419.019 2.86637 424.384 3.02049C404.388 2.92357 384.401 2.70589 364.407 2.4771C379.026 2.38972 393.643 2.41991 408.26 2.65823ZM534.439 7.30081C514.141 6.20292 493.734 5.51655 473.276 5.1257C475.419 4.58549 475.462 3.24609 472.254 3.01094C406.15 -1.84455 337.686 0.386183 270.761 1.41416C256.988 1.62548 243.217 1.85586 229.45 2.10849C224.645 2.18475 219.842 2.27531 215.043 2.38335C166.454 3.33983 117.928 4.62839 69.5865 6.56836C47.1907 7.46765 24.8435 8.50515 2.5627 9.68407C-1.92889 9.9224 -0.0154262 12.2183 4.44083 11.9831C44.191 9.8795 84.1319 8.27796 124.177 7.03231C121.808 7.63289 123.168 9.07079 126.462 9.16453C192.064 11.0314 257.964 9.49818 323.538 8.27955C388.932 7.06567 455.018 6.00273 520.147 8.97704C524.292 9.16611 528.428 9.37584 532.559 9.59828C537.016 9.83979 538.928 7.5439 534.439 7.30081Z" fill="#365CA7"/>
</svg>
