<svg width="310" height="383" viewBox="0 0 310 383" fill="none" xmlns="http://www.w3.org/2000/svg">
<path d="M251.048 7.87326L251.048 7.87327C250.307 7.8889 249.567 7.90408 248.826 7.91879L248.806 6.89698C247.326 6.92638 245.846 6.95394 244.365 6.97964L244.383 8.00149C242.902 8.02721 241.421 8.05107 239.94 8.07306L239.925 7.05116C238.445 7.07315 236.964 7.09327 235.484 7.11154L235.497 8.13347C234.016 8.15175 232.534 8.16816 231.053 8.18271L231.043 7.16074C229.563 7.17528 228.083 7.18795 226.602 7.19876L226.61 8.22075C225.129 8.23156 223.647 8.2405 222.166 8.24757L222.161 7.22557C220.681 7.23263 219.201 7.23783 217.72 7.24115L217.722 8.26316C216.241 8.26648 214.76 8.26793 213.279 8.2675L213.279 7.24548C211.799 7.24505 210.318 7.24274 208.838 7.23855L208.835 8.26056C208.094 8.25847 207.354 8.2559 206.613 8.25286C206.613 8.25286 206.613 8.25286 206.613 8.25286L206.617 7.23086C205.96 7.22824 205.303 7.22525 204.646 7.2219C203.332 7.2152 202.017 7.20704 200.703 7.19743L200.696 8.21941C199.381 8.20979 198.066 8.19872 196.751 8.18618L196.761 7.16421C195.446 7.15168 194.132 7.1377 192.818 7.12225L192.806 8.14419C191.491 8.12874 190.176 8.11182 188.861 8.09345L188.876 7.07153C187.561 7.05317 186.247 7.03334 184.933 7.01206L184.917 8.03394C183.602 8.01264 182.287 7.98989 180.972 7.96567L180.991 6.94383C179.677 6.91962 178.363 6.89396 177.049 6.86683L177.028 7.88862C175.713 7.86148 174.398 7.83288 173.084 7.80281L173.107 6.78106C171.793 6.75101 170.479 6.7195 169.165 6.68652L169.14 7.70821C167.825 7.67522 166.511 7.64076 165.196 7.60484L165.224 6.58321C163.91 6.54731 162.596 6.50995 161.283 6.47112L161.253 7.49268C159.938 7.45383 158.624 7.41352 157.309 7.37174L157.342 6.35024C156.028 6.30849 154.715 6.26527 153.401 6.22058L153.366 7.242C152.052 7.19729 150.738 7.15112 149.424 7.10347L149.461 6.08213C148.147 6.03452 146.834 5.98544 145.521 5.93489L145.481 6.95615C144.167 6.90558 142.853 6.85353 141.539 6.80002L141.581 5.77886C140.268 5.72538 138.955 5.67044 137.642 5.61403L137.598 6.6351C136.284 6.57866 134.97 6.52075 133.657 6.46137L133.703 5.4404C132.39 5.38106 131.077 5.32025 129.764 5.25797L129.716 6.27884C128.402 6.21653 127.089 6.15275 125.775 6.08749L125.826 5.06674C124.513 5.00153 123.201 4.93485 121.888 4.8667L121.835 5.88734C121.179 5.85325 120.522 5.81879 119.866 5.78396L251.048 7.87326ZM251.048 7.87326C251.769 7.85794 252.49 7.83762 253.211 7.81303L253.176 6.79161C254.608 6.74278 256.041 6.67691 257.475 6.59947L257.53 7.62C258.966 7.54244 260.402 7.45337 261.837 7.35828L261.77 6.3385C263.2 6.24374 264.631 6.14288 266.062 6.04133L266.135 7.06079L266.669 7.02283C267.922 6.93389 269.173 6.84506 270.424 6.75981L270.355 5.74016C271.786 5.64263 273.218 5.5498 274.649 5.46704L274.708 6.48735C276.136 6.40478 277.562 6.33237 278.987 6.27542L278.946 5.25422C280.381 5.1969 281.814 5.15514 283.247 5.13435L283.262 6.15626C284.687 6.13559 286.11 6.13584 287.531 6.16234L287.55 5.1405C288.984 5.16725 290.418 5.22054 291.849 5.30584L291.789 6.32604C292.497 6.36822 293.204 6.41829 293.911 6.47692L293.995 5.4584L293.911 6.47693C294.527 6.52799 295.135 6.65131 295.733 6.84937L296.054 5.87924C297.305 6.29396 298.513 6.99768 299.658 8.00406L298.984 8.77178C299.87 9.5505 300.731 10.5398 301.553 11.7581L302.4 11.1869C303.121 12.2568 303.804 13.4815 304.442 14.8657L303.514 15.2934C304.044 16.445 304.546 17.7166 305.013 19.1124L305.982 18.7882C306.401 20.0423 306.792 21.3895 307.151 22.832L306.16 23.079C306.477 24.3534 306.77 25.7059 307.037 27.1381L308.041 26.9512C308.287 28.2722 308.51 29.658 308.709 31.1099L307.696 31.2485C307.789 31.9249 307.876 32.6161 307.958 33.3223L308.973 33.2047L307.958 33.3224C308.04 34.0286 308.116 34.742 308.186 35.462L309.203 35.3627C309.342 36.7836 309.459 38.2287 309.557 39.6938L308.537 39.7618C308.632 41.1814 308.708 42.6206 308.77 44.0758L309.791 44.0328C309.851 45.4669 309.896 46.9154 309.929 48.3746L308.907 48.3976C308.94 49.8308 308.96 51.275 308.97 52.7266L309.992 52.7195C310.002 54.1623 310.002 55.6117 309.995 57.0644L308.973 57.0594C308.966 58.5021 308.951 59.9485 308.932 61.3952L309.954 61.4092C309.934 62.8586 309.909 64.3078 309.881 65.7533L308.859 65.7335C308.831 67.1852 308.8 68.6335 308.768 70.0752L309.79 70.0978C309.776 70.7101 309.763 71.321 309.749 71.9304C309.73 72.7707 309.712 73.6079 309.693 74.4415L308.672 74.4191C308.64 75.8801 308.609 77.3306 308.583 78.7664L309.605 78.7851C309.578 80.2507 309.555 81.7005 309.539 83.1306L308.517 83.1192C308.509 83.8496 308.503 84.575 308.499 85.295L308.487 87.3875L309.509 87.3934L309.484 91.5784L308.462 91.5725L308.438 95.7575L309.46 95.7634L309.436 99.9484L308.414 99.9425L308.39 104.127L309.412 104.133L309.388 108.318L308.366 108.312L308.341 112.497L309.363 112.503L309.339 116.688L308.317 116.682L308.293 120.867L309.315 120.873L309.291 125.058L308.269 125.052L308.245 129.237L309.267 129.243L309.242 133.428L308.22 133.422L308.196 137.607L309.218 137.613L309.194 141.798L308.172 141.792L308.16 143.885L308.148 145.977L309.17 145.983L309.145 150.168L308.123 150.162L308.099 154.347L309.121 154.353L309.097 158.538L308.075 158.532L308.051 162.717L309.073 162.723L309.049 166.908L308.027 166.902L308.002 171.087L309.024 171.093L309 175.278L307.978 175.272L307.954 179.457L308.976 179.463L308.952 183.648L307.93 183.642L307.906 187.827L308.928 187.833L308.903 192.018L307.881 192.012L307.857 196.197L308.879 196.203L308.855 200.388L307.833 200.382L307.821 202.475L307.809 204.567L308.831 204.573L308.806 208.758L307.784 208.752L307.76 212.937L308.782 212.943L308.758 217.128L307.736 217.122L307.712 221.307L308.734 221.313L308.71 225.498L307.688 225.492L307.663 229.677L308.685 229.683L308.661 233.868L307.639 233.862L307.615 238.047L308.637 238.053L308.613 242.238L307.591 242.232L307.567 246.417L308.589 246.423L308.564 250.608L307.542 250.602L307.518 254.787L308.54 254.793L308.516 258.978L307.494 258.972L307.47 263.157L308.492 263.163L308.467 267.348L307.445 267.342L307.421 271.527L308.443 271.533L308.419 275.718L307.397 275.712L307.373 279.897L308.395 279.903L308.371 284.088L307.349 284.082L307.324 288.267L308.346 288.273L308.322 292.458L307.3 292.452L307.276 296.637L308.298 296.643L308.274 300.828L307.252 300.822L307.228 305.007L308.25 305.013L308.225 309.197L307.203 309.192L307.179 313.377L308.201 313.382L308.177 317.567L307.155 317.562L307.143 319.654C307.139 320.302 307.137 320.953 307.135 321.608L308.157 321.61C308.154 322.899 308.154 324.201 308.154 325.512L307.132 325.512C307.133 325.869 307.133 326.226 307.133 326.583C307.134 327.524 307.135 328.467 307.134 329.413L308.156 329.413C308.156 330.712 308.154 332.014 308.147 333.315L307.125 333.31C307.119 334.61 307.108 335.909 307.091 337.203L308.113 337.217C308.095 338.524 308.07 339.826 308.036 341.118L307.015 341.091C306.98 342.397 306.936 343.693 306.88 344.973L307.901 345.018C307.843 346.333 307.772 347.634 307.686 348.915L306.666 348.846C306.578 350.155 306.473 351.443 306.349 352.703L307.366 352.804C307.236 354.124 307.084 355.417 306.908 356.676L305.895 356.535C305.713 357.841 305.503 359.108 305.263 360.329L306.266 360.526C306.007 361.844 305.713 363.113 305.379 364.325L304.394 364.053C304.042 365.327 303.646 366.53 303.203 367.652L304.153 368.028C303.652 369.294 303.09 370.468 302.457 371.537L301.577 371.016C301.256 371.559 300.918 372.07 300.562 372.548C300.257 372.957 299.947 373.323 299.632 373.649L300.368 374.358C299.574 375.182 298.74 375.798 297.877 376.252M251.048 7.87326L297.877 376.252M117.804 4.65007C116.394 4.57369 114.983 4.49565 113.573 4.41593L113.516 5.43631C112.105 5.35655 110.694 5.27512 109.283 5.192L109.343 4.17176C107.933 4.08871 106.523 4.00397 105.113 3.91756L105.051 4.93766C103.64 4.85121 102.23 4.76307 100.82 4.67325L100.884 3.65331C99.475 3.56355 98.0656 3.47211 96.6562 3.37899L96.5888 4.39878C95.1787 4.30562 93.7687 4.21077 92.3587 4.11423L92.4285 3.0946C91.0195 2.99813 89.6105 2.89997 88.2015 2.80012L88.1292 3.81958C86.7197 3.71969 85.3101 3.6181 83.9005 3.51483L83.9752 2.49554C82.5667 2.39234 81.1582 2.28745 79.7497 2.18086L79.6726 3.19996C78.968 3.14664 78.2634 3.09289 77.5589 3.03872C76.9347 2.99078 76.2866 2.93933 75.6167 2.88514L75.6991 1.86645C74.6106 1.7784 73.4633 1.683 72.2666 1.58348C72.112 1.57062 71.9566 1.5577 71.8004 1.54472L71.7158 2.56322C70.4682 2.45951 69.1702 2.35196 67.8314 2.24404L67.9135 1.22534C66.6491 1.12343 65.3482 1.02119 64.0193 0.921598L63.9429 1.94075C62.6696 1.84533 61.371 1.75238 60.0545 1.66454L60.1226 0.644791C58.838 0.559067 57.5362 0.478163 56.2242 0.404515L56.1669 1.42492C54.8785 1.3526 53.5807 1.28732 52.2801 1.2314L52.324 0.210328C51.0242 0.154439 49.7213 0.107837 48.4217 0.0728215L48.3942 1.09446C47.093 1.0594 45.7959 1.03603 44.5097 1.02665L44.5172 0.00466288C43.2023 -0.00492784 41.8981 1.16648e-05 40.6114 0.0219385L40.6288 1.0438C39.3156 1.06618 38.0221 1.10637 36.756 1.16692L36.7072 0.146078C35.377 0.209701 34.0753 0.295675 32.8108 0.407011L32.9005 1.42509C31.5797 1.54138 30.3031 1.68541 29.0805 1.86039L28.9357 0.848689C27.588 1.04157 26.3013 1.27192 25.0884 1.54429L25.3124 2.54147C24.6779 2.68396 24.0664 2.83775 23.4795 3.00334L23.4795 3.00335C22.7769 3.20158 22.1152 3.41261 21.4904 3.64022L21.1405 2.67994C19.693 3.20727 18.4148 3.82737 17.273 4.58723L17.8393 5.43804C16.7293 6.17678 15.7597 7.05626 14.8902 8.13314L14.0951 7.49111C13.255 8.53151 12.5055 9.73964 11.8192 11.1548L12.7387 11.6008C12.1876 12.737 11.6735 14.0235 11.1824 15.4876L10.2134 15.1626C9.7909 16.4222 9.38827 17.8007 8.99595 19.3118L9.98517 19.5687C9.65154 20.8538 9.32459 22.2393 8.99833 23.7349L7.9998 23.517C7.71027 24.8443 7.42192 26.2546 7.13057 27.7541L8.13382 27.949C7.87394 29.2865 7.61145 30.6963 7.34333 32.1829L6.33755 32.0015C6.09294 33.3577 5.84386 34.7767 5.58802 36.2617L6.59519 36.4353C6.36011 37.7998 6.11925 39.2205 5.87082 40.7002L4.86292 40.531C4.6331 41.8998 4.39689 43.3185 4.15289 44.7891L5.16112 44.9564C5.04428 45.6606 4.92566 46.3768 4.80508 47.1051L4.80507 47.1051C4.69756 47.7543 4.59367 48.4057 4.49322 49.0591L3.48308 48.9038C3.28221 50.2104 3.09512 51.5247 2.92051 52.846L3.93371 52.9799C3.76138 54.284 3.6012 55.5953 3.45191 56.9134L2.43639 56.7984C2.28757 58.1124 2.14957 59.4326 2.02114 60.7584L3.03839 60.857C2.91133 62.1686 2.79364 63.4861 2.68409 64.809L1.66557 64.7246C1.55636 66.0434 1.45526 67.3671 1.36105 68.6951L2.3805 68.7675C2.28711 70.0841 2.20049 71.4053 2.11946 72.7306L1.09935 72.6683C1.01855 73.99 0.943327 75.3154 0.87251 76.6439L1.89307 76.6983C1.82269 78.0187 1.75666 79.3426 1.69382 80.6693L0.672953 80.621C0.610269 81.9445 0.550781 83.2707 0.49335 84.5988L1.51441 84.643C1.45719 85.9663 1.402 87.2918 1.34771 88.6192L0.326555 88.5775C0.280464 89.7045 0.235033 90.8326 0.189571 91.9615C0.181589 92.1597 0.173606 92.3579 0.165618 92.5562L1.1868 92.5973C1.16009 93.2603 1.13332 93.9236 1.10636 94.5871C1.0789 95.2628 1.05846 95.9621 1.04458 96.6835L0.0227531 96.6638C-0.00314737 98.01 -0.00632835 99.4293 0.0101221 100.911L1.03207 100.9C1.04715 102.258 1.07883 103.671 1.12476 105.13L0.103256 105.162C0.146661 106.541 0.202702 107.96 0.269362 109.413L1.2903 109.366C1.35367 110.747 1.42668 112.158 1.50761 113.595L0.487217 113.652C0.565689 115.045 0.651559 116.461 0.743245 117.895L1.76317 117.829C1.85254 119.227 1.94745 120.641 2.04645 122.068L1.02689 122.139C1.12419 123.541 1.22541 124.955 1.32916 126.376L2.34846 126.301C2.45119 127.708 2.55641 129.122 2.66279 130.539L1.64365 130.615C1.74349 131.945 1.84432 133.276 1.94502 134.606C1.95126 134.689 1.9575 134.771 1.96374 134.853L2.98284 134.776C3.09011 136.193 3.1972 137.608 3.30271 139.016L2.28355 139.093C2.38996 140.513 2.49477 141.927 2.59658 143.329L3.61591 143.255C3.71966 144.684 3.82033 146.101 3.91643 147.502L2.89682 147.572C2.99513 149.005 3.08864 150.42 3.17578 151.813L4.1958 151.749C4.28598 153.191 4.36937 154.608 4.44423 155.996L3.4237 156.051C3.50196 157.503 3.57084 158.921 3.62832 160.299L4.64944 160.256C4.71071 161.726 4.75913 163.151 4.79224 164.524L3.77053 164.549C3.80624 166.03 3.82403 167.449 3.82083 168.796L4.84284 168.799C4.8411 169.532 4.83317 170.246 4.81855 170.937C4.80376 171.637 4.78928 172.334 4.7751 173.028L3.7533 173.008C3.72471 174.408 3.69734 175.798 3.67119 177.18L4.69302 177.199C4.66652 178.598 4.64126 179.987 4.61723 181.368L3.59538 181.35C3.57101 182.75 3.5479 184.142 3.52603 185.524L4.54792 185.541C4.52579 186.94 4.50494 188.331 4.48533 189.714L3.46342 189.7C3.4436 191.099 3.42506 192.49 3.40778 193.874L4.42971 193.887C4.41227 195.283 4.39612 196.673 4.38122 198.057L3.35927 198.046C3.34424 199.443 3.3305 200.833 3.31803 202.219L4.34 202.228C4.32743 203.624 4.31615 205.015 4.30613 206.402L3.28415 206.394C3.27407 207.79 3.26527 209.181 3.25773 210.568L4.27973 210.574C4.27216 211.967 4.26587 213.358 4.26083 214.745L3.23882 214.742C3.23376 216.135 3.22996 217.526 3.2274 218.915L4.24941 218.917C4.24684 220.309 4.24552 221.7 4.24543 223.09L3.22341 223.09C3.22332 224.481 3.22445 225.872 3.22679 227.263L4.2488 227.262C4.25113 228.652 4.25467 230.042 4.25939 231.434L3.23738 231.438C3.24209 232.827 3.24797 234.218 3.25501 235.611L4.27701 235.606C4.28403 236.994 4.29218 238.384 4.30147 239.778L3.27948 239.785C3.28872 241.172 3.29908 242.563 3.31053 243.959L4.33251 243.95C4.34389 245.337 4.35636 246.728 4.36988 248.124L3.34791 248.134C3.36133 249.519 3.37579 250.91 3.39127 252.306L4.41322 252.295C4.42857 253.679 4.44492 255.069 4.46226 256.466L3.44033 256.479C3.45751 257.863 3.47565 259.254 3.49475 260.653L4.51667 260.639C4.53556 262.023 4.55538 263.414 4.57611 264.813L3.55421 264.828C3.5747 266.211 3.59608 267.602 3.61833 269.002L4.64021 268.986C4.66216 270.367 4.68495 271.757 4.70858 273.156L3.68671 273.174C3.71004 274.555 3.73417 275.945 3.75909 277.346L4.78095 277.328C4.79331 278.022 4.80587 278.72 4.81863 279.419C4.8312 280.109 4.84054 280.799 4.84691 281.491L3.82494 281.5C3.83757 282.872 3.83845 284.249 3.82956 285.629L4.85155 285.636C4.84267 287.014 4.82409 288.395 4.79777 289.776L3.77595 289.756C3.74974 291.132 3.71585 292.508 3.67621 293.883L4.6978 293.913C4.65804 295.292 4.61253 296.671 4.56324 298.046L3.54188 298.009C3.49247 299.388 3.43923 300.764 3.38415 302.135L4.40534 302.176C4.3499 303.557 4.29259 304.932 4.23546 306.301L3.21434 306.258C3.21078 306.344 3.20722 306.429 3.20367 306.514C3.14953 307.811 3.09563 309.102 3.04371 310.385L4.06489 310.426C4.00891 311.81 3.95524 313.184 3.90603 314.546L2.88468 314.51C2.8346 315.897 2.78911 317.272 2.75048 318.635L3.77208 318.664C3.73274 320.051 3.70054 321.424 3.67788 322.781L2.65601 322.764C2.63274 324.157 2.61947 325.533 2.6188 326.889L3.64081 326.89C3.64012 328.281 3.65275 329.652 3.68145 330.998L2.65967 331.02C2.68954 332.421 2.73673 333.797 2.80438 335.145L3.82511 335.094C3.89489 336.485 3.98651 337.844 4.10335 339.169L3.08529 339.258C3.2094 340.665 3.36182 342.036 3.54663 343.366L4.55892 343.225C4.75114 344.608 4.97844 345.943 5.24516 347.227L4.24453 347.435C4.53369 348.826 4.86905 350.161 5.25638 351.435L6.23418 351.138C6.63777 352.465 7.09731 353.717 7.61848 354.889L6.68463 355.304C7.26145 356.602 7.9141 357.811 8.65114 358.924L9.50337 358.36C9.86899 358.913 10.2553 359.439 10.6632 359.937L9.87214 360.584L10.6633 359.937C11.0707 360.436 11.4802 360.918 11.8917 361.386L11.1242 362.061C12.0036 363.061 12.8928 363.996 13.7908 364.869L14.5034 364.137C15.435 365.043 16.3754 365.881 17.3232 366.658L16.6757 367.448C17.6992 368.286 18.7322 369.055 19.7731 369.76L20.3462 368.914C21.4123 369.635 22.4867 370.289 23.5679 370.882L23.0766 371.778C24.2278 372.409 25.3866 372.973 26.5508 373.478L26.9576 372.541C28.128 373.048 29.3053 373.496 30.4876 373.892L30.163 374.861C31.3982 375.274 32.6372 375.633 33.8777 375.945L34.1273 374.954C35.3637 375.266 36.6037 375.531 37.8454 375.761L37.6592 376.766C38.935 377.003 40.2098 377.201 41.4812 377.373L41.618 376.36C42.8899 376.532 44.1605 376.677 45.4284 376.806L45.3251 377.823C46.617 377.954 47.9025 378.068 49.1791 378.177L49.266 377.159C49.7753 377.202 50.2831 377.245 50.7902 377.287L51.1921 377.321C51.8963 377.38 52.6004 377.439 53.3046 377.497L53.22 378.516C54.6291 378.633 56.0382 378.748 57.4473 378.863L57.5302 377.844C58.9389 377.959 60.3477 378.072 61.7565 378.185L61.6752 379.204C63.0846 379.316 64.494 379.428 65.9034 379.539L65.9836 378.52C67.3928 378.631 68.8021 378.741 70.2113 378.851L70.132 379.87C71.5416 379.98 72.9513 380.089 74.3609 380.198L74.4396 379.179C75.8491 379.288 77.2587 379.396 78.6683 379.505L78.5899 380.524C79.5538 380.598 80.5177 380.672 81.4816 380.746C81.9274 380.78 82.3731 380.814 82.8189 380.849L82.8973 379.83C84.307 379.938 85.7167 380.047 87.1265 380.155L87.0479 381.174C88.4576 381.283 89.8672 381.392 91.2769 381.501L91.3559 380.482C92.0608 380.537 92.7658 380.592 93.4707 380.647C94.1707 380.701 94.8724 380.752 95.5758 380.799L95.5077 381.819C96.9157 381.913 98.33 381.992 99.75 382.057L99.7967 381.036C101.199 381.1 102.607 381.15 104.02 381.188L103.993 382.209C105.404 382.247 106.82 382.271 108.241 382.284L108.25 381.262C109.656 381.274 111.067 381.274 112.481 381.263L112.489 382.285C113.901 382.275 115.317 382.253 116.735 382.221L116.712 381.199C118.12 381.167 119.531 381.125 120.944 381.074L120.981 382.096C122.394 382.044 123.809 381.984 125.226 381.915L125.176 380.894C126.584 380.826 127.994 380.749 129.405 380.664L129.467 381.684C130.878 381.599 132.291 381.507 133.705 381.408L133.634 380.388C135.042 380.289 136.451 380.184 137.861 380.072L137.942 381.09C139.352 380.978 140.763 380.86 142.174 380.737L142.085 379.719C143.493 379.595 144.901 379.467 146.308 379.333L146.405 380.351C147.815 380.217 149.224 380.079 150.632 379.937L150.529 378.92C151.937 378.778 153.344 378.632 154.749 378.483L154.857 379.499C156.267 379.349 157.675 379.196 159.08 379.041L158.968 378.025C160.376 377.87 161.782 377.712 163.186 377.552L163.301 378.568C164.711 378.407 166.118 378.245 167.521 378.082L167.403 377.067C168.813 376.903 170.219 376.738 171.621 376.573L171.741 377.588C172.968 377.444 174.193 377.299 175.414 377.155C175.595 377.134 175.777 377.113 175.958 377.091L175.839 376.076C177.25 375.91 178.657 375.744 180.058 375.579L180.177 376.594C181.59 376.429 182.997 376.265 184.397 376.103L184.28 375.087C185.693 374.924 187.101 374.763 188.501 374.606L188.616 375.621C190.031 375.462 191.439 375.306 192.84 375.154L192.729 374.138C193.435 374.061 194.139 373.986 194.841 373.911L194.929 373.902L195.017 373.908C195.318 373.928 195.618 373.949 195.919 373.97C196.305 373.996 196.691 374.024 197.077 374.051L197.004 375.071C198.373 375.169 199.743 375.273 201.113 375.382L201.194 374.363C202.565 374.473 203.936 374.586 205.307 374.704L205.22 375.722C206.587 375.84 207.956 375.961 209.324 376.085L209.417 375.067C210.785 375.191 212.154 375.318 213.524 375.446L213.428 376.464C214.795 376.592 216.163 376.722 217.531 376.853L217.628 375.835C218.995 375.966 220.363 376.097 221.73 376.228L221.633 377.246C223 377.377 224.367 377.507 225.735 377.637L225.831 376.619C227.198 376.748 228.565 376.876 229.932 377.002L229.838 378.019C231.206 378.145 232.574 378.268 233.943 378.388L234.032 377.37C235.399 377.49 236.765 377.606 238.132 377.718L238.049 378.737C239.418 378.849 240.787 378.957 242.157 379.059L242.233 378.04C243.601 378.143 244.968 378.239 246.335 378.33L246.268 379.35C247.639 379.44 249.01 379.524 250.381 379.601L250.438 378.581C251.806 378.657 253.174 378.726 254.542 378.787L254.496 379.808C255.869 379.869 257.242 379.921 258.614 379.964L258.646 378.942C260.015 378.985 261.383 379.018 262.751 379.04L262.734 380.062C264.108 380.085 265.481 380.096 266.855 380.097L266.855 379.075C268.223 379.075 269.591 379.064 270.957 379.039L270.975 380.061C272.349 380.037 273.722 380 275.095 379.95L275.057 378.928C276.423 378.878 277.788 378.814 279.152 378.735L279.211 379.755C280.582 379.676 281.952 379.582 283.322 379.472L283.24 378.454C284.601 378.345 285.961 378.22 287.32 378.078L287.426 379.095C288.79 378.953 290.155 378.794 291.518 378.617L291.387 377.604C292.063 377.516 292.74 377.424 293.416 377.327M117.804 4.65007L294.358 378.151L294.035 377.181C293.833 377.248 293.627 377.297 293.416 377.327M117.804 4.65007L117.749 5.67058C118.454 5.70879 119.16 5.74659 119.865 5.78396L117.804 4.65007ZM293.416 377.327L293.56 378.339L293.415 377.328C293.415 377.328 293.415 377.327 293.416 377.327ZM297.877 376.252L297.401 375.347C296.981 375.568 296.551 375.747 296.114 375.89L295.895 375.961L295.728 376.119C295.553 376.285 295.375 376.434 295.196 376.566L295.803 377.389L297.877 376.252Z" fill="white" fill-opacity="0.2" stroke="white" stroke-width="2.04403" stroke-dasharray="4.09 4.09"/>
<path d="M292.525 46.8388C290.598 29.8638 285.299 22.0558 279.147 21.5354C266.402 20.456 253.522 22.5291 240.768 22.8059C227.547 23.091 214.325 23.2072 201.103 23.1519C175.29 23.0467 149.476 22.2994 123.667 20.9016C111.078 20.2207 98.489 19.3876 85.9015 18.3995C73.3732 17.4169 49.7804 14.7986 37.2813 18.3995C26.2032 21.5908 24.9252 28.6737 19.9491 59.3632C17.7136 73.147 17.2255 87.916 16.634 102.779C15.933 120.391 20.3156 154.733 19.949 172.425C19.2169 207.795 19.3174 236.007 19.9491 271.393C20.4673 300.403 14.8175 332.215 25.3754 345.395C36.6955 359.53 49.9881 360.541 62.205 361.587C74.7935 362.666 87.3841 363.618 99.9726 364.62C129.326 366.956 161.9 361.587 190.681 358.476C219.924 360.485 249.536 365.849 278.759 361.587C279.704 361.448 280.558 360.978 281.322 360.239C282.901 359.713 284.404 358.7 285.744 356.862C292.608 347.449 291.701 326.106 291.803 308.074C292.005 272.452 292.207 236.833 292.409 201.211C292.61 165.589 292.812 129.97 293.014 94.3484C293.101 79.2777 294.186 61.4668 292.525 46.8388Z" fill="white"/>
<path d="M96.4755 299L101.452 287.72H102.604L107.66 299H106.284L104.876 295.784L105.468 296.12H98.5715L99.2115 295.784L97.8355 299H96.4755ZM102.012 289.24L99.4195 295.32L99.0355 295.032H104.988L104.7 295.32L102.044 289.24H102.012ZM109.217 302.456V292.824C109.217 292.525 109.201 292.221 109.169 291.912C109.148 291.592 109.121 291.277 109.089 290.968H110.337L110.513 292.872H110.321C110.492 292.243 110.838 291.747 111.361 291.384C111.884 291.011 112.508 290.824 113.233 290.824C113.958 290.824 114.582 290.989 115.105 291.32C115.638 291.651 116.054 292.125 116.353 292.744C116.652 293.363 116.801 294.109 116.801 294.984C116.801 295.848 116.652 296.589 116.353 297.208C116.065 297.827 115.654 298.307 115.121 298.648C114.588 298.979 113.958 299.144 113.233 299.144C112.518 299.144 111.9 298.963 111.377 298.6C110.854 298.237 110.508 297.741 110.337 297.112H110.513V302.456H109.217ZM112.977 298.088C113.745 298.088 114.353 297.827 114.801 297.304C115.26 296.771 115.489 295.997 115.489 294.984C115.489 293.96 115.26 293.187 114.801 292.664C114.353 292.131 113.745 291.864 112.977 291.864C112.22 291.864 111.612 292.131 111.153 292.664C110.705 293.187 110.481 293.96 110.481 294.984C110.481 295.997 110.705 296.771 111.153 297.304C111.612 297.827 112.22 298.088 112.977 298.088ZM118.811 302.456V292.824C118.811 292.525 118.795 292.221 118.763 291.912C118.742 291.592 118.715 291.277 118.683 290.968H119.931L120.107 292.872H119.915C120.086 292.243 120.432 291.747 120.955 291.384C121.478 291.011 122.102 290.824 122.827 290.824C123.552 290.824 124.176 290.989 124.699 291.32C125.232 291.651 125.648 292.125 125.947 292.744C126.246 293.363 126.395 294.109 126.395 294.984C126.395 295.848 126.246 296.589 125.947 297.208C125.659 297.827 125.248 298.307 124.715 298.648C124.182 298.979 123.552 299.144 122.827 299.144C122.112 299.144 121.494 298.963 120.971 298.6C120.448 298.237 120.102 297.741 119.931 297.112H120.107V302.456H118.811ZM122.571 298.088C123.339 298.088 123.947 297.827 124.395 297.304C124.854 296.771 125.083 295.997 125.083 294.984C125.083 293.96 124.854 293.187 124.395 292.664C123.947 292.131 123.339 291.864 122.571 291.864C121.814 291.864 121.206 292.131 120.747 292.664C120.299 293.187 120.075 293.96 120.075 294.984C120.075 295.997 120.299 296.771 120.747 297.304C121.206 297.827 121.814 298.088 122.571 298.088ZM131.973 299.144C130.714 299.144 129.722 298.781 128.997 298.056C128.271 297.32 127.909 296.301 127.909 295C127.909 294.157 128.069 293.427 128.389 292.808C128.709 292.179 129.157 291.693 129.733 291.352C130.309 291 130.97 290.824 131.717 290.824C132.453 290.824 133.071 290.979 133.573 291.288C134.074 291.597 134.458 292.04 134.725 292.616C134.991 293.181 135.125 293.853 135.125 294.632V295.112H128.901V294.296H134.277L134.005 294.504C134.005 293.651 133.813 292.984 133.429 292.504C133.045 292.024 132.474 291.784 131.717 291.784C130.917 291.784 130.293 292.067 129.845 292.632C129.397 293.187 129.173 293.939 129.173 294.888V295.032C129.173 296.035 129.418 296.797 129.909 297.32C130.41 297.832 131.109 298.088 132.005 298.088C132.485 298.088 132.933 298.019 133.349 297.88C133.775 297.731 134.181 297.491 134.565 297.16L135.013 298.072C134.661 298.413 134.213 298.68 133.669 298.872C133.135 299.053 132.57 299.144 131.973 299.144ZM140.164 299.144C139.449 299.144 138.825 298.979 138.292 298.648C137.758 298.307 137.342 297.827 137.044 297.208C136.756 296.589 136.612 295.848 136.612 294.984C136.612 294.109 136.756 293.363 137.044 292.744C137.342 292.125 137.758 291.651 138.292 291.32C138.825 290.989 139.449 290.824 140.164 290.824C140.889 290.824 141.513 291.011 142.036 291.384C142.569 291.747 142.921 292.243 143.092 292.872H142.9L143.076 290.968H144.324C144.292 291.277 144.26 291.592 144.228 291.912C144.206 292.221 144.196 292.525 144.196 292.824V299H142.9V297.112H143.076C142.905 297.741 142.553 298.237 142.02 298.6C141.486 298.963 140.868 299.144 140.164 299.144ZM140.42 298.088C141.188 298.088 141.796 297.827 142.244 297.304C142.692 296.771 142.916 295.997 142.916 294.984C142.916 293.96 142.692 293.187 142.244 292.664C141.796 292.131 141.188 291.864 140.42 291.864C139.662 291.864 139.054 292.131 138.596 292.664C138.148 293.187 137.924 293.96 137.924 294.984C137.924 295.997 138.148 296.771 138.596 297.304C139.054 297.827 139.662 298.088 140.42 298.088ZM146.702 299V287.224H147.998V299H146.702ZM153.186 299.144C152.546 299.144 151.949 299.059 151.394 298.888C150.839 298.707 150.381 298.456 150.018 298.136L150.466 297.224C150.861 297.533 151.287 297.763 151.746 297.912C152.215 298.061 152.701 298.136 153.202 298.136C153.842 298.136 154.322 298.024 154.642 297.8C154.973 297.565 155.138 297.245 155.138 296.84C155.138 296.531 155.031 296.285 154.818 296.104C154.615 295.912 154.279 295.763 153.81 295.656L152.322 295.352C151.639 295.203 151.127 294.952 150.786 294.6C150.445 294.237 150.274 293.779 150.274 293.224C150.274 292.755 150.397 292.344 150.642 291.992C150.887 291.629 151.245 291.347 151.714 291.144C152.183 290.931 152.733 290.824 153.362 290.824C153.949 290.824 154.487 290.915 154.978 291.096C155.479 291.267 155.895 291.517 156.226 291.848L155.762 292.744C155.442 292.435 155.074 292.205 154.658 292.056C154.253 291.896 153.831 291.816 153.394 291.816C152.765 291.816 152.29 291.944 151.97 292.2C151.661 292.445 151.506 292.771 151.506 293.176C151.506 293.485 151.602 293.741 151.794 293.944C151.997 294.136 152.306 294.28 152.722 294.376L154.21 294.68C154.935 294.84 155.474 295.091 155.826 295.432C156.189 295.763 156.37 296.211 156.37 296.776C156.37 297.256 156.237 297.677 155.97 298.04C155.703 298.392 155.33 298.664 154.85 298.856C154.381 299.048 153.826 299.144 153.186 299.144ZM165.471 299.144C164.682 299.144 164.079 298.92 163.663 298.472C163.247 298.013 163.039 297.325 163.039 296.408V291.976H161.471V290.968H163.039V288.776L164.335 288.408V290.968H166.639V291.976H164.335V296.264C164.335 296.904 164.442 297.363 164.655 297.64C164.879 297.907 165.21 298.04 165.647 298.04C165.85 298.04 166.031 298.024 166.191 297.992C166.351 297.949 166.495 297.901 166.623 297.848V298.936C166.474 299 166.293 299.048 166.079 299.08C165.877 299.123 165.674 299.144 165.471 299.144ZM171.435 299.144C170.667 299.144 169.995 298.979 169.419 298.648C168.854 298.307 168.416 297.827 168.107 297.208C167.798 296.579 167.643 295.837 167.643 294.984C167.643 294.12 167.798 293.379 168.107 292.76C168.416 292.141 168.854 291.667 169.419 291.336C169.995 290.995 170.667 290.824 171.435 290.824C172.214 290.824 172.886 290.995 173.451 291.336C174.027 291.667 174.47 292.141 174.779 292.76C175.099 293.379 175.259 294.12 175.259 294.984C175.259 295.837 175.099 296.579 174.779 297.208C174.47 297.827 174.027 298.307 173.451 298.648C172.886 298.979 172.214 299.144 171.435 299.144ZM171.435 298.088C172.203 298.088 172.811 297.827 173.259 297.304C173.707 296.771 173.931 295.997 173.931 294.984C173.931 293.96 173.702 293.187 173.243 292.664C172.795 292.131 172.192 291.864 171.435 291.864C170.678 291.864 170.075 292.131 169.627 292.664C169.179 293.187 168.955 293.96 168.955 294.984C168.955 295.997 169.179 296.771 169.627 297.304C170.075 297.827 170.678 298.088 171.435 298.088ZM185.484 299.144C184.758 299.144 184.134 298.963 183.612 298.6C183.089 298.227 182.737 297.72 182.556 297.08H182.732V299H181.452V287.224H182.748V292.84H182.556C182.737 292.221 183.089 291.731 183.612 291.368C184.134 291.005 184.758 290.824 185.484 290.824C186.209 290.824 186.833 290.995 187.356 291.336C187.889 291.667 188.3 292.141 188.588 292.76C188.886 293.379 189.036 294.12 189.036 294.984C189.036 295.848 188.886 296.589 188.588 297.208C188.289 297.827 187.873 298.307 187.34 298.648C186.817 298.979 186.198 299.144 185.484 299.144ZM185.212 298.088C185.969 298.088 186.577 297.827 187.036 297.304C187.494 296.781 187.724 296.008 187.724 294.984C187.724 293.96 187.494 293.187 187.036 292.664C186.577 292.131 185.969 291.864 185.212 291.864C184.454 291.864 183.846 292.131 183.388 292.664C182.94 293.187 182.716 293.96 182.716 294.984C182.716 295.997 182.94 296.771 183.388 297.304C183.846 297.827 184.454 298.088 185.212 298.088ZM194.341 299.144C193.573 299.144 192.901 298.979 192.325 298.648C191.76 298.307 191.323 297.827 191.013 297.208C190.704 296.579 190.549 295.837 190.549 294.984C190.549 294.12 190.704 293.379 191.013 292.76C191.323 292.141 191.76 291.667 192.325 291.336C192.901 290.995 193.573 290.824 194.341 290.824C195.12 290.824 195.792 290.995 196.357 291.336C196.933 291.667 197.376 292.141 197.685 292.76C198.005 293.379 198.165 294.12 198.165 294.984C198.165 295.837 198.005 296.579 197.685 297.208C197.376 297.827 196.933 298.307 196.357 298.648C195.792 298.979 195.12 299.144 194.341 299.144ZM194.341 298.088C195.109 298.088 195.717 297.827 196.165 297.304C196.613 296.771 196.837 295.997 196.837 294.984C196.837 293.96 196.608 293.187 196.149 292.664C195.701 292.131 195.099 291.864 194.341 291.864C193.584 291.864 192.981 292.131 192.533 292.664C192.085 293.187 191.861 293.96 191.861 294.984C191.861 295.997 192.085 296.771 192.533 297.304C192.981 297.827 193.584 298.088 194.341 298.088ZM202.956 299.144C202.166 299.144 201.564 298.92 201.148 298.472C200.732 298.013 200.524 297.325 200.524 296.408V291.976H198.956V290.968H200.524V288.776L201.82 288.408V290.968H204.124V291.976H201.82V296.264C201.82 296.904 201.926 297.363 202.14 297.64C202.364 297.907 202.694 298.04 203.132 298.04C203.334 298.04 203.516 298.024 203.676 297.992C203.836 297.949 203.98 297.901 204.108 297.848V298.936C203.958 299 203.777 299.048 203.564 299.08C203.361 299.123 203.158 299.144 202.956 299.144ZM205.702 299V287.224H206.998V292.744H206.789C207.014 292.115 207.387 291.64 207.91 291.32C208.443 290.989 209.056 290.824 209.75 290.824C210.71 290.824 211.424 291.085 211.894 291.608C212.363 292.12 212.598 292.899 212.598 293.944V299H211.302V294.024C211.302 293.277 211.152 292.733 210.854 292.392C210.566 292.051 210.096 291.88 209.446 291.88C208.699 291.88 208.102 292.109 207.654 292.568C207.216 293.027 206.998 293.629 206.998 294.376V299H205.702Z" fill="#242424"/>
<path d="M105.446 319.16C104.764 319.16 104.166 318.995 103.654 318.664C103.142 318.323 102.801 317.864 102.63 317.288H102.806V319H100.822V307.224H102.822V312.568H102.63C102.812 312.013 103.158 311.576 103.67 311.256C104.182 310.925 104.774 310.76 105.446 310.76C106.161 310.76 106.785 310.931 107.318 311.272C107.852 311.613 108.268 312.099 108.566 312.728C108.865 313.347 109.014 314.093 109.014 314.968C109.014 315.843 108.865 316.595 108.566 317.224C108.268 317.843 107.846 318.323 107.302 318.664C106.769 318.995 106.15 319.16 105.446 319.16ZM104.886 317.624C105.516 317.624 106.022 317.405 106.406 316.968C106.801 316.531 106.998 315.864 106.998 314.968C106.998 314.072 106.801 313.405 106.406 312.968C106.022 312.52 105.516 312.296 104.886 312.296C104.257 312.296 103.75 312.515 103.366 312.952C102.982 313.389 102.79 314.056 102.79 314.952C102.79 315.848 102.982 316.52 103.366 316.968C103.75 317.405 104.257 317.624 104.886 317.624ZM114.392 319.16C113.56 319.16 112.84 318.989 112.232 318.648C111.624 318.307 111.15 317.821 110.808 317.192C110.478 316.563 110.312 315.816 110.312 314.952C110.312 314.088 110.478 313.347 110.808 312.728C111.15 312.099 111.624 311.613 112.232 311.272C112.84 310.931 113.56 310.76 114.392 310.76C115.224 310.76 115.944 310.931 116.552 311.272C117.171 311.613 117.646 312.099 117.976 312.728C118.318 313.347 118.488 314.088 118.488 314.952C118.488 315.816 118.318 316.563 117.976 317.192C117.646 317.821 117.171 318.307 116.552 318.648C115.944 318.989 115.224 319.16 114.392 319.16ZM114.392 317.624C115.022 317.624 115.523 317.405 115.896 316.968C116.27 316.52 116.456 315.848 116.456 314.952C116.456 314.056 116.27 313.389 115.896 312.952C115.523 312.515 115.022 312.296 114.392 312.296C113.763 312.296 113.262 312.515 112.888 312.952C112.515 313.389 112.328 314.056 112.328 314.952C112.328 315.848 112.515 316.52 112.888 316.968C113.262 317.405 113.763 317.624 114.392 317.624ZM119.897 322.632L119.433 321.048C119.934 320.941 120.355 320.819 120.697 320.68C121.038 320.541 121.321 320.36 121.545 320.136C121.769 319.912 121.955 319.624 122.105 319.272L122.505 318.328L122.457 319.112L118.937 310.92H121.065L123.593 317.224H123.129L125.673 310.92H127.689L124.009 319.448C123.763 320.024 123.497 320.499 123.209 320.872C122.921 321.256 122.611 321.56 122.281 321.784C121.95 322.019 121.587 322.2 121.193 322.328C120.798 322.456 120.366 322.557 119.897 322.632ZM131.468 319.16C130.775 319.16 130.135 319.08 129.548 318.92C128.972 318.749 128.487 318.515 128.092 318.216L128.652 316.872C129.057 317.149 129.505 317.363 129.996 317.512C130.487 317.661 130.983 317.736 131.484 317.736C132.017 317.736 132.412 317.645 132.668 317.464C132.935 317.283 133.068 317.037 133.068 316.728C133.068 316.483 132.983 316.291 132.812 316.152C132.652 316.003 132.391 315.891 132.028 315.816L130.428 315.512C129.745 315.363 129.223 315.107 128.86 314.744C128.508 314.381 128.332 313.907 128.332 313.32C128.332 312.819 128.465 312.376 128.732 311.992C129.009 311.608 129.399 311.309 129.9 311.096C130.412 310.872 131.009 310.76 131.692 310.76C132.289 310.76 132.849 310.84 133.372 311C133.905 311.16 134.353 311.4 134.716 311.72L134.14 313.016C133.809 312.749 133.431 312.541 133.004 312.392C132.577 312.243 132.161 312.168 131.756 312.168C131.201 312.168 130.796 312.269 130.54 312.472C130.284 312.664 130.156 312.915 130.156 313.224C130.156 313.459 130.231 313.656 130.38 313.816C130.54 313.965 130.785 314.077 131.116 314.152L132.716 314.456C133.431 314.595 133.969 314.84 134.332 315.192C134.705 315.533 134.892 316.003 134.892 316.6C134.892 317.133 134.748 317.592 134.46 317.976C134.172 318.36 133.772 318.653 133.26 318.856C132.748 319.059 132.151 319.16 131.468 319.16ZM144.114 319.16C143.41 319.16 142.792 318.995 142.258 318.664C141.725 318.323 141.309 317.837 141.01 317.208C140.712 316.579 140.562 315.827 140.562 314.952C140.562 314.077 140.712 313.331 141.01 312.712C141.309 312.083 141.725 311.603 142.258 311.272C142.792 310.931 143.41 310.76 144.114 310.76C144.797 310.76 145.394 310.931 145.906 311.272C146.429 311.603 146.776 312.051 146.946 312.616H146.77L146.946 310.92H148.866C148.834 311.251 148.802 311.587 148.77 311.928C148.749 312.269 148.738 312.605 148.738 312.936V319H146.754L146.738 317.336H146.93C146.76 317.891 146.413 318.333 145.89 318.664C145.368 318.995 144.776 319.16 144.114 319.16ZM144.674 317.624C145.304 317.624 145.81 317.405 146.194 316.968C146.578 316.52 146.77 315.848 146.77 314.952C146.77 314.056 146.578 313.389 146.194 312.952C145.81 312.515 145.304 312.296 144.674 312.296C144.045 312.296 143.538 312.515 143.154 312.952C142.77 313.389 142.578 314.056 142.578 314.952C142.578 315.848 142.765 316.52 143.138 316.968C143.522 317.405 144.034 317.624 144.674 317.624ZM150.916 319V312.936C150.916 312.605 150.905 312.269 150.884 311.928C150.863 311.587 150.831 311.251 150.788 310.92H152.724L152.884 312.52H152.692C152.948 311.955 153.327 311.523 153.828 311.224C154.329 310.915 154.911 310.76 155.572 310.76C156.521 310.76 157.236 311.027 157.716 311.56C158.196 312.093 158.436 312.925 158.436 314.056V319H156.436V314.152C156.436 313.501 156.308 313.037 156.052 312.76C155.807 312.472 155.433 312.328 154.932 312.328C154.313 312.328 153.823 312.52 153.46 312.904C153.097 313.288 152.916 313.8 152.916 314.44V319H150.916ZM163.693 319.16C162.989 319.16 162.365 318.995 161.821 318.664C161.287 318.323 160.871 317.837 160.573 317.208C160.274 316.579 160.125 315.827 160.125 314.952C160.125 314.077 160.274 313.331 160.573 312.712C160.871 312.083 161.287 311.603 161.821 311.272C162.365 310.931 162.989 310.76 163.693 310.76C164.365 310.76 164.957 310.925 165.469 311.256C165.991 311.576 166.338 312.013 166.509 312.568H166.301V307.224H168.301V319H166.333V317.288H166.525C166.354 317.864 166.007 318.323 165.485 318.664C164.973 318.995 164.375 319.16 163.693 319.16ZM164.253 317.624C164.882 317.624 165.389 317.405 165.773 316.968C166.157 316.52 166.349 315.848 166.349 314.952C166.349 314.056 166.157 313.389 165.773 312.952C165.389 312.515 164.882 312.296 164.253 312.296C163.623 312.296 163.111 312.515 162.717 312.952C162.333 313.389 162.141 314.056 162.141 314.952C162.141 315.848 162.333 316.52 162.717 316.968C163.111 317.405 163.623 317.624 164.253 317.624ZM178.613 322.584C177.867 322.584 177.189 322.504 176.581 322.344C175.984 322.184 175.451 321.939 174.981 321.608L175.413 320.168C175.723 320.371 176.043 320.536 176.373 320.664C176.704 320.792 177.045 320.888 177.397 320.952C177.749 321.016 178.107 321.048 178.469 321.048C179.216 321.048 179.771 320.861 180.133 320.488C180.507 320.125 180.693 319.603 180.693 318.92V316.984H180.853C180.683 317.539 180.336 317.981 179.813 318.312C179.301 318.643 178.709 318.808 178.037 318.808C177.312 318.808 176.677 318.648 176.133 318.328C175.6 317.997 175.184 317.528 174.885 316.92C174.587 316.312 174.437 315.597 174.437 314.776C174.437 313.955 174.587 313.245 174.885 312.648C175.184 312.04 175.6 311.576 176.133 311.256C176.677 310.925 177.312 310.76 178.037 310.76C178.72 310.76 179.312 310.925 179.813 311.256C180.325 311.576 180.667 312.013 180.837 312.568L180.693 312.472L180.853 310.92H182.789C182.747 311.251 182.715 311.587 182.693 311.928C182.672 312.269 182.661 312.605 182.661 312.936V318.68C182.661 319.949 182.315 320.915 181.621 321.576C180.939 322.248 179.936 322.584 178.613 322.584ZM178.581 317.272C179.221 317.272 179.728 317.059 180.101 316.632C180.485 316.195 180.677 315.576 180.677 314.776C180.677 313.976 180.485 313.363 180.101 312.936C179.728 312.509 179.221 312.296 178.581 312.296C177.931 312.296 177.413 312.509 177.029 312.936C176.645 313.363 176.453 313.976 176.453 314.776C176.453 315.576 176.645 316.195 177.029 316.632C177.413 317.059 177.931 317.272 178.581 317.272ZM184.822 319V310.92H186.822V319H184.822ZM184.71 309.4V307.448H186.934V309.4H184.71ZM188.978 319V312.984C188.978 312.643 188.968 312.296 188.946 311.944C188.936 311.592 188.909 311.251 188.866 310.92H190.802L191.026 313.128H190.706C190.813 312.595 190.989 312.152 191.234 311.8C191.49 311.448 191.8 311.187 192.162 311.016C192.525 310.845 192.92 310.76 193.346 310.76C193.538 310.76 193.693 310.771 193.81 310.792C193.928 310.803 194.045 310.829 194.162 310.872L194.146 312.632C193.944 312.547 193.768 312.493 193.618 312.472C193.48 312.451 193.304 312.44 193.09 312.44C192.632 312.44 192.242 312.536 191.922 312.728C191.613 312.92 191.378 313.187 191.218 313.528C191.069 313.869 190.994 314.259 190.994 314.696V319H188.978ZM195.276 319V307.224H197.276V319H195.276ZM202.327 319.16C201.634 319.16 200.994 319.08 200.407 318.92C199.831 318.749 199.346 318.515 198.951 318.216L199.511 316.872C199.917 317.149 200.365 317.363 200.855 317.512C201.346 317.661 201.842 317.736 202.343 317.736C202.877 317.736 203.271 317.645 203.527 317.464C203.794 317.283 203.927 317.037 203.927 316.728C203.927 316.483 203.842 316.291 203.671 316.152C203.511 316.003 203.25 315.891 202.887 315.816L201.287 315.512C200.605 315.363 200.082 315.107 199.719 314.744C199.367 314.381 199.191 313.907 199.191 313.32C199.191 312.819 199.325 312.376 199.591 311.992C199.869 311.608 200.258 311.309 200.759 311.096C201.271 310.872 201.869 310.76 202.551 310.76C203.149 310.76 203.709 310.84 204.231 311C204.765 311.16 205.213 311.4 205.575 311.72L204.999 313.016C204.669 312.749 204.29 312.541 203.863 312.392C203.437 312.243 203.021 312.168 202.615 312.168C202.061 312.168 201.655 312.269 201.399 312.472C201.143 312.664 201.015 312.915 201.015 313.224C201.015 313.459 201.09 313.656 201.239 313.816C201.399 313.965 201.645 314.077 201.975 314.152L203.575 314.456C204.29 314.595 204.829 314.84 205.191 315.192C205.565 315.533 205.751 316.003 205.751 316.6C205.751 317.133 205.607 317.592 205.319 317.976C205.031 318.36 204.631 318.653 204.119 318.856C203.607 319.059 203.01 319.16 202.327 319.16ZM207.161 319V316.776H209.401V319H207.161Z" fill="#F4961D"/>
<g clip-path="url(#clip0_28_2751)">
<path d="M109.879 250.779C78.4624 250.779 52.9946 245.145 52.9946 238.195C52.9946 231.245 78.4624 225.611 109.879 225.611C141.295 225.611 166.763 231.245 166.763 238.195C166.763 245.145 141.295 250.779 109.879 250.779Z" fill="#B3CEF4"/>
<path d="M132.355 145.088L141.188 150.802L146.666 146.355L157.227 153.406C157.227 153.406 151.941 166.358 143.678 169.505C139.379 171.145 135.332 170.065 131.242 168.31C128.045 166.939 123.099 164.559 120.039 162.903L132.355 145.088Z" fill="#FFB399"/>
<path d="M141.106 150.489C142.082 152.946 142.696 154.815 142.181 157.403" stroke="#C1684D" stroke-width="0.822499" stroke-miterlimit="10" stroke-linejoin="round"/>
<path d="M112.631 141.19C117.407 141.305 119.765 140.482 124.623 141.754C130.655 143.334 132.075 144.918 138.732 148.236C138.167 153.829 135.069 165.492 128.045 170.427L119.069 166.188" fill="#333891"/>
<path d="M134.877 146.25C133.808 152.759 132.382 160.162 127.617 164.987" stroke="#2A1D6B" stroke-width="0.822499" stroke-miterlimit="10" stroke-linejoin="round"/>
<path d="M110.69 202.044L130.266 198.721C130.798 202.8 131.587 206.293 131.911 210.395C132.333 215.735 132.486 221.35 132.843 226.658C126.669 227.755 120.451 228.758 114.189 229.022C111.908 219.601 110.016 212.369 110.69 202.044Z" fill="#FFB399"/>
<path d="M112.927 226.921C112.927 226.921 127.612 229.822 134.175 228.808C133.441 226.472 133.073 223.302 132.783 220.352C128.785 222.984 112.165 221.619 112.165 221.619L112.927 226.921Z" fill="white"/>
<path d="M112.132 237.63C111.907 236.704 112.242 234.987 112.242 234.987C112.472 233.951 113.064 228.407 114.04 227.815C115.324 227.037 116.393 227.239 117.846 227.382C121.087 227.695 124.398 227.897 127.628 227.344C128.012 227.278 128.401 227.201 128.736 227.02C129.185 226.784 129.514 226.389 129.882 226.055C130.995 225.046 132.612 224.536 134.17 224.712C135.727 224.882 136.297 226.23 137.378 227.113C138.534 228.062 139.911 228.758 141.293 229.367C142.916 230.08 144.38 229.97 145.663 231.193C146.743 232.224 147.818 234.669 147.697 236.671C147.631 237.729 147.396 238.842 146.299 239.166C142.066 240.41 134.197 240.931 129.761 240.487C122.962 239.807 118.657 239.604 112.132 237.63Z" fill="white"/>
<path d="M112.242 234.988C111.014 231.253 111.929 228.451 111.507 227.305C111.359 226.9 111.238 226.477 111.31 226.055C111.567 224.547 113.026 225.156 114.051 225.501C114.561 225.671 115.11 225.726 115.647 225.776C119.557 226.143 123.532 226.51 127.392 225.858C127.776 225.792 128.165 225.715 128.505 225.545C128.955 225.315 129.284 224.942 129.657 224.619C130.781 223.653 132.399 223.16 133.956 223.314C135.513 223.467 136.072 224.739 137.142 225.573C138.288 226.466 139.658 227.119 141.035 227.684C142.652 228.353 144.407 228.95 145.679 230.102C147.313 231.582 149.134 235.552 145.959 236.457C141.72 237.669 133.32 237.768 128.884 237.373C122.095 236.781 118.74 236.819 112.242 234.988Z" fill="#8E342B"/>
<path d="M111.759 228.511C114.211 228.791 116.552 229.767 118.35 231.264C120.149 232.761 121.399 234.773 121.865 236.923" stroke="#4F1A17" stroke-width="1.09667" stroke-miterlimit="10" stroke-linejoin="round"/>
<path d="M140.108 226.921C138.189 227.541 136.522 228.742 135.453 230.283" stroke="#4F1A17" stroke-width="1.09667" stroke-miterlimit="10" stroke-linecap="round" stroke-linejoin="round"/>
<path d="M137.147 225.331C134.932 225.929 132.925 227.119 131.461 228.704" stroke="#4F1A17" stroke-width="1.09667" stroke-miterlimit="10" stroke-linecap="round" stroke-linejoin="round"/>
<path d="M77.1815 217.55C77.2254 215.198 77.7737 212.9 78.1191 210.592C78.503 208.015 78.1356 203.634 78.6565 201.051L99.9647 202.438C99.9647 209.364 99.3012 213.081 98.3417 217.496C97.8427 219.799 97.2176 222.134 96.9105 224.498C96.8447 225.013 95.9125 231.182 95.7371 231.187C89.6067 231.352 84.0302 231.127 77.9437 230.458C77.7134 230.431 77.4282 223.774 77.3899 223.11C77.2363 220.67 77.1376 219.996 77.1815 217.55Z" fill="#FFB399"/>
<path d="M76.5949 228.122C76.5949 228.122 90.6651 233.227 97.3109 233.227C96.9435 230.809 96.8777 226.258 97.3109 223.621C87.896 225.605 76.6607 221.943 76.6607 221.943L76.5949 228.122Z" fill="white"/>
<path d="M74.1713 238.585C74.089 237.63 74.6812 235.991 74.6812 235.991C75.0651 235.004 76.4962 229.614 77.5545 229.175C78.9363 228.605 79.9617 228.967 81.3819 229.329C84.5403 230.135 87.7809 230.837 91.0545 230.782C91.4438 230.776 91.8386 230.76 92.2005 230.634C92.683 230.469 93.0614 230.129 93.4836 229.855C94.7393 229.027 96.4172 228.775 97.9306 229.181C99.444 229.586 99.8058 231.007 100.738 232.043C101.736 233.156 102.986 234.055 104.264 234.867C105.761 235.821 107.225 235.936 108.305 237.34C109.215 238.524 109.906 241.107 109.484 243.064C109.259 244.101 108.853 245.165 107.718 245.318C103.343 245.905 95.4905 245.219 91.1696 244.101C84.5457 242.39 80.3181 241.529 74.1713 238.585Z" fill="white"/>
<path d="M74.6812 235.985C74.0396 232.109 75.3721 229.477 75.1253 228.281C75.0376 227.859 74.9828 227.42 75.1198 227.015C75.6024 225.562 76.9568 226.39 77.9163 226.889C78.3934 227.135 78.9253 227.272 79.4517 227.404C83.2571 228.364 87.1338 229.329 91.0489 229.279C91.4382 229.274 91.833 229.257 92.1949 229.142C92.6775 228.983 93.0613 228.665 93.478 228.402C94.7337 227.618 96.4116 227.382 97.925 227.771C99.4384 228.161 99.8003 229.504 100.727 230.491C101.725 231.549 102.975 232.399 104.253 233.172C105.75 234.077 107.395 234.938 108.475 236.27C109.868 237.987 111.058 242.187 107.784 242.598C103.408 243.147 95.0901 241.962 90.7693 240.898C84.1509 239.264 80.828 238.787 74.6812 235.985Z" fill="#8E342B"/>
<path d="M75.1966 229.521C77.5764 230.168 79.7423 231.494 81.2886 233.249C82.8404 235.004 83.7671 237.181 83.9042 239.374" stroke="#4F1A17" stroke-width="1.09667" stroke-miterlimit="10" stroke-linejoin="round"/>
<path d="M103.452 232.268C101.462 232.586 99.6303 233.523 98.3362 234.883" stroke="#4F1A17" stroke-width="1.09667" stroke-miterlimit="10" stroke-linecap="round" stroke-linejoin="round"/>
<path d="M100.771 230.244C98.4898 230.497 96.3294 231.368 94.635 232.712" stroke="#4F1A17" stroke-width="1.09667" stroke-miterlimit="10" stroke-linecap="round" stroke-linejoin="round"/>
<path d="M130.792 183.817C131.68 190.287 133.408 200.887 133.687 207.395C124.064 209.879 112.593 210.241 101.807 209.786C101.105 201.726 99.2355 189.942 98.8242 181.865" fill="#CC603E"/>
<path d="M82.5881 180.878C78.1027 184.19 75.9094 190.589 75.7339 195.825C75.5804 200.344 74.4015 204.522 73.9793 209.035C83.5531 211.508 95.1778 211.99 105.119 211.475C105.388 206.003 106.709 198.967 108.585 196.982C109.089 196.451 109.835 196.105 110.46 195.672C111.129 191.088 111.414 186.093 111.414 181.459" fill="#CC603E"/>
<path d="M105.223 209.874C105.3 209.539 107.06 198.715 107.06 198.715L108.996 195.869" stroke="#A04127" stroke-width="0.822499" stroke-miterlimit="10" stroke-linejoin="round"/>
<path d="M91.2518 198.32C91.1476 200.333 91.0325 202.378 90.4019 204.286C90.1278 205.114 89.6836 205.981 88.894 206.304C88.5705 206.436 88.2196 206.463 87.8741 206.48C84.3757 206.683 80.8554 206.348 77.4503 205.493C77.2529 205.443 77.0445 205.383 76.9129 205.224C76.3262 204.511 76.8636 202.57 76.9623 201.748C77.1268 200.371 77.3351 199.006 77.5929 197.646" stroke="#A04127" stroke-width="0.822499" stroke-miterlimit="10" stroke-linejoin="round"/>
<path d="M77.4612 195.721C82.1988 196.105 86.9583 196.22 91.7069 196.078C91.7563 197.383 91.7453 198.71 91.1421 199.861C90.9831 200.163 90.7802 200.454 90.4951 200.645C90.2758 200.794 90.0181 200.876 89.7603 200.947C88.6801 201.238 87.5506 201.298 86.432 201.314C83.8987 201.347 81.3599 201.155 78.8595 200.739C78.3769 200.656 77.867 200.558 77.4996 200.234C77.1158 199.9 76.9458 199.368 76.9403 198.858C76.9293 198.342 77.3241 196.215 77.4612 195.721Z" fill="#CC603E" stroke="#A04127" stroke-width="0.822499" stroke-miterlimit="10" stroke-linejoin="round"/>
<path d="M132.64 196.527C133.155 198.002 133.484 199.543 133.621 201.106C133.671 201.671 133.676 202.285 133.347 202.74C133.062 203.135 132.574 203.326 132.108 203.458C131.006 203.776 129.843 203.897 128.697 203.798C128.138 203.749 127.54 203.634 127.151 203.228C126.904 202.97 126.767 202.63 126.669 202.29C126.449 201.528 126.378 200.727 126.323 199.938C126.197 198.156 126.12 196.368 126.104 194.581L132.64 196.527Z" fill="#CC603E" stroke="#A04127" stroke-width="0.822499" stroke-miterlimit="10" stroke-linejoin="round"/>
<path d="M132.24 192.854C132.3 192.881 133.079 195.48 133.079 196.752C133.079 196.9 133.073 197.054 132.985 197.185C132.432 197.986 128.401 198.397 127.387 198.233C126.093 198.03 125.879 193.55 125.879 193.55C125.879 193.55 132.179 192.826 132.24 192.854Z" fill="#CC603E" stroke="#A04127" stroke-width="0.822499" stroke-miterlimit="10" stroke-linejoin="round"/>
<path d="M79.6545 163.77C80.8389 153.204 84.3373 147.331 87.1063 145.658C93.9276 141.551 102.427 139.917 110.438 141.173C118.449 142.429 124.76 143.454 129.756 149.42L131.598 156.713C131.077 157.837 130.578 158.972 130.216 160.145C129.525 162.399 130.907 175.34 132.168 186.422C121.766 190.764 89.8316 190.008 76.9457 186.027C77.5215 180.143 78.7936 171.419 79.6545 163.77Z" fill="#333891"/>
<path d="M71.2158 190.731L96.461 194.646C97.5303 194.811 98.4241 193.829 98.1554 192.782L94.5474 178.553C94.2787 177.5 93.4068 176.705 92.3321 176.54L67.0869 172.625C66.0176 172.461 65.1238 173.442 65.3925 174.49L69.0005 188.719C69.2692 189.772 70.1356 190.561 71.2158 190.731Z" fill="#282647"/>
<path d="M78.4812 185.176L82.1111 185.741C82.2647 185.763 82.3908 185.626 82.3579 185.473L81.837 183.427C81.7986 183.274 81.6725 183.164 81.5189 183.137L77.889 182.572C77.7354 182.55 77.6093 182.687 77.6477 182.841L78.1686 184.886C78.2015 185.039 78.3276 185.155 78.4812 185.176Z" stroke="#555A6D" stroke-width="0.548333" stroke-miterlimit="10" stroke-linejoin="round"/>
<path d="M88.1483 192.338L94.9531 193.396C95.2437 193.44 95.4795 193.177 95.4082 192.892L94.4376 189.059C94.3664 188.774 94.1306 188.56 93.84 188.516L87.0351 187.458C86.7445 187.414 86.5087 187.677 86.58 187.962L87.5506 191.795C87.6219 192.08 87.8576 192.294 88.1483 192.338Z" fill="#5C5C93"/>
<path d="M96.9765 193.736L93.3684 179.507C93.0997 178.454 92.2279 177.659 91.1532 177.494L65.9079 173.579C65.7489 173.552 65.5954 173.563 65.4473 173.585C65.6886 172.954 66.3356 172.51 67.0814 172.625L92.3266 176.54C93.4013 176.705 94.2732 177.5 94.5419 178.553L98.1499 192.782C98.3747 193.676 97.7606 194.509 96.9161 194.641C97.0203 194.367 97.0587 194.054 96.9765 193.736Z" fill="#5C5C93"/>
<path d="M91.6357 191.192C91.9592 191.839 92.672 192.146 93.2204 191.866C93.7742 191.592 93.9606 190.841 93.6371 190.194C93.3136 189.547 92.6007 189.24 92.0524 189.52C91.4986 189.794 91.3122 190.545 91.6357 191.192Z" fill="#282647"/>
<path d="M88.3348 190.792C88.6583 191.439 89.3711 191.746 89.9195 191.466C90.4733 191.192 90.6597 190.441 90.3362 189.794C90.0127 189.147 89.2998 188.84 88.7515 189.119C88.1977 189.393 88.0113 190.145 88.3348 190.792Z" fill="#282647"/>
<path d="M88.6307 165.294C88.6307 165.294 85.2475 169.083 83.9809 170.964C84.913 174.731 84.8472 179.693 84.8472 179.693C80.6744 182.43 77.9876 182.353 72.444 183.312C70.0861 176.968 67.2567 173.031 66.4726 169.182C65.672 165.239 66.3849 162.476 67.4212 160.518C69.7791 156.06 72.1917 154.086 76.4194 149.239" fill="#FFB399"/>
<path d="M84.2496 170.75C81.7328 168.42 79.035 167.499 76.9513 167.614" stroke="#C1684D" stroke-width="0.822499" stroke-miterlimit="10" stroke-linejoin="round"/>
<path d="M85.2421 178.41C86.2675 179.808 87.0735 181.41 87.3916 183.131C87.5725 184.085 87.6548 185.056 87.8522 186.005C88.0386 186.898 88.4773 187.633 88.8995 188.445C89.042 188.719 89.1901 189.004 89.2449 189.311C89.2998 189.618 89.2504 189.958 89.0475 190.194C88.4608 190.857 86.7116 190.698 86.0701 190.227C85.6314 189.903 85.3408 189.415 85.105 188.922C85.0063 188.713 84.8418 188.467 84.617 188.516C84.4799 188.549 84.3922 188.686 84.3319 188.812C84.0303 189.399 83.8274 190.007 83.63 190.633C83.4874 191.093 83.1475 191.663 83.3723 192.146C83.4765 192.376 83.9316 192.617 84.1235 192.782C84.0906 192.744 82.5882 193.478 82.3962 193.506C81.7821 193.61 81.2612 193.489 80.7238 193.204C80.1261 192.886 79.8684 193.034 79.183 193.166C78.3057 193.336 77.3461 192.99 76.7758 192.299C76.7046 192.212 76.6333 192.118 76.5291 192.08C76.4085 192.031 76.2714 192.075 76.1398 192.102C75.2131 192.31 74.1767 191.8 73.7819 190.934C73.7271 190.819 73.6778 190.687 73.5681 190.622C73.4529 190.55 73.3049 190.572 73.1733 190.578C72.614 190.583 72.1205 190.155 71.8737 189.656C71.309 188.51 71.6599 187.145 71.7476 185.939C71.8518 184.568 72.0437 183.203 72.4001 181.87" fill="#FFB399"/>
<path d="M80.4606 193.133C80.1754 192.798 79.7532 192.371 79.6216 191.943C79.4845 191.499 79.5558 190.868 79.5339 190.402C79.49 189.284 79.49 188.16 79.6436 187.046" stroke="#C1684D" stroke-width="0.822499" stroke-miterlimit="10" stroke-linejoin="round"/>
<path d="M76.6387 192.261C76.211 191.565 76.1342 190.715 76.1397 189.898C76.1452 189.081 76.2219 188.253 76.0629 187.452" stroke="#C1684D" stroke-width="0.822499" stroke-miterlimit="10" stroke-linejoin="round"/>
<path d="M73.749 190.945C73.7106 190.726 73.6448 190.512 73.5955 190.293C73.3762 189.311 73.4913 188.225 72.9594 187.375" stroke="#C1684D" stroke-width="0.822499" stroke-miterlimit="10" stroke-linejoin="round"/>
<path d="M84.447 188.933C84.6773 188.379 84.9296 187.836 85.2092 187.304" stroke="#C1684D" stroke-width="0.822499" stroke-miterlimit="10" stroke-linejoin="round"/>
<path d="M85.4943 178.756C84.8911 178.229 84.2276 177.714 83.8877 176.968" stroke="#C1684D" stroke-width="0.822499" stroke-miterlimit="10" stroke-linejoin="round"/>
<path d="M72.252 182.846C72.4 181.963 72.5426 181.125 72.6797 180.313" stroke="#C1684D" stroke-width="0.822499" stroke-miterlimit="10" stroke-linejoin="round"/>
<path d="M102.811 140.838C93.6974 140.838 88.5814 140.745 81.7711 145.088C77.5764 147.764 73.3542 150.884 68.4521 156.789C73.7381 162.58 82.654 167.729 87.5835 169.182C90.6432 165.299 93.7741 161.099 93.7741 161.099" fill="#333891"/>
<path d="M117.747 136.167C117.572 137.115 118.131 142.604 118.131 142.604C116.256 145.154 111.814 145.713 110.553 145.658C102.882 145.346 99.7839 142.538 98.4295 141.31C98.4295 139.177 99.3617 131.731 99.3617 131.731" fill="#FFB399"/>
<path d="M131.73 97.0705C130.068 93.8902 127.557 91.1705 124.547 89.2239C119.091 85.6926 111.809 86.0984 105.783 87.7434C96.1484 90.3809 86.4593 98.6607 84.5018 108.887C82.3194 120.254 89.6397 133.118 100.261 137.51C108.897 141.08 119.359 141.003 127.88 137.11C132.596 134.955 136.741 131.38 139.099 126.763C141.457 122.146 141.901 116.476 139.807 111.733C138.425 108.607 136.062 106.014 134.46 102.998C133.435 101.079 132.739 99.0007 131.73 97.0705Z" fill="#FFB399"/>
<path d="M130.452 112.517C130.2 112.764 130.118 113.148 130.172 113.493C130.353 114.689 131.571 115.133 132.645 115.248C133.671 115.358 134.724 115.105 135.606 114.579C136.308 114.157 137.043 112.978 136.714 112.122C136.379 111.25 135.135 111.294 134.362 111.426C133.281 111.607 132.207 111.859 131.154 112.177C130.913 112.248 130.666 112.331 130.479 112.501C130.468 112.501 130.463 112.512 130.452 112.517Z" fill="#ED927A"/>
<path d="M132.772 107.314C133.04 107.862 133.276 108.525 133.249 109.002C133.221 109.551 132.887 109.885 132.503 110.072C132.223 110.209 131.752 110.291 131.423 110.143C130.907 109.918 130.523 109.288 130.178 108.569C129.865 107.922 129.641 107.166 129.728 106.639C129.8 106.211 130.123 105.965 130.447 105.811C130.803 105.641 131.258 105.559 131.675 105.822C132.097 106.096 132.486 106.721 132.772 107.314Z" fill="#141833"/>
<path d="M119.502 114.261C120.248 112.819 121.394 111.771 122.655 111.382C124.278 110.883 125.194 111.601 126.235 112.775" stroke="#C1684D" stroke-width="0.822499" stroke-miterlimit="10" stroke-linejoin="round"/>
<path d="M101.067 109.852C101.418 110.423 102.229 110.505 102.866 110.302C103.458 110.11 103.951 109.732 104.516 109.49C105.262 109.167 106.616 109.205 107.121 108.487C107.466 107.999 107.334 106.88 107.049 106.403C106.177 104.961 103.397 105.915 102.443 106.754C101.659 107.44 100.36 108.701 101.067 109.852Z" fill="#493535"/>
<path d="M128.84 99.7299C127.513 99.9931 126.718 100.925 127.447 102.197C127.935 103.058 128.686 103.047 129.514 102.724C130.194 102.461 131.335 102.28 131.9 101.835C132.585 101.298 132.146 100.426 131.538 100.064C130.765 99.6093 129.701 99.5599 128.84 99.7299Z" fill="#493535"/>
<path d="M105.657 118.686C104.916 118.916 104.039 119.295 103.946 120.068C103.891 120.534 104.171 120.994 104.554 121.269C104.938 121.543 105.404 121.663 105.865 121.762C106.879 121.97 107.932 122.075 108.952 121.905C110.46 121.652 113.542 119.711 111.886 117.896C110.537 116.41 107.143 118.225 105.657 118.686Z" fill="#ED927A"/>
<path d="M109.232 113.246C109.5 113.795 109.736 114.458 109.709 114.935C109.681 115.484 109.347 115.818 108.963 116.005C108.683 116.142 108.212 116.224 107.883 116.076C107.367 115.851 106.983 115.22 106.638 114.502C106.325 113.855 106.101 113.098 106.188 112.572C106.26 112.144 106.583 111.898 106.907 111.744C107.263 111.574 107.718 111.492 108.135 111.755C108.557 112.029 108.941 112.654 109.232 113.246Z" fill="#141833"/>
<path d="M114.386 122.047C114.029 122.935 114.446 125.847 116.321 127.657C119.727 130.952 126.257 131.248 129.882 127.657C133.397 124.175 132.47 117.573 130.699 117.562C130.107 117.556 126.652 118.834 123.878 119.552C119.266 120.748 114.748 121.159 114.386 122.047Z" fill="#752727"/>
<mask id="mask0_28_2751" style="mask-type:luminance" maskUnits="userSpaceOnUse" x="114" y="117" width="19" height="14">
<path d="M114.386 122.047C114.029 122.935 114.446 125.847 116.321 127.657C119.727 130.952 126.257 131.248 129.882 127.657C133.397 124.175 132.47 117.573 130.699 117.562C130.107 117.556 126.652 118.834 123.878 119.552C119.266 120.748 114.748 121.159 114.386 122.047Z" fill="white"/>
</mask>
<g mask="url(#mask0_28_2751)">
<path d="M111.688 127.01C112.971 125.907 114.556 125.195 116.19 124.772C117.829 124.345 119.524 124.197 121.213 124.109C124.163 123.955 127.2 124.01 129.958 125.068C130.803 125.392 131.631 125.82 132.234 126.494C132.837 127.169 133.183 128.123 132.947 128.994C132.673 130.009 131.713 130.678 130.765 131.138C129.58 131.714 128.313 132.104 127.047 132.476C124.601 133.2 122.03 133.886 119.535 133.376C118.515 133.167 117.539 132.762 116.607 132.295C114.775 131.385 113.059 130.245 111.513 128.901" fill="#C6493C"/>
<path d="M117.934 119.651C117.895 120.073 117.851 120.501 117.912 120.917C117.966 121.34 118.131 121.756 118.438 122.047C118.959 122.541 119.754 122.562 120.467 122.557C123.187 122.535 125.764 122.228 128.171 120.863C130.496 119.547 129.575 117.337 128.324 115.538" fill="white"/>
</g>
<path d="M105.563 139.183C109.572 140.323 114.008 140.504 118.131 140.071" stroke="#C1684D" stroke-width="0.822499" stroke-miterlimit="10" stroke-linejoin="round"/>
<path d="M117.923 72.6699C125.44 70.6685 130.227 78.9648 130.074 85.468C130.024 87.6504 129.246 90.1947 127.941 91.9329C126.861 91.1488 125.874 90.2824 124.695 89.6299C124.377 89.4544 122.918 88.5661 122.523 88.8403C119.518 90.9185 116.02 92.377 112.39 92.7389C108.749 93.1008 105.048 92.536 101.423 93.0405C96.2088 93.7643 90.38 99.2202 91.8605 104.879C92.1401 105.943 92.6446 106.957 92.7981 108.048C93.0449 109.814 92.343 111.574 91.4986 113.148C90.9009 114.261 90.2155 115.363 89.5575 116.476C90.0291 119.064 89.4478 121.784 90.3526 124.18C91.2518 126.571 91.2518 129.428 89.7933 131.528C88.3347 133.623 85.2147 134.588 83.0652 133.211C81.2667 132.054 80.6087 129.762 79.1995 128.156C77.9274 126.703 76.1343 125.968 74.5058 125.008C70.1959 122.464 67.0649 117.661 67.4487 112.539C67.6516 109.825 68.7044 107.297 70.5249 105.367C70.0259 103.634 69.7846 101.803 69.6859 100.01C69.505 96.6156 69.8449 92.9802 71.9176 90.2879C73.0088 88.8677 74.5058 87.8204 75.9095 86.7073C78.9034 84.3275 81.8534 81.4762 83.97 78.2684C85.8562 75.4061 88.4115 73.1141 91.9482 72.478C93.6371 72.171 95.5124 72.5274 97.0697 73.3883C98.7695 71.0743 100.985 69.1442 103.622 68.0475C107.016 66.6164 115.395 66.4902 117.923 72.6699Z" fill="#493535"/>
<path d="M110.476 67.3455C112.511 68.6834 113.936 70.8712 114.468 73.2455C115 75.6198 114.671 78.1586 113.673 80.3793" stroke="#301B1B" stroke-width="0.822499" stroke-miterlimit="10" stroke-linejoin="round"/>
<path d="M94.8543 117.907C93.5218 116.547 91.7562 115.555 89.8041 115.319C87.8521 115.089 85.7136 115.687 84.244 117.079C82.2536 118.977 81.8149 121.954 82.2755 124.526C82.7197 127.032 83.9151 129.378 85.7739 131.089C87.6273 132.8 90.1551 133.842 92.7816 133.836C94.6185 133.831 96.5486 133.283 97.9579 132.043C99.3671 130.804 100.151 128.808 99.6193 127.119" fill="#FFB399"/>
<path d="M92.7761 133.836C94.613 133.831 96.5431 133.282 97.9524 132.043C99.3616 130.804 100.146 128.808 99.6138 127.119" stroke="#C1684D" stroke-width="0.822499" stroke-miterlimit="10" stroke-linejoin="round"/>
<path d="M94.8542 117.907C93.5218 116.547 91.7562 115.555 89.8041 115.319C87.852 115.089 85.7135 115.687 84.244 117.079" stroke="#C1684D" stroke-width="0.822499" stroke-miterlimit="10" stroke-linejoin="round"/>
<path d="M86.8212 123.1C87.4299 121.872 88.7239 121.159 90.0125 121.088C92.7048 120.94 94.8214 123.023 96.7844 124.723" stroke="#C1684D" stroke-width="0.822499" stroke-miterlimit="10" stroke-linejoin="round"/>
<path d="M90.0125 128.391C89.4148 125.869 90.3141 123.429 92.0194 121.384" stroke="#C1684D" stroke-width="0.822499" stroke-miterlimit="10" stroke-linejoin="round"/>
<path d="M122.381 89.0976C124.02 87.162 124.908 84.6178 124.837 82.0845" stroke="#301B1B" stroke-width="0.822499" stroke-miterlimit="10" stroke-linejoin="round"/>
<path d="M117.572 71.9075C118.098 72.9493 118.394 74.1063 118.438 75.2742C118.487 76.4915 118.603 78.5862 117.078 80.0831" stroke="#301B1B" stroke-width="0.822499" stroke-miterlimit="10" stroke-linejoin="round"/>
<path d="M96.6749 73.1963C98.8189 75.8502 99.2411 79.7708 97.7167 82.825" stroke="#301B1B" stroke-width="0.822499" stroke-miterlimit="10" stroke-linejoin="round"/>
<path d="M70.5687 105.279C70.4864 105.97 70.7496 106.667 71.1609 107.226C71.5776 107.78 72.1369 108.213 72.7236 108.586" stroke="#301B1B" stroke-width="0.822499" stroke-miterlimit="10" stroke-linejoin="round"/>
<path d="M79.194 127.997C78.1138 125.474 76.4797 123.188 74.4399 121.345" stroke="#301B1B" stroke-width="0.822499" stroke-miterlimit="10" stroke-linejoin="round"/>
<path d="M91.8165 104.172C90.3744 100.503 90.4073 97.1529 91.8823 93.512" stroke="#301B1B" stroke-width="0.822499" stroke-miterlimit="10" stroke-linejoin="round"/>
<path d="M130.156 169.176C130.156 169.176 129.328 159.635 129.476 158.467C129.624 157.305 130.353 154.13 130.353 154.13" stroke="#2A1D6B" stroke-width="0.822499" stroke-miterlimit="10" stroke-linejoin="round"/>
<path d="M92.639 162.574L87.5834 169.176" stroke="#2A1D6B" stroke-width="0.822499" stroke-miterlimit="10" stroke-linejoin="round"/>
<path d="M90.6432 164.708C83.6958 162.026 77.1707 158.522 72.466 152.617" stroke="#2A1D6B" stroke-width="0.822499" stroke-miterlimit="10" stroke-linejoin="round"/>
<path d="M120.845 142.144C120.928 144.315 119.93 145.839 118.142 146.914C113.443 149.744 107.269 149.426 102.284 147.556C99.4111 146.475 96.1649 144.408 94.4815 141.316" stroke="#2A1D6B" stroke-width="0.822499" stroke-miterlimit="10" stroke-linejoin="round"/>
<path d="M95.068 162.717C99.5643 162.646 104.055 162.744 108.535 162.317C108.546 164.877 108.645 167.427 108.656 169.988C108.656 170.235 108.656 170.492 108.573 170.723C108.48 170.975 108.294 171.178 108.102 171.359C106.309 173.08 103.759 173.738 101.346 173.541C99.3943 173.382 96.8445 172.603 95.9672 171.792C95.3257 171.2 95.3037 170.492 95.2489 169.741C95.0625 167.35 95.068 162.717 95.068 162.717Z" stroke="#2A1D6B" stroke-width="0.822499" stroke-miterlimit="10" stroke-linejoin="round"/>
<path d="M108.661 165.294C104.198 165.93 99.6577 166.062 95.1614 165.684" stroke="#2A1D6B" stroke-width="0.822499" stroke-miterlimit="10" stroke-linejoin="round"/>
<path d="M145.816 148.762C145.339 146.026 145.471 144.775 145.427 142.017C145.405 140.581 145.657 139.265 146.019 137.883C146.282 136.89 146.579 135.355 147.121 134.472C147.297 134.187 147.483 133.759 147.834 133.694C148.317 133.6 148.947 133.924 149.293 134.231C150.477 135.284 150.071 137.307 150.241 138.711C153.043 139.687 154.782 142.818 153.965 145.417" fill="#FFB399"/>
<path d="M150.132 137.987C150.856 135.942 151.629 133.809 153.213 132.323C154.047 131.544 155.056 130.985 156.087 130.492C156.569 130.261 157.2 130.058 157.589 130.426C157.732 130.563 157.808 130.749 157.847 130.941C157.951 131.49 157.737 132.054 157.419 132.515C156.136 134.39 155.045 136.139 154.458 138.409" fill="#FFB399"/>
<path d="M153.542 139.281C154.584 137.379 155.697 135.399 157.501 134.193C158.417 133.579 159.629 132.866 160.66 132.482C160.934 132.378 161.246 132.296 161.504 132.427C161.855 132.603 161.926 133.08 161.904 133.474C161.811 134.928 161.137 135.679 160.194 136.627C159.163 137.669 158.329 139.078 157.743 140.405" fill="#FFB399"/>
<path d="M156.772 141.601C157.748 139.956 158.784 138.25 160.44 137.274C161.285 136.775 162.392 136.21 163.341 135.92C163.588 135.843 163.878 135.788 164.109 135.92C164.427 136.101 164.487 136.523 164.46 136.879C164.356 138.173 163.73 138.804 162.859 139.599C161.904 140.471 161.131 141.683 160.577 142.84" fill="#FFB399"/>
<path d="M158.971 144.189C159.87 142.676 160.824 141.102 162.354 140.203C163.133 139.742 164.153 139.221 165.025 138.958C165.255 138.887 165.518 138.837 165.732 138.958C166.028 139.122 166.077 139.517 166.055 139.841C165.962 141.036 165.386 141.617 164.58 142.352C163.703 143.153 162.985 144.271 162.48 145.34" fill="#FFB399"/>
<path d="M152.566 157.053C154.606 156.554 156.706 156.022 158.483 154.859C160.907 153.275 161.921 150.517 162.458 147.797C162.727 146.454 162.776 145.022 162.305 143.717L157.03 137.795L149.797 137.022L144.106 150.182" fill="#FFB399"/>
<path d="M145.175 146.826C145.208 147.594 145.115 148.586 144.67 149.403" stroke="#C1684D" stroke-width="0.822499" stroke-miterlimit="10" stroke-linejoin="round"/>
<path d="M150.181 137.022C150.181 137.022 150.198 138.327 150.411 139.506C150.406 139.528 151.634 140.937 151.788 141.102C152.364 141.738 152.835 142.434 153.268 143.175C154.041 144.507 154.146 146.245 153.767 147.726" stroke="#C1684D" stroke-width="0.822499" stroke-miterlimit="10" stroke-linejoin="round"/>
<path d="M155.335 136.32C155.001 136.879 154.738 137.483 154.551 138.113" stroke="#C1684D" stroke-width="0.822499" stroke-miterlimit="10" stroke-linejoin="round"/>
<path d="M158.746 138.546C158.307 139.188 157.929 139.879 157.627 140.597" stroke="#C1684D" stroke-width="0.822499" stroke-miterlimit="10" stroke-linejoin="round"/>
<path d="M161.811 140.778C161.06 141.244 160.484 141.99 160.216 142.829" stroke="#C1684D" stroke-width="0.822499" stroke-miterlimit="10" stroke-linejoin="round"/>
<path d="M165.436 150.209C163.966 153.598 161.356 156.488 158.132 158.292" stroke="#526F99" stroke-width="0.822499" stroke-miterlimit="10"/>
<path d="M163.621 158.785C161.998 160.266 160.007 161.335 157.88 161.873" stroke="#526F99" stroke-width="0.822499" stroke-miterlimit="10"/>
<path d="M65.4801 154.552C61.4937 158.769 59.7007 164.954 60.8138 170.651" stroke="#526F99" stroke-width="0.822499" stroke-miterlimit="10"/>
<path d="M57.617 161.116C56.9755 163.254 56.3723 165.431 56.3449 167.663C56.3229 169.895 56.9426 172.214 58.4669 173.843" stroke="#526F99" stroke-width="0.822499" stroke-miterlimit="10"/>
</g>
<g clip-path="url(#clip1_28_2751)">
<path d="M180.683 254.576C213.646 254.576 240.367 249.55 240.367 243.351C240.367 237.152 213.646 232.127 180.683 232.127C147.721 232.127 121 237.152 121 243.351C121 249.55 147.721 254.576 180.683 254.576Z" fill="#B3CEF4"/>
<path d="M199.111 216.875C197.13 218.064 195.288 219.725 193.814 221.165C191.115 223.805 188.627 227.086 187.403 230.676C186.733 232.651 186.202 235.035 186.546 237.121C186.704 238.095 187.193 239.015 188.114 239.447C189.052 239.884 190.177 239.843 191.168 239.633C197.002 238.398 201.926 233.759 205.073 228.881C206.076 227.33 206.88 225.646 207.404 223.875C207.9 222.208 208.547 219.877 207.806 218.204C206.88 216.112 204.84 214.935 202.567 215.424C201.396 215.675 200.23 216.199 199.111 216.875Z" fill="#822E7A"/>
<path d="M182.933 200.359C178.108 198.89 172.728 197.247 167.577 198.086C160.997 199.158 158.677 204.753 156.574 210.4C154.528 215.908 153.887 221.648 151.952 227.185C158.386 229.434 164.377 231.229 171.009 232.826C173.037 230.373 175.054 227.808 176.721 225.081C176.802 224.953 176.872 224.819 176.954 224.685C179.495 225.879 182.304 227.127 184.268 228.199L195.381 217.633L196.844 204.625C192.205 203.197 187.566 201.769 182.933 200.359Z" fill="#F49A82"/>
<path d="M176.721 225.075C178.83 221.625 180.375 217.901 180.684 213.781" stroke="black" stroke-width="0.874184" stroke-miterlimit="10" stroke-linejoin="round"/>
<path d="M174.203 229.394C167.005 229.114 159.703 226.969 152.424 224.189C151.049 229.155 147.639 233.712 143.03 236.014C141.508 236.772 139.719 237.494 139.148 239.097C138.67 240.426 139.282 241.964 140.337 242.903C141.392 243.835 142.808 244.26 144.201 244.47C150.204 245.362 156.107 242.751 162.116 241.894C164.249 241.591 166.399 241.504 168.55 241.352C169.144 241.312 169.768 241.253 170.281 240.944C170.764 240.653 171.091 240.169 171.388 239.686C173.323 236.573 173.754 233.03 174.203 229.394Z" fill="#FFE9FC"/>
<path d="M170.782 236.428C169.692 236.777 168.532 236.812 167.39 236.836C163.608 236.929 161.044 236.649 156.084 237.238C154.178 234.714 151.8 232.208 148.817 231.218C148.385 231.684 148.205 232.144 147.412 232.657C149.469 233.788 151.666 236.183 152.873 238.298C151.83 238.613 150.757 238.852 149.673 239.004C149.225 239.068 148.764 239.114 148.333 238.98C147.768 238.8 147.342 238.328 146.946 237.879C145.955 236.76 145.221 236.113 144.009 235.268C143.752 235.384 139.352 237.273 138.676 239.231C138.163 240.705 138.262 242.244 139.218 243.474C140.18 244.703 141.607 245.49 143.099 245.91C145.57 246.603 148.21 246.341 150.705 245.752C153.799 245.024 156.882 244.243 160 243.619C163.095 242.996 166.254 242.803 169.342 242.162C170.17 241.993 171.003 241.76 171.691 241.265C173.626 239.866 173.556 236.404 173.463 234.236C173.014 235.303 171.872 236.078 170.782 236.428Z" fill="#E491F2"/>
<path d="M139.026 242.448C140.867 243.841 142.93 244.756 145.186 244.919C147.651 245.1 150.443 244.569 152.85 243.992C154.621 243.567 156.265 242.809 158.013 242.314C159.826 241.795 161.69 241.469 163.573 241.306C165.624 241.125 167.693 241.137 169.715 240.729C171.015 240.466 172.286 240.041 173.509 239.528" stroke="#CE62D1" stroke-width="0.874184" stroke-miterlimit="10" stroke-linejoin="round"/>
<path d="M195.97 210.33C191.757 208.483 187.52 206.385 182.793 206.513C179.658 206.601 176.318 206.636 173.981 208.967C171.644 211.298 170.106 214.293 168.614 217.202C165.933 222.429 164.622 228.053 162.052 233.327C168.177 236.317 173.917 238.811 180.311 241.172C182.613 238.969 184.915 236.667 186.89 234.149C186.983 234.027 187.071 233.904 187.164 233.782C189.548 235.268 192.194 236.842 194.012 238.129L206.291 228.945L209.275 216.199C204.846 214.241 200.411 212.283 195.97 210.33Z" fill="#FFB399"/>
<path d="M186.896 234.149C189.396 230.967 191.372 227.453 192.159 223.402" stroke="#C45F4E" stroke-width="0.874184" stroke-miterlimit="10" stroke-linejoin="round"/>
<path d="M183.889 238.141C176.773 237.016 169.774 234.032 162.873 230.407C160.921 235.175 156.999 239.301 152.156 241.049C150.559 241.626 148.694 242.133 147.937 243.654C147.307 244.919 147.733 246.516 148.671 247.571C149.609 248.625 150.967 249.208 152.325 249.581C158.176 251.178 164.354 249.278 170.421 249.132C172.571 249.08 174.722 249.249 176.872 249.354C177.472 249.383 178.096 249.401 178.638 249.15C179.151 248.917 179.535 248.474 179.885 248.031C181.348 246.189 181.534 244.202 182.205 242.005C182.578 240.775 183.015 239.866 183.889 238.141Z" fill="white"/>
<path d="M176.062 245.263C172.309 244.785 169.814 244.126 164.826 243.963C163.316 241.183 161.347 238.351 158.543 236.923C158.048 237.319 157.803 237.745 156.941 238.135C158.806 239.563 160.618 242.256 161.492 244.534C160.408 244.692 159.318 244.762 158.223 244.75C157.774 244.744 157.308 244.727 156.9 244.523C156.364 244.26 156.02 243.73 155.693 243.229C154.883 241.976 154.009 240.717 152.937 239.697C152.663 239.773 148.28 241.486 147.313 243.322C146.584 244.703 146.45 246.236 147.214 247.594C147.977 248.952 149.271 249.948 150.687 250.584C153.03 251.639 155.676 251.778 158.234 251.574C161.405 251.324 164.569 251.009 167.746 250.858C170.898 250.706 174.051 250.986 177.198 250.823C178.043 250.776 178.935 250.729 179.658 250.286C181.861 248.923 181.488 246.067 181.523 244.563C180.474 245.886 177.198 245.403 176.062 245.263Z" fill="#F5AEFF"/>
<path d="M223.14 216.31C226.782 222.523 226.794 232.022 222.429 237.92C215.056 247.886 197.666 243.351 188.271 239.528C193.213 239.272 196.792 235.326 200.114 231.165C203.436 227.004 206.14 219.265 206.431 213.95C212.632 215.016 218.407 216.829 223.408 220.652" fill="#C45FB5"/>
<path d="M197.13 242.565C199.024 242.017 200.597 240.723 202.054 239.394C203.651 237.943 205.178 236.41 206.507 234.714C210.569 229.522 213.448 221.858 212.953 215.278" stroke="#A0359B" stroke-width="0.874184" stroke-miterlimit="10" stroke-linejoin="round"/>
<path d="M147.022 246.924C148.764 248.398 150.903 248.888 153.118 249.296C155.746 249.785 158.444 249.727 161.096 249.517C164.925 249.22 168.76 248.625 172.589 248.969C175.328 249.214 178.148 249.937 180.771 249.103" stroke="#E57FE5" stroke-width="0.874184" stroke-miterlimit="10" stroke-linejoin="round"/>
<path d="M193.383 182.875C188.505 182.823 184.699 184.88 181.418 188.406C179.466 190.504 177.909 193.109 176.202 195.498C180.415 198.028 188.668 201.286 193.383 202.655C194.968 198.89 197.596 192.765 197.596 192.765" fill="white"/>
<path d="M216.088 181.273C214.567 182.473 212.498 183.627 210.831 184.653C207.125 186.926 202.421 189.099 199.012 185.294C198.214 184.402 197.678 183.342 197.217 182.269C194.752 182.164 193.849 182.631 191.395 182.887C189.682 185.836 188.417 189.059 187.176 192.223C185.806 195.714 184.052 199.444 183.924 203.25C183.877 204.672 184.203 206.152 185.118 207.242C185.929 208.215 187.117 208.78 188.26 209.316C189.641 209.957 191.034 210.599 192.293 211.461C194.367 212.883 196.017 214.853 198.086 216.287C199.881 217.528 201.932 218.321 204.036 218.868C205.825 219.335 207.76 219.993 209.601 220.005C212.539 220.022 215.476 220.215 218.384 220.617C219.899 220.827 221.461 221.03 222.941 221.415C224.148 221.73 225.162 222.173 226.467 222.08C228.461 221.928 230.203 221.293 230.127 219.329C230.063 217.691 229.189 216.03 229.265 214.451C229.346 212.761 229.748 211.007 229.865 209.287C230.226 203.774 230.244 197.328 228.764 191.862C228.053 189.228 226.38 185.917 223.973 184.192C222.877 183.406 220.657 182.38 219.322 182.118C218.862 182.024 216.344 181.069 216.088 181.273Z" fill="#7FE1E5"/>
<path d="M186.307 194.49C185.369 189.74 187.625 185.183 191.523 182.316C192.957 182.292 194.041 182.31 195.469 182.287C194.018 183.971 188.027 190.248 186.307 194.49Z" fill="#F5AEFF"/>
<path d="M204.176 185.061C201.693 185.457 195.58 185.066 197.066 180.515C197.771 178.359 199.467 176.756 201.332 175.905C203.197 175.054 205.236 174.862 207.235 174.821C210.213 174.763 215.196 176.039 212.422 180.422C210.522 183.417 207.282 184.565 204.176 185.061Z" fill="#FFB399"/>
<path d="M213.664 179.029C210.639 181.745 207.049 183.825 203.191 185.096C202.643 185.276 202.037 185.439 201.507 185.218C201.122 185.061 200.848 184.723 200.592 184.402C199.799 183.406 199.03 182.392 198.29 181.36C197.555 181.482 196.611 181.611 195.877 181.727C195.789 181.739 195.69 181.762 195.638 181.832C195.574 181.925 195.615 182.053 195.655 182.164C196.291 183.685 196.938 185.218 197.835 186.599C198.33 187.363 198.919 188.097 199.682 188.592C200.726 189.268 202.025 189.455 203.255 189.303C204.485 189.152 205.656 188.691 206.775 188.149C210.464 186.354 213.693 183.633 216.082 180.299L213.664 179.029Z" fill="#F5AEFF"/>
<path d="M201.606 185.212C201.466 185.585 201.326 185.958 201.186 186.331C201.069 186.646 200.947 186.966 200.883 187.299C200.836 187.549 200.819 187.811 200.801 188.068C200.784 188.394 200.761 188.726 200.743 189.053" stroke="#DA78EF" stroke-width="0.874184" stroke-miterlimit="10" stroke-linejoin="round"/>
<path d="M204.823 184.711C204.362 186.121 204.17 187.613 204.269 189.094" stroke="#DA78EF" stroke-width="0.874184" stroke-miterlimit="10" stroke-linejoin="round"/>
<path d="M212.976 178.603C208.838 181.494 207.014 182.98 202.503 185.113C204.45 186.99 206.012 189.525 207.061 191.728C211.408 188.919 214.742 184.53 217.434 179.874L212.976 178.603Z" fill="white"/>
<path d="M198.633 179.518L195.055 180.165C194.74 182.013 195.055 183.948 195.679 185.69C196.296 187.433 197.153 189.047 198.062 190.609C199.234 188.732 200.79 186.727 202.491 185.218C200.947 183.592 199.636 181.657 198.633 179.518Z" fill="white"/>
<path d="M186.074 190.912C186.873 190.766 187.7 190.766 188.493 190.918" stroke="#DA78EF" stroke-width="0.874184" stroke-miterlimit="10" stroke-linejoin="round"/>
<path d="M187.182 187.526C188.405 187.345 189.658 187.368 190.871 187.59" stroke="#DA78EF" stroke-width="0.874184" stroke-miterlimit="10" stroke-linejoin="round"/>
<path d="M189.647 184.111C190.888 184.07 192.153 184.029 193.336 184.396" stroke="#DA78EF" stroke-width="0.874184" stroke-miterlimit="10" stroke-linejoin="round"/>
<path d="M229.673 111.775C225.302 113.302 221.712 116.904 220.191 121.28C219.491 123.297 219.218 125.471 219.503 127.586C219.917 130.646 221.461 133.426 223.052 136.072C224.125 137.849 225.244 139.615 226.701 141.089C230.04 144.47 236.247 146.906 241.014 146.323C247.017 145.589 251.195 139.72 251.889 134.032C253.276 122.697 242.255 107.369 229.673 111.775Z" fill="#E25B37"/>
<path d="M222.994 116.956C222.691 116.029 222.341 115.109 221.805 114.298C221.543 113.908 221.193 113.512 220.727 113.453C220.127 113.378 219.614 113.879 219.276 114.38C218.367 115.738 217.994 117.399 217.999 119.031C217.999 120.663 218.361 122.277 218.81 123.845C219.008 124.526 219.252 125.249 219.812 125.692C220.389 126.147 221.176 126.205 221.91 126.246C222.673 126.286 223.973 126.403 224.597 125.826C225.244 125.226 224.736 124.066 224.591 123.332C224.165 121.181 223.676 119.042 222.994 116.956Z" fill="#FFF0B0"/>
<path d="M229.387 119.118C229.923 118.512 230.483 117.923 231.101 117.405C231.392 117.16 231.713 116.927 232.08 116.816C233.088 116.525 233.665 117.381 233.816 118.261C234.463 121.927 233.403 125.645 231.742 128.903C231.27 129.824 230.64 130.354 229.574 130.278C227.796 130.15 226.252 128.956 225.156 127.551C224.742 127.021 224.358 126.415 224.34 125.739C224.299 123.949 226.31 122.574 227.388 121.403C228.076 120.668 228.717 119.876 229.387 119.118Z" fill="#FFF0B0"/>
<path d="M243.631 143.817C245.705 146.865 249.499 148.806 253.742 149.138C262.641 149.831 266.96 140.448 264.85 133.612C263.434 129.02 257.74 122.685 251.819 123.617C248.124 124.2 245.612 127.767 244.173 130.588C242.885 133.111 241.906 135.839 241.975 138.665C242.022 140.6 242.622 142.337 243.631 143.817Z" fill="#E25B37"/>
<path d="M259.937 143.257C258.643 144.744 257.588 146.504 257.291 148.45C256.988 150.397 257.542 152.541 259.022 153.841C259.92 154.628 261.073 155.053 262.239 155.298C265.141 155.904 268.498 155.298 270.381 153.008C271.103 152.133 271.564 151.067 271.832 149.965C272.356 147.786 272.088 145.373 270.87 143.496C268.172 139.335 262.95 139.784 259.937 143.257Z" fill="#E25B37"/>
<path d="M263.574 155.688C263.102 156.935 263.212 158.381 264.215 159.564C265.013 160.508 266.284 161.003 267.519 160.968C269.384 160.91 270.794 160.012 271.319 158.247C272.135 155.507 270.392 152.751 267.403 152.862C265.625 152.92 264.156 154.155 263.574 155.688Z" fill="#E25B37"/>
<path d="M266.254 161.05C268.125 159.919 272.519 161.021 270.946 163.801C270.608 164.395 270.06 164.844 269.46 165.176C268.644 165.625 267.688 165.881 266.779 165.689C264.419 165.188 264.331 162.303 266.202 161.091C266.214 161.073 266.237 161.061 266.254 161.05Z" fill="#E25B37"/>
<path d="M177.146 144.813C177.892 141.287 179.588 137.983 181.971 135.285C186.29 130.395 193.441 128.821 199.711 128.787C209.741 128.734 221.339 134.125 226.001 143.479C231.182 153.876 227.58 168.294 218.501 175.41C211.117 181.191 200.976 183.942 191.692 182.485C186.552 181.675 181.581 179.338 178.049 175.515C174.523 171.691 173.702 167.81 174.448 162.664C174.937 159.266 175.386 154.639 176.114 151.288C176.581 149.149 176.697 146.952 177.146 144.813Z" fill="#FFB399"/>
<path d="M193.056 164.797C192.135 163.55 191.028 162.769 190.02 162.647C189.012 162.524 188.102 163.061 187.531 164.121" stroke="#C45F4E" stroke-width="0.874184" stroke-miterlimit="10" stroke-linejoin="round"/>
<path d="M209.153 154.849C208.861 155.449 208.057 155.618 207.404 155.478C206.798 155.344 206.262 155.018 205.673 154.831C204.98 154.61 204.24 154.627 203.546 154.412C202.847 154.19 202.2 153.794 202.486 152.99C203.004 151.544 205.598 151.078 206.827 151.556C207.871 151.958 209.788 153.538 209.153 154.849Z" fill="#E25B37"/>
<path d="M181.033 149.167C181.657 149.091 182.321 149.208 182.811 149.598C183.475 150.134 183.702 151.119 182.875 151.649C182.467 151.912 181.954 151.953 181.464 151.953C180.742 151.947 179.972 152.32 179.232 152.232C178.142 152.11 177.839 151.172 178.562 150.332C179.157 149.656 180.159 149.278 181.033 149.167Z" fill="#E25B37"/>
<path d="M205.813 164.29C206.571 164.477 207.468 164.809 207.608 165.578C207.69 166.044 207.433 166.516 207.066 166.814C206.699 167.111 206.239 167.262 205.784 167.379C204.782 167.647 203.733 167.81 202.695 167.699C201.168 167.53 197.975 165.765 199.525 163.847C200.79 162.291 204.298 163.917 205.813 164.29Z" fill="#ED927A"/>
<path d="M182.135 161.114C182.443 161.283 182.63 161.633 182.671 161.982C182.816 163.189 181.762 163.94 180.753 164.343C179.792 164.727 178.708 164.768 177.711 164.494C176.919 164.279 175.887 163.334 175.974 162.419C176.062 161.487 177.274 161.196 178.061 161.114C179.156 160.997 180.258 160.951 181.365 160.974C181.616 160.98 181.878 160.992 182.105 161.102C182.117 161.102 182.129 161.108 182.135 161.114Z" fill="#ED927A"/>
<path d="M179.774 157.448C179.664 158.048 179.611 158.754 179.768 159.208C179.943 159.727 180.357 159.966 180.777 160.042C181.086 160.1 181.563 160.047 181.843 159.82C182.28 159.465 182.484 158.748 182.624 157.967C182.752 157.256 182.764 156.463 182.543 155.979C182.356 155.583 181.977 155.437 181.628 155.373C181.237 155.303 180.777 155.35 180.444 155.717C180.095 156.09 179.891 156.795 179.774 157.448Z" fill="#141833"/>
<path d="M201.949 159.808C201.839 160.409 201.786 161.114 201.944 161.568C202.118 162.087 202.532 162.326 202.952 162.402C203.261 162.46 203.739 162.408 204.018 162.18C204.455 161.825 204.659 161.108 204.799 160.327C204.927 159.616 204.939 158.824 204.718 158.34C204.531 157.944 204.152 157.798 203.803 157.734C203.412 157.664 202.952 157.71 202.62 158.078C202.27 158.451 202.066 159.156 201.949 159.808Z" fill="#141833"/>
<path d="M195.696 168.446C196.063 168.923 196.302 170.759 195.475 172.17C193.971 174.74 190.066 176.022 187.263 174.466C184.547 172.95 183.988 168.801 185.06 168.492C185.416 168.393 187.724 168.58 189.53 168.545C192.526 168.486 195.329 167.973 195.696 168.446Z" fill="#702218"/>
<mask id="mask1_28_2751" style="mask-type:luminance" maskUnits="userSpaceOnUse" x="184" y="168" width="13" height="8">
<path d="M195.696 168.446C196.063 168.923 196.302 170.759 195.475 172.17C193.971 174.74 190.066 176.022 187.263 174.466C184.547 172.95 183.988 168.801 185.06 168.492C185.416 168.393 187.724 168.58 189.53 168.545C192.526 168.486 195.329 167.973 195.696 168.446Z" fill="white"/>
</mask>
<g mask="url(#mask1_28_2751)">
<path d="M198.173 170.992C197.211 170.543 196.127 170.38 195.067 170.398C194.006 170.415 192.951 170.613 191.914 170.846C190.101 171.254 188.271 171.802 186.779 172.904C186.325 173.242 185.894 173.644 185.643 174.151C185.392 174.658 185.346 175.299 185.637 175.783C185.975 176.354 186.669 176.593 187.321 176.709C188.137 176.855 188.971 176.878 189.798 176.89C191.401 176.913 193.073 176.896 194.495 176.162C195.078 175.864 195.597 175.451 196.086 175.013C197.042 174.151 197.887 173.172 198.598 172.099" fill="#C64E39"/>
<path d="M193.143 167.594C193.237 167.845 193.336 168.096 193.371 168.358C193.406 168.62 193.382 168.906 193.242 169.133C193.009 169.518 192.531 169.669 192.1 169.786C190.451 170.234 188.837 170.485 187.147 170.065C185.515 169.663 185.701 168.166 186.156 166.866" fill="white"/>
</g>
<path d="M223.734 157.518C223.192 154.278 221.91 151.183 220.028 148.555C218.471 149.423 216.49 149.382 214.963 148.45C213.372 147.477 212.381 145.699 211.688 143.904C211 142.109 210.615 140.349 209.712 138.659C205.708 140.955 201.454 142.908 196.949 143.648C191.692 144.51 185.159 143.852 181.604 139.213C179.477 140.944 178.498 143.665 177.49 146.288C176.493 148.881 175.671 153.829 175.671 153.829C175.671 153.829 171.231 152.856 167.641 148.409C162.535 142.086 161.824 132.686 165.583 125.482C169.342 118.279 177.146 113.506 185.253 112.917C193.359 112.323 201.553 115.738 207.247 121.531C225.756 121.024 231.474 130.914 234.014 135.821C239.219 145.88 237.622 160.024 230.197 166.971C229.078 168.014 227.825 168.743 226.362 169.122" fill="#E25B37"/>
<path d="M209.298 138.816C210.936 137.791 212.422 136.526 213.704 135.075" stroke="#B73827" stroke-width="0.874184" stroke-miterlimit="10" stroke-linejoin="round"/>
<path d="M169.173 127.936C167.303 131.794 167.011 136.584 168.136 140.745C169.331 145.163 172.39 148.444 176.377 149.825" stroke="#B73827" stroke-width="0.874184" stroke-miterlimit="10" stroke-linejoin="round"/>
<path d="M215.95 160.113C216.509 153.878 211.908 148.37 205.672 147.811C199.437 147.252 193.929 151.854 193.37 158.089C192.811 164.324 197.413 169.832 203.648 170.391C209.883 170.95 215.391 166.349 215.95 160.113Z" stroke="#FFF0B0" stroke-width="1.16558" stroke-miterlimit="10"/>
<path d="M187.64 155.771C187.966 149.52 183.906 144.226 178.571 143.947C173.235 143.668 168.645 148.51 168.318 154.761C167.991 161.013 172.052 166.307 177.387 166.586C182.723 166.864 187.313 162.023 187.64 155.771Z" stroke="#FFF0B0" stroke-width="1.16558" stroke-miterlimit="10"/>
<path d="M187.659 155.443C189.804 154.977 191.762 155.426 193.837 156.481" stroke="#FFF0B0" stroke-width="1.16558" stroke-miterlimit="10"/>
<path d="M216.053 156.976L226.368 157.069" stroke="#FFF0B0" stroke-width="1.16558" stroke-miterlimit="10"/>
<path d="M219.363 160.059C220.5 158.52 222.108 157.279 224.02 156.778C225.931 156.271 228.14 156.562 229.795 157.739C232.045 159.342 232.896 162.244 232.802 164.861C232.715 167.414 231.858 169.92 230.256 171.878C228.653 173.842 226.293 175.229 223.682 175.596C221.852 175.853 219.859 175.579 218.285 174.547C216.706 173.516 215.645 171.639 215.942 169.885" fill="#FFB399"/>
<path d="M219.777 175.276C219.252 175.095 218.745 174.856 218.273 174.547C216.694 173.516 215.633 171.639 215.931 169.885" stroke="#C45F4E" stroke-width="0.874184" stroke-miterlimit="10" stroke-linejoin="round"/>
<path d="M219.363 160.059C220.5 158.52 222.108 157.279 224.02 156.778C225.931 156.271 228.14 156.562 229.795 157.739" stroke="#C45F4E" stroke-width="0.874184" stroke-miterlimit="10" stroke-linejoin="round"/>
<path d="M228.082 164.092C227.301 162.956 225.914 162.431 224.626 162.542C221.933 162.775 220.121 165.141 218.407 167.111" stroke="#C45F4E" stroke-width="0.874184" stroke-miterlimit="10" stroke-linejoin="round"/>
<path d="M225.651 169.797C225.89 167.21 224.655 164.908 222.668 163.113" stroke="#C45F4E" stroke-width="0.874184" stroke-miterlimit="10" stroke-linejoin="round"/>
<path d="M199.991 182.735C202.287 182.666 204.572 182.246 206.746 181.494" stroke="#C45F4E" stroke-width="0.874184" stroke-miterlimit="10" stroke-linejoin="round"/>
<path d="M181.721 139.37C180.066 137.668 178.958 133.42 179.436 131.106" stroke="#B73827" stroke-width="0.874184" stroke-miterlimit="10" stroke-linejoin="round"/>
<path d="M219.66 148.712C220.523 148.188 221.397 147.634 222.044 146.853C222.883 145.833 223.268 144.481 223.262 143.152C223.256 141.829 222.895 140.524 222.388 139.306" stroke="#B73827" stroke-width="0.874184" stroke-miterlimit="10" stroke-linejoin="round"/>
<path d="M243.718 145.606C251.422 141.276 252.483 131.065 250.094 123.39" stroke="#B73827" stroke-width="0.874184" stroke-miterlimit="10" stroke-linejoin="round"/>
<path d="M256.953 148.969C260.98 147.82 264.279 144.405 265.275 140.337" stroke="#B73827" stroke-width="0.874184" stroke-miterlimit="10" stroke-linejoin="round"/>
<path d="M263.119 155.507C265.637 156.032 268.393 155.233 270.246 153.444" stroke="#B73827" stroke-width="0.874184" stroke-miterlimit="10" stroke-linejoin="round"/>
<path d="M266.202 160.834C267.432 160.945 268.789 161.021 269.763 160.257" stroke="#B73827" stroke-width="0.874184" stroke-miterlimit="10" stroke-linejoin="round"/>
<path d="M207.538 121.869C208.838 122.994 210.254 124.014 211.845 124.666C213.436 125.319 215.219 125.587 216.892 125.208" stroke="#B73827" stroke-width="0.874184" stroke-miterlimit="10" stroke-linejoin="round"/>
<path d="M219.847 123.343C224.567 124.759 236.392 130.564 236.928 146.288" stroke="#B73827" stroke-width="0.874184" stroke-miterlimit="10" stroke-linejoin="round"/>
<path d="M246.41 145.862C247.99 148.986 251.44 151.072 254.942 151.014" stroke="#E25B37" stroke-width="0.874184" stroke-miterlimit="10" stroke-linejoin="round"/>
<path d="M252.11 124.573C255.298 123.378 259.028 124.311 261.732 126.386C264.436 128.46 266.231 131.526 267.426 134.714" stroke="#E25B37" stroke-width="0.874184" stroke-miterlimit="10" stroke-linejoin="round"/>
<path d="M270.089 154.342C271.703 155.012 272.63 156.999 272.111 158.666" stroke="#E25B37" stroke-width="0.874184" stroke-miterlimit="10" stroke-linejoin="round"/>
<path d="M136.846 175.969L153.572 132.645L222.667 174.815L183.318 212.108L136.846 175.969Z" fill="url(#paint0_linear_28_2751)"/>
<path d="M182.082 212.522L143.047 205.371C142.464 205.266 142.452 204.433 143.035 204.316L158.159 201.146C159.103 200.948 160.082 200.936 161.032 201.111L200.428 208.331C200.929 208.425 200.941 209.142 200.44 209.246L184.955 212.493C184.011 212.685 183.032 212.697 182.082 212.522Z" fill="#2E3247"/>
<path d="M185.322 211.77C184.378 211.968 183.399 211.98 182.449 211.805L143.42 204.654C143.21 204.613 143.076 204.479 143.018 204.316C142.464 204.456 142.482 205.26 143.053 205.365L182.088 212.516C183.038 212.691 184.011 212.679 184.961 212.481L200.446 209.235C200.801 209.159 200.894 208.786 200.743 208.536L185.322 211.77Z" fill="#576087"/>
<path d="M181.896 212.51L143.379 205.453C142.004 205.202 140.937 204.112 140.716 202.731L136.601 177.152C136.415 175.993 137.429 175.002 138.583 175.212L177.099 182.269C178.475 182.52 179.541 183.61 179.763 184.991L183.877 210.569C184.064 211.729 183.05 212.726 181.896 212.51Z" fill="#2E3247"/>
<path d="M161.23 196.74L155.478 195.685C155.274 195.65 155.111 195.487 155.081 195.277L154.47 191.46C154.44 191.285 154.592 191.139 154.767 191.168L160.519 192.223C160.723 192.258 160.886 192.421 160.915 192.631L161.527 196.448C161.556 196.623 161.405 196.775 161.23 196.74Z" fill="#576087"/>
<path d="M183.877 210.57L179.763 184.991C179.541 183.61 178.475 182.52 177.099 182.269L138.583 175.212C137.866 175.078 137.201 175.416 136.846 175.964C137.044 175.929 137.254 175.911 137.47 175.952L175.986 183.009C177.361 183.26 178.428 184.35 178.649 185.731L182.764 211.31C182.834 211.747 182.735 212.161 182.513 212.499C183.382 212.335 184.029 211.514 183.877 210.57Z" fill="#576087"/>
<path d="M209.8 198.267L207.399 204.981C203.558 203.599 199.531 202.644 195.55 201.705C194.548 204.683 191.383 213.116 191.349 214.259C194.752 217.872 198.61 221.159 203.121 223.234C207.206 225.11 212.16 225.92 216.618 224.889C227.033 222.476 228.839 209.445 228.828 200.581L209.8 198.267Z" fill="#FFB399"/>
<path d="M192.159 214.427C195.381 218.624 199.636 221.928 204.385 223.915" stroke="#C45F4E" stroke-width="0.874184" stroke-miterlimit="10" stroke-linejoin="round"/>
<path d="M210.878 193.575C209.526 196.606 208.611 199.147 207.06 203.524C214.252 205.791 223.355 207.323 231.281 208.198C231.281 200.557 231.52 195.703 227.854 188.995C226.38 186.302 224.515 184.577 221.42 183.802" fill="white"/>
<path d="M208.424 199.712C215.919 201.542 223.606 202.918 231.299 203.559" stroke="#7FE1E5" stroke-width="0.874184" stroke-miterlimit="10" stroke-linejoin="round"/>
<path d="M209.374 197.078C209.054 195.009 209.578 193.022 210.72 191.268C211.863 189.513 213.425 188.08 215.021 186.728C216.77 185.242 218.955 183.365 221.082 182.677C225.214 182.846 227.219 186.821 227.213 186.867C223.449 186.867 220.354 188.855 218.623 189.799C215.161 191.687 212.014 194.147 209.374 197.078Z" fill="#F5AEFF"/>
<path d="M207.451 204.951C210.674 206.245 213.605 208.25 215.989 210.773" stroke="#C45F4E" stroke-width="0.874184" stroke-miterlimit="10" stroke-linejoin="round"/>
<path d="M210.715 191.431C211.344 192.427 211.74 193.57 211.857 194.741" stroke="#DA78EF" stroke-width="0.874184" stroke-miterlimit="10" stroke-linejoin="round"/>
<path d="M213.238 188.435C214.334 189.245 215.231 190.329 215.826 191.553" stroke="#DA78EF" stroke-width="0.874184" stroke-miterlimit="10" stroke-linejoin="round"/>
<path d="M216.496 185.626C218.332 186.028 219.812 187.334 220.785 188.616" stroke="#DA78EF" stroke-width="0.874184" stroke-miterlimit="10" stroke-linejoin="round"/>
<path d="M219.474 183.528C220.913 183.919 223.233 184.717 224.684 187.06" stroke="#DA78EF" stroke-width="0.874184" stroke-miterlimit="10" stroke-linejoin="round"/>
<path d="M198.231 203.092C196.395 199.03 192.141 196.28 187.683 196.151C187.018 196.134 184.338 196.361 182.187 197.078C179.844 197.853 178.061 199.153 178.556 200.202C178.784 200.685 179.343 200.913 179.868 201C179.011 200.948 178.457 202.096 178.836 202.865C179.215 203.64 180.153 203.984 181.016 203.961C180.211 204.083 180.101 205.336 180.689 205.896C181.278 206.455 182.175 206.502 182.991 206.513C182.379 206.461 181.989 207.283 182.234 207.842C182.478 208.402 183.102 208.699 183.702 208.839C184.303 208.973 184.932 209.008 185.491 209.258C186.849 209.87 187.333 211.531 188.33 212.644C189.303 213.722 191.139 214.369 192.578 214.299" fill="#FFB399"/>
<path d="M194.595 215.278C193.703 214.579 192.566 214.194 191.43 214.206C189.775 214.084 188.388 213.215 187.473 211.828" stroke="#C45F4E" stroke-width="0.874184" stroke-miterlimit="10" stroke-linejoin="round"/>
<path d="M182.525 206.618C184.39 206.164 186.412 206.397 188.12 207.265" stroke="#C45F4E" stroke-width="0.874184" stroke-miterlimit="10" stroke-linejoin="round"/>
<path d="M180.136 204.06C181.109 203.78 182.094 203.547 183.09 203.355C183.708 203.232 184.338 203.133 184.967 203.133C185.981 203.133 186.978 203.407 187.957 203.675" stroke="#C45F4E" stroke-width="0.874184" stroke-miterlimit="10" stroke-linejoin="round"/>
<path d="M178.947 200.913C180.41 200.4 181.89 199.904 183.417 199.66C184.95 199.415 186.546 199.432 188.015 199.928" stroke="#C45F4E" stroke-width="0.874184" stroke-miterlimit="10" stroke-linejoin="round"/>
<path d="M137.79 185.358C139.439 184.892 141.223 185.247 142.796 185.97C143.717 186.395 145.203 187.549 144.044 188.581C143.735 188.86 143.327 189.006 142.93 189.14C143.268 189.437 143.793 189.327 144.213 189.484C144.609 189.63 144.889 190.044 144.871 190.469C144.859 190.813 144.673 191.139 144.422 191.378C144.172 191.617 143.857 191.78 143.548 191.932C143.21 192.095 142.86 192.247 142.511 192.381C143.088 192.369 143.77 192.421 144.067 192.917C144.265 193.243 144.201 193.68 144.009 194.012C143.81 194.339 143.502 194.583 143.181 194.799C142.802 195.056 142.406 195.289 141.998 195.493C142.324 195.475 142.68 195.504 142.925 195.72C143.181 195.941 143.263 196.32 143.193 196.658C143.129 196.99 142.936 197.288 142.732 197.562C142.324 198.109 141.87 198.471 141.322 198.873C141.258 198.919 141.188 198.972 141.147 199.042C141.083 199.153 141.095 199.292 141.106 199.421C141.159 200.132 140.996 200.86 140.646 201.484C140.611 201.554 140.558 201.624 140.483 201.635C140.43 201.641 140.372 201.612 140.325 201.589C139.416 201.064 138.554 200.417 137.918 199.578C137.283 198.739 136.887 197.69 136.968 196.641C135.797 196 135.255 194.42 135.785 193.196C135.214 192.829 134.929 192.118 134.952 191.442C134.975 190.766 135.278 190.125 135.669 189.572C135.646 189.601 135.22 188.511 135.208 188.377C135.156 187.905 135.226 187.409 135.424 186.978C135.82 186.092 136.91 185.609 137.79 185.358Z" fill="#FFB399"/>
<path d="M141.374 198.914C140.815 199.246 140.226 199.52 139.614 199.73" stroke="#C45F4E" stroke-width="0.874184" stroke-miterlimit="10" stroke-linejoin="round"/>
<path d="M142.691 195.365C141.613 195.446 140.529 195.382 139.451 195.475C138.46 195.563 137.26 195.761 136.794 196.752" stroke="#C45F4E" stroke-width="0.874184" stroke-miterlimit="10" stroke-linejoin="round"/>
<path d="M143.408 192.252C141.363 192.404 139.288 192.229 137.283 192.625C136.572 192.765 135.838 193.004 135.36 193.546" stroke="#C45F4E" stroke-width="0.874184" stroke-miterlimit="10" stroke-linejoin="round"/>
<path d="M143.705 189.152C141.613 188.837 139.48 188.797 137.376 189.03C136.531 189.123 135.64 189.286 135.028 189.875" stroke="#C45F4E" stroke-width="0.874184" stroke-miterlimit="10" stroke-linejoin="round"/>
<path d="M260.438 161.726C260.759 163.055 261.149 164.401 261.918 165.537C262.688 166.668 263.912 167.571 265.281 167.635" stroke="#526F99" stroke-width="0.874184" stroke-miterlimit="10"/>
<path d="M256.359 164.873C257.198 166.715 258.876 168.148 260.829 168.69" stroke="#526F99" stroke-width="0.874184" stroke-miterlimit="10"/>
<path d="M131.374 189.327C130.937 187.223 131.753 184.903 133.413 183.534" stroke="#526F99" stroke-width="0.874184" stroke-miterlimit="10"/>
<path d="M129.561 184.158C129.806 182.613 130.564 181.156 131.683 180.066" stroke="#526F99" stroke-width="0.874184" stroke-miterlimit="10"/>
</g>
<defs>
<linearGradient id="paint0_linear_28_2751" x1="168.365" y1="183.036" x2="185.193" y2="158.071" gradientUnits="userSpaceOnUse">
<stop offset="0.2968" stop-color="white" stop-opacity="0.5"/>
<stop offset="0.8949" stop-color="white" stop-opacity="0"/>
</linearGradient>
<clipPath id="clip0_28_2751">
<rect width="113.763" height="183.779" fill="white" transform="matrix(-1 0 0 1 166.763 67)"/>
</clipPath>
<clipPath id="clip1_28_2751">
<rect width="151.7" height="143.576" fill="white" transform="translate(121 111)"/>
</clipPath>
</defs>
</svg>
