<svg width="143" height="183" viewBox="0 0 143 183" fill="none" xmlns="http://www.w3.org/2000/svg">
<path d="M110.419 131.592C107.952 130.646 61.1325 134.405 60.1737 133.934C59.2149 133.462 54.1728 122.773 52.2792 123.579C50.3856 124.384 53.4671 145.862 54.8804 146.653C56.2937 147.446 122.409 161.275 125.354 161.244C128.299 161.213 117.541 134.324 110.419 131.592Z" fill="#7EB3CE"/>
<path d="M59.9341 118.569C59.9341 118.569 55.0339 117.492 53.1477 117.781C51.2608 118.069 43.612 122.303 43.6458 123.791C43.6796 125.279 50.0029 122.217 50.0029 122.217C50.0029 122.217 44.171 125.91 44.6003 127.198C45.0296 128.486 51.3001 124.843 51.3001 124.843C51.3001 124.843 46.274 128.384 47.0442 129.47C47.8145 130.555 52.6723 126.537 52.6723 126.537C52.6723 126.537 48.7493 130.571 49.9624 131.613C51.1754 132.654 54.8736 128.164 54.8736 128.164C54.8736 128.164 58.4489 130.384 61.2504 127.279C61.2504 127.279 75.1316 128.06 83.4413 127.054C91.751 126.048 100.852 120.127 105.331 112.755C107.251 109.594 109.811 98.089 100.34 99.6651C96.1014 100.37 83.8577 111.944 80.7099 113.214C77.5608 114.485 59.9341 118.569 59.9341 118.569Z" fill="#FFDAB6"/>
<path d="M62.4739 116.626C61.0366 117.329 61.5556 126.664 64.2483 128.907C65.9976 130.364 83.3405 128.907 86.7132 127.782C92.0243 126.011 101.339 121.654 106.873 111.759C112.407 101.864 107.158 94.3709 99.0668 99.8748C93.3485 103.765 81.4868 111.777 80.3635 112.389C79.2407 113.001 63.8202 115.968 62.4739 116.626Z" fill="#CDD14B"/>
<path d="M19.1498 167.698C21.5839 168.349 51.9488 170.993 53.4173 170.447C54.8859 169.901 86.1414 148.324 86.7058 146.892C87.2709 145.46 55.0837 142.732 55.2293 142.242C55.3748 141.752 47.2973 113.844 45.5843 113.234C43.8706 112.624 1.2811 126.576 0.0569721 128.29C-1.16654 130.003 17.707 167.311 19.1498 167.698Z" fill="#6A7F89"/>
<path d="M51.3075 142.695C51.2338 142.754 49.9562 143.547 47.9588 144.773C45.8219 146.095 42.8627 147.916 39.6755 149.855C39.2204 150.134 38.7653 150.413 38.3021 150.699C35.3944 152.469 32.3762 154.305 29.681 155.927C27.9483 156.97 26.3471 157.925 25.0038 158.725C22.5734 160.157 20.958 161.075 20.8327 161.053C20.708 161.031 19.8929 159.555 18.6885 157.264C18.0349 156.008 17.2641 154.51 16.4269 152.873C15.1567 150.354 13.7318 147.505 12.359 144.715C12.1385 144.275 11.926 143.834 11.7129 143.401C10.2959 140.515 8.9667 137.753 7.93114 135.544C7.00613 133.553 6.31576 132.012 6.02217 131.226C5.90485 130.925 5.85326 130.734 5.868 130.675C5.91222 130.506 6.99876 130.014 8.77568 129.316C12.2638 127.935 18.4391 125.755 24.6371 123.647C27.7727 122.575 30.9156 121.525 33.7207 120.608C36.5037 119.69 38.9636 118.904 40.7479 118.354C42.5838 117.795 43.7146 117.48 43.7809 117.546C43.8399 117.605 44.0524 118.207 44.3902 119.198C44.728 120.234 45.1979 121.687 45.7267 123.376C46.2556 125.05 46.8428 126.959 47.4379 128.905C48.5392 132.503 49.6479 136.241 50.3972 138.914C50.7129 140.037 50.9629 140.977 51.1244 141.631C51.2854 142.277 51.3517 142.666 51.3075 142.695Z" fill="white"/>
<path d="M25.6973 164.627C26.1512 164.719 42.8424 166.103 43.3571 166.103C43.8712 166.103 72.6932 147.837 72.6932 147.562C72.6932 147.287 55.9411 145.084 55.2299 145.267C54.5186 145.451 25.2084 164.528 25.6973 164.627Z" fill="#556970"/>
<path d="M56.6567 160.253C56.8127 160.503 62.6422 161.468 62.9174 161.422C63.1925 161.376 69.159 157.199 69.3426 157.016C69.5263 156.832 63.5598 155.776 63.2847 155.868C63.0095 155.961 56.427 159.887 56.6567 160.253Z" fill="#556970"/>
<g opacity="0.1">
<path d="M50.3966 138.914L8.7757 129.316C12.2638 127.935 18.4391 125.755 24.6371 123.647L47.4373 128.905C48.5392 132.503 49.6479 136.241 50.3966 138.914Z" fill="#6A7F89"/>
<path d="M51.3075 142.695C51.2338 142.754 49.9562 143.547 47.9588 144.773L7.9318 135.544C7.00679 133.553 6.31642 132.012 6.02283 131.226L51.1239 141.631C51.2854 142.277 51.3517 142.666 51.3075 142.695Z" fill="#6A7F89"/>
<path d="M45.7268 123.376L33.7207 120.608C36.5037 119.69 38.9637 118.904 40.7479 118.354L44.3902 119.198C44.728 120.233 45.1979 121.687 45.7268 123.376Z" fill="#6A7F89"/>
<path d="M29.6817 155.928C27.949 156.97 26.3478 157.925 25.0045 158.725L18.6891 157.264C18.0356 156.009 17.2648 154.511 16.4276 152.873L29.6817 155.928Z" fill="#6A7F89"/>
<path d="M39.6762 149.855C39.221 150.134 38.7659 150.413 38.3028 150.7L12.3596 144.715C12.1391 144.274 11.9266 143.833 11.7135 143.4L39.6762 149.855Z" fill="#6A7F89"/>
</g>
<path d="M19.2201 132.586C19.1348 132.645 19.0765 132.712 19.0453 132.788C19.0375 132.807 19.0339 132.836 19.0344 132.875C19.0389 132.905 19.0405 132.927 19.0394 132.944C19.0344 132.969 19.0698 133.092 19.1457 133.312C19.2282 133.529 19.3275 133.786 19.4435 134.083C19.5595 134.38 19.6844 134.689 19.8182 135.011C19.9493 135.325 20.0736 135.595 20.1913 135.821C20.2922 136.007 20.4219 136.177 20.5803 136.331C20.7426 136.475 20.9319 136.534 21.1483 136.506C21.3011 136.459 21.4299 136.381 21.5348 136.275C21.6435 136.159 21.7035 136.02 21.7147 135.858C21.7241 135.674 21.6873 135.5 21.6042 135.339C21.5251 135.167 21.4673 134.991 21.4311 134.81C21.5304 134.784 21.6355 134.744 21.7465 134.69C21.8641 134.633 21.9832 134.58 22.1037 134.53C22.2241 134.48 22.3427 134.434 22.4592 134.393C22.5825 134.35 22.6965 134.322 22.8014 134.31C23.0601 134.61 23.2353 134.946 23.3267 135.316C23.4154 135.68 23.4265 136.036 23.3601 136.386C23.2938 136.736 23.151 137.062 22.9318 137.366C22.7165 137.66 22.4262 137.887 22.0609 138.047C21.834 138.18 21.5863 138.284 21.3181 138.356C21.0526 138.435 20.7885 138.471 20.5259 138.462C20.2604 138.447 20.0117 138.378 19.7797 138.255C19.5543 138.129 19.3698 137.931 19.2259 137.661C19.1121 137.426 18.9975 137.179 18.8821 136.921C18.7666 136.662 18.6386 136.374 18.4981 136.056C18.3615 135.728 18.2081 135.36 18.038 134.951C17.8718 134.534 17.6792 134.052 17.46 133.507C17.3992 133.399 17.3552 133.284 17.3278 133.162C17.3044 133.03 17.2919 132.906 17.2902 132.789C17.2779 132.59 17.2846 132.398 17.3103 132.215C17.3426 132.029 17.3987 131.852 17.4785 131.685C17.5298 131.601 17.5919 131.524 17.665 131.454C17.7353 131.378 17.8117 131.307 17.8942 131.241C18.1603 131.012 18.448 130.845 18.7576 130.74C19.0671 130.635 19.3775 130.588 19.6886 130.6C20.0038 130.602 20.3088 130.655 20.6038 130.76C20.8989 130.865 21.1629 131.018 21.396 131.219C21.6264 131.414 21.8163 131.653 21.9657 131.936C22.1152 132.22 22.2005 132.538 22.2217 132.89C21.9964 133.047 21.7605 133.169 21.5139 133.256C21.2713 133.333 21.0131 133.401 20.7393 133.461C20.6662 133.342 20.5929 133.203 20.5193 133.046C20.4524 132.885 20.3743 132.745 20.2851 132.625C20.193 132.498 20.0821 132.411 19.9521 132.363C19.8289 132.312 19.6716 132.331 19.4803 132.418C19.3989 132.468 19.3122 132.524 19.2201 132.586ZM22.8561 132.567C22.8433 132.423 22.8316 132.31 22.821 132.228C22.826 132.108 22.8634 131.99 22.9331 131.875C23.0095 131.757 23.1049 131.646 23.2192 131.544C23.3374 131.432 23.4693 131.334 23.6149 131.249C23.7671 131.162 23.9236 131.085 24.0842 131.018C24.2236 130.976 24.3522 130.926 24.4699 130.87C24.5914 130.803 24.7253 130.747 24.8714 130.702C25.0911 130.626 25.3134 130.585 25.5381 130.578C25.7601 130.564 25.9692 130.594 26.1655 130.67C26.2843 130.691 26.3984 130.757 26.5077 130.869C26.617 130.98 26.7227 131.121 26.8247 131.29C26.924 131.453 27.0216 131.64 27.1175 131.852C27.2106 132.056 27.3066 132.268 27.4053 132.486C27.4794 132.683 27.5614 132.908 27.6512 133.161C27.7477 133.411 27.8299 133.656 27.898 133.895C27.9727 134.13 28.0276 134.347 28.0628 134.545C28.1046 134.739 28.106 134.884 28.0669 134.979C28.0201 135.187 27.9169 135.363 27.7574 135.508C27.6046 135.65 27.4239 135.773 27.2153 135.876C27.0095 135.985 26.7887 136.077 26.5527 136.152C26.3196 136.233 26.1094 136.313 25.922 136.391C25.5556 136.473 25.2064 136.445 24.8746 136.309C24.627 136.223 24.4195 136.074 24.2522 135.861C24.0849 135.648 23.9402 135.414 23.8181 135.159C23.6932 134.896 23.5783 134.63 23.4734 134.36C23.3753 134.086 23.2702 133.843 23.1581 133.631C23.1079 133.51 23.0624 133.392 23.0217 133.275C22.9782 133.152 22.94 133.023 22.9071 132.887C22.8831 132.811 22.8661 132.704 22.8561 132.567ZM24.8187 132.527C24.6948 132.625 24.6117 132.746 24.5694 132.89C24.5404 132.933 24.5381 133.013 24.5627 133.128C24.6251 133.354 24.701 133.573 24.7902 133.787C24.8766 133.995 24.9619 134.219 25.0462 134.458C25.1036 134.615 25.1939 134.719 25.3172 134.77C25.4377 134.814 25.5651 134.827 25.6995 134.811C25.8378 134.784 25.9711 134.737 26.0994 134.668C26.2249 134.592 26.3213 134.512 26.3888 134.429C26.4803 134.328 26.5112 134.186 26.4817 134.002C26.4192 133.776 26.3501 133.554 26.2742 133.334C26.2023 133.105 26.1058 132.902 25.9848 132.724C25.8538 132.504 25.6856 132.374 25.4804 132.334C25.2751 132.293 25.0546 132.358 24.8187 132.527ZM28.973 127.25C28.949 127.173 28.9125 127.067 28.8634 126.93L28.8174 126.82C28.8146 126.813 28.8554 126.788 28.9396 126.745C29.0277 126.693 29.1353 126.64 29.2625 126.587C29.3935 126.525 29.5341 126.466 29.6841 126.411C29.8313 126.35 29.9627 126.307 30.0781 126.283L30.3542 126.945C30.8198 128.063 31.2966 129.16 31.7846 130.237C32.2726 131.314 32.7039 132.34 33.0787 133.315C32.8712 133.401 32.6451 133.499 32.4002 133.609C32.1582 133.726 31.9312 133.813 31.7193 133.869C31.707 133.859 31.6939 133.837 31.68 133.803C31.6521 133.736 31.6264 133.684 31.603 133.647C31.5863 133.607 31.5626 133.55 31.5319 133.476C31.5046 133.448 31.4781 133.432 31.4524 133.427C31.4307 133.412 31.4181 133.429 31.4148 133.478C31.398 133.72 31.3186 133.907 31.1763 134.037C31.0313 134.16 30.8596 134.247 30.661 134.299C30.2684 134.431 29.9268 134.459 29.6362 134.384C29.3429 134.302 29.085 134.154 28.8624 133.94C28.6438 133.717 28.4461 133.45 28.2693 133.139C28.0993 132.825 27.9412 132.502 27.795 132.17C27.6974 131.936 27.616 131.703 27.5508 131.471C27.4922 131.236 27.4554 131.016 27.4404 130.81C27.4292 130.595 27.4474 130.403 27.4948 130.234C27.5461 130.055 27.6342 129.909 27.7591 129.794C27.9119 129.651 28.0926 129.529 28.3012 129.426C28.5137 129.314 28.7212 129.228 28.9236 129.167C29.1233 129.1 29.2998 129.061 29.4532 129.052C29.6065 129.044 29.7025 129.066 29.7409 129.121C29.6032 128.809 29.4939 128.556 29.413 128.362C29.3322 128.168 29.268 128.014 29.2206 127.901C29.1704 127.78 29.1328 127.69 29.1077 127.629C29.0865 127.56 29.0648 127.498 29.0424 127.445C29.024 127.382 29.0009 127.317 28.973 127.25ZM28.9537 130.71C28.8433 130.897 28.8201 131.115 28.8842 131.363C28.8898 131.471 28.9102 131.576 28.9453 131.679C28.9804 131.782 29.0175 131.881 29.0566 131.975C29.1263 132.142 29.2147 132.297 29.3217 132.441C29.426 132.579 29.5448 132.694 29.6781 132.788C29.8086 132.875 29.9461 132.931 30.0905 132.958C30.235 132.984 30.3775 132.968 30.518 132.909C30.6853 132.839 30.8005 132.748 30.8635 132.635C30.9332 132.52 30.965 132.389 30.9589 132.242C30.9594 132.093 30.9268 131.93 30.861 131.753C30.7991 131.567 30.7235 131.366 30.6343 131.152C30.5256 130.891 30.4338 130.69 30.3591 130.548C30.2883 130.397 30.2161 130.29 30.1425 130.226C30.0688 130.163 29.9843 130.139 29.889 130.155C29.7975 130.162 29.6815 130.194 29.541 130.253C29.2666 130.367 29.0708 130.52 28.9537 130.71ZM34.2731 129.907C34.1231 129.962 34.0118 129.996 33.9393 130.011L34.0146 130.192C34.1049 130.39 34.1799 130.551 34.2396 130.675C34.306 130.797 34.4011 130.902 34.5249 130.992C34.6693 131.113 34.8305 131.179 35.0084 131.191C35.1863 131.204 35.3399 131.167 35.4693 131.082C35.5987 130.996 35.6824 130.867 35.7203 130.694C35.7621 130.512 35.7192 130.286 35.5915 130.018C35.6612 129.996 35.753 129.962 35.8667 129.915C35.9777 129.861 36.092 129.805 36.2097 129.748C36.3341 129.689 36.4545 129.638 36.5711 129.598C36.6849 129.55 36.7828 129.521 36.8647 129.511C36.9239 129.69 36.9816 129.867 37.0379 130.039C37.0942 130.212 37.143 130.377 37.1843 130.532C37.2228 130.681 37.2476 130.816 37.2587 130.937C37.2738 131.049 37.2662 131.134 37.2361 131.194C37.1893 131.402 37.0894 131.577 36.9366 131.719C36.7838 131.861 36.6031 131.984 36.3945 132.086C36.186 132.189 35.9651 132.281 35.732 132.362C35.5056 132.441 35.2986 132.519 35.1113 132.598C34.9127 132.649 34.7136 132.661 34.514 132.634C34.2803 132.582 34.0614 132.481 33.8573 132.331C33.6504 132.173 33.4599 131.99 33.2859 131.779C33.1091 131.562 32.9502 131.322 32.8091 131.059C32.668 130.796 32.547 130.524 32.4461 130.244C32.363 129.988 32.2841 129.742 32.2093 129.506C32.1385 129.261 32.0972 129.011 32.0855 128.757C32.0917 128.527 32.1572 128.307 32.2821 128.098C32.4043 127.882 32.5652 127.693 32.7648 127.531C32.9617 127.363 33.1859 127.222 33.4374 127.11C33.689 126.997 33.9477 126.921 34.2138 126.881C34.5439 126.806 34.8362 126.81 35.0905 126.892C35.3448 126.975 35.5662 127.11 35.7547 127.299C35.9499 127.485 36.1147 127.71 36.2491 127.976C36.3835 128.242 36.4992 128.52 36.5962 128.81C36.555 128.843 36.4702 128.894 36.3419 128.963C36.2203 129.029 36.072 129.107 35.8969 129.195C35.7284 129.281 35.5452 129.369 35.3472 129.46C35.1492 129.55 34.9566 129.634 34.7692 129.712C34.5885 129.788 34.4231 129.853 34.2731 129.907ZM34.8997 128.103C34.7826 128.01 34.6513 127.959 34.5057 127.949C34.4382 127.938 34.3749 127.937 34.3158 127.945C34.2539 127.948 34.1861 127.964 34.1125 127.995C33.9519 128.062 33.8284 128.133 33.7419 128.208C33.6555 128.283 33.5947 128.364 33.5595 128.449C33.5244 128.534 33.5068 128.624 33.5068 128.718C33.5135 128.81 33.5283 128.902 33.5512 128.994C33.5685 129.074 33.5841 129.13 33.598 129.163C33.6159 129.187 33.6577 129.194 33.7235 129.182C33.7865 129.163 33.8816 129.128 34.0088 129.075C34.1398 129.012 34.3325 128.928 34.5868 128.822C34.7608 128.75 34.8927 128.699 34.9825 128.669C35.0723 128.64 35.1339 128.618 35.1674 128.604C35.2048 128.58 35.2207 128.562 35.2151 128.549C35.2067 128.529 35.1914 128.492 35.1691 128.438C35.1133 128.304 35.0235 128.193 34.8997 128.103Z" fill="#7EB3CE"/>
<path d="M26.8748 142.038C26.8313 142.386 26.8079 142.726 26.8045 143.057L30.0059 145.906C29.8113 146.042 29.584 146.156 29.3241 146.249C29.0709 146.338 28.8359 146.425 28.6189 146.507C28.4115 146.405 28.2015 146.269 27.989 146.098C27.7737 145.921 27.559 145.735 27.3449 145.542C27.1374 145.345 26.9314 145.152 26.7267 144.963C26.522 144.773 26.3271 144.607 26.1419 144.464C26.2161 144.661 26.3006 144.873 26.3954 145.101C26.4941 145.319 26.5942 145.54 26.6957 145.765C26.7972 145.99 26.894 146.213 26.986 146.433C27.0847 146.652 27.1731 146.854 27.2512 147.042C27.1686 147.107 27.0652 147.17 26.9408 147.23C26.8192 147.296 26.6881 147.359 26.5476 147.417C26.4071 147.476 26.2671 147.526 26.1277 147.569C25.9949 147.608 25.8809 147.636 25.7855 147.652C25.2524 146.524 24.7613 145.373 24.3124 144.202C23.8674 143.02 23.3976 141.845 22.9029 140.677C23.121 140.578 23.3466 140.488 23.5797 140.407C23.8167 140.316 24.0423 140.226 24.2565 140.137C24.4288 140.513 24.5994 140.913 24.7684 141.337C24.9374 141.762 25.108 142.162 25.2803 142.538C25.2831 142.544 25.2851 142.54 25.2862 142.523C25.2912 142.498 25.2976 142.475 25.3054 142.456C25.3707 142.217 25.4198 141.977 25.4527 141.735C25.4856 141.494 25.5104 141.252 25.5272 141.009C25.5506 140.764 25.574 140.518 25.5974 140.273C25.6276 140.025 25.6711 139.771 25.728 139.512C25.9477 139.436 26.1752 139.341 26.4106 139.227C26.646 139.114 26.8777 139.029 27.1058 138.973C27.1426 139.288 27.1459 139.616 27.1158 139.959C27.0924 140.298 27.0555 140.643 27.0053 140.994C26.9618 141.342 26.9183 141.69 26.8748 142.038ZM28.9125 140.482C29.0693 140.425 29.2533 140.348 29.4647 140.252L29.6353 140.181L29.6479 140.211C29.9786 141.024 30.3062 141.857 30.6308 142.712C30.962 143.563 31.3198 144.384 31.704 145.175C31.6873 145.229 31.612 145.284 31.4781 145.339C31.3471 145.402 31.1998 145.463 31.0364 145.523C30.8825 145.588 30.7339 145.646 30.5905 145.697C30.4472 145.749 30.3549 145.792 30.3136 145.825C30.1714 145.389 30.0064 144.955 29.8184 144.523C29.6372 144.088 29.4506 143.659 29.2588 143.236C29.067 142.814 28.8846 142.395 28.7117 141.98C28.5361 141.558 28.3861 141.142 28.2617 140.73L28.2575 140.72C28.2815 140.702 28.325 140.684 28.388 140.666C28.4577 140.644 28.5093 140.627 28.5428 140.613C28.6326 140.583 28.7558 140.54 28.9125 140.482ZM27.6544 139.357C27.5518 139.149 27.4397 138.889 27.3181 138.578L28.6959 138.04C28.7127 138.08 28.7433 138.153 28.7879 138.26C28.8365 138.358 28.8872 138.47 28.9402 138.598C28.9971 138.715 29.0534 138.841 29.1092 138.975C29.1688 139.099 29.2196 139.212 29.2614 139.312C29.2514 139.363 29.1989 139.417 29.1041 139.472C29.016 139.524 28.905 139.578 28.7712 139.634C28.6412 139.68 28.5013 139.731 28.3512 139.786C28.1984 139.833 28.0598 139.887 27.9355 139.947C27.8546 139.753 27.7609 139.556 27.6544 139.357ZM32.2575 137.227C32.2335 137.151 32.197 137.044 32.1479 136.908L32.1019 136.797C32.0991 136.791 32.1398 136.766 32.224 136.723C32.3121 136.67 32.4198 136.618 32.5469 136.565C32.678 136.502 32.8185 136.444 32.9686 136.389C33.1158 136.328 33.2471 136.285 33.3626 136.26L33.6386 136.923C34.1043 138.04 34.5811 139.138 35.069 140.215C35.557 141.292 35.9884 142.318 36.3631 143.292C36.1557 143.379 35.9295 143.477 35.6847 143.587C35.4426 143.703 35.2156 143.79 35.0037 143.847C34.9914 143.836 34.9783 143.814 34.9644 143.781C34.9365 143.714 34.9109 143.662 34.8874 143.624C34.8707 143.584 34.847 143.527 34.8163 143.454C34.789 143.426 34.7625 143.409 34.7369 143.404C34.7151 143.39 34.7026 143.407 34.6992 143.455C34.6825 143.698 34.603 143.884 34.4608 144.014C34.3158 144.138 34.144 144.225 33.9455 144.276C33.5528 144.408 33.2112 144.437 32.9207 144.361C32.6273 144.279 32.3694 144.132 32.1469 143.918C31.9283 143.695 31.7306 143.428 31.5538 143.117C31.3837 142.803 31.2256 142.48 31.0795 142.148C30.9819 141.914 30.9005 141.681 30.8352 141.449C30.7767 141.214 30.7399 140.993 30.7248 140.788C30.7137 140.572 30.7318 140.38 30.7792 140.211C30.8305 140.033 30.9186 139.886 31.0436 139.771C31.1964 139.629 31.3771 139.507 31.5857 139.404C31.7982 139.292 32.0056 139.205 32.2081 139.145C32.4077 139.077 32.5842 139.039 32.7376 139.03C32.891 139.021 32.9869 139.044 33.0254 139.099C32.8876 138.787 32.7783 138.534 32.6975 138.34C32.6166 138.146 32.5525 137.992 32.5051 137.878C32.4549 137.758 32.4172 137.667 32.3921 137.607C32.371 137.537 32.3492 137.476 32.3269 137.422C32.3085 137.359 32.2853 137.294 32.2575 137.227ZM32.2381 140.687C32.1277 140.875 32.1046 141.092 32.1687 141.341C32.1743 141.448 32.1946 141.554 32.2298 141.657C32.2649 141.76 32.302 141.858 32.341 141.952C32.4107 142.119 32.4991 142.275 32.6062 142.419C32.7105 142.556 32.8293 142.672 32.9626 142.765C33.0931 142.852 33.2305 142.909 33.375 142.935C33.5194 142.961 33.6619 142.945 33.8024 142.887C33.9698 142.817 34.0849 142.726 34.1479 142.613C34.2177 142.498 34.2495 142.367 34.2433 142.22C34.2439 142.07 34.2113 141.907 34.1455 141.73C34.0836 141.544 34.008 141.344 33.9188 141.13C33.81 140.869 33.7183 140.668 33.6436 140.526C33.5727 140.375 33.5005 140.267 33.4269 140.204C33.3533 140.14 33.2688 140.116 33.1734 140.133C33.082 140.139 32.966 140.172 32.8254 140.231C32.551 140.345 32.3553 140.497 32.2381 140.687ZM39.0308 136.974C39.2845 137.206 39.4867 137.502 39.6373 137.864C39.437 137.986 39.2078 138.105 38.9496 138.221C38.6981 138.334 38.4488 138.414 38.2017 138.462C38.1883 138.373 38.1448 138.297 38.0712 138.233C38.0043 138.167 37.9215 138.119 37.8228 138.09C37.7307 138.057 37.6323 138.047 37.5275 138.059C37.4265 138.062 37.3339 138.085 37.2497 138.128C37.107 138.219 37.0149 138.328 36.9737 138.455C36.9363 138.573 36.9399 138.685 36.9845 138.792C37.0291 138.899 37.1139 138.99 37.2388 139.063C37.3638 139.137 37.5143 139.168 37.6906 139.158C38.0877 139.055 38.4697 138.982 38.8366 138.939C39.2008 138.89 39.5017 138.933 39.7393 139.07C39.9869 139.25 40.1804 139.46 40.3198 139.7C40.4565 139.934 40.5379 140.261 40.5641 140.682C40.5468 141.074 40.4035 141.409 40.1341 141.686C39.8647 141.963 39.5345 142.179 39.1436 142.334C38.8078 142.49 38.4874 142.588 38.1824 142.629C37.8773 142.669 37.5937 142.658 37.3316 142.594C37.0762 142.528 36.847 142.411 36.644 142.245C36.4477 142.075 36.2937 141.856 36.1822 141.589L36.1697 141.559L36.1613 141.539C36.371 141.42 36.6192 141.309 36.9058 141.205C37.1897 141.094 37.4354 140.996 37.6428 140.91C37.7137 141.061 37.8369 141.159 38.0126 141.203C38.1922 141.238 38.3631 141.234 38.5254 141.19C38.6849 141.139 38.8129 141.05 38.9094 140.924C39.0059 140.797 39.0103 140.638 38.9228 140.447C38.8759 140.278 38.7889 140.173 38.6618 140.132C38.5346 140.09 38.3857 140.082 38.2151 140.106C38.0416 140.123 37.8509 140.155 37.6429 140.203C37.4348 140.25 37.2204 140.273 36.9995 140.27C36.5718 140.299 36.2151 140.216 35.9296 140.021C35.648 139.816 35.4505 139.569 35.3373 139.278C35.228 138.978 35.2088 138.668 35.2796 138.348C35.3572 138.025 35.5418 137.752 35.8335 137.528C35.9467 137.442 36.0894 137.351 36.2618 137.255C36.4408 137.157 36.634 137.065 36.8415 136.979C37.049 136.892 37.262 136.819 37.4806 136.759C37.6965 136.693 37.8998 136.644 38.0905 136.611C38.4608 136.614 38.7742 136.735 39.0308 136.974Z" fill="#C95A6E"/>
<path d="M90.7056 149.519C87.9502 149.363 42.5611 168.019 41.4561 167.855C40.3512 167.691 31.9297 158.662 30.302 160.066C28.6744 161.472 38.5829 181.86 40.2412 182.198C41.8996 182.536 112.092 175.234 115.012 174.265C117.932 173.295 98.6627 149.968 90.7056 149.519Z" fill="#7EB3CE"/>
<path d="M104.042 96.9148C97.8796 99.7421 87.6167 115.619 83.9449 130.31C80.2732 145 81.1324 149.518 90.9899 157.092C103.989 167.081 104.279 172.318 111.439 173.874C120.408 175.823 126.258 173.66 129.988 170.574C137.087 164.699 131.236 117.581 123.624 104.374C118.9 96.1784 110.406 93.9955 104.042 96.9148Z" fill="#CDD14B"/>
<path d="M95.0739 106.196C93.4278 107.995 91.9776 109.969 90.6921 112.064C90.985 111.192 91.2387 110.308 91.4482 109.454C91.4641 109.388 91.364 109.346 91.3315 109.41C90.509 111.015 89.7345 112.838 89.264 114.583C85.013 122.631 82.9745 132.118 82.2737 140.751C82.2651 140.856 82.4358 140.87 82.4604 140.771C83.9756 134.552 84.9891 128.249 87.0516 122.161C88.987 116.45 91.7086 111.233 95.2802 106.342C95.3662 106.226 95.1703 106.09 95.0739 106.196Z" fill="#B2B238"/>
<path d="M115.469 92.0581C115.082 94.0002 113.264 98.196 111.008 101.866C108.663 105.67 105.845 108.9 103.64 108.46C101.51 108.042 100.965 104.829 100.971 101.679C100.967 98.4361 101.534 95.2631 101.534 95.2631L115.469 92.0581Z" fill="#FFB399"/>
<path d="M115.469 92.0581C115.082 94.0002 113.264 98.196 111.008 101.866C107.624 102.626 104.121 102.68 100.971 101.679C100.967 98.4361 101.534 95.2631 101.534 95.2631L115.469 92.0581Z" fill="#D29F5E"/>
<path d="M119.338 27.5804C136.468 42.1188 135.067 76.5504 125.332 87.8402C115.598 99.1301 78.8974 106.52 65.9866 90.0256C62.3486 85.3778 64.8743 75.1014 64.0703 71.9149C63.2669 68.7284 52.0341 39.8088 70.3229 27.519C88.0387 15.6143 110.494 20.0741 119.338 27.5804Z" fill="#FFB399"/>
<path d="M125.469 60.2291C114.963 60.3433 110.945 46.4953 111.712 40.1271C111.712 40.1271 99.3814 49.0068 96.7151 32.9476C96.7151 32.9476 95.3871 42.9365 90.81 43.5722C86.2329 44.2079 82.8817 35.3553 82.8817 35.3553C82.8817 35.3553 80.9937 49.6536 74.9437 49.5608C67.5749 49.4478 66.4743 35.2945 66.4743 35.2945C66.4743 35.2945 64.8908 47.4061 59.1338 47.2919C53.3768 47.1777 54.5659 29.9815 57.4355 25.413C60.3057 20.8445 66.8274 19.9778 66.8274 19.9778C66.8274 19.9778 77.2291 11.2591 92.02 8.56885C106.811 5.87859 118.993 9.29116 118.993 9.29116C118.993 9.29116 117.464 2.24 121.515 0.246876C125.566 -1.74563 123.034 8.97729 123.034 8.97729C123.034 8.97729 129.077 5.55245 130.655 7.81337C132.232 10.0743 124.9 11.3445 124.9 11.3445C124.9 11.3445 136.331 16.2054 139.326 22.1417C142.322 28.0781 136.705 63.5323 133.01 65.2521C129.314 66.9713 125.469 60.2291 125.469 60.2291Z" fill="#CB7F45"/>
<path d="M126.799 59.852C124.127 60.1959 121.594 60.2438 119.103 59.0369C116.883 57.9608 115.138 56.144 113.902 54.0305C111.081 49.2058 111.458 43.7424 111.861 38.395C111.87 38.2839 111.694 38.2624 111.667 38.3686C110.311 43.8861 110.43 50.3697 113.719 55.2122C116.462 59.2506 122.016 61.9329 126.839 60.1542C126.988 60.0989 126.983 59.8286 126.799 59.852Z" fill="#CB7F45"/>
<path d="M122.413 10.5283C118.04 8.12122 112.759 6.64343 107.835 5.98253C102.398 5.25285 96.9061 5.71351 91.568 6.90017C82.4764 8.92032 72.7472 12.8064 66.8238 20.3152C66.7771 20.3742 66.8557 20.4583 66.9085 20.4C73.3007 13.3377 82.3818 9.77468 91.49 7.72321C96.6592 6.55867 102.001 6.07098 107.278 6.69809C112.564 7.32581 117.291 9.14635 122.282 10.8397C122.465 10.9024 122.581 10.6211 122.413 10.5283Z" fill="#CB7F45"/>
<path d="M125.39 61.4759C125.39 61.4759 133.574 51.6036 139.224 54.8024C144.874 58.0013 144.353 69.9754 135.245 75.2428C129.851 78.3624 126.218 76.0874 126.218 76.0874L125.39 61.4759Z" fill="#FFB399"/>
<path d="M139.114 58.8667C139.222 58.8342 139.283 58.9914 139.176 59.0332C132.827 61.5158 131.133 68.2316 129.254 74.0494C129.195 74.2331 128.889 74.1717 128.886 73.9856C128.771 67.3109 132.557 60.8174 139.114 58.8667Z" fill="#D29F5E"/>
<path d="M81.1436 77.2881C83.2927 77.3016 84.3787 75.4141 84.6041 72.9517C84.8774 69.9618 83.4567 66.8274 82.2903 64.1451C82.216 63.9683 82.0551 64.1003 82.1153 64.279C83.1754 67.414 82.259 70.5023 80.7653 71.9856C79.9385 72.8025 78.9196 73.405 78.7193 74.6451C78.4755 76.1192 79.5706 77.2783 81.1436 77.2881Z" fill="#F49B9B"/>
<path d="M93.5789 79.2151C96.5007 80.029 99.7112 80.0142 102.29 78.1857C104.863 76.3615 105.624 73.4114 105.796 70.4202C105.801 70.3318 105.946 70.3238 105.954 70.4147C106.233 73.616 105.677 77.3811 102.913 79.4258C100.084 81.5184 95.7305 80.9663 93.4929 79.462C93.2761 79.3171 93.3246 79.1445 93.5789 79.2151Z" fill="#281608"/>
<path d="M92.9887 50.872C98.3121 48.9999 102.384 52.7472 103.319 54.932C103.652 55.712 103.158 55.9295 102.847 55.7268C101.31 54.7213 98.8145 53.2546 93.3541 53.8915C91.7689 54.0764 90.9839 51.5772 92.9887 50.872Z" fill="#FFFCF9"/>
<path d="M72.6773 52.7891C66.9117 52.8173 64.7687 57.3822 64.7073 59.0234C64.6759 59.8624 65.1304 59.8366 65.4136 59.6044C66.9411 58.3545 68.8348 56.2668 73.356 55.722C74.9247 55.5328 74.781 52.7787 72.6773 52.7891Z" fill="#FFFCF9"/>
<path d="M75.2883 69.9563C75.3215 72.3991 73.9463 74.3983 72.2166 74.4217C70.487 74.4456 69.0571 72.4844 69.024 70.0417C68.9902 67.599 70.366 65.5997 72.0956 65.5764C73.8253 65.553 75.2545 67.5136 75.2883 69.9563Z" fill="#281608"/>
<path d="M100.324 67.4974C100.457 69.9364 99.011 71.9983 97.0941 72.1027C95.1777 72.2072 93.5163 70.3142 93.3836 67.8751C93.251 65.4361 94.6968 63.3742 96.6138 63.2697C98.5301 63.1653 100.192 65.0583 100.324 67.4974Z" fill="#281608"/>
<path d="M122.344 116.185C120.181 128.933 111.529 139.466 105.147 144.427C99.7713 148.601 90.7424 149.825 84.5622 150.151C85.9276 147.613 81.4199 144.377 79.7732 143.305C83.9762 141.117 93.7244 134.31 96.5578 131.649C100.564 127.883 104.549 116.234 109.703 109.381C115.51 101.657 124.091 105.89 122.344 116.185Z" fill="#FFDAB6"/>
<path d="M89.8118 149.683C85.1751 150.397 80.13 151.053 80.13 151.053C80.13 151.053 78.4636 152.049 77.2149 152.654C75.9576 153.251 71.4346 152.151 70.8327 152.198C70.2227 152.253 65.4829 153.772 65.1536 152.924C65.0357 152.62 65.403 152.204 65.9196 151.812C65.0799 152.067 64.2815 152.239 64.1297 151.918C63.9701 151.606 64.1408 151.258 64.4841 150.908C63.7594 151.088 63.166 151.11 63.0389 150.739C62.8952 150.32 63.4099 149.754 64.123 149.203C63.7428 149.157 63.5186 148.961 63.5561 148.573C63.6863 147.425 67.3163 145.504 68.2874 145.173C69.2498 144.826 73.2508 144.742 73.2502 144.676C73.1839 144.61 69.5354 143.586 69.9015 142.914C70.7706 141.322 75.9902 142.803 77.8568 143.018C78.4016 143.08 81.238 142.389 83.8091 141.046C86.2316 142.626 91.8252 145.952 89.8118 149.683Z" fill="#FFDAB6"/>
<path d="M71.9905 148.011C69.353 148.255 66.5148 149.181 64.4651 150.909C64.4461 150.925 64.4707 150.955 64.4915 150.943C66.9429 149.558 69.1982 148.539 72.007 148.133C72.0758 148.123 72.0605 148.004 71.9905 148.011Z" fill="#D29F5E"/>
<path d="M71.824 149.628C69.7873 149.838 67.5417 150.549 65.8858 151.786C65.844 151.817 65.879 151.879 65.927 151.857C67.8937 150.922 69.6939 150.157 71.8338 149.704C71.8756 149.694 71.8676 149.623 71.824 149.628Z" fill="#D29F5E"/>
<path d="M70.6834 146.533C68.3297 146.544 65.8612 147.324 64.2194 149.086C64.2053 149.101 64.2237 149.128 64.2428 149.116C66.2764 147.82 68.2456 146.866 70.6834 146.638C70.7497 146.632 70.7528 146.532 70.6834 146.533Z" fill="#D29F5E"/>
<path d="M80.4543 140.113C79.7025 141.876 83.7754 154.474 87.7137 153.395C91.6263 152.323 106.131 148.578 109.639 145.365C113.146 142.152 122.478 126.072 123.622 119.541C125.254 110.225 121.513 102.345 114.313 104.811C106.484 107.492 99.931 125.758 97.5712 128.808C95.2114 131.857 81.66 137.284 80.4543 140.113Z" fill="#CDD14B"/>
<path d="M105.903 113.712C105.975 113.551 105.767 113.424 105.665 113.573C104.106 115.846 102.907 118.414 101.663 120.868C100.42 123.319 99.0011 125.726 97.8882 128.236C97.3735 128.601 96.9576 129.072 96.7212 129.689C95.669 130.012 94.6359 130.485 93.5911 131.091C90.3094 132.994 86.9429 134.963 83.8817 137.204C83.8208 137.248 83.8927 137.334 83.9548 137.306C87.0277 135.88 89.9562 134.069 92.8995 132.394C94.2797 131.609 95.6739 130.78 97.2015 130.313C98.9071 129.792 100.61 129.905 102.359 129.818C102.547 129.809 102.634 129.511 102.42 129.465C100.677 129.091 99.084 129.124 97.5448 129.476C98.0276 128.943 98.538 128.482 99.2787 128.198C100.304 127.805 101.422 127.697 102.454 127.317C102.613 127.259 102.605 126.989 102.411 127.001C101.255 127.077 99.7879 127.26 98.6031 127.819C100.067 125.926 101.126 123.678 102.162 121.544C103.423 118.948 104.719 116.342 105.903 113.712Z" fill="#B2B238"/>
<path d="M123.146 127.268C121.164 129.499 119.712 132.2 118.154 134.732C116.31 137.729 111.402 143.514 108.294 145.357C102.213 148.964 93.2969 150.883 86.7599 153.396C86.6794 153.426 86.7114 153.534 86.7949 153.523C90.4826 153.006 95.9024 151.434 99.3752 150.124C102.575 148.916 106.05 147.681 108.958 145.862C111.505 144.268 116.143 139.171 117.695 136.68C118.05 136.112 118.4 135.541 118.753 134.971C120.087 133.968 121.301 132.727 122.533 131.605C122.628 131.519 122.502 131.348 122.395 131.425C121.474 132.079 120.51 132.779 119.634 133.548C120.886 131.518 122.137 129.487 123.398 127.464C123.494 127.311 123.269 127.131 123.146 127.268Z" fill="#B2B238"/>
<path d="M120.332 111.454C117.285 108.788 111.59 107.013 108.347 110.301C108.308 110.34 108.362 110.403 108.404 110.365C112.069 107.088 117.915 109.334 120.901 112.448C124.005 115.685 124.833 120.376 124.116 124.684C124.107 124.738 124.198 124.757 124.211 124.703C125.349 119.94 124.105 114.753 120.332 111.454Z" fill="#B2B238"/>
<path d="M55.7483 118.414C53.5488 117.84 51.1503 117.211 49.4692 117.369C47.7887 117.528 45.3908 118.51 45.8742 119.453C46.3576 120.395 50.5575 120.751 50.9021 121C51.2473 121.25 53.593 126.605 57.508 126.385C61.4236 126.165 57.6167 118.903 55.7483 118.414Z" fill="#FFDAB6"/>
<path d="M59.1227 125.377C55.5259 126.033 53.0991 124.466 51.7227 121.239C51.7264 121.201 51.711 121.169 51.6803 121.144C51.6736 121.128 51.6662 121.113 51.6594 121.097C51.6342 121.035 49.7855 120.73 48.9053 120.613C48.8832 120.61 48.8807 120.645 48.9004 120.651C49.7744 120.93 50.6595 121.142 51.5519 121.354C52.1084 124.724 56.0603 126.793 59.2044 125.672C59.3911 125.606 59.3168 125.341 59.1227 125.377Z" fill="#D29F5E"/>
</svg>
