<svg width="16" height="14" viewBox="0 0 16 14" fill="none" xmlns="http://www.w3.org/2000/svg">
<path d="M6.292 0C7.05467 0 7.62667 0.205333 8.008 0.616C8.38933 0.997333 8.56533 1.496 8.536 2.112C8.50667 2.552 8.404 3.00667 8.228 3.476C8.08133 3.916 7.90533 4.4 7.7 4.928C7.524 5.42667 7.348 5.96933 7.172 6.556C7.02533 7.11333 6.952 7.71467 6.952 8.36C6.952 9.62133 6.644 10.7213 6.028 11.66C5.44133 12.5693 4.576 13.024 3.432 13.024C2.87467 13.024 2.376 12.9067 1.936 12.672C1.496 12.408 1.12933 12.0707 0.836 11.66C0.572 11.2493 0.366667 10.78 0.22 10.252C0.0733334 9.69467 0 9.12267 0 8.536C0 7.744 0.146667 6.864 0.44 5.896C0.733333 4.89867 1.144 3.96 1.672 3.08C2.22933 2.2 2.88933 1.46667 3.652 0.879999C4.444 0.293333 5.324 0 6.292 0ZM13.684 0C14.4467 0 15.0187 0.205333 15.4 0.616C15.7813 0.997333 15.9573 1.496 15.928 2.112C15.8987 2.552 15.796 3.00667 15.62 3.476C15.4733 3.916 15.2973 4.4 15.092 4.928C14.916 5.42667 14.74 5.96933 14.564 6.556C14.4173 7.11333 14.344 7.71467 14.344 8.36C14.344 9.62133 14.036 10.7213 13.42 11.66C12.8333 12.5693 11.968 13.024 10.824 13.024C10.2667 13.024 9.768 12.9067 9.328 12.672C8.888 12.408 8.52133 12.0707 8.228 11.66C7.964 11.2493 7.75867 10.78 7.612 10.252C7.46533 9.69467 7.392 9.12267 7.392 8.536C7.392 7.744 7.53867 6.864 7.832 5.896C8.12533 4.89867 8.536 3.96 9.064 3.08C9.62133 2.2 10.2813 1.46667 11.044 0.879999C11.836 0.293333 12.716 0 13.684 0Z" fill="#365CA7"/>
</svg>
